%TF.GenerationSoftware,KiCad,Pcbnew,9.0.0-9.0.0-2~ubuntu24.10.1*%
%TF.CreationDate,2025-03-15T08:42:32-04:00*%
%TF.ProjectId,fat8,66617438-2e6b-4696-9361-645f70636258,rev?*%
%TF.SameCoordinates,Original*%
%TF.FileFunction,Copper,L2,Bot*%
%TF.FilePolarity,Positive*%
%FSLAX46Y46*%
G04 Gerber Fmt 4.6, Leading zero omitted, Abs format (unit mm)*
G04 Created by KiCad (PCBNEW 9.0.0-9.0.0-2~ubuntu24.10.1) date 2025-03-15 08:42:32*
%MOMM*%
%LPD*%
G01*
G04 APERTURE LIST*
%TA.AperFunction,ComponentPad*%
%ADD10R,1.600000X1.600000*%
%TD*%
%TA.AperFunction,ComponentPad*%
%ADD11O,1.600000X1.600000*%
%TD*%
%TA.AperFunction,SMDPad,CuDef*%
%ADD12R,1.000000X0.900000*%
%TD*%
%TA.AperFunction,ViaPad*%
%ADD13C,0.600000*%
%TD*%
%TA.AperFunction,Conductor*%
%ADD14C,0.228600*%
%TD*%
%TA.AperFunction,Conductor*%
%ADD15C,0.152400*%
%TD*%
%ADD16C,0.300000*%
%ADD17C,0.350000*%
G04 APERTURE END LIST*
D10*
%TO.P,U1,1,VDD*%
%TO.N,-9V*%
X104902000Y-57658000D03*
D11*
%TO.P,U1,2,D7*%
%TO.N,/D7*%
X102362000Y-57658000D03*
%TO.P,U1,3,D6*%
%TO.N,/D6*%
X99822000Y-57658000D03*
%TO.P,U1,4,D5*%
%TO.N,/D5*%
X97282000Y-57658000D03*
%TO.P,U1,5,D4*%
%TO.N,/D4*%
X94742000Y-57658000D03*
%TO.P,U1,6,D3*%
%TO.N,/D3*%
X92202000Y-57658000D03*
%TO.P,U1,7,D2*%
%TO.N,/D2*%
X89662000Y-57658000D03*
%TO.P,U1,8,D1*%
%TO.N,/D1*%
X87122000Y-57658000D03*
%TO.P,U1,9,D0*%
%TO.N,/D0*%
X84582000Y-57658000D03*
%TO.P,U1,10,VCC*%
%TO.N,5V*%
X84582000Y-50038000D03*
%TO.P,U1,11,S2*%
%TO.N,/S2*%
X87122000Y-50038000D03*
%TO.P,U1,12,S1*%
%TO.N,/S1*%
X89662000Y-50038000D03*
%TO.P,U1,13,S0*%
%TO.N,/S0*%
X92202000Y-50038000D03*
%TO.P,U1,14,SYNC*%
%TO.N,/SYNC*%
X94742000Y-50038000D03*
%TO.P,U1,15,\u00F82*%
%TO.N,/Ph2*%
X97282000Y-50038000D03*
%TO.P,U1,16,\u00F81*%
%TO.N,/Ph1*%
X99822000Y-50038000D03*
%TO.P,U1,17,READY*%
%TO.N,/RDY*%
X102362000Y-50038000D03*
%TO.P,U1,18,INT*%
%TO.N,/INT*%
X104902000Y-50038000D03*
%TD*%
D12*
%TO.P,SW1,1,1*%
%TO.N,GND*%
X76670000Y-52560000D03*
X76670000Y-56660000D03*
%TO.P,SW1,2,2*%
%TO.N,/RST*%
X78270000Y-52560000D03*
X78270000Y-56660000D03*
%TD*%
D13*
%TO.N,GND*%
X70231000Y-63627000D03*
X98933000Y-65659000D03*
X85852000Y-74168000D03*
X67565600Y-58547000D03*
X110998000Y-47752000D03*
X89916000Y-67183000D03*
X112776000Y-49403000D03*
X129413000Y-74422000D03*
X126365000Y-64643000D03*
X94869000Y-43688000D03*
X71247000Y-43688000D03*
X78354000Y-70637600D03*
X100907500Y-69504400D03*
X96139000Y-83185000D03*
X67571500Y-71641300D03*
X89916000Y-70993000D03*
X87757000Y-65659000D03*
X129413000Y-69088000D03*
X94051300Y-70374400D03*
X82155500Y-60813500D03*
X83312000Y-43815000D03*
X120777000Y-72390000D03*
X79756000Y-48006000D03*
X77089000Y-48006000D03*
X60960000Y-51943000D03*
X60960000Y-80264000D03*
X92075000Y-74168000D03*
X60960000Y-68707000D03*
%TO.N,Net-(J1-SWCLK{slash}TCK)*%
X71542700Y-72091200D03*
X96492500Y-71620000D03*
%TO.N,Net-(J1-NC{slash}TDI)*%
X78768300Y-66620000D03*
X70921500Y-73428800D03*
%TO.N,Net-(J1-SWO{slash}TDO)*%
X82192400Y-72643500D03*
X85436100Y-66503300D03*
X93705300Y-66482800D03*
X71881000Y-73291300D03*
%TO.N,/D0*%
X103307500Y-68948600D03*
X78643600Y-53517500D03*
X78431700Y-68373200D03*
X77027000Y-62876900D03*
X67276400Y-48196000D03*
%TO.N,/INT*%
X94246900Y-63024800D03*
%TO.N,/D5*%
X67839400Y-55294500D03*
X90326400Y-60980600D03*
X107685900Y-75538100D03*
%TO.N,/D1*%
X67362800Y-49379600D03*
X85975000Y-55425500D03*
X81009500Y-63186400D03*
X107442200Y-66475800D03*
%TO.N,/S2*%
X78759800Y-67615200D03*
%TO.N,/Ph2*%
X85630000Y-62255800D03*
X87510900Y-60443800D03*
%TO.N,/SYNC*%
X89416700Y-59356900D03*
X84672600Y-62200500D03*
%TO.N,/D6*%
X109347000Y-75559800D03*
X67299900Y-55836100D03*
X91387900Y-62237900D03*
%TO.N,/D2*%
X89613300Y-51863800D03*
X67882900Y-50265100D03*
X106186500Y-66470800D03*
X82630000Y-64653600D03*
%TO.N,/D7*%
X67276900Y-57044400D03*
X104671900Y-78105200D03*
%TO.N,/D4*%
X106393100Y-75551200D03*
X93418100Y-52395600D03*
X67298100Y-53213200D03*
X85130000Y-64653600D03*
%TO.N,/D3*%
X83630000Y-64653600D03*
X90432200Y-54467300D03*
X104766800Y-76269800D03*
X67865400Y-54034100D03*
%TO.N,/USB_CLK*%
X103004400Y-61973500D03*
X88417600Y-61971900D03*
%TO.N,/GP3*%
X119885000Y-50992000D03*
X102064100Y-61401100D03*
X89130000Y-61437200D03*
%TO.N,/RxD*%
X101939800Y-66579100D03*
X109558000Y-59073500D03*
%TO.N,/TxD*%
X96488900Y-66579100D03*
X122894300Y-47024200D03*
%TO.N,/GP2*%
X96918000Y-64887700D03*
X119882800Y-46044200D03*
%TO.N,/PI3*%
X78495000Y-71425200D03*
X75239200Y-71425200D03*
X71174100Y-51022000D03*
%TO.N,/PO3*%
X68355700Y-66694700D03*
X71180100Y-54856100D03*
X81167100Y-73120000D03*
%TO.N,/PO1*%
X71169000Y-52695700D03*
X72469300Y-61254500D03*
X81680700Y-69253300D03*
%TO.N,/RST*%
X78753400Y-69120000D03*
X79240900Y-52612500D03*
%TO.N,/PO2*%
X68350900Y-68377500D03*
X78774300Y-72761000D03*
%TO.N,/PI2*%
X81168800Y-67771900D03*
X75584400Y-62621000D03*
X71191500Y-50267800D03*
%TO.N,/ST3*%
X65783100Y-68853300D03*
X72669400Y-74714600D03*
%TO.N,Net-(JP2-A)*%
X126521300Y-47178200D03*
X106354200Y-59959800D03*
%TO.N,5V*%
X110391200Y-57571300D03*
X123256600Y-75830400D03*
X115065500Y-63285700D03*
X67564000Y-47117000D03*
X90662600Y-69620000D03*
X67233600Y-69847100D03*
X111597100Y-62908400D03*
X117979600Y-61835200D03*
X90662600Y-76911600D03*
%TD*%
D14*
%TO.N,GND*%
X82155500Y-60813500D02*
X79889000Y-58547000D01*
X78354000Y-70637600D02*
X78617200Y-70374400D01*
X76670000Y-56660000D02*
X76670000Y-58547000D01*
X68575200Y-70637600D02*
X67571500Y-71641300D01*
X76670000Y-58547000D02*
X67565600Y-58547000D01*
X76670000Y-52560000D02*
X76670000Y-56660000D01*
X100037500Y-70374400D02*
X100907500Y-69504400D01*
X79889000Y-58547000D02*
X76670000Y-58547000D01*
X78617200Y-70374400D02*
X94051300Y-70374400D01*
X78354000Y-70637600D02*
X68575200Y-70637600D01*
X94051300Y-70374400D02*
X100037500Y-70374400D01*
D15*
%TO.N,Net-(J1-SWCLK{slash}TCK)*%
X96021300Y-72091200D02*
X71542700Y-72091200D01*
X96492500Y-71620000D02*
X96021300Y-72091200D01*
%TO.N,Net-(J1-NC{slash}TDI)*%
X66337000Y-71694800D02*
X68071000Y-73428800D01*
X68071000Y-73428800D02*
X70921500Y-73428800D01*
X69206100Y-66620000D02*
X66337000Y-69489100D01*
X66337000Y-69489100D02*
X66337000Y-71694800D01*
X78768300Y-66620000D02*
X69206100Y-66620000D01*
%TO.N,Net-(J1-SWO{slash}TDO)*%
X85436100Y-66503300D02*
X85456600Y-66482800D01*
X85456600Y-66482800D02*
X93705300Y-66482800D01*
X82129700Y-72580800D02*
X82192400Y-72643500D01*
X78994000Y-73291300D02*
X79704500Y-72580800D01*
X79704500Y-72580800D02*
X82129700Y-72580800D01*
X71881000Y-73291300D02*
X78994000Y-73291300D01*
%TO.N,/D0*%
X80426000Y-63005500D02*
X77155600Y-63005500D01*
X80426000Y-63005500D02*
X80426000Y-63821700D01*
X85552900Y-68948600D02*
X103307500Y-68948600D01*
X84582000Y-57658000D02*
X84582000Y-59173200D01*
X81026400Y-62405100D02*
X80426000Y-63005500D01*
X79411200Y-53517500D02*
X83551700Y-57658000D01*
X78643600Y-53517500D02*
X79411200Y-53517500D01*
X80426000Y-63821700D02*
X85552900Y-68948600D01*
X77155600Y-63005500D02*
X77027000Y-62876900D01*
X84582000Y-57658000D02*
X83551700Y-57658000D01*
X84582000Y-59173200D02*
X81350100Y-62405100D01*
X81350100Y-62405100D02*
X81026400Y-62405100D01*
%TO.N,/INT*%
X104902000Y-51068300D02*
X103846300Y-52124000D01*
X103846300Y-52124000D02*
X103846300Y-61881700D01*
X103846300Y-61881700D02*
X102703200Y-63024800D01*
X104902000Y-50038000D02*
X104902000Y-51068300D01*
X102703200Y-63024800D02*
X94246900Y-63024800D01*
%TO.N,/D5*%
X90326400Y-60980600D02*
X90251900Y-60906100D01*
X108666300Y-74557700D02*
X107685900Y-75538100D01*
X107994700Y-65294600D02*
X108666300Y-65966200D01*
X90251900Y-60906100D02*
X88665600Y-60906100D01*
X67839400Y-55294500D02*
X69871900Y-55294500D01*
X91948400Y-63288300D02*
X96076200Y-67416100D01*
X87849600Y-62209800D02*
X88928100Y-63288300D01*
X72082200Y-53995800D02*
X74546400Y-51531600D01*
X95922600Y-56298600D02*
X97282000Y-57658000D01*
X84386200Y-56298600D02*
X95922600Y-56298600D01*
X87849600Y-61722100D02*
X87849600Y-62209800D01*
X102290500Y-67416100D02*
X104412000Y-65294600D01*
X79619200Y-51531600D02*
X84386200Y-56298600D01*
X88665600Y-60906100D02*
X87849600Y-61722100D01*
X104412000Y-65294600D02*
X107994700Y-65294600D01*
X71170600Y-53995800D02*
X72082200Y-53995800D01*
X74546400Y-51531600D02*
X79619200Y-51531600D01*
X69871900Y-55294500D02*
X71170600Y-53995800D01*
X108666300Y-65966200D02*
X108666300Y-74557700D01*
X88928100Y-63288300D02*
X91948400Y-63288300D01*
X96076200Y-67416100D02*
X102290500Y-67416100D01*
%TO.N,/D1*%
X93970200Y-52597700D02*
X93970200Y-52067800D01*
X81324000Y-63186400D02*
X81009500Y-63186400D01*
X87122000Y-57658000D02*
X86091700Y-57658000D01*
X93970200Y-52067800D02*
X92996100Y-51093700D01*
X92996100Y-51093700D02*
X83630500Y-51093700D01*
X85975000Y-55425500D02*
X91142400Y-55425500D01*
X85751500Y-68642100D02*
X102798500Y-68642100D01*
X81916400Y-49379600D02*
X67362800Y-49379600D01*
X91142400Y-55425500D02*
X93970200Y-52597700D01*
X86091700Y-58418700D02*
X81324000Y-63186400D01*
X103718000Y-67722600D02*
X106195400Y-67722600D01*
X81324000Y-64214600D02*
X85751500Y-68642100D01*
X102798500Y-68642100D02*
X103718000Y-67722600D01*
X86091700Y-57658000D02*
X86091700Y-58418700D01*
X106195400Y-67722600D02*
X107442200Y-66475800D01*
X81324000Y-63186400D02*
X81324000Y-64214600D01*
X83630500Y-51093700D02*
X81916400Y-49379600D01*
%TO.N,/Ph2*%
X85630000Y-62255800D02*
X87442000Y-60443800D01*
X87442000Y-60443800D02*
X87510900Y-60443800D01*
%TO.N,/SYNC*%
X87516200Y-59356900D02*
X89416700Y-59356900D01*
X84672600Y-62200500D02*
X87516200Y-59356900D01*
%TO.N,/D6*%
X70656100Y-52165300D02*
X73180400Y-52165300D01*
X109347000Y-66144500D02*
X109347000Y-75559800D01*
X84660300Y-55969900D02*
X97103600Y-55969900D01*
X99822000Y-57658000D02*
X98791700Y-57658000D01*
X67299900Y-55836100D02*
X67299900Y-55036500D01*
X67572300Y-54764100D02*
X68057300Y-54764100D01*
X74120600Y-51225100D02*
X79915500Y-51225100D01*
X68057300Y-54764100D02*
X70656100Y-52165300D01*
X108146200Y-64943700D02*
X109347000Y-66144500D01*
X97103600Y-55969900D02*
X98791700Y-57658000D01*
X104329300Y-64943700D02*
X108146200Y-64943700D01*
X102163400Y-67109600D02*
X104329300Y-64943700D01*
X96259600Y-67109600D02*
X102163400Y-67109600D01*
X73180400Y-52165300D02*
X74120600Y-51225100D01*
X91387900Y-62237900D02*
X96259600Y-67109600D01*
X79915500Y-51225100D02*
X84660300Y-55969900D01*
X67299900Y-55036500D02*
X67572300Y-54764100D01*
%TO.N,/D2*%
X83578700Y-51863800D02*
X89613300Y-51863800D01*
X88733800Y-57658000D02*
X87703500Y-58688300D01*
X104536300Y-66470800D02*
X106186500Y-66470800D01*
X68437100Y-49710900D02*
X81425800Y-49710900D01*
X102671500Y-68335600D02*
X104536300Y-66470800D01*
X87419900Y-58688300D02*
X82630000Y-63478200D01*
X82630000Y-63478200D02*
X82630000Y-64653600D01*
X81425800Y-49710900D02*
X83578700Y-51863800D01*
X82630000Y-64978700D02*
X85986900Y-68335600D01*
X89662000Y-57658000D02*
X88733800Y-57658000D01*
X85986900Y-68335600D02*
X102671500Y-68335600D01*
X67882900Y-50265100D02*
X68437100Y-49710900D01*
X82630000Y-64653600D02*
X82630000Y-64978700D01*
X87703500Y-58688300D02*
X87419900Y-58688300D01*
%TO.N,/D7*%
X96012000Y-57398500D02*
X96012000Y-57860000D01*
X79492200Y-51838100D02*
X84281800Y-56627700D01*
X96882400Y-58730400D02*
X100259300Y-58730400D01*
X67276900Y-57044400D02*
X70119900Y-57044400D01*
X102362000Y-57658000D02*
X101331700Y-57658000D01*
X75326200Y-51838100D02*
X79492200Y-51838100D01*
X71446900Y-78105200D02*
X104671900Y-78105200D01*
X70119900Y-57044400D02*
X75326200Y-51838100D01*
X95241200Y-56627700D02*
X96012000Y-57398500D01*
X100259300Y-58730400D02*
X101331700Y-57658000D01*
X96012000Y-57860000D02*
X96882400Y-58730400D01*
X84281800Y-56627700D02*
X95241200Y-56627700D01*
X65250500Y-71908800D02*
X71446900Y-78105200D01*
X65250500Y-59070800D02*
X65250500Y-71908800D01*
X67276900Y-57044400D02*
X65250500Y-59070800D01*
%TO.N,/D4*%
X72333900Y-50612200D02*
X72333900Y-50612100D01*
X94742000Y-57658000D02*
X93711700Y-57658000D01*
X107876200Y-65611100D02*
X108324200Y-66059100D01*
X102417500Y-67722600D02*
X104529000Y-65611100D01*
X67298100Y-53213200D02*
X68959000Y-51552300D01*
X108324200Y-66059100D02*
X108324200Y-73620100D01*
X82410700Y-52395600D02*
X93418100Y-52395600D01*
X80627200Y-50612100D02*
X82410700Y-52395600D01*
X85130000Y-64653600D02*
X92626200Y-64653600D01*
X72333900Y-50612100D02*
X80627200Y-50612100D01*
X68959000Y-51552300D02*
X71393800Y-51552300D01*
X71393800Y-51552300D02*
X72333900Y-50612200D01*
X87435200Y-62348400D02*
X85130000Y-64653600D01*
X104529000Y-65611100D02*
X107876200Y-65611100D01*
X95695200Y-67722600D02*
X102417500Y-67722600D01*
X91119000Y-60250700D02*
X88887500Y-60250700D01*
X93711700Y-57658000D02*
X91119000Y-60250700D01*
X87435200Y-61703000D02*
X87435200Y-62348400D01*
X88887500Y-60250700D02*
X87435200Y-61703000D01*
X92626200Y-64653600D02*
X95695200Y-67722600D01*
X108324200Y-73620100D02*
X106393100Y-75551200D01*
%TO.N,/D3*%
X86166900Y-68029100D02*
X102544500Y-68029100D01*
X91686900Y-57658000D02*
X91686900Y-57851500D01*
X85167600Y-63537100D02*
X85167600Y-63537200D01*
X89636500Y-59901900D02*
X88802800Y-59901900D01*
X85104200Y-63537200D02*
X83987800Y-64653600D01*
X83987800Y-64653600D02*
X83630000Y-64653600D01*
X108001700Y-73034900D02*
X104766800Y-76269800D01*
X91686900Y-57851500D02*
X89636500Y-59901900D01*
X108001700Y-66243200D02*
X108001700Y-73034900D01*
X83987800Y-65850000D02*
X86166900Y-68029100D01*
X88802800Y-59901900D02*
X85167600Y-63537100D01*
X102544500Y-68029100D02*
X104641300Y-65932300D01*
X83987800Y-64653600D02*
X83987800Y-65850000D01*
X104641300Y-65932300D02*
X107690800Y-65932300D01*
X80474800Y-50918600D02*
X84023500Y-54467300D01*
X72853600Y-50918600D02*
X80474800Y-50918600D01*
X67865400Y-54034100D02*
X70040700Y-51858800D01*
X84023500Y-54467300D02*
X90432200Y-54467300D01*
X107690800Y-65932300D02*
X108001700Y-66243200D01*
X70040700Y-51858800D02*
X71913400Y-51858800D01*
X92202000Y-57658000D02*
X91686900Y-57658000D01*
X71913400Y-51858800D02*
X72853600Y-50918600D01*
X85167600Y-63537200D02*
X85104200Y-63537200D01*
%TO.N,/USB_CLK*%
X103004400Y-61973500D02*
X91873500Y-61973500D01*
X91873500Y-61973500D02*
X91607600Y-61707600D01*
X90904000Y-61971900D02*
X88417600Y-61971900D01*
X91168300Y-61707600D02*
X90904000Y-61971900D01*
X91607600Y-61707600D02*
X91168300Y-61707600D01*
%TO.N,/GP3*%
X89228600Y-61535800D02*
X89130000Y-61437200D01*
X91041300Y-61401100D02*
X90906600Y-61535800D01*
X90906600Y-61535800D02*
X89228600Y-61535800D01*
X102064100Y-61401100D02*
X91041300Y-61401100D01*
%TO.N,/RxD*%
X102052400Y-66579100D02*
X101939800Y-66579100D01*
X109558000Y-59073500D02*
X102052400Y-66579100D01*
%TO.N,/TxD*%
X105803600Y-59688600D02*
X105803600Y-60791400D01*
X122894300Y-47024200D02*
X118468000Y-47024200D01*
X105803600Y-60791400D02*
X100015900Y-66579100D01*
X100015900Y-66579100D02*
X96488900Y-66579100D01*
X118468000Y-47024200D02*
X105803600Y-59688600D01*
%TO.N,/GP2*%
X119014500Y-46044200D02*
X104340300Y-60718400D01*
X104340300Y-60718400D02*
X104340300Y-61821200D01*
X119882800Y-46044200D02*
X119014500Y-46044200D01*
X104340300Y-61821200D02*
X101273800Y-64887700D01*
X101273800Y-64887700D02*
X96918000Y-64887700D01*
%TO.N,/PI3*%
X75239200Y-71425200D02*
X78495000Y-71425200D01*
%TO.N,/PO3*%
X68355700Y-67030700D02*
X68355700Y-66694700D01*
X66019100Y-71810400D02*
X66019100Y-69367300D01*
X66019100Y-69367300D02*
X68355700Y-67030700D01*
X81167100Y-73120000D02*
X80281500Y-74005600D01*
X68214300Y-74005600D02*
X66019100Y-71810400D01*
X80281500Y-74005600D02*
X68214300Y-74005600D01*
%TO.N,/PO1*%
X75794100Y-64579300D02*
X72469300Y-61254500D01*
X77542700Y-64579300D02*
X75794100Y-64579300D01*
X79502600Y-66539200D02*
X77542700Y-64579300D01*
X79502600Y-67075200D02*
X79502600Y-66539200D01*
X81680700Y-69253300D02*
X79502600Y-67075200D01*
%TO.N,/RST*%
X78270000Y-52560000D02*
X79000300Y-52560000D01*
X78113300Y-55823000D02*
X78270000Y-55979700D01*
X78270000Y-52560000D02*
X78113300Y-52716700D01*
X78113300Y-52716700D02*
X78113300Y-55823000D01*
X79240900Y-52612500D02*
X79052800Y-52612500D01*
X78270000Y-56660000D02*
X78270000Y-55979700D01*
X79052800Y-52612500D02*
X79000300Y-52560000D01*
%TO.N,/PO2*%
X68350900Y-68377500D02*
X67904000Y-68377500D01*
X66648400Y-71572700D02*
X67836700Y-72761000D01*
X67836700Y-72761000D02*
X78774300Y-72761000D01*
X67904000Y-68377500D02*
X66648400Y-69633100D01*
X66648400Y-69633100D02*
X66648400Y-71572700D01*
%TO.N,/PI2*%
X81168800Y-67771900D02*
X76017900Y-62621000D01*
X76017900Y-62621000D02*
X75584400Y-62621000D01*
%TO.N,/ST3*%
X72669400Y-74714600D02*
X68489800Y-74714600D01*
X65668100Y-71892900D02*
X65668100Y-68968300D01*
X68489800Y-74714600D02*
X65668100Y-71892900D01*
X65668100Y-68968300D02*
X65783100Y-68853300D01*
%TO.N,Net-(JP2-A)*%
X106354200Y-59959800D02*
X118749400Y-47564600D01*
X126134900Y-47564600D02*
X126521300Y-47178200D01*
X118749400Y-47564600D02*
X126134900Y-47564600D01*
D14*
%TO.N,5V*%
X110391200Y-57571300D02*
X114655100Y-61835200D01*
X115065500Y-62908400D02*
X116906400Y-62908400D01*
X114655100Y-61835200D02*
X117979600Y-61835200D01*
X122175400Y-76911600D02*
X123256600Y-75830400D01*
X90435500Y-69847100D02*
X90662600Y-69620000D01*
X115065500Y-62908400D02*
X115065500Y-63285700D01*
X90662600Y-76911600D02*
X122175400Y-76911600D01*
X67233600Y-69847100D02*
X90435500Y-69847100D01*
X116906400Y-62908400D02*
X117979600Y-61835200D01*
X111597100Y-62908400D02*
X115065500Y-62908400D01*
%TD*%
%TA.AperFunction,Conductor*%
%TO.N,GND*%
G36*
X107344334Y-67491757D02*
G01*
X107400267Y-67533629D01*
X107424684Y-67599093D01*
X107425000Y-67607939D01*
X107425000Y-72744661D01*
X107405315Y-72811700D01*
X107388681Y-72832342D01*
X104788042Y-75432981D01*
X104726719Y-75466466D01*
X104700361Y-75469300D01*
X104687955Y-75469300D01*
X104533310Y-75500061D01*
X104533298Y-75500064D01*
X104387627Y-75560402D01*
X104387614Y-75560409D01*
X104256511Y-75648010D01*
X104256507Y-75648013D01*
X104145013Y-75759507D01*
X104145010Y-75759511D01*
X104057409Y-75890614D01*
X104057402Y-75890627D01*
X103997064Y-76036298D01*
X103997061Y-76036310D01*
X103965111Y-76196932D01*
X103962353Y-76196383D01*
X103940486Y-76250049D01*
X103883323Y-76290227D01*
X103843488Y-76296800D01*
X91220964Y-76296800D01*
X91153925Y-76277115D01*
X91152073Y-76275902D01*
X91041785Y-76202209D01*
X91041772Y-76202202D01*
X90896101Y-76141864D01*
X90896089Y-76141861D01*
X90741445Y-76111100D01*
X90741442Y-76111100D01*
X90583758Y-76111100D01*
X90583755Y-76111100D01*
X90429110Y-76141861D01*
X90429098Y-76141864D01*
X90283427Y-76202202D01*
X90283414Y-76202209D01*
X90152311Y-76289810D01*
X90152307Y-76289813D01*
X90040813Y-76401307D01*
X90040810Y-76401311D01*
X89953209Y-76532414D01*
X89953202Y-76532427D01*
X89892864Y-76678098D01*
X89892861Y-76678110D01*
X89862100Y-76832753D01*
X89862100Y-76990446D01*
X89892861Y-77145089D01*
X89892864Y-77145101D01*
X89953202Y-77290772D01*
X89953209Y-77290785D01*
X89983160Y-77335609D01*
X90004038Y-77402286D01*
X89985554Y-77469667D01*
X89933575Y-77516357D01*
X89880058Y-77528500D01*
X71737139Y-77528500D01*
X71670100Y-77508815D01*
X71649458Y-77492181D01*
X69660258Y-75502981D01*
X69626773Y-75441658D01*
X69631757Y-75371966D01*
X69673629Y-75316033D01*
X69739093Y-75291616D01*
X69747939Y-75291300D01*
X72062659Y-75291300D01*
X72129698Y-75310985D01*
X72150340Y-75327619D01*
X72159107Y-75336386D01*
X72159111Y-75336389D01*
X72290214Y-75423990D01*
X72290227Y-75423997D01*
X72392758Y-75466466D01*
X72435903Y-75484337D01*
X72590553Y-75515099D01*
X72590556Y-75515100D01*
X72590558Y-75515100D01*
X72748244Y-75515100D01*
X72748245Y-75515099D01*
X72902897Y-75484337D01*
X73048579Y-75423994D01*
X73179689Y-75336389D01*
X73291189Y-75224889D01*
X73378794Y-75093779D01*
X73439137Y-74948097D01*
X73469900Y-74793442D01*
X73469900Y-74706300D01*
X73489585Y-74639261D01*
X73542389Y-74593506D01*
X73593900Y-74582300D01*
X80357422Y-74582300D01*
X80357424Y-74582300D01*
X80504098Y-74542999D01*
X80635602Y-74467075D01*
X81145858Y-73956819D01*
X81207181Y-73923334D01*
X81233539Y-73920500D01*
X81245944Y-73920500D01*
X81245945Y-73920499D01*
X81400597Y-73889737D01*
X81546279Y-73829394D01*
X81677389Y-73741789D01*
X81788889Y-73630289D01*
X81876494Y-73499179D01*
X81876706Y-73498665D01*
X81876887Y-73498440D01*
X81879364Y-73493808D01*
X81880241Y-73494277D01*
X81920537Y-73444259D01*
X81986828Y-73422185D01*
X82015464Y-73424488D01*
X82113555Y-73444000D01*
X82113558Y-73444000D01*
X82271244Y-73444000D01*
X82271245Y-73443999D01*
X82425897Y-73413237D01*
X82571579Y-73352894D01*
X82702689Y-73265289D01*
X82814189Y-73153789D01*
X82901794Y-73022679D01*
X82962137Y-72876997D01*
X82965917Y-72857991D01*
X82983877Y-72767708D01*
X83016262Y-72705797D01*
X83076978Y-72671223D01*
X83105494Y-72667900D01*
X96097222Y-72667900D01*
X96097224Y-72667900D01*
X96243898Y-72628599D01*
X96375402Y-72552675D01*
X96471258Y-72456819D01*
X96532581Y-72423334D01*
X96558939Y-72420500D01*
X96571344Y-72420500D01*
X96571345Y-72420499D01*
X96725997Y-72389737D01*
X96871679Y-72329394D01*
X97002789Y-72241789D01*
X97114289Y-72130289D01*
X97201894Y-71999179D01*
X97262237Y-71853497D01*
X97293000Y-71698842D01*
X97293000Y-71541158D01*
X97293000Y-71541155D01*
X97292999Y-71541153D01*
X97278729Y-71469413D01*
X97262237Y-71386503D01*
X97260293Y-71381809D01*
X97201897Y-71240827D01*
X97201890Y-71240814D01*
X97114289Y-71109711D01*
X97114286Y-71109707D01*
X97002792Y-70998213D01*
X97002788Y-70998210D01*
X96871685Y-70910609D01*
X96871672Y-70910602D01*
X96726001Y-70850264D01*
X96725989Y-70850261D01*
X96571345Y-70819500D01*
X96571342Y-70819500D01*
X96413658Y-70819500D01*
X96413655Y-70819500D01*
X96259010Y-70850261D01*
X96258998Y-70850264D01*
X96113327Y-70910602D01*
X96113314Y-70910609D01*
X95982211Y-70998210D01*
X95982207Y-70998213D01*
X95870713Y-71109707D01*
X95870710Y-71109711D01*
X95783109Y-71240814D01*
X95783102Y-71240827D01*
X95722763Y-71386501D01*
X95722763Y-71386502D01*
X95721968Y-71390500D01*
X95717155Y-71414692D01*
X95684772Y-71476601D01*
X95624057Y-71511176D01*
X95595539Y-71514500D01*
X79419500Y-71514500D01*
X79352461Y-71494815D01*
X79306706Y-71442011D01*
X79295500Y-71390500D01*
X79295500Y-71346355D01*
X79295499Y-71346353D01*
X79264738Y-71191710D01*
X79264737Y-71191703D01*
X79230775Y-71109711D01*
X79204397Y-71046027D01*
X79204390Y-71046014D01*
X79116789Y-70914911D01*
X79116786Y-70914907D01*
X79005292Y-70803413D01*
X79005288Y-70803410D01*
X78874185Y-70715809D01*
X78874172Y-70715802D01*
X78837134Y-70700461D01*
X78782730Y-70656620D01*
X78760665Y-70590326D01*
X78777944Y-70522627D01*
X78829081Y-70475016D01*
X78884586Y-70461900D01*
X90496054Y-70461900D01*
X90496055Y-70461899D01*
X90614831Y-70438274D01*
X90634953Y-70429938D01*
X90682406Y-70420500D01*
X90741444Y-70420500D01*
X90741445Y-70420499D01*
X90896097Y-70389737D01*
X91041779Y-70329394D01*
X91172889Y-70241789D01*
X91284389Y-70130289D01*
X91371994Y-69999179D01*
X91432337Y-69853497D01*
X91463100Y-69698842D01*
X91463100Y-69649300D01*
X91482785Y-69582261D01*
X91535589Y-69536506D01*
X91587100Y-69525300D01*
X102700759Y-69525300D01*
X102767798Y-69544985D01*
X102788440Y-69561619D01*
X102797207Y-69570386D01*
X102797211Y-69570389D01*
X102928314Y-69657990D01*
X102928327Y-69657997D01*
X103026942Y-69698844D01*
X103074003Y-69718337D01*
X103228653Y-69749099D01*
X103228656Y-69749100D01*
X103228658Y-69749100D01*
X103386344Y-69749100D01*
X103386345Y-69749099D01*
X103540997Y-69718337D01*
X103686679Y-69657994D01*
X103817789Y-69570389D01*
X103929289Y-69458889D01*
X104016894Y-69327779D01*
X104077237Y-69182097D01*
X104108000Y-69027442D01*
X104108000Y-68869758D01*
X104108000Y-68869755D01*
X104107999Y-68869753D01*
X104085507Y-68756679D01*
X104077237Y-68715103D01*
X104042613Y-68631513D01*
X104016897Y-68569427D01*
X104016890Y-68569414D01*
X103965291Y-68492191D01*
X103944413Y-68425514D01*
X103962897Y-68358133D01*
X104014876Y-68311443D01*
X104068393Y-68299300D01*
X106271322Y-68299300D01*
X106271324Y-68299300D01*
X106417998Y-68259999D01*
X106549502Y-68184075D01*
X107213319Y-67520258D01*
X107274642Y-67486773D01*
X107344334Y-67491757D01*
G37*
%TD.AperFunction*%
%TA.AperFunction,Conductor*%
G36*
X74916653Y-70481585D02*
G01*
X74962408Y-70534389D01*
X74972352Y-70603547D01*
X74943327Y-70667103D01*
X74897066Y-70700461D01*
X74860027Y-70715802D01*
X74860014Y-70715809D01*
X74728911Y-70803410D01*
X74728907Y-70803413D01*
X74617413Y-70914907D01*
X74617410Y-70914911D01*
X74529809Y-71046014D01*
X74529802Y-71046027D01*
X74469464Y-71191698D01*
X74469461Y-71191710D01*
X74438700Y-71346353D01*
X74438700Y-71390500D01*
X74419015Y-71457539D01*
X74366211Y-71503294D01*
X74314700Y-71514500D01*
X72149441Y-71514500D01*
X72082402Y-71494815D01*
X72061760Y-71478181D01*
X72052992Y-71469413D01*
X72052988Y-71469410D01*
X71921885Y-71381809D01*
X71921872Y-71381802D01*
X71776201Y-71321464D01*
X71776189Y-71321461D01*
X71621545Y-71290700D01*
X71621542Y-71290700D01*
X71463858Y-71290700D01*
X71463855Y-71290700D01*
X71309210Y-71321461D01*
X71309198Y-71321464D01*
X71163527Y-71381802D01*
X71163514Y-71381809D01*
X71032411Y-71469410D01*
X71032407Y-71469413D01*
X70920913Y-71580907D01*
X70920910Y-71580911D01*
X70833309Y-71712014D01*
X70833302Y-71712027D01*
X70772964Y-71857698D01*
X70772961Y-71857710D01*
X70742200Y-72012353D01*
X70742200Y-72060300D01*
X70722515Y-72127339D01*
X70669711Y-72173094D01*
X70618200Y-72184300D01*
X68126939Y-72184300D01*
X68059900Y-72164615D01*
X68039258Y-72147981D01*
X67261419Y-71370142D01*
X67227934Y-71308819D01*
X67225100Y-71282461D01*
X67225100Y-70766737D01*
X67244785Y-70699698D01*
X67297589Y-70653943D01*
X67324907Y-70645120D01*
X67467097Y-70616837D01*
X67612779Y-70556494D01*
X67629170Y-70545542D01*
X67723073Y-70482798D01*
X67789750Y-70461920D01*
X67791964Y-70461900D01*
X74849614Y-70461900D01*
X74916653Y-70481585D01*
G37*
%TD.AperFunction*%
%TA.AperFunction,Conductor*%
G36*
X78116225Y-70465074D02*
G01*
X78127431Y-70463870D01*
X78149152Y-70474743D01*
X78172453Y-70481585D01*
X78179831Y-70490099D01*
X78189910Y-70495145D01*
X78202305Y-70516036D01*
X78218208Y-70534389D01*
X78219811Y-70545542D01*
X78225562Y-70555234D01*
X78224695Y-70579505D01*
X78228152Y-70603547D01*
X78223470Y-70613798D01*
X78223068Y-70625060D01*
X78209216Y-70645009D01*
X78199127Y-70667103D01*
X78188613Y-70674684D01*
X78183220Y-70682452D01*
X78152866Y-70700461D01*
X78115827Y-70715802D01*
X78115814Y-70715809D01*
X77984711Y-70803410D01*
X77984707Y-70803413D01*
X77975940Y-70812181D01*
X77914617Y-70845666D01*
X77888259Y-70848500D01*
X75845941Y-70848500D01*
X75778902Y-70828815D01*
X75758260Y-70812181D01*
X75749492Y-70803413D01*
X75749488Y-70803410D01*
X75618385Y-70715809D01*
X75618372Y-70715802D01*
X75581334Y-70700461D01*
X75526930Y-70656620D01*
X75504865Y-70590326D01*
X75522144Y-70522627D01*
X75573281Y-70475016D01*
X75628786Y-70461900D01*
X78105414Y-70461900D01*
X78116225Y-70465074D01*
G37*
%TD.AperFunction*%
%TA.AperFunction,Conductor*%
G36*
X76613039Y-52434485D02*
G01*
X76658794Y-52487289D01*
X76670000Y-52538800D01*
X76670000Y-52560000D01*
X76796000Y-52560000D01*
X76863039Y-52579685D01*
X76908794Y-52632489D01*
X76920000Y-52684000D01*
X76920000Y-53510000D01*
X77217828Y-53510000D01*
X77217844Y-53509999D01*
X77277372Y-53503598D01*
X77277376Y-53503597D01*
X77369266Y-53469324D01*
X77438957Y-53464340D01*
X77500281Y-53497824D01*
X77533766Y-53559147D01*
X77536600Y-53585506D01*
X77536600Y-55634492D01*
X77516915Y-55701531D01*
X77464111Y-55747286D01*
X77394953Y-55757230D01*
X77369268Y-55750674D01*
X77277383Y-55716403D01*
X77277372Y-55716401D01*
X77217844Y-55710000D01*
X76920000Y-55710000D01*
X76920000Y-57610000D01*
X77217828Y-57610000D01*
X77217844Y-57609999D01*
X77277372Y-57603598D01*
X77277376Y-57603597D01*
X77420398Y-57550253D01*
X77421076Y-57552070D01*
X77478306Y-57539615D01*
X77519032Y-57551572D01*
X77519359Y-57550697D01*
X77662517Y-57604091D01*
X77662516Y-57604091D01*
X77669444Y-57604835D01*
X77722127Y-57610500D01*
X78817872Y-57610499D01*
X78877483Y-57604091D01*
X79012331Y-57553796D01*
X79127546Y-57467546D01*
X79213796Y-57352331D01*
X79264091Y-57217483D01*
X79270500Y-57157873D01*
X79270499Y-56162128D01*
X79265299Y-56113757D01*
X79264091Y-56102516D01*
X79213797Y-55967671D01*
X79213793Y-55967664D01*
X79127547Y-55852455D01*
X79127544Y-55852452D01*
X79012335Y-55766206D01*
X79012328Y-55766202D01*
X78877483Y-55715908D01*
X78840035Y-55711882D01*
X78808087Y-55698648D01*
X78776102Y-55685637D01*
X78775782Y-55685266D01*
X78775485Y-55685143D01*
X78751888Y-55659959D01*
X78748687Y-55655410D01*
X78731475Y-55625598D01*
X78718750Y-55612873D01*
X78712595Y-55604127D01*
X78704655Y-55580768D01*
X78692834Y-55559119D01*
X78690768Y-55539912D01*
X78690110Y-55537974D01*
X78690424Y-55536708D01*
X78690000Y-55532761D01*
X78690000Y-54426217D01*
X78709685Y-54359178D01*
X78762489Y-54313423D01*
X78789809Y-54304600D01*
X78813474Y-54299892D01*
X78877097Y-54287237D01*
X79006099Y-54233803D01*
X79022772Y-54226897D01*
X79022772Y-54226896D01*
X79022779Y-54226894D01*
X79022784Y-54226890D01*
X79022787Y-54226889D01*
X79084276Y-54185803D01*
X79107354Y-54170382D01*
X79174030Y-54149504D01*
X79241411Y-54167988D01*
X79263926Y-54185803D01*
X83090225Y-58012102D01*
X83197598Y-58119475D01*
X83329102Y-58195399D01*
X83329101Y-58195399D01*
X83338829Y-58198005D01*
X83353517Y-58201940D01*
X83413178Y-58238303D01*
X83431912Y-58265421D01*
X83469715Y-58339614D01*
X83590028Y-58505213D01*
X83590034Y-58505219D01*
X83734781Y-58649966D01*
X83900390Y-58770287D01*
X83926487Y-58783584D01*
X83977282Y-58831556D01*
X83994078Y-58899377D01*
X83971541Y-58965512D01*
X83957873Y-58981749D01*
X81147542Y-61792081D01*
X81086219Y-61825566D01*
X81059861Y-61828400D01*
X80950476Y-61828400D01*
X80803802Y-61867701D01*
X80803801Y-61867701D01*
X80803799Y-61867702D01*
X80803798Y-61867702D01*
X80672301Y-61943622D01*
X80672295Y-61943627D01*
X80223442Y-62392481D01*
X80162119Y-62425966D01*
X80135761Y-62428800D01*
X77756622Y-62428800D01*
X77689583Y-62409115D01*
X77653520Y-62373691D01*
X77648789Y-62366610D01*
X77537292Y-62255113D01*
X77537288Y-62255110D01*
X77406185Y-62167509D01*
X77406172Y-62167502D01*
X77260501Y-62107164D01*
X77260489Y-62107161D01*
X77105845Y-62076400D01*
X77105842Y-62076400D01*
X76948158Y-62076400D01*
X76948155Y-62076400D01*
X76793510Y-62107161D01*
X76793498Y-62107164D01*
X76647827Y-62167502D01*
X76647816Y-62167508D01*
X76571876Y-62218250D01*
X76505199Y-62239127D01*
X76437819Y-62220642D01*
X76415305Y-62202828D01*
X76372004Y-62159527D01*
X76371998Y-62159522D01*
X76240501Y-62083602D01*
X76240496Y-62083600D01*
X76188689Y-62069718D01*
X76133102Y-62037624D01*
X76094692Y-61999213D01*
X76094688Y-61999210D01*
X75963585Y-61911609D01*
X75963572Y-61911602D01*
X75817901Y-61851264D01*
X75817889Y-61851261D01*
X75663245Y-61820500D01*
X75663242Y-61820500D01*
X75505558Y-61820500D01*
X75505555Y-61820500D01*
X75350910Y-61851261D01*
X75350898Y-61851264D01*
X75205227Y-61911602D01*
X75205214Y-61911609D01*
X75074111Y-61999210D01*
X75074107Y-61999213D01*
X74962613Y-62110707D01*
X74962610Y-62110711D01*
X74875009Y-62241814D01*
X74875002Y-62241827D01*
X74814664Y-62387498D01*
X74814661Y-62387508D01*
X74794090Y-62490926D01*
X74761705Y-62552837D01*
X74700989Y-62587411D01*
X74631219Y-62583671D01*
X74584792Y-62554415D01*
X73306119Y-61275742D01*
X73272634Y-61214419D01*
X73269800Y-61188061D01*
X73269800Y-61175655D01*
X73269799Y-61175653D01*
X73266571Y-61159423D01*
X73239037Y-61021003D01*
X73236136Y-61014000D01*
X73178697Y-60875327D01*
X73178690Y-60875314D01*
X73091089Y-60744211D01*
X73091086Y-60744207D01*
X72979592Y-60632713D01*
X72979588Y-60632710D01*
X72848485Y-60545109D01*
X72848472Y-60545102D01*
X72702801Y-60484764D01*
X72702789Y-60484761D01*
X72548145Y-60454000D01*
X72548142Y-60454000D01*
X72390458Y-60454000D01*
X72390455Y-60454000D01*
X72235810Y-60484761D01*
X72235798Y-60484764D01*
X72090127Y-60545102D01*
X72090114Y-60545109D01*
X71959011Y-60632710D01*
X71959007Y-60632713D01*
X71847513Y-60744207D01*
X71847510Y-60744211D01*
X71759909Y-60875314D01*
X71759902Y-60875327D01*
X71699564Y-61020998D01*
X71699561Y-61021010D01*
X71668800Y-61175653D01*
X71668800Y-61333346D01*
X71699561Y-61487989D01*
X71699564Y-61488001D01*
X71759902Y-61633672D01*
X71759909Y-61633685D01*
X71847510Y-61764788D01*
X71847513Y-61764792D01*
X71959007Y-61876286D01*
X71959011Y-61876289D01*
X72090114Y-61963890D01*
X72090127Y-61963897D01*
X72175384Y-61999211D01*
X72235803Y-62024237D01*
X72390453Y-62054999D01*
X72390456Y-62055000D01*
X72390458Y-62055000D01*
X72402861Y-62055000D01*
X72469900Y-62074685D01*
X72490542Y-62091319D01*
X75332625Y-64933402D01*
X75439998Y-65040775D01*
X75571502Y-65116699D01*
X75718176Y-65156000D01*
X77252461Y-65156000D01*
X77319500Y-65175685D01*
X77340142Y-65192319D01*
X77979442Y-65831619D01*
X78012927Y-65892942D01*
X78007943Y-65962634D01*
X77966071Y-66018567D01*
X77900607Y-66042984D01*
X77891761Y-66043300D01*
X69282024Y-66043300D01*
X69130176Y-66043300D01*
X69019659Y-66072913D01*
X68983495Y-66082603D01*
X68981134Y-66083581D01*
X68978984Y-66083811D01*
X68975651Y-66084705D01*
X68975511Y-66084184D01*
X68911664Y-66091042D01*
X68864802Y-66072117D01*
X68734885Y-65985309D01*
X68734872Y-65985302D01*
X68589201Y-65924964D01*
X68589189Y-65924961D01*
X68434545Y-65894200D01*
X68434542Y-65894200D01*
X68276858Y-65894200D01*
X68276855Y-65894200D01*
X68122210Y-65924961D01*
X68122198Y-65924964D01*
X67976527Y-65985302D01*
X67976514Y-65985309D01*
X67845411Y-66072910D01*
X67845407Y-66072913D01*
X67733913Y-66184407D01*
X67733910Y-66184411D01*
X67646309Y-66315514D01*
X67646302Y-66315527D01*
X67585964Y-66461198D01*
X67585961Y-66461210D01*
X67555200Y-66615853D01*
X67555200Y-66773546D01*
X67582432Y-66910453D01*
X67576205Y-66980045D01*
X67548496Y-67022325D01*
X66392875Y-68177946D01*
X66331552Y-68211431D01*
X66261860Y-68206447D01*
X66236303Y-68193367D01*
X66162285Y-68143909D01*
X66162272Y-68143902D01*
X66016601Y-68083564D01*
X66016591Y-68083561D01*
X65927008Y-68065742D01*
X65865097Y-68033357D01*
X65830523Y-67972641D01*
X65827200Y-67944125D01*
X65827200Y-59361039D01*
X65846885Y-59294000D01*
X65863519Y-59273358D01*
X67255658Y-57881219D01*
X67316981Y-57847734D01*
X67343339Y-57844900D01*
X67355744Y-57844900D01*
X67355745Y-57844899D01*
X67510397Y-57814137D01*
X67656079Y-57753794D01*
X67787189Y-57666189D01*
X67787192Y-57666186D01*
X67795960Y-57657419D01*
X67857283Y-57623934D01*
X67883641Y-57621100D01*
X70195822Y-57621100D01*
X70195824Y-57621100D01*
X70342498Y-57581799D01*
X70474002Y-57505875D01*
X70822033Y-57157844D01*
X75670000Y-57157844D01*
X75676401Y-57217372D01*
X75676403Y-57217379D01*
X75726645Y-57352086D01*
X75726649Y-57352093D01*
X75812809Y-57467187D01*
X75812812Y-57467190D01*
X75927906Y-57553350D01*
X75927913Y-57553354D01*
X76062620Y-57603596D01*
X76062627Y-57603598D01*
X76122155Y-57609999D01*
X76122172Y-57610000D01*
X76420000Y-57610000D01*
X76420000Y-56910000D01*
X75670000Y-56910000D01*
X75670000Y-57157844D01*
X70822033Y-57157844D01*
X71817722Y-56162155D01*
X75670000Y-56162155D01*
X75670000Y-56410000D01*
X76420000Y-56410000D01*
X76420000Y-55710000D01*
X76122155Y-55710000D01*
X76062627Y-55716401D01*
X76062620Y-55716403D01*
X75927913Y-55766645D01*
X75927906Y-55766649D01*
X75812812Y-55852809D01*
X75812809Y-55852812D01*
X75726649Y-55967906D01*
X75726645Y-55967913D01*
X75676403Y-56102620D01*
X75676401Y-56102627D01*
X75670000Y-56162155D01*
X71817722Y-56162155D01*
X74922033Y-53057844D01*
X75670000Y-53057844D01*
X75676401Y-53117372D01*
X75676403Y-53117379D01*
X75726645Y-53252086D01*
X75726649Y-53252093D01*
X75812809Y-53367187D01*
X75812812Y-53367190D01*
X75927906Y-53453350D01*
X75927913Y-53453354D01*
X76062620Y-53503596D01*
X76062627Y-53503598D01*
X76122155Y-53509999D01*
X76122172Y-53510000D01*
X76420000Y-53510000D01*
X76420000Y-52810000D01*
X75670000Y-52810000D01*
X75670000Y-53057844D01*
X74922033Y-53057844D01*
X75528758Y-52451119D01*
X75590081Y-52417634D01*
X75616439Y-52414800D01*
X76546000Y-52414800D01*
X76613039Y-52434485D01*
G37*
%TD.AperFunction*%
%TA.AperFunction,Conductor*%
G36*
X93165598Y-67079185D02*
G01*
X93186240Y-67095819D01*
X93195007Y-67104586D01*
X93195011Y-67104589D01*
X93326114Y-67192190D01*
X93326127Y-67192197D01*
X93378376Y-67213839D01*
X93432780Y-67257679D01*
X93454845Y-67323974D01*
X93437566Y-67391673D01*
X93386429Y-67439284D01*
X93330924Y-67452400D01*
X86457139Y-67452400D01*
X86427698Y-67443755D01*
X86397712Y-67437232D01*
X86392696Y-67433477D01*
X86390100Y-67432715D01*
X86369458Y-67416081D01*
X86224558Y-67271181D01*
X86191073Y-67209858D01*
X86196057Y-67140166D01*
X86237929Y-67084233D01*
X86303393Y-67059816D01*
X86312239Y-67059500D01*
X93098559Y-67059500D01*
X93165598Y-67079185D01*
G37*
%TD.AperFunction*%
%TA.AperFunction,Conductor*%
G36*
X100082700Y-65484085D02*
G01*
X100128455Y-65536889D01*
X100138399Y-65606047D01*
X100109374Y-65669603D01*
X100103342Y-65676081D01*
X99813342Y-65966081D01*
X99752019Y-65999566D01*
X99725661Y-66002400D01*
X97095641Y-66002400D01*
X97028602Y-65982715D01*
X97022409Y-65978465D01*
X97014704Y-65972826D01*
X96999189Y-65957311D01*
X96933840Y-65913646D01*
X96931685Y-65912069D01*
X96911992Y-65886348D01*
X96891221Y-65861493D01*
X96890879Y-65858770D01*
X96889211Y-65856592D01*
X96886550Y-65824308D01*
X96882514Y-65792168D01*
X96883698Y-65789692D01*
X96883473Y-65786958D01*
X96898691Y-65758355D01*
X96912669Y-65729141D01*
X96915002Y-65727699D01*
X96916292Y-65725276D01*
X96944557Y-65709442D01*
X96972112Y-65692422D01*
X96976339Y-65691640D01*
X96977250Y-65691130D01*
X96978640Y-65691214D01*
X96992774Y-65688600D01*
X96996831Y-65688200D01*
X96996842Y-65688200D01*
X97151497Y-65657437D01*
X97297179Y-65597094D01*
X97428289Y-65509489D01*
X97428292Y-65509486D01*
X97437060Y-65500719D01*
X97498383Y-65467234D01*
X97524741Y-65464400D01*
X100015661Y-65464400D01*
X100082700Y-65484085D01*
G37*
%TD.AperFunction*%
%TA.AperFunction,Conductor*%
G36*
X92403000Y-65249985D02*
G01*
X92423642Y-65266619D01*
X92851442Y-65694419D01*
X92884927Y-65755742D01*
X92879943Y-65825434D01*
X92838071Y-65881367D01*
X92772607Y-65905784D01*
X92763761Y-65906100D01*
X86020719Y-65906100D01*
X85953680Y-65886415D01*
X85951499Y-65884827D01*
X85951454Y-65884895D01*
X85815285Y-65793909D01*
X85815272Y-65793902D01*
X85669601Y-65733564D01*
X85669589Y-65733561D01*
X85514945Y-65702800D01*
X85514942Y-65702800D01*
X85357258Y-65702800D01*
X85357255Y-65702800D01*
X85202610Y-65733561D01*
X85202598Y-65733564D01*
X85056927Y-65793902D01*
X85056914Y-65793909D01*
X84955920Y-65861392D01*
X84889242Y-65882270D01*
X84821862Y-65863785D01*
X84799348Y-65845971D01*
X84600819Y-65647442D01*
X84586115Y-65620514D01*
X84569523Y-65594696D01*
X84568631Y-65588495D01*
X84567334Y-65586119D01*
X84564500Y-65559761D01*
X84564500Y-65470285D01*
X84584185Y-65403246D01*
X84636989Y-65357491D01*
X84706147Y-65347547D01*
X84746954Y-65360927D01*
X84750825Y-65362996D01*
X84896498Y-65423335D01*
X84896503Y-65423337D01*
X85051153Y-65454099D01*
X85051156Y-65454100D01*
X85051158Y-65454100D01*
X85208844Y-65454100D01*
X85208845Y-65454099D01*
X85363497Y-65423337D01*
X85509179Y-65362994D01*
X85640289Y-65275389D01*
X85640292Y-65275386D01*
X85649060Y-65266619D01*
X85710383Y-65233134D01*
X85736741Y-65230300D01*
X92335961Y-65230300D01*
X92403000Y-65249985D01*
G37*
%TD.AperFunction*%
%TA.AperFunction,Conductor*%
G36*
X132404039Y-40024685D02*
G01*
X132449794Y-40077489D01*
X132461000Y-40129000D01*
X132461000Y-84839000D01*
X132441315Y-84906039D01*
X132388511Y-84951794D01*
X132337000Y-84963000D01*
X57655000Y-84963000D01*
X57587961Y-84943315D01*
X57542206Y-84890511D01*
X57531000Y-84839000D01*
X57531000Y-58994876D01*
X64673800Y-58994876D01*
X64673800Y-71832876D01*
X64673800Y-71984724D01*
X64712013Y-72127339D01*
X64713102Y-72131400D01*
X64713102Y-72131401D01*
X64789022Y-72262898D01*
X64789024Y-72262900D01*
X64789025Y-72262902D01*
X71092798Y-78566675D01*
X71224302Y-78642599D01*
X71370976Y-78681900D01*
X71522824Y-78681900D01*
X104065159Y-78681900D01*
X104132198Y-78701585D01*
X104152840Y-78718219D01*
X104161607Y-78726986D01*
X104161611Y-78726989D01*
X104292714Y-78814590D01*
X104292727Y-78814597D01*
X104438398Y-78874935D01*
X104438403Y-78874937D01*
X104593053Y-78905699D01*
X104593056Y-78905700D01*
X104593058Y-78905700D01*
X104750744Y-78905700D01*
X104750745Y-78905699D01*
X104905397Y-78874937D01*
X105051079Y-78814594D01*
X105182189Y-78726989D01*
X105293689Y-78615489D01*
X105381294Y-78484379D01*
X105441637Y-78338697D01*
X105472400Y-78184042D01*
X105472400Y-78026358D01*
X105472400Y-78026355D01*
X105472399Y-78026353D01*
X105441638Y-77871710D01*
X105441637Y-77871703D01*
X105441635Y-77871698D01*
X105381297Y-77726027D01*
X105381291Y-77726016D01*
X105376797Y-77719290D01*
X105355920Y-77652612D01*
X105374405Y-77585232D01*
X105426385Y-77538543D01*
X105479900Y-77526400D01*
X122235954Y-77526400D01*
X122235955Y-77526399D01*
X122354731Y-77502774D01*
X122466617Y-77456429D01*
X122567312Y-77389147D01*
X123296508Y-76659950D01*
X123357829Y-76626467D01*
X123359996Y-76626016D01*
X123383036Y-76621432D01*
X123490097Y-76600137D01*
X123635779Y-76539794D01*
X123766889Y-76452189D01*
X123878389Y-76340689D01*
X123965994Y-76209579D01*
X124026337Y-76063897D01*
X124057100Y-75909242D01*
X124057100Y-75751558D01*
X124057100Y-75751555D01*
X124057099Y-75751553D01*
X124026338Y-75596910D01*
X124026338Y-75596908D01*
X124026337Y-75596903D01*
X124008225Y-75553177D01*
X123965997Y-75451227D01*
X123965990Y-75451214D01*
X123878389Y-75320111D01*
X123878386Y-75320107D01*
X123766892Y-75208613D01*
X123766888Y-75208610D01*
X123635785Y-75121009D01*
X123635772Y-75121002D01*
X123490101Y-75060664D01*
X123490089Y-75060661D01*
X123335445Y-75029900D01*
X123335442Y-75029900D01*
X123177758Y-75029900D01*
X123177755Y-75029900D01*
X123023110Y-75060661D01*
X123023098Y-75060664D01*
X122877427Y-75121002D01*
X122877414Y-75121009D01*
X122746311Y-75208610D01*
X122746307Y-75208613D01*
X122634813Y-75320107D01*
X122634810Y-75320111D01*
X122547209Y-75451214D01*
X122547202Y-75451227D01*
X122486864Y-75596898D01*
X122486861Y-75596908D01*
X122460983Y-75727004D01*
X122428598Y-75788915D01*
X122427047Y-75790493D01*
X121957060Y-76260481D01*
X121895737Y-76293966D01*
X121869379Y-76296800D01*
X110041441Y-76296800D01*
X109974402Y-76277115D01*
X109928647Y-76224311D01*
X109918703Y-76155153D01*
X109947728Y-76091597D01*
X109953760Y-76085119D01*
X109968786Y-76070092D01*
X109968789Y-76070089D01*
X110056394Y-75938979D01*
X110116737Y-75793297D01*
X110147500Y-75638642D01*
X110147500Y-75480958D01*
X110147500Y-75480955D01*
X110147499Y-75480953D01*
X110141585Y-75451221D01*
X110116737Y-75326303D01*
X110102369Y-75291616D01*
X110056397Y-75180627D01*
X110056390Y-75180614D01*
X109968789Y-75049511D01*
X109968786Y-75049507D01*
X109960019Y-75040740D01*
X109926534Y-74979417D01*
X109923700Y-74953059D01*
X109923700Y-66068578D01*
X109923700Y-66068576D01*
X109884399Y-65921902D01*
X109876183Y-65907672D01*
X109808477Y-65790401D01*
X109808472Y-65790395D01*
X108500304Y-64482227D01*
X108500298Y-64482222D01*
X108368800Y-64406302D01*
X108368799Y-64406301D01*
X108368798Y-64406301D01*
X108222124Y-64367000D01*
X108222123Y-64367000D01*
X105379439Y-64367000D01*
X105312400Y-64347315D01*
X105266645Y-64294511D01*
X105256701Y-64225353D01*
X105285726Y-64161797D01*
X105291758Y-64155319D01*
X109536758Y-59910319D01*
X109598081Y-59876834D01*
X109624439Y-59874000D01*
X109636844Y-59874000D01*
X109636845Y-59873999D01*
X109791497Y-59843237D01*
X109937179Y-59782894D01*
X110068289Y-59695289D01*
X110179789Y-59583789D01*
X110267394Y-59452679D01*
X110327737Y-59306997D01*
X110358500Y-59152342D01*
X110358500Y-58994658D01*
X110358500Y-58994655D01*
X110358499Y-58994653D01*
X110355223Y-58978184D01*
X110327737Y-58840003D01*
X110302966Y-58780200D01*
X110267397Y-58694327D01*
X110267390Y-58694314D01*
X110206958Y-58603872D01*
X110186080Y-58537195D01*
X110204564Y-58469815D01*
X110256543Y-58423124D01*
X110325513Y-58411948D01*
X110389577Y-58439833D01*
X110397741Y-58447300D01*
X114032360Y-62081919D01*
X114065845Y-62143242D01*
X114060861Y-62212934D01*
X114018989Y-62268867D01*
X113953525Y-62293284D01*
X113944679Y-62293600D01*
X112155464Y-62293600D01*
X112088425Y-62273915D01*
X112086573Y-62272702D01*
X111976285Y-62199009D01*
X111976272Y-62199002D01*
X111830601Y-62138664D01*
X111830589Y-62138661D01*
X111675945Y-62107900D01*
X111675942Y-62107900D01*
X111518258Y-62107900D01*
X111518255Y-62107900D01*
X111363610Y-62138661D01*
X111363598Y-62138664D01*
X111217927Y-62199002D01*
X111217914Y-62199009D01*
X111086811Y-62286610D01*
X111086807Y-62286613D01*
X110975313Y-62398107D01*
X110975310Y-62398111D01*
X110887709Y-62529214D01*
X110887702Y-62529227D01*
X110827364Y-62674898D01*
X110827361Y-62674910D01*
X110796600Y-62829553D01*
X110796600Y-62987246D01*
X110827361Y-63141889D01*
X110827364Y-63141901D01*
X110887702Y-63287572D01*
X110887709Y-63287585D01*
X110975310Y-63418688D01*
X110975313Y-63418692D01*
X111086807Y-63530186D01*
X111086811Y-63530189D01*
X111217914Y-63617790D01*
X111217927Y-63617797D01*
X111332377Y-63665203D01*
X111363603Y-63678137D01*
X111504684Y-63706200D01*
X111518253Y-63708899D01*
X111518256Y-63708900D01*
X111518258Y-63708900D01*
X111675944Y-63708900D01*
X111675945Y-63708899D01*
X111830597Y-63678137D01*
X111943266Y-63631467D01*
X111976272Y-63617797D01*
X111976272Y-63617796D01*
X111976279Y-63617794D01*
X111976285Y-63617790D01*
X112086573Y-63544098D01*
X112153250Y-63523220D01*
X112155464Y-63523200D01*
X114214567Y-63523200D01*
X114281606Y-63542885D01*
X114327361Y-63595689D01*
X114329128Y-63599748D01*
X114356102Y-63664873D01*
X114356109Y-63664885D01*
X114443710Y-63795988D01*
X114443713Y-63795992D01*
X114555207Y-63907486D01*
X114555211Y-63907489D01*
X114686314Y-63995090D01*
X114686327Y-63995097D01*
X114805118Y-64044301D01*
X114832003Y-64055437D01*
X114986653Y-64086199D01*
X114986656Y-64086200D01*
X114986658Y-64086200D01*
X115144344Y-64086200D01*
X115144345Y-64086199D01*
X115298997Y-64055437D01*
X115431077Y-64000728D01*
X115444672Y-63995097D01*
X115444672Y-63995096D01*
X115444679Y-63995094D01*
X115575789Y-63907489D01*
X115687289Y-63795989D01*
X115774894Y-63664879D01*
X115774895Y-63664876D01*
X115774897Y-63664873D01*
X115801872Y-63599748D01*
X115845712Y-63545344D01*
X115912006Y-63523279D01*
X115916433Y-63523200D01*
X116966954Y-63523200D01*
X116966955Y-63523199D01*
X117085731Y-63499574D01*
X117197617Y-63453229D01*
X117298312Y-63385947D01*
X118019508Y-62664750D01*
X118080829Y-62631267D01*
X118082996Y-62630816D01*
X118123852Y-62622689D01*
X118213097Y-62604937D01*
X118335069Y-62554415D01*
X118358772Y-62544597D01*
X118358772Y-62544596D01*
X118358779Y-62544594D01*
X118489889Y-62456989D01*
X118601389Y-62345489D01*
X118688994Y-62214379D01*
X118749337Y-62068697D01*
X118780100Y-61914042D01*
X118780100Y-61756358D01*
X118780100Y-61756355D01*
X118780099Y-61756353D01*
X118749337Y-61601703D01*
X118749335Y-61601698D01*
X118688997Y-61456027D01*
X118688990Y-61456014D01*
X118601389Y-61324911D01*
X118601386Y-61324907D01*
X118489892Y-61213413D01*
X118489888Y-61213410D01*
X118358785Y-61125809D01*
X118358772Y-61125802D01*
X118213101Y-61065464D01*
X118213089Y-61065461D01*
X118058445Y-61034700D01*
X118058442Y-61034700D01*
X117900758Y-61034700D01*
X117900755Y-61034700D01*
X117746110Y-61065461D01*
X117746098Y-61065464D01*
X117600427Y-61125802D01*
X117600414Y-61125809D01*
X117490127Y-61199502D01*
X117423450Y-61220380D01*
X117421236Y-61220400D01*
X114961121Y-61220400D01*
X114894082Y-61200715D01*
X114873440Y-61184081D01*
X111220752Y-57531393D01*
X111187267Y-57470070D01*
X111186816Y-57467903D01*
X111165965Y-57363081D01*
X111160937Y-57337803D01*
X111160935Y-57337798D01*
X111100597Y-57192127D01*
X111100590Y-57192114D01*
X111012989Y-57061011D01*
X111012986Y-57061007D01*
X110901492Y-56949513D01*
X110901488Y-56949510D01*
X110770385Y-56861909D01*
X110770372Y-56861902D01*
X110624701Y-56801564D01*
X110624689Y-56801561D01*
X110604766Y-56797598D01*
X110542855Y-56765213D01*
X110508281Y-56704498D01*
X110512020Y-56634728D01*
X110541274Y-56588302D01*
X116216424Y-50913153D01*
X119084500Y-50913153D01*
X119084500Y-51070846D01*
X119115261Y-51225489D01*
X119115264Y-51225501D01*
X119175602Y-51371172D01*
X119175609Y-51371185D01*
X119263210Y-51502288D01*
X119263213Y-51502292D01*
X119374707Y-51613786D01*
X119374711Y-51613789D01*
X119505814Y-51701390D01*
X119505827Y-51701397D01*
X119651498Y-51761735D01*
X119651503Y-51761737D01*
X119806153Y-51792499D01*
X119806156Y-51792500D01*
X119806158Y-51792500D01*
X119963844Y-51792500D01*
X119963845Y-51792499D01*
X120118497Y-51761737D01*
X120264179Y-51701394D01*
X120395289Y-51613789D01*
X120506789Y-51502289D01*
X120594394Y-51371179D01*
X120654737Y-51225497D01*
X120685500Y-51070842D01*
X120685500Y-50913158D01*
X120685500Y-50913155D01*
X120685499Y-50913153D01*
X120680274Y-50886886D01*
X120654737Y-50758503D01*
X120638629Y-50719614D01*
X120594397Y-50612827D01*
X120594390Y-50612814D01*
X120506789Y-50481711D01*
X120506786Y-50481707D01*
X120395292Y-50370213D01*
X120395288Y-50370210D01*
X120264185Y-50282609D01*
X120264172Y-50282602D01*
X120118501Y-50222264D01*
X120118489Y-50222261D01*
X119963845Y-50191500D01*
X119963842Y-50191500D01*
X119806158Y-50191500D01*
X119806155Y-50191500D01*
X119651510Y-50222261D01*
X119651498Y-50222264D01*
X119505827Y-50282602D01*
X119505814Y-50282609D01*
X119374711Y-50370210D01*
X119374707Y-50370213D01*
X119263213Y-50481707D01*
X119263210Y-50481711D01*
X119175609Y-50612814D01*
X119175602Y-50612827D01*
X119115264Y-50758498D01*
X119115261Y-50758510D01*
X119084500Y-50913153D01*
X116216424Y-50913153D01*
X118951958Y-48177619D01*
X119013281Y-48144134D01*
X119039639Y-48141300D01*
X126210822Y-48141300D01*
X126210824Y-48141300D01*
X126357498Y-48101999D01*
X126489002Y-48026075D01*
X126500058Y-48015019D01*
X126561381Y-47981534D01*
X126587739Y-47978700D01*
X126600144Y-47978700D01*
X126600145Y-47978699D01*
X126754797Y-47947937D01*
X126900479Y-47887594D01*
X127031589Y-47799989D01*
X127143089Y-47688489D01*
X127230694Y-47557379D01*
X127291037Y-47411697D01*
X127321800Y-47257042D01*
X127321800Y-47099358D01*
X127321800Y-47099355D01*
X127321799Y-47099353D01*
X127299629Y-46987900D01*
X127291037Y-46944703D01*
X127265690Y-46883510D01*
X127230697Y-46799027D01*
X127230690Y-46799014D01*
X127143089Y-46667911D01*
X127143086Y-46667907D01*
X127031592Y-46556413D01*
X127031588Y-46556410D01*
X126900485Y-46468809D01*
X126900472Y-46468802D01*
X126754801Y-46408464D01*
X126754789Y-46408461D01*
X126600145Y-46377700D01*
X126600142Y-46377700D01*
X126442458Y-46377700D01*
X126442455Y-46377700D01*
X126287810Y-46408461D01*
X126287798Y-46408464D01*
X126142127Y-46468802D01*
X126142114Y-46468809D01*
X126011011Y-46556410D01*
X126011007Y-46556413D01*
X125899513Y-46667907D01*
X125899510Y-46667911D01*
X125811909Y-46799014D01*
X125811902Y-46799027D01*
X125765377Y-46911352D01*
X125721536Y-46965756D01*
X125655242Y-46987821D01*
X125650816Y-46987900D01*
X123805026Y-46987900D01*
X123737987Y-46968215D01*
X123692232Y-46915411D01*
X123683409Y-46888091D01*
X123677055Y-46856153D01*
X123664037Y-46790703D01*
X123642130Y-46737814D01*
X123603697Y-46645027D01*
X123603690Y-46645014D01*
X123516089Y-46513911D01*
X123516086Y-46513907D01*
X123404592Y-46402413D01*
X123404588Y-46402410D01*
X123273485Y-46314809D01*
X123273472Y-46314802D01*
X123127801Y-46254464D01*
X123127789Y-46254461D01*
X122973145Y-46223700D01*
X122973142Y-46223700D01*
X122815458Y-46223700D01*
X122815455Y-46223700D01*
X122660810Y-46254461D01*
X122660798Y-46254464D01*
X122515127Y-46314802D01*
X122515114Y-46314809D01*
X122384011Y-46402410D01*
X122384007Y-46402413D01*
X122375240Y-46411181D01*
X122313917Y-46444666D01*
X122287559Y-46447500D01*
X120767781Y-46447500D01*
X120700742Y-46427815D01*
X120654987Y-46375011D01*
X120645043Y-46305853D01*
X120651138Y-46283636D01*
X120650769Y-46283524D01*
X120652531Y-46277709D01*
X120652537Y-46277697D01*
X120683300Y-46123042D01*
X120683300Y-45965358D01*
X120683300Y-45965355D01*
X120683299Y-45965353D01*
X120652538Y-45810710D01*
X120652537Y-45810703D01*
X120652535Y-45810698D01*
X120592197Y-45665027D01*
X120592190Y-45665014D01*
X120504589Y-45533911D01*
X120504586Y-45533907D01*
X120393092Y-45422413D01*
X120393088Y-45422410D01*
X120261985Y-45334809D01*
X120261972Y-45334802D01*
X120116301Y-45274464D01*
X120116289Y-45274461D01*
X119961645Y-45243700D01*
X119961642Y-45243700D01*
X119803958Y-45243700D01*
X119803955Y-45243700D01*
X119649310Y-45274461D01*
X119649298Y-45274464D01*
X119503627Y-45334802D01*
X119503614Y-45334809D01*
X119372511Y-45422410D01*
X119372507Y-45422413D01*
X119363740Y-45431181D01*
X119302417Y-45464666D01*
X119276059Y-45467500D01*
X119090424Y-45467500D01*
X118938576Y-45467500D01*
X118791902Y-45506801D01*
X118791901Y-45506801D01*
X118791899Y-45506802D01*
X118791898Y-45506802D01*
X118660401Y-45582722D01*
X118660395Y-45582727D01*
X106414180Y-57828942D01*
X106352857Y-57862427D01*
X106283165Y-57857443D01*
X106227232Y-57815571D01*
X106202815Y-57750107D01*
X106202499Y-57741261D01*
X106202499Y-56810129D01*
X106202498Y-56810123D01*
X106199383Y-56781146D01*
X106196091Y-56750517D01*
X106145796Y-56615669D01*
X106145795Y-56615668D01*
X106145793Y-56615664D01*
X106059547Y-56500455D01*
X106059544Y-56500452D01*
X105944335Y-56414206D01*
X105944328Y-56414202D01*
X105809482Y-56363908D01*
X105809483Y-56363908D01*
X105749883Y-56357501D01*
X105749881Y-56357500D01*
X105749873Y-56357500D01*
X105749865Y-56357500D01*
X104547000Y-56357500D01*
X104479961Y-56337815D01*
X104434206Y-56285011D01*
X104423000Y-56233500D01*
X104423000Y-52414239D01*
X104442685Y-52347200D01*
X104459319Y-52326558D01*
X104884479Y-51901398D01*
X105363475Y-51422402D01*
X105439399Y-51290898D01*
X105445941Y-51266481D01*
X105482302Y-51206821D01*
X105509415Y-51188090D01*
X105583610Y-51150287D01*
X105749219Y-51029966D01*
X105893966Y-50885219D01*
X105893968Y-50885215D01*
X105893971Y-50885213D01*
X105946732Y-50812590D01*
X106014287Y-50719610D01*
X106107220Y-50537219D01*
X106170477Y-50342534D01*
X106202500Y-50140352D01*
X106202500Y-49935648D01*
X106170477Y-49733466D01*
X106163783Y-49712865D01*
X106107218Y-49538776D01*
X106061515Y-49449080D01*
X106014287Y-49356390D01*
X106006556Y-49345749D01*
X105893971Y-49190786D01*
X105749213Y-49046028D01*
X105583613Y-48925715D01*
X105583612Y-48925714D01*
X105583610Y-48925713D01*
X105526653Y-48896691D01*
X105401223Y-48832781D01*
X105206534Y-48769522D01*
X105031995Y-48741878D01*
X105004352Y-48737500D01*
X104799648Y-48737500D01*
X104775329Y-48741351D01*
X104597465Y-48769522D01*
X104402776Y-48832781D01*
X104220386Y-48925715D01*
X104054786Y-49046028D01*
X103910028Y-49190786D01*
X103789715Y-49356386D01*
X103742485Y-49449080D01*
X103694510Y-49499876D01*
X103626689Y-49516671D01*
X103560554Y-49494134D01*
X103521515Y-49449080D01*
X103520883Y-49447840D01*
X103474287Y-49356390D01*
X103466556Y-49345749D01*
X103353971Y-49190786D01*
X103209213Y-49046028D01*
X103043613Y-48925715D01*
X103043612Y-48925714D01*
X103043610Y-48925713D01*
X102986653Y-48896691D01*
X102861223Y-48832781D01*
X102666534Y-48769522D01*
X102491995Y-48741878D01*
X102464352Y-48737500D01*
X102259648Y-48737500D01*
X102235329Y-48741351D01*
X102057465Y-48769522D01*
X101862776Y-48832781D01*
X101680386Y-48925715D01*
X101514786Y-49046028D01*
X101370028Y-49190786D01*
X101249715Y-49356386D01*
X101202485Y-49449080D01*
X101154510Y-49499876D01*
X101086689Y-49516671D01*
X101020554Y-49494134D01*
X100981515Y-49449080D01*
X100980883Y-49447840D01*
X100934287Y-49356390D01*
X100926556Y-49345749D01*
X100813971Y-49190786D01*
X100669213Y-49046028D01*
X100503613Y-48925715D01*
X100503612Y-48925714D01*
X100503610Y-48925713D01*
X100446653Y-48896691D01*
X100321223Y-48832781D01*
X100126534Y-48769522D01*
X99951995Y-48741878D01*
X99924352Y-48737500D01*
X99719648Y-48737500D01*
X99695329Y-48741351D01*
X99517465Y-48769522D01*
X99322776Y-48832781D01*
X99140386Y-48925715D01*
X98974786Y-49046028D01*
X98830028Y-49190786D01*
X98709715Y-49356386D01*
X98662485Y-49449080D01*
X98614510Y-49499876D01*
X98546689Y-49516671D01*
X98480554Y-49494134D01*
X98441515Y-49449080D01*
X98440883Y-49447840D01*
X98394287Y-49356390D01*
X98386556Y-49345749D01*
X98273971Y-49190786D01*
X98129213Y-49046028D01*
X97963613Y-48925715D01*
X97963612Y-48925714D01*
X97963610Y-48925713D01*
X97906653Y-48896691D01*
X97781223Y-48832781D01*
X97586534Y-48769522D01*
X97411995Y-48741878D01*
X97384352Y-48737500D01*
X97179648Y-48737500D01*
X97155329Y-48741351D01*
X96977465Y-48769522D01*
X96782776Y-48832781D01*
X96600386Y-48925715D01*
X96434786Y-49046028D01*
X96290028Y-49190786D01*
X96169715Y-49356386D01*
X96122485Y-49449080D01*
X96074510Y-49499876D01*
X96006689Y-49516671D01*
X95940554Y-49494134D01*
X95901515Y-49449080D01*
X95900883Y-49447840D01*
X95854287Y-49356390D01*
X95846556Y-49345749D01*
X95733971Y-49190786D01*
X95589213Y-49046028D01*
X95423613Y-48925715D01*
X95423612Y-48925714D01*
X95423610Y-48925713D01*
X95366653Y-48896691D01*
X95241223Y-48832781D01*
X95046534Y-48769522D01*
X94871995Y-48741878D01*
X94844352Y-48737500D01*
X94639648Y-48737500D01*
X94615329Y-48741351D01*
X94437465Y-48769522D01*
X94242776Y-48832781D01*
X94060386Y-48925715D01*
X93894786Y-49046028D01*
X93750028Y-49190786D01*
X93629715Y-49356386D01*
X93582485Y-49449080D01*
X93534510Y-49499876D01*
X93466689Y-49516671D01*
X93400554Y-49494134D01*
X93361515Y-49449080D01*
X93360883Y-49447840D01*
X93314287Y-49356390D01*
X93306556Y-49345749D01*
X93193971Y-49190786D01*
X93049213Y-49046028D01*
X92883613Y-48925715D01*
X92883612Y-48925714D01*
X92883610Y-48925713D01*
X92826653Y-48896691D01*
X92701223Y-48832781D01*
X92506534Y-48769522D01*
X92331995Y-48741878D01*
X92304352Y-48737500D01*
X92099648Y-48737500D01*
X92075329Y-48741351D01*
X91897465Y-48769522D01*
X91702776Y-48832781D01*
X91520386Y-48925715D01*
X91354786Y-49046028D01*
X91210028Y-49190786D01*
X91089715Y-49356386D01*
X91042485Y-49449080D01*
X90994510Y-49499876D01*
X90926689Y-49516671D01*
X90860554Y-49494134D01*
X90821515Y-49449080D01*
X90820883Y-49447840D01*
X90774287Y-49356390D01*
X90766556Y-49345749D01*
X90653971Y-49190786D01*
X90509213Y-49046028D01*
X90343613Y-48925715D01*
X90343612Y-48925714D01*
X90343610Y-48925713D01*
X90286653Y-48896691D01*
X90161223Y-48832781D01*
X89966534Y-48769522D01*
X89791995Y-48741878D01*
X89764352Y-48737500D01*
X89559648Y-48737500D01*
X89535329Y-48741351D01*
X89357465Y-48769522D01*
X89162776Y-48832781D01*
X88980386Y-48925715D01*
X88814786Y-49046028D01*
X88670028Y-49190786D01*
X88549715Y-49356386D01*
X88502485Y-49449080D01*
X88454510Y-49499876D01*
X88386689Y-49516671D01*
X88320554Y-49494134D01*
X88281515Y-49449080D01*
X88280883Y-49447840D01*
X88234287Y-49356390D01*
X88226556Y-49345749D01*
X88113971Y-49190786D01*
X87969213Y-49046028D01*
X87803613Y-48925715D01*
X87803612Y-48925714D01*
X87803610Y-48925713D01*
X87746653Y-48896691D01*
X87621223Y-48832781D01*
X87426534Y-48769522D01*
X87251995Y-48741878D01*
X87224352Y-48737500D01*
X87019648Y-48737500D01*
X86995329Y-48741351D01*
X86817465Y-48769522D01*
X86622776Y-48832781D01*
X86440386Y-48925715D01*
X86274786Y-49046028D01*
X86130028Y-49190786D01*
X86009715Y-49356386D01*
X85962485Y-49449080D01*
X85914510Y-49499876D01*
X85846689Y-49516671D01*
X85780554Y-49494134D01*
X85741515Y-49449080D01*
X85740883Y-49447840D01*
X85694287Y-49356390D01*
X85686556Y-49345749D01*
X85573971Y-49190786D01*
X85429213Y-49046028D01*
X85263613Y-48925715D01*
X85263612Y-48925714D01*
X85263610Y-48925713D01*
X85206653Y-48896691D01*
X85081223Y-48832781D01*
X84886534Y-48769522D01*
X84711995Y-48741878D01*
X84684352Y-48737500D01*
X84479648Y-48737500D01*
X84455329Y-48741351D01*
X84277465Y-48769522D01*
X84082776Y-48832781D01*
X83900386Y-48925715D01*
X83734786Y-49046028D01*
X83590028Y-49190786D01*
X83469715Y-49356386D01*
X83376781Y-49538778D01*
X83320217Y-49712865D01*
X83280780Y-49770541D01*
X83216421Y-49797739D01*
X83147575Y-49785824D01*
X83114605Y-49762228D01*
X82270504Y-48918127D01*
X82270498Y-48918122D01*
X82139000Y-48842202D01*
X82138999Y-48842201D01*
X82138998Y-48842201D01*
X81992324Y-48802900D01*
X81992323Y-48802900D01*
X68065624Y-48802900D01*
X67998585Y-48783215D01*
X67952830Y-48730411D01*
X67942886Y-48661253D01*
X67962522Y-48610009D01*
X67985790Y-48575185D01*
X67985790Y-48575184D01*
X67985794Y-48575179D01*
X68046137Y-48429497D01*
X68076900Y-48274842D01*
X68076900Y-48117158D01*
X68076900Y-48117155D01*
X68076899Y-48117153D01*
X68056583Y-48015019D01*
X68046137Y-47962503D01*
X68040103Y-47947935D01*
X68018605Y-47896033D01*
X68011136Y-47826564D01*
X68042412Y-47764085D01*
X68064271Y-47745482D01*
X68074289Y-47738789D01*
X68185789Y-47627289D01*
X68273394Y-47496179D01*
X68333737Y-47350497D01*
X68364500Y-47195842D01*
X68364500Y-47038158D01*
X68364500Y-47038155D01*
X68364499Y-47038153D01*
X68345912Y-46944710D01*
X68333737Y-46883503D01*
X68298741Y-46799014D01*
X68273397Y-46737827D01*
X68273390Y-46737814D01*
X68185789Y-46606711D01*
X68185786Y-46606707D01*
X68074292Y-46495213D01*
X68074288Y-46495210D01*
X67943185Y-46407609D01*
X67943172Y-46407602D01*
X67797501Y-46347264D01*
X67797489Y-46347261D01*
X67642845Y-46316500D01*
X67642842Y-46316500D01*
X67485158Y-46316500D01*
X67485155Y-46316500D01*
X67330510Y-46347261D01*
X67330498Y-46347264D01*
X67184827Y-46407602D01*
X67184814Y-46407609D01*
X67053711Y-46495210D01*
X67053707Y-46495213D01*
X66942213Y-46606707D01*
X66942210Y-46606711D01*
X66854609Y-46737814D01*
X66854602Y-46737827D01*
X66794264Y-46883498D01*
X66794261Y-46883510D01*
X66763500Y-47038153D01*
X66763500Y-47195846D01*
X66794261Y-47350489D01*
X66794264Y-47350501D01*
X66821794Y-47416965D01*
X66829263Y-47486435D01*
X66797987Y-47548914D01*
X66776129Y-47567515D01*
X66766117Y-47574204D01*
X66766107Y-47574213D01*
X66654613Y-47685707D01*
X66654610Y-47685711D01*
X66567009Y-47816814D01*
X66567002Y-47816827D01*
X66506664Y-47962498D01*
X66506661Y-47962510D01*
X66475900Y-48117153D01*
X66475900Y-48274846D01*
X66506661Y-48429489D01*
X66506664Y-48429501D01*
X66567002Y-48575172D01*
X66567009Y-48575185D01*
X66654610Y-48706288D01*
X66654613Y-48706292D01*
X66699742Y-48751421D01*
X66733227Y-48812744D01*
X66728243Y-48882436D01*
X66715164Y-48907992D01*
X66653408Y-49000416D01*
X66653402Y-49000427D01*
X66593064Y-49146098D01*
X66593061Y-49146110D01*
X66562300Y-49300753D01*
X66562300Y-49458446D01*
X66593061Y-49613089D01*
X66593064Y-49613101D01*
X66653402Y-49758772D01*
X66653409Y-49758785D01*
X66741010Y-49889888D01*
X66741013Y-49889892D01*
X66852507Y-50001386D01*
X66852511Y-50001389D01*
X66983616Y-50088991D01*
X66983617Y-50088991D01*
X66983621Y-50088994D01*
X67005853Y-50098202D01*
X67060255Y-50142041D01*
X67082321Y-50208335D01*
X67082400Y-50212763D01*
X67082400Y-50343946D01*
X67113161Y-50498589D01*
X67113164Y-50498601D01*
X67173502Y-50644272D01*
X67173509Y-50644285D01*
X67261110Y-50775388D01*
X67261113Y-50775392D01*
X67372607Y-50886886D01*
X67372611Y-50886889D01*
X67503714Y-50974490D01*
X67503727Y-50974497D01*
X67601275Y-51014902D01*
X67649403Y-51034837D01*
X67772949Y-51059412D01*
X67804053Y-51065599D01*
X67804056Y-51065600D01*
X67804058Y-51065600D01*
X67961744Y-51065600D01*
X67961745Y-51065599D01*
X68116397Y-51034837D01*
X68262079Y-50974494D01*
X68393189Y-50886889D01*
X68504689Y-50775389D01*
X68592294Y-50644279D01*
X68652637Y-50498597D01*
X68674754Y-50387409D01*
X68707139Y-50325498D01*
X68767854Y-50290924D01*
X68796371Y-50287600D01*
X70277491Y-50287600D01*
X70303216Y-50295153D01*
X70329736Y-50299143D01*
X70336235Y-50304849D01*
X70344530Y-50307285D01*
X70362085Y-50327544D01*
X70382241Y-50345241D01*
X70386375Y-50355577D01*
X70390285Y-50360089D01*
X70396693Y-50377441D01*
X70398109Y-50382384D01*
X70421763Y-50501297D01*
X70455586Y-50582953D01*
X70457530Y-50589737D01*
X70457346Y-50617903D01*
X70460358Y-50645913D01*
X70457091Y-50657035D01*
X70457075Y-50659605D01*
X70455732Y-50661664D01*
X70452889Y-50671348D01*
X70404364Y-50788498D01*
X70404361Y-50788510D01*
X70387000Y-50875791D01*
X70354615Y-50937702D01*
X70293900Y-50972276D01*
X70265383Y-50975600D01*
X69034924Y-50975600D01*
X68883076Y-50975600D01*
X68736402Y-51014901D01*
X68736401Y-51014901D01*
X68736399Y-51014902D01*
X68736398Y-51014902D01*
X68604901Y-51090822D01*
X68604895Y-51090827D01*
X67319342Y-52376381D01*
X67258019Y-52409866D01*
X67231661Y-52412700D01*
X67219255Y-52412700D01*
X67064610Y-52443461D01*
X67064598Y-52443464D01*
X66918927Y-52503802D01*
X66918914Y-52503809D01*
X66787811Y-52591410D01*
X66787807Y-52591413D01*
X66676313Y-52702907D01*
X66676310Y-52702911D01*
X66588709Y-52834014D01*
X66588702Y-52834027D01*
X66528364Y-52979698D01*
X66528361Y-52979710D01*
X66497600Y-53134353D01*
X66497600Y-53292046D01*
X66528361Y-53446689D01*
X66528364Y-53446701D01*
X66588702Y-53592372D01*
X66588709Y-53592385D01*
X66676310Y-53723488D01*
X66676313Y-53723492D01*
X66787807Y-53834986D01*
X66787811Y-53834989D01*
X66918914Y-53922590D01*
X66918918Y-53922592D01*
X66918921Y-53922594D01*
X66988354Y-53951354D01*
X67042755Y-53995193D01*
X67064821Y-54061487D01*
X67064900Y-54065914D01*
X67064900Y-54112946D01*
X67095661Y-54267594D01*
X67095663Y-54267597D01*
X67110105Y-54302465D01*
X67112241Y-54322340D01*
X67119227Y-54341069D01*
X67115899Y-54356366D01*
X67117573Y-54371934D01*
X67108624Y-54389809D01*
X67104376Y-54409342D01*
X67087686Y-54431636D01*
X67086297Y-54434413D01*
X67083225Y-54437597D01*
X66945798Y-54575025D01*
X66945797Y-54575025D01*
X66945796Y-54575026D01*
X66838427Y-54682395D01*
X66838422Y-54682401D01*
X66762502Y-54813898D01*
X66762502Y-54813899D01*
X66723200Y-54960576D01*
X66723200Y-55229359D01*
X66703515Y-55296398D01*
X66686881Y-55317040D01*
X66678113Y-55325807D01*
X66678110Y-55325811D01*
X66590509Y-55456914D01*
X66590502Y-55456927D01*
X66530164Y-55602598D01*
X66530161Y-55602610D01*
X66499400Y-55757253D01*
X66499400Y-55914946D01*
X66530161Y-56069589D01*
X66530164Y-56069601D01*
X66590502Y-56215272D01*
X66590509Y-56215285D01*
X66678113Y-56346392D01*
X66681065Y-56349990D01*
X66708375Y-56414302D01*
X66696580Y-56483169D01*
X66672891Y-56516329D01*
X66655114Y-56534106D01*
X66655110Y-56534111D01*
X66567509Y-56665214D01*
X66567502Y-56665227D01*
X66507164Y-56810898D01*
X66507161Y-56810910D01*
X66476400Y-56965553D01*
X66476400Y-56977961D01*
X66456715Y-57045000D01*
X66440081Y-57065642D01*
X64789027Y-58716695D01*
X64789022Y-58716701D01*
X64713102Y-58848198D01*
X64713102Y-58848199D01*
X64713101Y-58848201D01*
X64713101Y-58848202D01*
X64673800Y-58994876D01*
X57531000Y-58994876D01*
X57531000Y-40129000D01*
X57550685Y-40061961D01*
X57603489Y-40016206D01*
X57655000Y-40005000D01*
X132337000Y-40005000D01*
X132404039Y-40024685D01*
G37*
%TD.AperFunction*%
%TD*%
D16*
X70231000Y-63627000D03*
X98933000Y-65659000D03*
X85852000Y-74168000D03*
X67565600Y-58547000D03*
X110998000Y-47752000D03*
X89916000Y-67183000D03*
X112776000Y-49403000D03*
X129413000Y-74422000D03*
X126365000Y-64643000D03*
X94869000Y-43688000D03*
X71247000Y-43688000D03*
X78354000Y-70637600D03*
X100907500Y-69504400D03*
X96139000Y-83185000D03*
X67571500Y-71641300D03*
X89916000Y-70993000D03*
X87757000Y-65659000D03*
X129413000Y-69088000D03*
X94051300Y-70374400D03*
X82155500Y-60813500D03*
X83312000Y-43815000D03*
X120777000Y-72390000D03*
X79756000Y-48006000D03*
X77089000Y-48006000D03*
X60960000Y-51943000D03*
X60960000Y-80264000D03*
X92075000Y-74168000D03*
X60960000Y-68707000D03*
X71542700Y-72091200D03*
X96492500Y-71620000D03*
X78768300Y-66620000D03*
X70921500Y-73428800D03*
X82192400Y-72643500D03*
X85436100Y-66503300D03*
X93705300Y-66482800D03*
X71881000Y-73291300D03*
X103307500Y-68948600D03*
X78643600Y-53517500D03*
X78431700Y-68373200D03*
X77027000Y-62876900D03*
X67276400Y-48196000D03*
X94246900Y-63024800D03*
X67839400Y-55294500D03*
X90326400Y-60980600D03*
X107685900Y-75538100D03*
X67362800Y-49379600D03*
X85975000Y-55425500D03*
X81009500Y-63186400D03*
X107442200Y-66475800D03*
X78759800Y-67615200D03*
X85630000Y-62255800D03*
X87510900Y-60443800D03*
X89416700Y-59356900D03*
X84672600Y-62200500D03*
X109347000Y-75559800D03*
X67299900Y-55836100D03*
X91387900Y-62237900D03*
X89613300Y-51863800D03*
X67882900Y-50265100D03*
X106186500Y-66470800D03*
X82630000Y-64653600D03*
X67276900Y-57044400D03*
X104671900Y-78105200D03*
X106393100Y-75551200D03*
X93418100Y-52395600D03*
X67298100Y-53213200D03*
X85130000Y-64653600D03*
X83630000Y-64653600D03*
X90432200Y-54467300D03*
X104766800Y-76269800D03*
X67865400Y-54034100D03*
X103004400Y-61973500D03*
X88417600Y-61971900D03*
X119885000Y-50992000D03*
X102064100Y-61401100D03*
X89130000Y-61437200D03*
X101939800Y-66579100D03*
X109558000Y-59073500D03*
X96488900Y-66579100D03*
X122894300Y-47024200D03*
X96918000Y-64887700D03*
X119882800Y-46044200D03*
X78495000Y-71425200D03*
X75239200Y-71425200D03*
X71174100Y-51022000D03*
X68355700Y-66694700D03*
X71180100Y-54856100D03*
X81167100Y-73120000D03*
X71169000Y-52695700D03*
X72469300Y-61254500D03*
X81680700Y-69253300D03*
X78753400Y-69120000D03*
X79240900Y-52612500D03*
X68350900Y-68377500D03*
X78774300Y-72761000D03*
X81168800Y-67771900D03*
X75584400Y-62621000D03*
X71191500Y-50267800D03*
X65783100Y-68853300D03*
X72669400Y-74714600D03*
X126521300Y-47178200D03*
X106354200Y-59959800D03*
X110391200Y-57571300D03*
X123256600Y-75830400D03*
X115065500Y-63285700D03*
X67564000Y-47117000D03*
X90662600Y-69620000D03*
X67233600Y-69847100D03*
X111597100Y-62908400D03*
X117979600Y-61835200D03*
X90662600Y-76911600D03*
D17*
X104902000Y-57658000D03*
X102362000Y-57658000D03*
X99822000Y-57658000D03*
X97282000Y-57658000D03*
X94742000Y-57658000D03*
X92202000Y-57658000D03*
X89662000Y-57658000D03*
X87122000Y-57658000D03*
X84582000Y-57658000D03*
X84582000Y-50038000D03*
X87122000Y-50038000D03*
X89662000Y-50038000D03*
X92202000Y-50038000D03*
X94742000Y-50038000D03*
X97282000Y-50038000D03*
X99822000Y-50038000D03*
X102362000Y-50038000D03*
X104902000Y-50038000D03*
M02*
