%TF.GenerationSoftware,KiCad,Pcbnew,9.0.0-9.0.0-2~ubuntu24.10.1*%
%TF.CreationDate,2025-03-15T08:42:32-04:00*%
%TF.ProjectId,fat8,66617438-2e6b-4696-9361-645f70636258,rev?*%
%TF.SameCoordinates,Original*%
%TF.FileFunction,Soldermask,Bot*%
%TF.FilePolarity,Negative*%
%FSLAX46Y46*%
G04 Gerber Fmt 4.6, Leading zero omitted, Abs format (unit mm)*
G04 Created by KiCad (PCBNEW 9.0.0-9.0.0-2~ubuntu24.10.1) date 2025-03-15 08:42:32*
%MOMM*%
%LPD*%
G01*
G04 APERTURE LIST*
G04 APERTURE END LIST*
G36*
X105702000Y-58458000D02*
G01*
X104102000Y-58458000D01*
X104102000Y-56858000D01*
X105702000Y-56858000D01*
X105702000Y-58458000D01*
G37*
G36*
X84814228Y-56892448D02*
G01*
X84959117Y-56952463D01*
X85089515Y-57039592D01*
X85200408Y-57150485D01*
X85287537Y-57280883D01*
X85347552Y-57425772D01*
X85378148Y-57579586D01*
X85378148Y-57736414D01*
X85347552Y-57890228D01*
X85287537Y-58035117D01*
X85200408Y-58165515D01*
X85089515Y-58276408D01*
X84959117Y-58363537D01*
X84814228Y-58423552D01*
X84660414Y-58454148D01*
X84503586Y-58454148D01*
X84349772Y-58423552D01*
X84204883Y-58363537D01*
X84074485Y-58276408D01*
X83963592Y-58165515D01*
X83876463Y-58035117D01*
X83816448Y-57890228D01*
X83785852Y-57736414D01*
X83785852Y-57579586D01*
X83816448Y-57425772D01*
X83876463Y-57280883D01*
X83963592Y-57150485D01*
X84074485Y-57039592D01*
X84204883Y-56952463D01*
X84349772Y-56892448D01*
X84503586Y-56861852D01*
X84660414Y-56861852D01*
X84814228Y-56892448D01*
G37*
G36*
X87354228Y-56892448D02*
G01*
X87499117Y-56952463D01*
X87629515Y-57039592D01*
X87740408Y-57150485D01*
X87827537Y-57280883D01*
X87887552Y-57425772D01*
X87918148Y-57579586D01*
X87918148Y-57736414D01*
X87887552Y-57890228D01*
X87827537Y-58035117D01*
X87740408Y-58165515D01*
X87629515Y-58276408D01*
X87499117Y-58363537D01*
X87354228Y-58423552D01*
X87200414Y-58454148D01*
X87043586Y-58454148D01*
X86889772Y-58423552D01*
X86744883Y-58363537D01*
X86614485Y-58276408D01*
X86503592Y-58165515D01*
X86416463Y-58035117D01*
X86356448Y-57890228D01*
X86325852Y-57736414D01*
X86325852Y-57579586D01*
X86356448Y-57425772D01*
X86416463Y-57280883D01*
X86503592Y-57150485D01*
X86614485Y-57039592D01*
X86744883Y-56952463D01*
X86889772Y-56892448D01*
X87043586Y-56861852D01*
X87200414Y-56861852D01*
X87354228Y-56892448D01*
G37*
G36*
X89894228Y-56892448D02*
G01*
X90039117Y-56952463D01*
X90169515Y-57039592D01*
X90280408Y-57150485D01*
X90367537Y-57280883D01*
X90427552Y-57425772D01*
X90458148Y-57579586D01*
X90458148Y-57736414D01*
X90427552Y-57890228D01*
X90367537Y-58035117D01*
X90280408Y-58165515D01*
X90169515Y-58276408D01*
X90039117Y-58363537D01*
X89894228Y-58423552D01*
X89740414Y-58454148D01*
X89583586Y-58454148D01*
X89429772Y-58423552D01*
X89284883Y-58363537D01*
X89154485Y-58276408D01*
X89043592Y-58165515D01*
X88956463Y-58035117D01*
X88896448Y-57890228D01*
X88865852Y-57736414D01*
X88865852Y-57579586D01*
X88896448Y-57425772D01*
X88956463Y-57280883D01*
X89043592Y-57150485D01*
X89154485Y-57039592D01*
X89284883Y-56952463D01*
X89429772Y-56892448D01*
X89583586Y-56861852D01*
X89740414Y-56861852D01*
X89894228Y-56892448D01*
G37*
G36*
X92434228Y-56892448D02*
G01*
X92579117Y-56952463D01*
X92709515Y-57039592D01*
X92820408Y-57150485D01*
X92907537Y-57280883D01*
X92967552Y-57425772D01*
X92998148Y-57579586D01*
X92998148Y-57736414D01*
X92967552Y-57890228D01*
X92907537Y-58035117D01*
X92820408Y-58165515D01*
X92709515Y-58276408D01*
X92579117Y-58363537D01*
X92434228Y-58423552D01*
X92280414Y-58454148D01*
X92123586Y-58454148D01*
X91969772Y-58423552D01*
X91824883Y-58363537D01*
X91694485Y-58276408D01*
X91583592Y-58165515D01*
X91496463Y-58035117D01*
X91436448Y-57890228D01*
X91405852Y-57736414D01*
X91405852Y-57579586D01*
X91436448Y-57425772D01*
X91496463Y-57280883D01*
X91583592Y-57150485D01*
X91694485Y-57039592D01*
X91824883Y-56952463D01*
X91969772Y-56892448D01*
X92123586Y-56861852D01*
X92280414Y-56861852D01*
X92434228Y-56892448D01*
G37*
G36*
X94974228Y-56892448D02*
G01*
X95119117Y-56952463D01*
X95249515Y-57039592D01*
X95360408Y-57150485D01*
X95447537Y-57280883D01*
X95507552Y-57425772D01*
X95538148Y-57579586D01*
X95538148Y-57736414D01*
X95507552Y-57890228D01*
X95447537Y-58035117D01*
X95360408Y-58165515D01*
X95249515Y-58276408D01*
X95119117Y-58363537D01*
X94974228Y-58423552D01*
X94820414Y-58454148D01*
X94663586Y-58454148D01*
X94509772Y-58423552D01*
X94364883Y-58363537D01*
X94234485Y-58276408D01*
X94123592Y-58165515D01*
X94036463Y-58035117D01*
X93976448Y-57890228D01*
X93945852Y-57736414D01*
X93945852Y-57579586D01*
X93976448Y-57425772D01*
X94036463Y-57280883D01*
X94123592Y-57150485D01*
X94234485Y-57039592D01*
X94364883Y-56952463D01*
X94509772Y-56892448D01*
X94663586Y-56861852D01*
X94820414Y-56861852D01*
X94974228Y-56892448D01*
G37*
G36*
X97514228Y-56892448D02*
G01*
X97659117Y-56952463D01*
X97789515Y-57039592D01*
X97900408Y-57150485D01*
X97987537Y-57280883D01*
X98047552Y-57425772D01*
X98078148Y-57579586D01*
X98078148Y-57736414D01*
X98047552Y-57890228D01*
X97987537Y-58035117D01*
X97900408Y-58165515D01*
X97789515Y-58276408D01*
X97659117Y-58363537D01*
X97514228Y-58423552D01*
X97360414Y-58454148D01*
X97203586Y-58454148D01*
X97049772Y-58423552D01*
X96904883Y-58363537D01*
X96774485Y-58276408D01*
X96663592Y-58165515D01*
X96576463Y-58035117D01*
X96516448Y-57890228D01*
X96485852Y-57736414D01*
X96485852Y-57579586D01*
X96516448Y-57425772D01*
X96576463Y-57280883D01*
X96663592Y-57150485D01*
X96774485Y-57039592D01*
X96904883Y-56952463D01*
X97049772Y-56892448D01*
X97203586Y-56861852D01*
X97360414Y-56861852D01*
X97514228Y-56892448D01*
G37*
G36*
X100054228Y-56892448D02*
G01*
X100199117Y-56952463D01*
X100329515Y-57039592D01*
X100440408Y-57150485D01*
X100527537Y-57280883D01*
X100587552Y-57425772D01*
X100618148Y-57579586D01*
X100618148Y-57736414D01*
X100587552Y-57890228D01*
X100527537Y-58035117D01*
X100440408Y-58165515D01*
X100329515Y-58276408D01*
X100199117Y-58363537D01*
X100054228Y-58423552D01*
X99900414Y-58454148D01*
X99743586Y-58454148D01*
X99589772Y-58423552D01*
X99444883Y-58363537D01*
X99314485Y-58276408D01*
X99203592Y-58165515D01*
X99116463Y-58035117D01*
X99056448Y-57890228D01*
X99025852Y-57736414D01*
X99025852Y-57579586D01*
X99056448Y-57425772D01*
X99116463Y-57280883D01*
X99203592Y-57150485D01*
X99314485Y-57039592D01*
X99444883Y-56952463D01*
X99589772Y-56892448D01*
X99743586Y-56861852D01*
X99900414Y-56861852D01*
X100054228Y-56892448D01*
G37*
G36*
X102594228Y-56892448D02*
G01*
X102739117Y-56952463D01*
X102869515Y-57039592D01*
X102980408Y-57150485D01*
X103067537Y-57280883D01*
X103127552Y-57425772D01*
X103158148Y-57579586D01*
X103158148Y-57736414D01*
X103127552Y-57890228D01*
X103067537Y-58035117D01*
X102980408Y-58165515D01*
X102869515Y-58276408D01*
X102739117Y-58363537D01*
X102594228Y-58423552D01*
X102440414Y-58454148D01*
X102283586Y-58454148D01*
X102129772Y-58423552D01*
X101984883Y-58363537D01*
X101854485Y-58276408D01*
X101743592Y-58165515D01*
X101656463Y-58035117D01*
X101596448Y-57890228D01*
X101565852Y-57736414D01*
X101565852Y-57579586D01*
X101596448Y-57425772D01*
X101656463Y-57280883D01*
X101743592Y-57150485D01*
X101854485Y-57039592D01*
X101984883Y-56952463D01*
X102129772Y-56892448D01*
X102283586Y-56861852D01*
X102440414Y-56861852D01*
X102594228Y-56892448D01*
G37*
G36*
X77170000Y-57110000D02*
G01*
X76170000Y-57110000D01*
X76170000Y-56210000D01*
X77170000Y-56210000D01*
X77170000Y-57110000D01*
G37*
G36*
X78770000Y-57110000D02*
G01*
X77770000Y-57110000D01*
X77770000Y-56210000D01*
X78770000Y-56210000D01*
X78770000Y-57110000D01*
G37*
G36*
X77170000Y-53010000D02*
G01*
X76170000Y-53010000D01*
X76170000Y-52110000D01*
X77170000Y-52110000D01*
X77170000Y-53010000D01*
G37*
G36*
X78770000Y-53010000D02*
G01*
X77770000Y-53010000D01*
X77770000Y-52110000D01*
X78770000Y-52110000D01*
X78770000Y-53010000D01*
G37*
G36*
X84814228Y-49272448D02*
G01*
X84959117Y-49332463D01*
X85089515Y-49419592D01*
X85200408Y-49530485D01*
X85287537Y-49660883D01*
X85347552Y-49805772D01*
X85378148Y-49959586D01*
X85378148Y-50116414D01*
X85347552Y-50270228D01*
X85287537Y-50415117D01*
X85200408Y-50545515D01*
X85089515Y-50656408D01*
X84959117Y-50743537D01*
X84814228Y-50803552D01*
X84660414Y-50834148D01*
X84503586Y-50834148D01*
X84349772Y-50803552D01*
X84204883Y-50743537D01*
X84074485Y-50656408D01*
X83963592Y-50545515D01*
X83876463Y-50415117D01*
X83816448Y-50270228D01*
X83785852Y-50116414D01*
X83785852Y-49959586D01*
X83816448Y-49805772D01*
X83876463Y-49660883D01*
X83963592Y-49530485D01*
X84074485Y-49419592D01*
X84204883Y-49332463D01*
X84349772Y-49272448D01*
X84503586Y-49241852D01*
X84660414Y-49241852D01*
X84814228Y-49272448D01*
G37*
G36*
X87354228Y-49272448D02*
G01*
X87499117Y-49332463D01*
X87629515Y-49419592D01*
X87740408Y-49530485D01*
X87827537Y-49660883D01*
X87887552Y-49805772D01*
X87918148Y-49959586D01*
X87918148Y-50116414D01*
X87887552Y-50270228D01*
X87827537Y-50415117D01*
X87740408Y-50545515D01*
X87629515Y-50656408D01*
X87499117Y-50743537D01*
X87354228Y-50803552D01*
X87200414Y-50834148D01*
X87043586Y-50834148D01*
X86889772Y-50803552D01*
X86744883Y-50743537D01*
X86614485Y-50656408D01*
X86503592Y-50545515D01*
X86416463Y-50415117D01*
X86356448Y-50270228D01*
X86325852Y-50116414D01*
X86325852Y-49959586D01*
X86356448Y-49805772D01*
X86416463Y-49660883D01*
X86503592Y-49530485D01*
X86614485Y-49419592D01*
X86744883Y-49332463D01*
X86889772Y-49272448D01*
X87043586Y-49241852D01*
X87200414Y-49241852D01*
X87354228Y-49272448D01*
G37*
G36*
X89894228Y-49272448D02*
G01*
X90039117Y-49332463D01*
X90169515Y-49419592D01*
X90280408Y-49530485D01*
X90367537Y-49660883D01*
X90427552Y-49805772D01*
X90458148Y-49959586D01*
X90458148Y-50116414D01*
X90427552Y-50270228D01*
X90367537Y-50415117D01*
X90280408Y-50545515D01*
X90169515Y-50656408D01*
X90039117Y-50743537D01*
X89894228Y-50803552D01*
X89740414Y-50834148D01*
X89583586Y-50834148D01*
X89429772Y-50803552D01*
X89284883Y-50743537D01*
X89154485Y-50656408D01*
X89043592Y-50545515D01*
X88956463Y-50415117D01*
X88896448Y-50270228D01*
X88865852Y-50116414D01*
X88865852Y-49959586D01*
X88896448Y-49805772D01*
X88956463Y-49660883D01*
X89043592Y-49530485D01*
X89154485Y-49419592D01*
X89284883Y-49332463D01*
X89429772Y-49272448D01*
X89583586Y-49241852D01*
X89740414Y-49241852D01*
X89894228Y-49272448D01*
G37*
G36*
X92434228Y-49272448D02*
G01*
X92579117Y-49332463D01*
X92709515Y-49419592D01*
X92820408Y-49530485D01*
X92907537Y-49660883D01*
X92967552Y-49805772D01*
X92998148Y-49959586D01*
X92998148Y-50116414D01*
X92967552Y-50270228D01*
X92907537Y-50415117D01*
X92820408Y-50545515D01*
X92709515Y-50656408D01*
X92579117Y-50743537D01*
X92434228Y-50803552D01*
X92280414Y-50834148D01*
X92123586Y-50834148D01*
X91969772Y-50803552D01*
X91824883Y-50743537D01*
X91694485Y-50656408D01*
X91583592Y-50545515D01*
X91496463Y-50415117D01*
X91436448Y-50270228D01*
X91405852Y-50116414D01*
X91405852Y-49959586D01*
X91436448Y-49805772D01*
X91496463Y-49660883D01*
X91583592Y-49530485D01*
X91694485Y-49419592D01*
X91824883Y-49332463D01*
X91969772Y-49272448D01*
X92123586Y-49241852D01*
X92280414Y-49241852D01*
X92434228Y-49272448D01*
G37*
G36*
X94974228Y-49272448D02*
G01*
X95119117Y-49332463D01*
X95249515Y-49419592D01*
X95360408Y-49530485D01*
X95447537Y-49660883D01*
X95507552Y-49805772D01*
X95538148Y-49959586D01*
X95538148Y-50116414D01*
X95507552Y-50270228D01*
X95447537Y-50415117D01*
X95360408Y-50545515D01*
X95249515Y-50656408D01*
X95119117Y-50743537D01*
X94974228Y-50803552D01*
X94820414Y-50834148D01*
X94663586Y-50834148D01*
X94509772Y-50803552D01*
X94364883Y-50743537D01*
X94234485Y-50656408D01*
X94123592Y-50545515D01*
X94036463Y-50415117D01*
X93976448Y-50270228D01*
X93945852Y-50116414D01*
X93945852Y-49959586D01*
X93976448Y-49805772D01*
X94036463Y-49660883D01*
X94123592Y-49530485D01*
X94234485Y-49419592D01*
X94364883Y-49332463D01*
X94509772Y-49272448D01*
X94663586Y-49241852D01*
X94820414Y-49241852D01*
X94974228Y-49272448D01*
G37*
G36*
X97514228Y-49272448D02*
G01*
X97659117Y-49332463D01*
X97789515Y-49419592D01*
X97900408Y-49530485D01*
X97987537Y-49660883D01*
X98047552Y-49805772D01*
X98078148Y-49959586D01*
X98078148Y-50116414D01*
X98047552Y-50270228D01*
X97987537Y-50415117D01*
X97900408Y-50545515D01*
X97789515Y-50656408D01*
X97659117Y-50743537D01*
X97514228Y-50803552D01*
X97360414Y-50834148D01*
X97203586Y-50834148D01*
X97049772Y-50803552D01*
X96904883Y-50743537D01*
X96774485Y-50656408D01*
X96663592Y-50545515D01*
X96576463Y-50415117D01*
X96516448Y-50270228D01*
X96485852Y-50116414D01*
X96485852Y-49959586D01*
X96516448Y-49805772D01*
X96576463Y-49660883D01*
X96663592Y-49530485D01*
X96774485Y-49419592D01*
X96904883Y-49332463D01*
X97049772Y-49272448D01*
X97203586Y-49241852D01*
X97360414Y-49241852D01*
X97514228Y-49272448D01*
G37*
G36*
X100054228Y-49272448D02*
G01*
X100199117Y-49332463D01*
X100329515Y-49419592D01*
X100440408Y-49530485D01*
X100527537Y-49660883D01*
X100587552Y-49805772D01*
X100618148Y-49959586D01*
X100618148Y-50116414D01*
X100587552Y-50270228D01*
X100527537Y-50415117D01*
X100440408Y-50545515D01*
X100329515Y-50656408D01*
X100199117Y-50743537D01*
X100054228Y-50803552D01*
X99900414Y-50834148D01*
X99743586Y-50834148D01*
X99589772Y-50803552D01*
X99444883Y-50743537D01*
X99314485Y-50656408D01*
X99203592Y-50545515D01*
X99116463Y-50415117D01*
X99056448Y-50270228D01*
X99025852Y-50116414D01*
X99025852Y-49959586D01*
X99056448Y-49805772D01*
X99116463Y-49660883D01*
X99203592Y-49530485D01*
X99314485Y-49419592D01*
X99444883Y-49332463D01*
X99589772Y-49272448D01*
X99743586Y-49241852D01*
X99900414Y-49241852D01*
X100054228Y-49272448D01*
G37*
G36*
X102594228Y-49272448D02*
G01*
X102739117Y-49332463D01*
X102869515Y-49419592D01*
X102980408Y-49530485D01*
X103067537Y-49660883D01*
X103127552Y-49805772D01*
X103158148Y-49959586D01*
X103158148Y-50116414D01*
X103127552Y-50270228D01*
X103067537Y-50415117D01*
X102980408Y-50545515D01*
X102869515Y-50656408D01*
X102739117Y-50743537D01*
X102594228Y-50803552D01*
X102440414Y-50834148D01*
X102283586Y-50834148D01*
X102129772Y-50803552D01*
X101984883Y-50743537D01*
X101854485Y-50656408D01*
X101743592Y-50545515D01*
X101656463Y-50415117D01*
X101596448Y-50270228D01*
X101565852Y-50116414D01*
X101565852Y-49959586D01*
X101596448Y-49805772D01*
X101656463Y-49660883D01*
X101743592Y-49530485D01*
X101854485Y-49419592D01*
X101984883Y-49332463D01*
X102129772Y-49272448D01*
X102283586Y-49241852D01*
X102440414Y-49241852D01*
X102594228Y-49272448D01*
G37*
G36*
X105134228Y-49272448D02*
G01*
X105279117Y-49332463D01*
X105409515Y-49419592D01*
X105520408Y-49530485D01*
X105607537Y-49660883D01*
X105667552Y-49805772D01*
X105698148Y-49959586D01*
X105698148Y-50116414D01*
X105667552Y-50270228D01*
X105607537Y-50415117D01*
X105520408Y-50545515D01*
X105409515Y-50656408D01*
X105279117Y-50743537D01*
X105134228Y-50803552D01*
X104980414Y-50834148D01*
X104823586Y-50834148D01*
X104669772Y-50803552D01*
X104524883Y-50743537D01*
X104394485Y-50656408D01*
X104283592Y-50545515D01*
X104196463Y-50415117D01*
X104136448Y-50270228D01*
X104105852Y-50116414D01*
X104105852Y-49959586D01*
X104136448Y-49805772D01*
X104196463Y-49660883D01*
X104283592Y-49530485D01*
X104394485Y-49419592D01*
X104524883Y-49332463D01*
X104669772Y-49272448D01*
X104823586Y-49241852D01*
X104980414Y-49241852D01*
X105134228Y-49272448D01*
G37*
M02*
