%TF.GenerationSoftware,KiCad,Pcbnew,9.0.0-9.0.0-2~ubuntu24.10.1*%
%TF.CreationDate,2025-03-15T08:42:32-04:00*%
%TF.ProjectId,fat8,66617438-2e6b-4696-9361-645f70636258,rev?*%
%TF.SameCoordinates,Original*%
%TF.FileFunction,Legend,Top*%
%TF.FilePolarity,Positive*%
%FSLAX46Y46*%
G04 Gerber Fmt 4.6, Leading zero omitted, Abs format (unit mm)*
G04 Created by KiCad (PCBNEW 9.0.0-9.0.0-2~ubuntu24.10.1) date 2025-03-15 08:42:32*
%MOMM*%
%LPD*%
G01*
G04 APERTURE LIST*
%ADD10C,0.304800*%
%ADD11C,0.150000*%
%ADD12C,0.120000*%
%ADD13C,0.010000*%
%ADD14C,0.350000*%
G04 APERTURE END LIST*
D10*
X65514811Y-76505641D02*
X65514811Y-77594212D01*
X65514811Y-77594212D02*
X65442240Y-77811927D01*
X65442240Y-77811927D02*
X65297097Y-77957070D01*
X65297097Y-77957070D02*
X65079383Y-78029641D01*
X65079383Y-78029641D02*
X64934240Y-78029641D01*
X66022811Y-76505641D02*
X66893669Y-76505641D01*
X66458240Y-78029641D02*
X66458240Y-76505641D01*
X67329097Y-77594212D02*
X68054812Y-77594212D01*
X67183954Y-78029641D02*
X67691954Y-76505641D01*
X67691954Y-76505641D02*
X68199954Y-78029641D01*
X69506240Y-76578212D02*
X69361098Y-76505641D01*
X69361098Y-76505641D02*
X69143383Y-76505641D01*
X69143383Y-76505641D02*
X68925669Y-76578212D01*
X68925669Y-76578212D02*
X68780526Y-76723355D01*
X68780526Y-76723355D02*
X68707955Y-76868498D01*
X68707955Y-76868498D02*
X68635383Y-77158784D01*
X68635383Y-77158784D02*
X68635383Y-77376498D01*
X68635383Y-77376498D02*
X68707955Y-77666784D01*
X68707955Y-77666784D02*
X68780526Y-77811927D01*
X68780526Y-77811927D02*
X68925669Y-77957070D01*
X68925669Y-77957070D02*
X69143383Y-78029641D01*
X69143383Y-78029641D02*
X69288526Y-78029641D01*
X69288526Y-78029641D02*
X69506240Y-77957070D01*
X69506240Y-77957070D02*
X69578812Y-77884498D01*
X69578812Y-77884498D02*
X69578812Y-77376498D01*
X69578812Y-77376498D02*
X69288526Y-77376498D01*
X66095383Y-61773641D02*
X66095383Y-60249641D01*
X67909668Y-60177070D02*
X66603382Y-62136498D01*
X68707953Y-60249641D02*
X68998239Y-60249641D01*
X68998239Y-60249641D02*
X69143382Y-60322212D01*
X69143382Y-60322212D02*
X69288525Y-60467355D01*
X69288525Y-60467355D02*
X69361096Y-60757641D01*
X69361096Y-60757641D02*
X69361096Y-61265641D01*
X69361096Y-61265641D02*
X69288525Y-61555927D01*
X69288525Y-61555927D02*
X69143382Y-61701070D01*
X69143382Y-61701070D02*
X68998239Y-61773641D01*
X68998239Y-61773641D02*
X68707953Y-61773641D01*
X68707953Y-61773641D02*
X68562811Y-61701070D01*
X68562811Y-61701070D02*
X68417668Y-61555927D01*
X68417668Y-61555927D02*
X68345096Y-61265641D01*
X68345096Y-61265641D02*
X68345096Y-60757641D01*
X68345096Y-60757641D02*
X68417668Y-60467355D01*
X68417668Y-60467355D02*
X68562811Y-60322212D01*
X68562811Y-60322212D02*
X68707953Y-60249641D01*
D11*
X124007333Y-54715580D02*
X123959714Y-54763200D01*
X123959714Y-54763200D02*
X123816857Y-54810819D01*
X123816857Y-54810819D02*
X123721619Y-54810819D01*
X123721619Y-54810819D02*
X123578762Y-54763200D01*
X123578762Y-54763200D02*
X123483524Y-54667961D01*
X123483524Y-54667961D02*
X123435905Y-54572723D01*
X123435905Y-54572723D02*
X123388286Y-54382247D01*
X123388286Y-54382247D02*
X123388286Y-54239390D01*
X123388286Y-54239390D02*
X123435905Y-54048914D01*
X123435905Y-54048914D02*
X123483524Y-53953676D01*
X123483524Y-53953676D02*
X123578762Y-53858438D01*
X123578762Y-53858438D02*
X123721619Y-53810819D01*
X123721619Y-53810819D02*
X123816857Y-53810819D01*
X123816857Y-53810819D02*
X123959714Y-53858438D01*
X123959714Y-53858438D02*
X124007333Y-53906057D01*
X124959714Y-54810819D02*
X124388286Y-54810819D01*
X124674000Y-54810819D02*
X124674000Y-53810819D01*
X124674000Y-53810819D02*
X124578762Y-53953676D01*
X124578762Y-53953676D02*
X124483524Y-54048914D01*
X124483524Y-54048914D02*
X124388286Y-54096533D01*
X76287333Y-75249580D02*
X76239714Y-75297200D01*
X76239714Y-75297200D02*
X76096857Y-75344819D01*
X76096857Y-75344819D02*
X76001619Y-75344819D01*
X76001619Y-75344819D02*
X75858762Y-75297200D01*
X75858762Y-75297200D02*
X75763524Y-75201961D01*
X75763524Y-75201961D02*
X75715905Y-75106723D01*
X75715905Y-75106723D02*
X75668286Y-74916247D01*
X75668286Y-74916247D02*
X75668286Y-74773390D01*
X75668286Y-74773390D02*
X75715905Y-74582914D01*
X75715905Y-74582914D02*
X75763524Y-74487676D01*
X75763524Y-74487676D02*
X75858762Y-74392438D01*
X75858762Y-74392438D02*
X76001619Y-74344819D01*
X76001619Y-74344819D02*
X76096857Y-74344819D01*
X76096857Y-74344819D02*
X76239714Y-74392438D01*
X76239714Y-74392438D02*
X76287333Y-74440057D01*
X77144476Y-74344819D02*
X76954000Y-74344819D01*
X76954000Y-74344819D02*
X76858762Y-74392438D01*
X76858762Y-74392438D02*
X76811143Y-74440057D01*
X76811143Y-74440057D02*
X76715905Y-74582914D01*
X76715905Y-74582914D02*
X76668286Y-74773390D01*
X76668286Y-74773390D02*
X76668286Y-75154342D01*
X76668286Y-75154342D02*
X76715905Y-75249580D01*
X76715905Y-75249580D02*
X76763524Y-75297200D01*
X76763524Y-75297200D02*
X76858762Y-75344819D01*
X76858762Y-75344819D02*
X77049238Y-75344819D01*
X77049238Y-75344819D02*
X77144476Y-75297200D01*
X77144476Y-75297200D02*
X77192095Y-75249580D01*
X77192095Y-75249580D02*
X77239714Y-75154342D01*
X77239714Y-75154342D02*
X77239714Y-74916247D01*
X77239714Y-74916247D02*
X77192095Y-74821009D01*
X77192095Y-74821009D02*
X77144476Y-74773390D01*
X77144476Y-74773390D02*
X77049238Y-74725771D01*
X77049238Y-74725771D02*
X76858762Y-74725771D01*
X76858762Y-74725771D02*
X76763524Y-74773390D01*
X76763524Y-74773390D02*
X76715905Y-74821009D01*
X76715905Y-74821009D02*
X76668286Y-74916247D01*
X124039333Y-58620819D02*
X123706000Y-58144628D01*
X123467905Y-58620819D02*
X123467905Y-57620819D01*
X123467905Y-57620819D02*
X123848857Y-57620819D01*
X123848857Y-57620819D02*
X123944095Y-57668438D01*
X123944095Y-57668438D02*
X123991714Y-57716057D01*
X123991714Y-57716057D02*
X124039333Y-57811295D01*
X124039333Y-57811295D02*
X124039333Y-57954152D01*
X124039333Y-57954152D02*
X123991714Y-58049390D01*
X123991714Y-58049390D02*
X123944095Y-58097009D01*
X123944095Y-58097009D02*
X123848857Y-58144628D01*
X123848857Y-58144628D02*
X123467905Y-58144628D01*
X124420286Y-57716057D02*
X124467905Y-57668438D01*
X124467905Y-57668438D02*
X124563143Y-57620819D01*
X124563143Y-57620819D02*
X124801238Y-57620819D01*
X124801238Y-57620819D02*
X124896476Y-57668438D01*
X124896476Y-57668438D02*
X124944095Y-57716057D01*
X124944095Y-57716057D02*
X124991714Y-57811295D01*
X124991714Y-57811295D02*
X124991714Y-57906533D01*
X124991714Y-57906533D02*
X124944095Y-58049390D01*
X124944095Y-58049390D02*
X124372667Y-58620819D01*
X124372667Y-58620819D02*
X124991714Y-58620819D01*
X104481333Y-47857580D02*
X104433714Y-47905200D01*
X104433714Y-47905200D02*
X104290857Y-47952819D01*
X104290857Y-47952819D02*
X104195619Y-47952819D01*
X104195619Y-47952819D02*
X104052762Y-47905200D01*
X104052762Y-47905200D02*
X103957524Y-47809961D01*
X103957524Y-47809961D02*
X103909905Y-47714723D01*
X103909905Y-47714723D02*
X103862286Y-47524247D01*
X103862286Y-47524247D02*
X103862286Y-47381390D01*
X103862286Y-47381390D02*
X103909905Y-47190914D01*
X103909905Y-47190914D02*
X103957524Y-47095676D01*
X103957524Y-47095676D02*
X104052762Y-47000438D01*
X104052762Y-47000438D02*
X104195619Y-46952819D01*
X104195619Y-46952819D02*
X104290857Y-46952819D01*
X104290857Y-46952819D02*
X104433714Y-47000438D01*
X104433714Y-47000438D02*
X104481333Y-47048057D01*
X105052762Y-47381390D02*
X104957524Y-47333771D01*
X104957524Y-47333771D02*
X104909905Y-47286152D01*
X104909905Y-47286152D02*
X104862286Y-47190914D01*
X104862286Y-47190914D02*
X104862286Y-47143295D01*
X104862286Y-47143295D02*
X104909905Y-47048057D01*
X104909905Y-47048057D02*
X104957524Y-47000438D01*
X104957524Y-47000438D02*
X105052762Y-46952819D01*
X105052762Y-46952819D02*
X105243238Y-46952819D01*
X105243238Y-46952819D02*
X105338476Y-47000438D01*
X105338476Y-47000438D02*
X105386095Y-47048057D01*
X105386095Y-47048057D02*
X105433714Y-47143295D01*
X105433714Y-47143295D02*
X105433714Y-47190914D01*
X105433714Y-47190914D02*
X105386095Y-47286152D01*
X105386095Y-47286152D02*
X105338476Y-47333771D01*
X105338476Y-47333771D02*
X105243238Y-47381390D01*
X105243238Y-47381390D02*
X105052762Y-47381390D01*
X105052762Y-47381390D02*
X104957524Y-47429009D01*
X104957524Y-47429009D02*
X104909905Y-47476628D01*
X104909905Y-47476628D02*
X104862286Y-47571866D01*
X104862286Y-47571866D02*
X104862286Y-47762342D01*
X104862286Y-47762342D02*
X104909905Y-47857580D01*
X104909905Y-47857580D02*
X104957524Y-47905200D01*
X104957524Y-47905200D02*
X105052762Y-47952819D01*
X105052762Y-47952819D02*
X105243238Y-47952819D01*
X105243238Y-47952819D02*
X105338476Y-47905200D01*
X105338476Y-47905200D02*
X105386095Y-47857580D01*
X105386095Y-47857580D02*
X105433714Y-47762342D01*
X105433714Y-47762342D02*
X105433714Y-47571866D01*
X105433714Y-47571866D02*
X105386095Y-47476628D01*
X105386095Y-47476628D02*
X105338476Y-47429009D01*
X105338476Y-47429009D02*
X105243238Y-47381390D01*
X79081333Y-81258580D02*
X79033714Y-81306200D01*
X79033714Y-81306200D02*
X78890857Y-81353819D01*
X78890857Y-81353819D02*
X78795619Y-81353819D01*
X78795619Y-81353819D02*
X78652762Y-81306200D01*
X78652762Y-81306200D02*
X78557524Y-81210961D01*
X78557524Y-81210961D02*
X78509905Y-81115723D01*
X78509905Y-81115723D02*
X78462286Y-80925247D01*
X78462286Y-80925247D02*
X78462286Y-80782390D01*
X78462286Y-80782390D02*
X78509905Y-80591914D01*
X78509905Y-80591914D02*
X78557524Y-80496676D01*
X78557524Y-80496676D02*
X78652762Y-80401438D01*
X78652762Y-80401438D02*
X78795619Y-80353819D01*
X78795619Y-80353819D02*
X78890857Y-80353819D01*
X78890857Y-80353819D02*
X79033714Y-80401438D01*
X79033714Y-80401438D02*
X79081333Y-80449057D01*
X79986095Y-80353819D02*
X79509905Y-80353819D01*
X79509905Y-80353819D02*
X79462286Y-80830009D01*
X79462286Y-80830009D02*
X79509905Y-80782390D01*
X79509905Y-80782390D02*
X79605143Y-80734771D01*
X79605143Y-80734771D02*
X79843238Y-80734771D01*
X79843238Y-80734771D02*
X79938476Y-80782390D01*
X79938476Y-80782390D02*
X79986095Y-80830009D01*
X79986095Y-80830009D02*
X80033714Y-80925247D01*
X80033714Y-80925247D02*
X80033714Y-81163342D01*
X80033714Y-81163342D02*
X79986095Y-81258580D01*
X79986095Y-81258580D02*
X79938476Y-81306200D01*
X79938476Y-81306200D02*
X79843238Y-81353819D01*
X79843238Y-81353819D02*
X79605143Y-81353819D01*
X79605143Y-81353819D02*
X79509905Y-81306200D01*
X79509905Y-81306200D02*
X79462286Y-81258580D01*
X78613095Y-62700819D02*
X78613095Y-63510342D01*
X78613095Y-63510342D02*
X78660714Y-63605580D01*
X78660714Y-63605580D02*
X78708333Y-63653200D01*
X78708333Y-63653200D02*
X78803571Y-63700819D01*
X78803571Y-63700819D02*
X78994047Y-63700819D01*
X78994047Y-63700819D02*
X79089285Y-63653200D01*
X79089285Y-63653200D02*
X79136904Y-63605580D01*
X79136904Y-63605580D02*
X79184523Y-63510342D01*
X79184523Y-63510342D02*
X79184523Y-62700819D01*
X80089285Y-63034152D02*
X80089285Y-63700819D01*
X79851190Y-62653200D02*
X79613095Y-63367485D01*
X79613095Y-63367485D02*
X80232142Y-63367485D01*
X130643333Y-52016819D02*
X130310000Y-51540628D01*
X130071905Y-52016819D02*
X130071905Y-51016819D01*
X130071905Y-51016819D02*
X130452857Y-51016819D01*
X130452857Y-51016819D02*
X130548095Y-51064438D01*
X130548095Y-51064438D02*
X130595714Y-51112057D01*
X130595714Y-51112057D02*
X130643333Y-51207295D01*
X130643333Y-51207295D02*
X130643333Y-51350152D01*
X130643333Y-51350152D02*
X130595714Y-51445390D01*
X130595714Y-51445390D02*
X130548095Y-51493009D01*
X130548095Y-51493009D02*
X130452857Y-51540628D01*
X130452857Y-51540628D02*
X130071905Y-51540628D01*
X131595714Y-52016819D02*
X131024286Y-52016819D01*
X131310000Y-52016819D02*
X131310000Y-51016819D01*
X131310000Y-51016819D02*
X131214762Y-51159676D01*
X131214762Y-51159676D02*
X131119524Y-51254914D01*
X131119524Y-51254914D02*
X131024286Y-51302533D01*
X78414666Y-55820819D02*
X78414666Y-56535104D01*
X78414666Y-56535104D02*
X78367047Y-56677961D01*
X78367047Y-56677961D02*
X78271809Y-56773200D01*
X78271809Y-56773200D02*
X78128952Y-56820819D01*
X78128952Y-56820819D02*
X78033714Y-56820819D01*
X78890857Y-56820819D02*
X78890857Y-55820819D01*
X78890857Y-55820819D02*
X79271809Y-55820819D01*
X79271809Y-55820819D02*
X79367047Y-55868438D01*
X79367047Y-55868438D02*
X79414666Y-55916057D01*
X79414666Y-55916057D02*
X79462285Y-56011295D01*
X79462285Y-56011295D02*
X79462285Y-56154152D01*
X79462285Y-56154152D02*
X79414666Y-56249390D01*
X79414666Y-56249390D02*
X79367047Y-56297009D01*
X79367047Y-56297009D02*
X79271809Y-56344628D01*
X79271809Y-56344628D02*
X78890857Y-56344628D01*
X80414666Y-56820819D02*
X79843238Y-56820819D01*
X80128952Y-56820819D02*
X80128952Y-55820819D01*
X80128952Y-55820819D02*
X80033714Y-55963676D01*
X80033714Y-55963676D02*
X79938476Y-56058914D01*
X79938476Y-56058914D02*
X79843238Y-56106533D01*
X81057905Y-58509819D02*
X81391238Y-59509819D01*
X81391238Y-59509819D02*
X81724571Y-58509819D01*
X82057905Y-58843152D02*
X82057905Y-59843152D01*
X82057905Y-58890771D02*
X82153143Y-58843152D01*
X82153143Y-58843152D02*
X82343619Y-58843152D01*
X82343619Y-58843152D02*
X82438857Y-58890771D01*
X82438857Y-58890771D02*
X82486476Y-58938390D01*
X82486476Y-58938390D02*
X82534095Y-59033628D01*
X82534095Y-59033628D02*
X82534095Y-59319342D01*
X82534095Y-59319342D02*
X82486476Y-59414580D01*
X82486476Y-59414580D02*
X82438857Y-59462200D01*
X82438857Y-59462200D02*
X82343619Y-59509819D01*
X82343619Y-59509819D02*
X82153143Y-59509819D01*
X82153143Y-59509819D02*
X82057905Y-59462200D01*
X82962667Y-58843152D02*
X82962667Y-59843152D01*
X82962667Y-58890771D02*
X83057905Y-58843152D01*
X83057905Y-58843152D02*
X83248381Y-58843152D01*
X83248381Y-58843152D02*
X83343619Y-58890771D01*
X83343619Y-58890771D02*
X83391238Y-58938390D01*
X83391238Y-58938390D02*
X83438857Y-59033628D01*
X83438857Y-59033628D02*
X83438857Y-59319342D01*
X83438857Y-59319342D02*
X83391238Y-59414580D01*
X83391238Y-59414580D02*
X83343619Y-59462200D01*
X83343619Y-59462200D02*
X83248381Y-59509819D01*
X83248381Y-59509819D02*
X83057905Y-59509819D01*
X83057905Y-59509819D02*
X82962667Y-59462200D01*
X130230666Y-63237819D02*
X130230666Y-63952104D01*
X130230666Y-63952104D02*
X130183047Y-64094961D01*
X130183047Y-64094961D02*
X130087809Y-64190200D01*
X130087809Y-64190200D02*
X129944952Y-64237819D01*
X129944952Y-64237819D02*
X129849714Y-64237819D01*
X130659238Y-63333057D02*
X130706857Y-63285438D01*
X130706857Y-63285438D02*
X130802095Y-63237819D01*
X130802095Y-63237819D02*
X131040190Y-63237819D01*
X131040190Y-63237819D02*
X131135428Y-63285438D01*
X131135428Y-63285438D02*
X131183047Y-63333057D01*
X131183047Y-63333057D02*
X131230666Y-63428295D01*
X131230666Y-63428295D02*
X131230666Y-63523533D01*
X131230666Y-63523533D02*
X131183047Y-63666390D01*
X131183047Y-63666390D02*
X130611619Y-64237819D01*
X130611619Y-64237819D02*
X131230666Y-64237819D01*
X130071905Y-43695819D02*
X130071905Y-42695819D01*
X130071905Y-42695819D02*
X130310000Y-42695819D01*
X130310000Y-42695819D02*
X130452857Y-42743438D01*
X130452857Y-42743438D02*
X130548095Y-42838676D01*
X130548095Y-42838676D02*
X130595714Y-42933914D01*
X130595714Y-42933914D02*
X130643333Y-43124390D01*
X130643333Y-43124390D02*
X130643333Y-43267247D01*
X130643333Y-43267247D02*
X130595714Y-43457723D01*
X130595714Y-43457723D02*
X130548095Y-43552961D01*
X130548095Y-43552961D02*
X130452857Y-43648200D01*
X130452857Y-43648200D02*
X130310000Y-43695819D01*
X130310000Y-43695819D02*
X130071905Y-43695819D01*
X131595714Y-43695819D02*
X131024286Y-43695819D01*
X131310000Y-43695819D02*
X131310000Y-42695819D01*
X131310000Y-42695819D02*
X131214762Y-42838676D01*
X131214762Y-42838676D02*
X131119524Y-42933914D01*
X131119524Y-42933914D02*
X131024286Y-42981533D01*
X67230666Y-44876819D02*
X67230666Y-45591104D01*
X67230666Y-45591104D02*
X67183047Y-45733961D01*
X67183047Y-45733961D02*
X67087809Y-45829200D01*
X67087809Y-45829200D02*
X66944952Y-45876819D01*
X66944952Y-45876819D02*
X66849714Y-45876819D01*
X67611619Y-44876819D02*
X68230666Y-44876819D01*
X68230666Y-44876819D02*
X67897333Y-45257771D01*
X67897333Y-45257771D02*
X68040190Y-45257771D01*
X68040190Y-45257771D02*
X68135428Y-45305390D01*
X68135428Y-45305390D02*
X68183047Y-45353009D01*
X68183047Y-45353009D02*
X68230666Y-45448247D01*
X68230666Y-45448247D02*
X68230666Y-45686342D01*
X68230666Y-45686342D02*
X68183047Y-45781580D01*
X68183047Y-45781580D02*
X68135428Y-45829200D01*
X68135428Y-45829200D02*
X68040190Y-45876819D01*
X68040190Y-45876819D02*
X67754476Y-45876819D01*
X67754476Y-45876819D02*
X67659238Y-45829200D01*
X67659238Y-45829200D02*
X67611619Y-45781580D01*
X101139333Y-63351580D02*
X101091714Y-63399200D01*
X101091714Y-63399200D02*
X100948857Y-63446819D01*
X100948857Y-63446819D02*
X100853619Y-63446819D01*
X100853619Y-63446819D02*
X100710762Y-63399200D01*
X100710762Y-63399200D02*
X100615524Y-63303961D01*
X100615524Y-63303961D02*
X100567905Y-63208723D01*
X100567905Y-63208723D02*
X100520286Y-63018247D01*
X100520286Y-63018247D02*
X100520286Y-62875390D01*
X100520286Y-62875390D02*
X100567905Y-62684914D01*
X100567905Y-62684914D02*
X100615524Y-62589676D01*
X100615524Y-62589676D02*
X100710762Y-62494438D01*
X100710762Y-62494438D02*
X100853619Y-62446819D01*
X100853619Y-62446819D02*
X100948857Y-62446819D01*
X100948857Y-62446819D02*
X101091714Y-62494438D01*
X101091714Y-62494438D02*
X101139333Y-62542057D01*
X101996476Y-62780152D02*
X101996476Y-63446819D01*
X101758381Y-62399200D02*
X101520286Y-63113485D01*
X101520286Y-63113485D02*
X102139333Y-63113485D01*
X124039333Y-72463819D02*
X123706000Y-71987628D01*
X123467905Y-72463819D02*
X123467905Y-71463819D01*
X123467905Y-71463819D02*
X123848857Y-71463819D01*
X123848857Y-71463819D02*
X123944095Y-71511438D01*
X123944095Y-71511438D02*
X123991714Y-71559057D01*
X123991714Y-71559057D02*
X124039333Y-71654295D01*
X124039333Y-71654295D02*
X124039333Y-71797152D01*
X124039333Y-71797152D02*
X123991714Y-71892390D01*
X123991714Y-71892390D02*
X123944095Y-71940009D01*
X123944095Y-71940009D02*
X123848857Y-71987628D01*
X123848857Y-71987628D02*
X123467905Y-71987628D01*
X124896476Y-71797152D02*
X124896476Y-72463819D01*
X124658381Y-71416200D02*
X124420286Y-72130485D01*
X124420286Y-72130485D02*
X125039333Y-72130485D01*
X87638095Y-82385819D02*
X88209523Y-82385819D01*
X87923809Y-83385819D02*
X87923809Y-82385819D01*
X88542857Y-83385819D02*
X88542857Y-82385819D01*
X88542857Y-82385819D02*
X88923809Y-82385819D01*
X88923809Y-82385819D02*
X89019047Y-82433438D01*
X89019047Y-82433438D02*
X89066666Y-82481057D01*
X89066666Y-82481057D02*
X89114285Y-82576295D01*
X89114285Y-82576295D02*
X89114285Y-82719152D01*
X89114285Y-82719152D02*
X89066666Y-82814390D01*
X89066666Y-82814390D02*
X89019047Y-82862009D01*
X89019047Y-82862009D02*
X88923809Y-82909628D01*
X88923809Y-82909628D02*
X88542857Y-82909628D01*
X89447619Y-82385819D02*
X90066666Y-82385819D01*
X90066666Y-82385819D02*
X89733333Y-82766771D01*
X89733333Y-82766771D02*
X89876190Y-82766771D01*
X89876190Y-82766771D02*
X89971428Y-82814390D01*
X89971428Y-82814390D02*
X90019047Y-82862009D01*
X90019047Y-82862009D02*
X90066666Y-82957247D01*
X90066666Y-82957247D02*
X90066666Y-83195342D01*
X90066666Y-83195342D02*
X90019047Y-83290580D01*
X90019047Y-83290580D02*
X89971428Y-83338200D01*
X89971428Y-83338200D02*
X89876190Y-83385819D01*
X89876190Y-83385819D02*
X89590476Y-83385819D01*
X89590476Y-83385819D02*
X89495238Y-83338200D01*
X89495238Y-83338200D02*
X89447619Y-83290580D01*
X83574095Y-82385819D02*
X84145523Y-82385819D01*
X83859809Y-83385819D02*
X83859809Y-82385819D01*
X84478857Y-83385819D02*
X84478857Y-82385819D01*
X84478857Y-82385819D02*
X84859809Y-82385819D01*
X84859809Y-82385819D02*
X84955047Y-82433438D01*
X84955047Y-82433438D02*
X85002666Y-82481057D01*
X85002666Y-82481057D02*
X85050285Y-82576295D01*
X85050285Y-82576295D02*
X85050285Y-82719152D01*
X85050285Y-82719152D02*
X85002666Y-82814390D01*
X85002666Y-82814390D02*
X84955047Y-82862009D01*
X84955047Y-82862009D02*
X84859809Y-82909628D01*
X84859809Y-82909628D02*
X84478857Y-82909628D01*
X86002666Y-83385819D02*
X85431238Y-83385819D01*
X85716952Y-83385819D02*
X85716952Y-82385819D01*
X85716952Y-82385819D02*
X85621714Y-82528676D01*
X85621714Y-82528676D02*
X85526476Y-82623914D01*
X85526476Y-82623914D02*
X85431238Y-82671533D01*
X114077905Y-62684819D02*
X114077905Y-61684819D01*
X114077905Y-61684819D02*
X114316000Y-61684819D01*
X114316000Y-61684819D02*
X114458857Y-61732438D01*
X114458857Y-61732438D02*
X114554095Y-61827676D01*
X114554095Y-61827676D02*
X114601714Y-61922914D01*
X114601714Y-61922914D02*
X114649333Y-62113390D01*
X114649333Y-62113390D02*
X114649333Y-62256247D01*
X114649333Y-62256247D02*
X114601714Y-62446723D01*
X114601714Y-62446723D02*
X114554095Y-62541961D01*
X114554095Y-62541961D02*
X114458857Y-62637200D01*
X114458857Y-62637200D02*
X114316000Y-62684819D01*
X114316000Y-62684819D02*
X114077905Y-62684819D01*
X115649333Y-62589580D02*
X115601714Y-62637200D01*
X115601714Y-62637200D02*
X115458857Y-62684819D01*
X115458857Y-62684819D02*
X115363619Y-62684819D01*
X115363619Y-62684819D02*
X115220762Y-62637200D01*
X115220762Y-62637200D02*
X115125524Y-62541961D01*
X115125524Y-62541961D02*
X115077905Y-62446723D01*
X115077905Y-62446723D02*
X115030286Y-62256247D01*
X115030286Y-62256247D02*
X115030286Y-62113390D01*
X115030286Y-62113390D02*
X115077905Y-61922914D01*
X115077905Y-61922914D02*
X115125524Y-61827676D01*
X115125524Y-61827676D02*
X115220762Y-61732438D01*
X115220762Y-61732438D02*
X115363619Y-61684819D01*
X115363619Y-61684819D02*
X115458857Y-61684819D01*
X115458857Y-61684819D02*
X115601714Y-61732438D01*
X115601714Y-61732438D02*
X115649333Y-61780057D01*
X116601714Y-62684819D02*
X116030286Y-62684819D01*
X116316000Y-62684819D02*
X116316000Y-61684819D01*
X116316000Y-61684819D02*
X116220762Y-61827676D01*
X116220762Y-61827676D02*
X116125524Y-61922914D01*
X116125524Y-61922914D02*
X116030286Y-61970533D01*
X123190095Y-69177819D02*
X123190095Y-69987342D01*
X123190095Y-69987342D02*
X123237714Y-70082580D01*
X123237714Y-70082580D02*
X123285333Y-70130200D01*
X123285333Y-70130200D02*
X123380571Y-70177819D01*
X123380571Y-70177819D02*
X123571047Y-70177819D01*
X123571047Y-70177819D02*
X123666285Y-70130200D01*
X123666285Y-70130200D02*
X123713904Y-70082580D01*
X123713904Y-70082580D02*
X123761523Y-69987342D01*
X123761523Y-69987342D02*
X123761523Y-69177819D01*
X124190095Y-69273057D02*
X124237714Y-69225438D01*
X124237714Y-69225438D02*
X124332952Y-69177819D01*
X124332952Y-69177819D02*
X124571047Y-69177819D01*
X124571047Y-69177819D02*
X124666285Y-69225438D01*
X124666285Y-69225438D02*
X124713904Y-69273057D01*
X124713904Y-69273057D02*
X124761523Y-69368295D01*
X124761523Y-69368295D02*
X124761523Y-69463533D01*
X124761523Y-69463533D02*
X124713904Y-69606390D01*
X124713904Y-69606390D02*
X124142476Y-70177819D01*
X124142476Y-70177819D02*
X124761523Y-70177819D01*
X101147666Y-59652819D02*
X101147666Y-60367104D01*
X101147666Y-60367104D02*
X101100047Y-60509961D01*
X101100047Y-60509961D02*
X101004809Y-60605200D01*
X101004809Y-60605200D02*
X100861952Y-60652819D01*
X100861952Y-60652819D02*
X100766714Y-60652819D01*
X101623857Y-60652819D02*
X101623857Y-59652819D01*
X101623857Y-59652819D02*
X102004809Y-59652819D01*
X102004809Y-59652819D02*
X102100047Y-59700438D01*
X102100047Y-59700438D02*
X102147666Y-59748057D01*
X102147666Y-59748057D02*
X102195285Y-59843295D01*
X102195285Y-59843295D02*
X102195285Y-59986152D01*
X102195285Y-59986152D02*
X102147666Y-60081390D01*
X102147666Y-60081390D02*
X102100047Y-60129009D01*
X102100047Y-60129009D02*
X102004809Y-60176628D01*
X102004809Y-60176628D02*
X101623857Y-60176628D01*
X102576238Y-59748057D02*
X102623857Y-59700438D01*
X102623857Y-59700438D02*
X102719095Y-59652819D01*
X102719095Y-59652819D02*
X102957190Y-59652819D01*
X102957190Y-59652819D02*
X103052428Y-59700438D01*
X103052428Y-59700438D02*
X103100047Y-59748057D01*
X103100047Y-59748057D02*
X103147666Y-59843295D01*
X103147666Y-59843295D02*
X103147666Y-59938533D01*
X103147666Y-59938533D02*
X103100047Y-60081390D01*
X103100047Y-60081390D02*
X102528619Y-60652819D01*
X102528619Y-60652819D02*
X103147666Y-60652819D01*
X120023333Y-43285580D02*
X119975714Y-43333200D01*
X119975714Y-43333200D02*
X119832857Y-43380819D01*
X119832857Y-43380819D02*
X119737619Y-43380819D01*
X119737619Y-43380819D02*
X119594762Y-43333200D01*
X119594762Y-43333200D02*
X119499524Y-43237961D01*
X119499524Y-43237961D02*
X119451905Y-43142723D01*
X119451905Y-43142723D02*
X119404286Y-42952247D01*
X119404286Y-42952247D02*
X119404286Y-42809390D01*
X119404286Y-42809390D02*
X119451905Y-42618914D01*
X119451905Y-42618914D02*
X119499524Y-42523676D01*
X119499524Y-42523676D02*
X119594762Y-42428438D01*
X119594762Y-42428438D02*
X119737619Y-42380819D01*
X119737619Y-42380819D02*
X119832857Y-42380819D01*
X119832857Y-42380819D02*
X119975714Y-42428438D01*
X119975714Y-42428438D02*
X120023333Y-42476057D01*
X120356667Y-42380819D02*
X120975714Y-42380819D01*
X120975714Y-42380819D02*
X120642381Y-42761771D01*
X120642381Y-42761771D02*
X120785238Y-42761771D01*
X120785238Y-42761771D02*
X120880476Y-42809390D01*
X120880476Y-42809390D02*
X120928095Y-42857009D01*
X120928095Y-42857009D02*
X120975714Y-42952247D01*
X120975714Y-42952247D02*
X120975714Y-43190342D01*
X120975714Y-43190342D02*
X120928095Y-43285580D01*
X120928095Y-43285580D02*
X120880476Y-43333200D01*
X120880476Y-43333200D02*
X120785238Y-43380819D01*
X120785238Y-43380819D02*
X120499524Y-43380819D01*
X120499524Y-43380819D02*
X120404286Y-43333200D01*
X120404286Y-43333200D02*
X120356667Y-43285580D01*
X81621333Y-54970819D02*
X81288000Y-54494628D01*
X81049905Y-54970819D02*
X81049905Y-53970819D01*
X81049905Y-53970819D02*
X81430857Y-53970819D01*
X81430857Y-53970819D02*
X81526095Y-54018438D01*
X81526095Y-54018438D02*
X81573714Y-54066057D01*
X81573714Y-54066057D02*
X81621333Y-54161295D01*
X81621333Y-54161295D02*
X81621333Y-54304152D01*
X81621333Y-54304152D02*
X81573714Y-54399390D01*
X81573714Y-54399390D02*
X81526095Y-54447009D01*
X81526095Y-54447009D02*
X81430857Y-54494628D01*
X81430857Y-54494628D02*
X81049905Y-54494628D01*
X81954667Y-53970819D02*
X82573714Y-53970819D01*
X82573714Y-53970819D02*
X82240381Y-54351771D01*
X82240381Y-54351771D02*
X82383238Y-54351771D01*
X82383238Y-54351771D02*
X82478476Y-54399390D01*
X82478476Y-54399390D02*
X82526095Y-54447009D01*
X82526095Y-54447009D02*
X82573714Y-54542247D01*
X82573714Y-54542247D02*
X82573714Y-54780342D01*
X82573714Y-54780342D02*
X82526095Y-54875580D01*
X82526095Y-54875580D02*
X82478476Y-54923200D01*
X82478476Y-54923200D02*
X82383238Y-54970819D01*
X82383238Y-54970819D02*
X82097524Y-54970819D01*
X82097524Y-54970819D02*
X82002286Y-54923200D01*
X82002286Y-54923200D02*
X81954667Y-54875580D01*
X126698095Y-42706819D02*
X126698095Y-43516342D01*
X126698095Y-43516342D02*
X126745714Y-43611580D01*
X126745714Y-43611580D02*
X126793333Y-43659200D01*
X126793333Y-43659200D02*
X126888571Y-43706819D01*
X126888571Y-43706819D02*
X127079047Y-43706819D01*
X127079047Y-43706819D02*
X127174285Y-43659200D01*
X127174285Y-43659200D02*
X127221904Y-43611580D01*
X127221904Y-43611580D02*
X127269523Y-43516342D01*
X127269523Y-43516342D02*
X127269523Y-42706819D01*
X128221904Y-42706819D02*
X127745714Y-42706819D01*
X127745714Y-42706819D02*
X127698095Y-43183009D01*
X127698095Y-43183009D02*
X127745714Y-43135390D01*
X127745714Y-43135390D02*
X127840952Y-43087771D01*
X127840952Y-43087771D02*
X128079047Y-43087771D01*
X128079047Y-43087771D02*
X128174285Y-43135390D01*
X128174285Y-43135390D02*
X128221904Y-43183009D01*
X128221904Y-43183009D02*
X128269523Y-43278247D01*
X128269523Y-43278247D02*
X128269523Y-43516342D01*
X128269523Y-43516342D02*
X128221904Y-43611580D01*
X128221904Y-43611580D02*
X128174285Y-43659200D01*
X128174285Y-43659200D02*
X128079047Y-43706819D01*
X128079047Y-43706819D02*
X127840952Y-43706819D01*
X127840952Y-43706819D02*
X127745714Y-43659200D01*
X127745714Y-43659200D02*
X127698095Y-43611580D01*
X109307333Y-64777580D02*
X109259714Y-64825200D01*
X109259714Y-64825200D02*
X109116857Y-64872819D01*
X109116857Y-64872819D02*
X109021619Y-64872819D01*
X109021619Y-64872819D02*
X108878762Y-64825200D01*
X108878762Y-64825200D02*
X108783524Y-64729961D01*
X108783524Y-64729961D02*
X108735905Y-64634723D01*
X108735905Y-64634723D02*
X108688286Y-64444247D01*
X108688286Y-64444247D02*
X108688286Y-64301390D01*
X108688286Y-64301390D02*
X108735905Y-64110914D01*
X108735905Y-64110914D02*
X108783524Y-64015676D01*
X108783524Y-64015676D02*
X108878762Y-63920438D01*
X108878762Y-63920438D02*
X109021619Y-63872819D01*
X109021619Y-63872819D02*
X109116857Y-63872819D01*
X109116857Y-63872819D02*
X109259714Y-63920438D01*
X109259714Y-63920438D02*
X109307333Y-63968057D01*
X109640667Y-63872819D02*
X110307333Y-63872819D01*
X110307333Y-63872819D02*
X109878762Y-64872819D01*
X66976666Y-67609819D02*
X66976666Y-68324104D01*
X66976666Y-68324104D02*
X66929047Y-68466961D01*
X66929047Y-68466961D02*
X66833809Y-68562200D01*
X66833809Y-68562200D02*
X66690952Y-68609819D01*
X66690952Y-68609819D02*
X66595714Y-68609819D01*
X67976666Y-68609819D02*
X67405238Y-68609819D01*
X67690952Y-68609819D02*
X67690952Y-67609819D01*
X67690952Y-67609819D02*
X67595714Y-67752676D01*
X67595714Y-67752676D02*
X67500476Y-67847914D01*
X67500476Y-67847914D02*
X67405238Y-67895533D01*
X117387333Y-65383580D02*
X117339714Y-65431200D01*
X117339714Y-65431200D02*
X117196857Y-65478819D01*
X117196857Y-65478819D02*
X117101619Y-65478819D01*
X117101619Y-65478819D02*
X116958762Y-65431200D01*
X116958762Y-65431200D02*
X116863524Y-65335961D01*
X116863524Y-65335961D02*
X116815905Y-65240723D01*
X116815905Y-65240723D02*
X116768286Y-65050247D01*
X116768286Y-65050247D02*
X116768286Y-64907390D01*
X116768286Y-64907390D02*
X116815905Y-64716914D01*
X116815905Y-64716914D02*
X116863524Y-64621676D01*
X116863524Y-64621676D02*
X116958762Y-64526438D01*
X116958762Y-64526438D02*
X117101619Y-64478819D01*
X117101619Y-64478819D02*
X117196857Y-64478819D01*
X117196857Y-64478819D02*
X117339714Y-64526438D01*
X117339714Y-64526438D02*
X117387333Y-64574057D01*
X117768286Y-64574057D02*
X117815905Y-64526438D01*
X117815905Y-64526438D02*
X117911143Y-64478819D01*
X117911143Y-64478819D02*
X118149238Y-64478819D01*
X118149238Y-64478819D02*
X118244476Y-64526438D01*
X118244476Y-64526438D02*
X118292095Y-64574057D01*
X118292095Y-64574057D02*
X118339714Y-64669295D01*
X118339714Y-64669295D02*
X118339714Y-64764533D01*
X118339714Y-64764533D02*
X118292095Y-64907390D01*
X118292095Y-64907390D02*
X117720667Y-65478819D01*
X117720667Y-65478819D02*
X118339714Y-65478819D01*
X92710095Y-53683819D02*
X92710095Y-54493342D01*
X92710095Y-54493342D02*
X92757714Y-54588580D01*
X92757714Y-54588580D02*
X92805333Y-54636200D01*
X92805333Y-54636200D02*
X92900571Y-54683819D01*
X92900571Y-54683819D02*
X93091047Y-54683819D01*
X93091047Y-54683819D02*
X93186285Y-54636200D01*
X93186285Y-54636200D02*
X93233904Y-54588580D01*
X93233904Y-54588580D02*
X93281523Y-54493342D01*
X93281523Y-54493342D02*
X93281523Y-53683819D01*
X94281523Y-54683819D02*
X93710095Y-54683819D01*
X93995809Y-54683819D02*
X93995809Y-53683819D01*
X93995809Y-53683819D02*
X93900571Y-53826676D01*
X93900571Y-53826676D02*
X93805333Y-53921914D01*
X93805333Y-53921914D02*
X93710095Y-53969533D01*
D12*
%TO.C,C1*%
X121664000Y-54215420D02*
X121664000Y-54496580D01*
X122684000Y-54215420D02*
X122684000Y-54496580D01*
%TO.C,SYM3*%
X64602000Y-46190000D02*
X64262000Y-45720000D01*
X64942000Y-45720000D01*
X64602000Y-46190000D01*
G36*
X64602000Y-46190000D02*
G01*
X64262000Y-45720000D01*
X64942000Y-45720000D01*
X64602000Y-46190000D01*
G37*
%TO.C,C6*%
X75944000Y-72530580D02*
X75944000Y-72249420D01*
X76964000Y-72530580D02*
X76964000Y-72249420D01*
%TO.C,R2*%
X121651500Y-57928742D02*
X121651500Y-58403258D01*
X122696500Y-57928742D02*
X122696500Y-58403258D01*
%TO.C,C8*%
X104167000Y-44442748D02*
X104167000Y-44965252D01*
X105637000Y-44442748D02*
X105637000Y-44965252D01*
%TO.C,C5*%
X82042580Y-80389000D02*
X81761420Y-80389000D01*
X82042580Y-81409000D02*
X81761420Y-81409000D01*
%TO.C,U4*%
X80520000Y-64010000D02*
X80520000Y-64710000D01*
X80520000Y-78230000D02*
X80520000Y-77530000D01*
X81220000Y-64010000D02*
X80520000Y-64010000D01*
X81220000Y-78230000D02*
X80520000Y-78230000D01*
X94040000Y-64010000D02*
X94740000Y-64010000D01*
X94040000Y-78230000D02*
X94740000Y-78230000D01*
X94740000Y-64010000D02*
X94740000Y-64710000D01*
X94740000Y-78230000D02*
X94740000Y-77530000D01*
X79930000Y-64710000D02*
X79590000Y-64240000D01*
X80270000Y-64240000D01*
X79930000Y-64710000D01*
G36*
X79930000Y-64710000D02*
G01*
X79590000Y-64240000D01*
X80270000Y-64240000D01*
X79930000Y-64710000D01*
G37*
%TO.C,SYM2*%
X64602000Y-68796000D02*
X64262000Y-68326000D01*
X64942000Y-68326000D01*
X64602000Y-68796000D01*
G36*
X64602000Y-68796000D02*
G01*
X64262000Y-68326000D01*
X64942000Y-68326000D01*
X64602000Y-68796000D01*
G37*
%TO.C,R1*%
X130287500Y-49259258D02*
X130287500Y-48784742D01*
X131332500Y-49259258D02*
X131332500Y-48784742D01*
%TO.C,JP1*%
X77848000Y-57166000D02*
X80648000Y-57166000D01*
X77848000Y-59166000D02*
X77848000Y-57166000D01*
X80648000Y-57166000D02*
X80648000Y-59166000D01*
X80648000Y-59166000D02*
X77848000Y-59166000D01*
%TO.C,J2*%
X128154000Y-53848000D02*
X128154000Y-54228000D01*
X128154000Y-53848000D02*
X129924000Y-53848000D01*
X128154000Y-61468000D02*
X128154000Y-61088000D01*
X129924000Y-61468000D02*
X128154000Y-61468000D01*
X132204000Y-53848000D02*
X132464000Y-53848000D01*
X132464000Y-61468000D02*
X132204000Y-61468000D01*
%TO.C,D1*%
X130300000Y-45325420D02*
X130300000Y-45606580D01*
X131320000Y-45325420D02*
X131320000Y-45606580D01*
D13*
%TO.C,SYM1*%
X128799460Y-80958030D02*
X128842711Y-80971245D01*
X128870558Y-80987941D01*
X128879629Y-81001145D01*
X128877132Y-81016797D01*
X128860931Y-81041385D01*
X128847232Y-81058800D01*
X128818992Y-81090283D01*
X128797775Y-81103529D01*
X128779688Y-81102664D01*
X128726035Y-81089010D01*
X128686630Y-81089630D01*
X128654632Y-81105104D01*
X128643890Y-81114161D01*
X128609505Y-81146027D01*
X128609505Y-81562179D01*
X128471188Y-81562179D01*
X128471188Y-80958614D01*
X128540347Y-80958614D01*
X128581869Y-80960256D01*
X128603291Y-80966087D01*
X128609502Y-80977461D01*
X128609505Y-80977798D01*
X128612439Y-80989713D01*
X128625704Y-80988159D01*
X128644084Y-80979563D01*
X128682046Y-80963568D01*
X128712872Y-80953945D01*
X128752536Y-80951478D01*
X128799460Y-80958030D01*
G36*
X128799460Y-80958030D02*
G01*
X128842711Y-80971245D01*
X128870558Y-80987941D01*
X128879629Y-81001145D01*
X128877132Y-81016797D01*
X128860931Y-81041385D01*
X128847232Y-81058800D01*
X128818992Y-81090283D01*
X128797775Y-81103529D01*
X128779688Y-81102664D01*
X128726035Y-81089010D01*
X128686630Y-81089630D01*
X128654632Y-81105104D01*
X128643890Y-81114161D01*
X128609505Y-81146027D01*
X128609505Y-81562179D01*
X128471188Y-81562179D01*
X128471188Y-80958614D01*
X128540347Y-80958614D01*
X128581869Y-80960256D01*
X128603291Y-80966087D01*
X128609502Y-80977461D01*
X128609505Y-80977798D01*
X128612439Y-80989713D01*
X128625704Y-80988159D01*
X128644084Y-80979563D01*
X128682046Y-80963568D01*
X128712872Y-80953945D01*
X128752536Y-80951478D01*
X128799460Y-80958030D01*
G37*
X128635255Y-81901486D02*
X128683595Y-81911015D01*
X128711114Y-81925125D01*
X128740064Y-81948568D01*
X128698876Y-82000571D01*
X128673482Y-82032064D01*
X128656238Y-82047428D01*
X128639102Y-82049776D01*
X128614027Y-82042217D01*
X128602257Y-82037941D01*
X128554270Y-82031631D01*
X128510324Y-82045156D01*
X128478060Y-82075710D01*
X128472819Y-82085452D01*
X128467112Y-82111258D01*
X128462706Y-82158817D01*
X128459811Y-82224758D01*
X128458631Y-82305710D01*
X128458614Y-82317226D01*
X128458614Y-82517822D01*
X128320297Y-82517822D01*
X128320297Y-81901683D01*
X128389456Y-81901683D01*
X128429333Y-81902725D01*
X128450107Y-81907358D01*
X128457789Y-81917849D01*
X128458614Y-81927745D01*
X128458614Y-81953806D01*
X128491745Y-81927745D01*
X128529735Y-81909965D01*
X128580770Y-81901174D01*
X128635255Y-81901486D01*
G36*
X128635255Y-81901486D02*
G01*
X128683595Y-81911015D01*
X128711114Y-81925125D01*
X128740064Y-81948568D01*
X128698876Y-82000571D01*
X128673482Y-82032064D01*
X128656238Y-82047428D01*
X128639102Y-82049776D01*
X128614027Y-82042217D01*
X128602257Y-82037941D01*
X128554270Y-82031631D01*
X128510324Y-82045156D01*
X128478060Y-82075710D01*
X128472819Y-82085452D01*
X128467112Y-82111258D01*
X128462706Y-82158817D01*
X128459811Y-82224758D01*
X128458631Y-82305710D01*
X128458614Y-82317226D01*
X128458614Y-82517822D01*
X128320297Y-82517822D01*
X128320297Y-81901683D01*
X128389456Y-81901683D01*
X128429333Y-81902725D01*
X128450107Y-81907358D01*
X128457789Y-81917849D01*
X128458614Y-81927745D01*
X128458614Y-81953806D01*
X128491745Y-81927745D01*
X128529735Y-81909965D01*
X128580770Y-81901174D01*
X128635255Y-81901486D01*
G37*
X126006644Y-81903020D02*
X126025461Y-81908660D01*
X126031527Y-81921053D01*
X126031782Y-81926647D01*
X126032871Y-81942230D01*
X126040368Y-81944676D01*
X126060619Y-81933993D01*
X126072649Y-81926694D01*
X126110600Y-81911063D01*
X126155928Y-81903334D01*
X126203456Y-81902740D01*
X126248005Y-81908513D01*
X126284398Y-81919884D01*
X126307457Y-81936088D01*
X126312004Y-81956355D01*
X126309709Y-81961843D01*
X126292980Y-81984626D01*
X126267037Y-82012647D01*
X126262345Y-82017177D01*
X126237617Y-82038005D01*
X126216282Y-82044735D01*
X126186445Y-82040038D01*
X126174492Y-82036917D01*
X126137295Y-82029421D01*
X126111141Y-82032792D01*
X126089054Y-82044681D01*
X126068822Y-82060635D01*
X126053921Y-82080700D01*
X126043566Y-82108702D01*
X126036971Y-82148467D01*
X126033351Y-82203823D01*
X126031922Y-82278594D01*
X126031782Y-82323740D01*
X126031782Y-82517822D01*
X125906040Y-82517822D01*
X125906040Y-81901683D01*
X125968911Y-81901683D01*
X126006644Y-81903020D01*
G36*
X126006644Y-81903020D02*
G01*
X126025461Y-81908660D01*
X126031527Y-81921053D01*
X126031782Y-81926647D01*
X126032871Y-81942230D01*
X126040368Y-81944676D01*
X126060619Y-81933993D01*
X126072649Y-81926694D01*
X126110600Y-81911063D01*
X126155928Y-81903334D01*
X126203456Y-81902740D01*
X126248005Y-81908513D01*
X126284398Y-81919884D01*
X126307457Y-81936088D01*
X126312004Y-81956355D01*
X126309709Y-81961843D01*
X126292980Y-81984626D01*
X126267037Y-82012647D01*
X126262345Y-82017177D01*
X126237617Y-82038005D01*
X126216282Y-82044735D01*
X126186445Y-82040038D01*
X126174492Y-82036917D01*
X126137295Y-82029421D01*
X126111141Y-82032792D01*
X126089054Y-82044681D01*
X126068822Y-82060635D01*
X126053921Y-82080700D01*
X126043566Y-82108702D01*
X126036971Y-82148467D01*
X126033351Y-82203823D01*
X126031922Y-82278594D01*
X126031782Y-82323740D01*
X126031782Y-82517822D01*
X125906040Y-82517822D01*
X125906040Y-81901683D01*
X125968911Y-81901683D01*
X126006644Y-81903020D01*
G37*
X127993367Y-81154342D02*
X127994555Y-81246563D01*
X127998897Y-81316610D01*
X128007558Y-81367381D01*
X128021704Y-81401772D01*
X128042500Y-81422679D01*
X128071110Y-81433000D01*
X128106535Y-81435636D01*
X128143636Y-81432682D01*
X128171818Y-81421889D01*
X128192243Y-81400360D01*
X128206079Y-81365199D01*
X128214491Y-81313510D01*
X128218643Y-81242394D01*
X128219703Y-81154342D01*
X128219703Y-80958614D01*
X128358020Y-80958614D01*
X128358020Y-81562179D01*
X128288862Y-81562179D01*
X128247170Y-81560489D01*
X128225701Y-81554556D01*
X128219703Y-81543293D01*
X128216091Y-81533261D01*
X128201714Y-81535383D01*
X128172736Y-81549580D01*
X128106319Y-81571480D01*
X128035875Y-81569928D01*
X127968377Y-81546147D01*
X127936233Y-81527362D01*
X127911715Y-81507022D01*
X127893804Y-81481573D01*
X127881479Y-81447458D01*
X127873723Y-81401121D01*
X127869516Y-81339007D01*
X127867840Y-81257561D01*
X127867624Y-81194578D01*
X127867624Y-80958614D01*
X127993367Y-80958614D01*
X127993367Y-81154342D01*
G36*
X127993367Y-81154342D02*
G01*
X127994555Y-81246563D01*
X127998897Y-81316610D01*
X128007558Y-81367381D01*
X128021704Y-81401772D01*
X128042500Y-81422679D01*
X128071110Y-81433000D01*
X128106535Y-81435636D01*
X128143636Y-81432682D01*
X128171818Y-81421889D01*
X128192243Y-81400360D01*
X128206079Y-81365199D01*
X128214491Y-81313510D01*
X128218643Y-81242394D01*
X128219703Y-81154342D01*
X128219703Y-80958614D01*
X128358020Y-80958614D01*
X128358020Y-81562179D01*
X128288862Y-81562179D01*
X128247170Y-81560489D01*
X128225701Y-81554556D01*
X128219703Y-81543293D01*
X128216091Y-81533261D01*
X128201714Y-81535383D01*
X128172736Y-81549580D01*
X128106319Y-81571480D01*
X128035875Y-81569928D01*
X127968377Y-81546147D01*
X127936233Y-81527362D01*
X127911715Y-81507022D01*
X127893804Y-81481573D01*
X127881479Y-81447458D01*
X127873723Y-81401121D01*
X127869516Y-81339007D01*
X127867840Y-81257561D01*
X127867624Y-81194578D01*
X127867624Y-80958614D01*
X127993367Y-80958614D01*
X127993367Y-81154342D01*
G37*
X126245988Y-80969002D02*
X126277283Y-80983950D01*
X126307591Y-81005541D01*
X126330682Y-81030391D01*
X126347500Y-81062087D01*
X126358994Y-81104214D01*
X126366109Y-81160358D01*
X126369793Y-81234106D01*
X126370992Y-81329044D01*
X126371011Y-81338985D01*
X126371287Y-81562179D01*
X126232970Y-81562179D01*
X126232970Y-81356418D01*
X126232872Y-81280189D01*
X126232191Y-81224939D01*
X126230349Y-81186501D01*
X126226767Y-81160706D01*
X126220868Y-81143384D01*
X126212073Y-81130368D01*
X126199820Y-81117507D01*
X126156953Y-81089873D01*
X126110157Y-81084745D01*
X126065576Y-81102217D01*
X126050072Y-81115221D01*
X126038690Y-81127447D01*
X126030519Y-81140540D01*
X126025026Y-81158615D01*
X126021680Y-81185787D01*
X126019949Y-81226170D01*
X126019303Y-81283879D01*
X126019208Y-81354132D01*
X126019208Y-81562179D01*
X125880891Y-81562179D01*
X125880891Y-80958614D01*
X125950050Y-80958614D01*
X125991572Y-80960256D01*
X126012994Y-80966087D01*
X126019205Y-80977461D01*
X126019208Y-80977798D01*
X126022090Y-80988938D01*
X126034801Y-80987674D01*
X126060074Y-80975434D01*
X126117395Y-80957424D01*
X126182963Y-80955421D01*
X126245988Y-80969002D01*
G36*
X126245988Y-80969002D02*
G01*
X126277283Y-80983950D01*
X126307591Y-81005541D01*
X126330682Y-81030391D01*
X126347500Y-81062087D01*
X126358994Y-81104214D01*
X126366109Y-81160358D01*
X126369793Y-81234106D01*
X126370992Y-81329044D01*
X126371011Y-81338985D01*
X126371287Y-81562179D01*
X126232970Y-81562179D01*
X126232970Y-81356418D01*
X126232872Y-81280189D01*
X126232191Y-81224939D01*
X126230349Y-81186501D01*
X126226767Y-81160706D01*
X126220868Y-81143384D01*
X126212073Y-81130368D01*
X126199820Y-81117507D01*
X126156953Y-81089873D01*
X126110157Y-81084745D01*
X126065576Y-81102217D01*
X126050072Y-81115221D01*
X126038690Y-81127447D01*
X126030519Y-81140540D01*
X126025026Y-81158615D01*
X126021680Y-81185787D01*
X126019949Y-81226170D01*
X126019303Y-81283879D01*
X126019208Y-81354132D01*
X126019208Y-81562179D01*
X125880891Y-81562179D01*
X125880891Y-80958614D01*
X125950050Y-80958614D01*
X125991572Y-80960256D01*
X126012994Y-80966087D01*
X126019205Y-80977461D01*
X126019208Y-80977798D01*
X126022090Y-80988938D01*
X126034801Y-80987674D01*
X126060074Y-80975434D01*
X126117395Y-80957424D01*
X126182963Y-80955421D01*
X126245988Y-80969002D01*
G37*
X129217226Y-80963880D02*
X129290080Y-80994830D01*
X129313027Y-81009895D01*
X129342354Y-81033048D01*
X129360764Y-81051253D01*
X129363961Y-81057183D01*
X129354935Y-81070340D01*
X129331837Y-81092667D01*
X129313344Y-81108250D01*
X129262728Y-81148926D01*
X129222760Y-81115295D01*
X129191874Y-81093584D01*
X129161759Y-81086090D01*
X129127292Y-81087920D01*
X129072561Y-81101528D01*
X129034886Y-81129772D01*
X129011991Y-81175433D01*
X129001597Y-81241289D01*
X129001595Y-81241331D01*
X129002494Y-81314939D01*
X129016463Y-81368946D01*
X129044328Y-81405716D01*
X129063325Y-81418168D01*
X129113776Y-81433673D01*
X129167663Y-81433683D01*
X129214546Y-81418638D01*
X129225644Y-81411287D01*
X129253476Y-81392511D01*
X129275236Y-81389434D01*
X129298704Y-81403409D01*
X129324649Y-81428510D01*
X129365716Y-81470880D01*
X129320121Y-81508464D01*
X129249674Y-81550882D01*
X129170233Y-81571785D01*
X129087215Y-81570272D01*
X129032694Y-81556411D01*
X128968970Y-81522135D01*
X128918005Y-81468212D01*
X128894851Y-81430149D01*
X128876099Y-81375536D01*
X128866715Y-81306369D01*
X128866643Y-81231407D01*
X128875824Y-81159409D01*
X128894199Y-81099137D01*
X128897093Y-81092958D01*
X128939952Y-81032351D01*
X128997979Y-80988224D01*
X129066591Y-80961493D01*
X129141201Y-80953073D01*
X129217226Y-80963880D01*
G36*
X129217226Y-80963880D02*
G01*
X129290080Y-80994830D01*
X129313027Y-81009895D01*
X129342354Y-81033048D01*
X129360764Y-81051253D01*
X129363961Y-81057183D01*
X129354935Y-81070340D01*
X129331837Y-81092667D01*
X129313344Y-81108250D01*
X129262728Y-81148926D01*
X129222760Y-81115295D01*
X129191874Y-81093584D01*
X129161759Y-81086090D01*
X129127292Y-81087920D01*
X129072561Y-81101528D01*
X129034886Y-81129772D01*
X129011991Y-81175433D01*
X129001597Y-81241289D01*
X129001595Y-81241331D01*
X129002494Y-81314939D01*
X129016463Y-81368946D01*
X129044328Y-81405716D01*
X129063325Y-81418168D01*
X129113776Y-81433673D01*
X129167663Y-81433683D01*
X129214546Y-81418638D01*
X129225644Y-81411287D01*
X129253476Y-81392511D01*
X129275236Y-81389434D01*
X129298704Y-81403409D01*
X129324649Y-81428510D01*
X129365716Y-81470880D01*
X129320121Y-81508464D01*
X129249674Y-81550882D01*
X129170233Y-81571785D01*
X129087215Y-81570272D01*
X129032694Y-81556411D01*
X128968970Y-81522135D01*
X128918005Y-81468212D01*
X128894851Y-81430149D01*
X128876099Y-81375536D01*
X128866715Y-81306369D01*
X128866643Y-81231407D01*
X128875824Y-81159409D01*
X128894199Y-81099137D01*
X128897093Y-81092958D01*
X128939952Y-81032351D01*
X128997979Y-80988224D01*
X129066591Y-80961493D01*
X129141201Y-80953073D01*
X129217226Y-80963880D01*
G37*
X127610762Y-80966055D02*
X127674363Y-81000692D01*
X127724123Y-81055372D01*
X127747568Y-81099842D01*
X127757634Y-81139121D01*
X127764156Y-81195116D01*
X127766951Y-81259621D01*
X127765836Y-81324429D01*
X127760626Y-81381334D01*
X127754541Y-81411727D01*
X127734014Y-81453306D01*
X127698463Y-81497468D01*
X127655619Y-81536087D01*
X127613211Y-81561034D01*
X127612177Y-81561430D01*
X127559553Y-81572331D01*
X127497188Y-81572601D01*
X127437924Y-81562676D01*
X127415040Y-81554722D01*
X127356102Y-81521300D01*
X127313890Y-81477511D01*
X127286156Y-81419538D01*
X127270651Y-81343565D01*
X127267143Y-81303771D01*
X127267590Y-81253766D01*
X127402376Y-81253766D01*
X127406917Y-81326732D01*
X127419986Y-81382334D01*
X127440756Y-81417861D01*
X127455552Y-81428020D01*
X127493464Y-81435104D01*
X127538527Y-81433007D01*
X127577487Y-81422812D01*
X127587704Y-81417204D01*
X127614659Y-81384538D01*
X127632451Y-81334545D01*
X127640024Y-81273705D01*
X127636325Y-81208497D01*
X127628057Y-81169253D01*
X127604320Y-81123805D01*
X127566849Y-81095396D01*
X127521720Y-81085573D01*
X127475011Y-81095887D01*
X127439132Y-81121112D01*
X127420277Y-81141925D01*
X127409272Y-81162439D01*
X127404026Y-81190203D01*
X127402449Y-81232762D01*
X127402376Y-81253766D01*
X127267590Y-81253766D01*
X127268094Y-81197580D01*
X127285388Y-81110501D01*
X127319029Y-81042530D01*
X127369018Y-80993664D01*
X127435356Y-80963899D01*
X127449601Y-80960448D01*
X127535210Y-80952345D01*
X127610762Y-80966055D01*
G36*
X127610762Y-80966055D02*
G01*
X127674363Y-81000692D01*
X127724123Y-81055372D01*
X127747568Y-81099842D01*
X127757634Y-81139121D01*
X127764156Y-81195116D01*
X127766951Y-81259621D01*
X127765836Y-81324429D01*
X127760626Y-81381334D01*
X127754541Y-81411727D01*
X127734014Y-81453306D01*
X127698463Y-81497468D01*
X127655619Y-81536087D01*
X127613211Y-81561034D01*
X127612177Y-81561430D01*
X127559553Y-81572331D01*
X127497188Y-81572601D01*
X127437924Y-81562676D01*
X127415040Y-81554722D01*
X127356102Y-81521300D01*
X127313890Y-81477511D01*
X127286156Y-81419538D01*
X127270651Y-81343565D01*
X127267143Y-81303771D01*
X127267590Y-81253766D01*
X127402376Y-81253766D01*
X127406917Y-81326732D01*
X127419986Y-81382334D01*
X127440756Y-81417861D01*
X127455552Y-81428020D01*
X127493464Y-81435104D01*
X127538527Y-81433007D01*
X127577487Y-81422812D01*
X127587704Y-81417204D01*
X127614659Y-81384538D01*
X127632451Y-81334545D01*
X127640024Y-81273705D01*
X127636325Y-81208497D01*
X127628057Y-81169253D01*
X127604320Y-81123805D01*
X127566849Y-81095396D01*
X127521720Y-81085573D01*
X127475011Y-81095887D01*
X127439132Y-81121112D01*
X127420277Y-81141925D01*
X127409272Y-81162439D01*
X127404026Y-81190203D01*
X127402449Y-81232762D01*
X127402376Y-81253766D01*
X127267590Y-81253766D01*
X127268094Y-81197580D01*
X127285388Y-81110501D01*
X127319029Y-81042530D01*
X127369018Y-80993664D01*
X127435356Y-80963899D01*
X127449601Y-80960448D01*
X127535210Y-80952345D01*
X127610762Y-80966055D01*
G37*
X127281524Y-81904237D02*
X127331255Y-81907971D01*
X127461291Y-82297773D01*
X127481678Y-82228614D01*
X127493946Y-82185874D01*
X127510085Y-82128115D01*
X127527512Y-82064625D01*
X127536726Y-82030570D01*
X127571388Y-81901683D01*
X127714391Y-81901683D01*
X127671646Y-82036857D01*
X127650596Y-82103342D01*
X127625167Y-82183539D01*
X127598610Y-82267193D01*
X127574902Y-82341782D01*
X127520902Y-82511535D01*
X127462598Y-82515328D01*
X127404295Y-82519122D01*
X127372679Y-82414734D01*
X127353182Y-82349889D01*
X127331904Y-82278400D01*
X127313308Y-82215263D01*
X127312574Y-82212750D01*
X127298684Y-82169969D01*
X127286429Y-82140779D01*
X127277846Y-82129741D01*
X127276082Y-82131018D01*
X127269891Y-82148130D01*
X127258128Y-82184787D01*
X127242225Y-82236378D01*
X127223614Y-82298294D01*
X127213543Y-82332352D01*
X127159007Y-82517822D01*
X127043264Y-82517822D01*
X126950737Y-82225471D01*
X126924744Y-82143462D01*
X126901066Y-82068987D01*
X126880820Y-82005544D01*
X126865126Y-81956632D01*
X126855102Y-81925749D01*
X126852055Y-81916726D01*
X126854467Y-81907487D01*
X126873408Y-81903441D01*
X126912823Y-81903846D01*
X126918993Y-81904152D01*
X126992086Y-81907971D01*
X127039957Y-82084010D01*
X127057553Y-82148211D01*
X127073277Y-82204649D01*
X127085746Y-82248422D01*
X127093574Y-82274630D01*
X127095020Y-82278903D01*
X127101014Y-82273990D01*
X127113101Y-82248532D01*
X127129893Y-82205997D01*
X127150003Y-82149850D01*
X127167003Y-82099130D01*
X127231794Y-81900504D01*
X127281524Y-81904237D01*
G36*
X127281524Y-81904237D02*
G01*
X127331255Y-81907971D01*
X127461291Y-82297773D01*
X127481678Y-82228614D01*
X127493946Y-82185874D01*
X127510085Y-82128115D01*
X127527512Y-82064625D01*
X127536726Y-82030570D01*
X127571388Y-81901683D01*
X127714391Y-81901683D01*
X127671646Y-82036857D01*
X127650596Y-82103342D01*
X127625167Y-82183539D01*
X127598610Y-82267193D01*
X127574902Y-82341782D01*
X127520902Y-82511535D01*
X127462598Y-82515328D01*
X127404295Y-82519122D01*
X127372679Y-82414734D01*
X127353182Y-82349889D01*
X127331904Y-82278400D01*
X127313308Y-82215263D01*
X127312574Y-82212750D01*
X127298684Y-82169969D01*
X127286429Y-82140779D01*
X127277846Y-82129741D01*
X127276082Y-82131018D01*
X127269891Y-82148130D01*
X127258128Y-82184787D01*
X127242225Y-82236378D01*
X127223614Y-82298294D01*
X127213543Y-82332352D01*
X127159007Y-82517822D01*
X127043264Y-82517822D01*
X126950737Y-82225471D01*
X126924744Y-82143462D01*
X126901066Y-82068987D01*
X126880820Y-82005544D01*
X126865126Y-81956632D01*
X126855102Y-81925749D01*
X126852055Y-81916726D01*
X126854467Y-81907487D01*
X126873408Y-81903441D01*
X126912823Y-81903846D01*
X126918993Y-81904152D01*
X126992086Y-81907971D01*
X127039957Y-82084010D01*
X127057553Y-82148211D01*
X127073277Y-82204649D01*
X127085746Y-82248422D01*
X127093574Y-82274630D01*
X127095020Y-82278903D01*
X127101014Y-82273990D01*
X127113101Y-82248532D01*
X127129893Y-82205997D01*
X127150003Y-82149850D01*
X127167003Y-82099130D01*
X127231794Y-81900504D01*
X127281524Y-81904237D01*
G37*
X124461739Y-80965148D02*
X124527521Y-80994231D01*
X124577460Y-81042793D01*
X124611626Y-81110908D01*
X124630093Y-81198651D01*
X124631417Y-81212351D01*
X124632454Y-81308939D01*
X124619007Y-81393602D01*
X124591892Y-81462221D01*
X124577373Y-81484294D01*
X124526799Y-81531011D01*
X124462391Y-81561268D01*
X124390334Y-81573824D01*
X124316815Y-81567439D01*
X124260928Y-81547772D01*
X124212868Y-81514629D01*
X124173588Y-81471175D01*
X124172908Y-81470158D01*
X124156956Y-81443338D01*
X124146590Y-81416368D01*
X124140312Y-81382332D01*
X124136627Y-81334310D01*
X124135003Y-81294931D01*
X124134328Y-81259219D01*
X124260045Y-81259219D01*
X124261274Y-81294770D01*
X124265734Y-81342094D01*
X124273603Y-81372465D01*
X124287793Y-81394072D01*
X124301083Y-81406694D01*
X124348198Y-81433122D01*
X124397495Y-81436653D01*
X124443407Y-81417639D01*
X124466362Y-81396331D01*
X124482904Y-81374859D01*
X124492579Y-81354313D01*
X124496826Y-81327574D01*
X124497080Y-81287523D01*
X124495772Y-81250638D01*
X124492957Y-81197947D01*
X124488495Y-81163772D01*
X124480452Y-81141480D01*
X124466897Y-81124442D01*
X124456155Y-81114703D01*
X124411223Y-81089123D01*
X124362751Y-81087847D01*
X124322106Y-81102999D01*
X124287433Y-81134642D01*
X124266776Y-81186620D01*
X124260045Y-81259219D01*
X124134328Y-81259219D01*
X124133521Y-81216621D01*
X124136052Y-81158056D01*
X124143638Y-81114007D01*
X124157319Y-81079248D01*
X124178135Y-81048551D01*
X124185853Y-81039436D01*
X124234111Y-80994021D01*
X124285872Y-80967493D01*
X124349172Y-80956379D01*
X124380039Y-80955471D01*
X124461739Y-80965148D01*
G36*
X124461739Y-80965148D02*
G01*
X124527521Y-80994231D01*
X124577460Y-81042793D01*
X124611626Y-81110908D01*
X124630093Y-81198651D01*
X124631417Y-81212351D01*
X124632454Y-81308939D01*
X124619007Y-81393602D01*
X124591892Y-81462221D01*
X124577373Y-81484294D01*
X124526799Y-81531011D01*
X124462391Y-81561268D01*
X124390334Y-81573824D01*
X124316815Y-81567439D01*
X124260928Y-81547772D01*
X124212868Y-81514629D01*
X124173588Y-81471175D01*
X124172908Y-81470158D01*
X124156956Y-81443338D01*
X124146590Y-81416368D01*
X124140312Y-81382332D01*
X124136627Y-81334310D01*
X124135003Y-81294931D01*
X124134328Y-81259219D01*
X124260045Y-81259219D01*
X124261274Y-81294770D01*
X124265734Y-81342094D01*
X124273603Y-81372465D01*
X124287793Y-81394072D01*
X124301083Y-81406694D01*
X124348198Y-81433122D01*
X124397495Y-81436653D01*
X124443407Y-81417639D01*
X124466362Y-81396331D01*
X124482904Y-81374859D01*
X124492579Y-81354313D01*
X124496826Y-81327574D01*
X124497080Y-81287523D01*
X124495772Y-81250638D01*
X124492957Y-81197947D01*
X124488495Y-81163772D01*
X124480452Y-81141480D01*
X124466897Y-81124442D01*
X124456155Y-81114703D01*
X124411223Y-81089123D01*
X124362751Y-81087847D01*
X124322106Y-81102999D01*
X124287433Y-81134642D01*
X124266776Y-81186620D01*
X124260045Y-81259219D01*
X124134328Y-81259219D01*
X124133521Y-81216621D01*
X124136052Y-81158056D01*
X124143638Y-81114007D01*
X124157319Y-81079248D01*
X124178135Y-81048551D01*
X124185853Y-81039436D01*
X124234111Y-80994021D01*
X124285872Y-80967493D01*
X124349172Y-80956379D01*
X124380039Y-80955471D01*
X124461739Y-80965148D01*
G37*
X126798812Y-82517822D02*
X126729654Y-82517822D01*
X126689512Y-82516645D01*
X126668606Y-82511772D01*
X126661078Y-82501186D01*
X126660495Y-82494029D01*
X126659226Y-82479676D01*
X126651221Y-82476923D01*
X126630185Y-82485771D01*
X126613827Y-82494029D01*
X126551023Y-82513597D01*
X126482752Y-82514729D01*
X126427248Y-82500135D01*
X126375562Y-82464877D01*
X126336162Y-82412835D01*
X126314587Y-82351450D01*
X126314038Y-82348018D01*
X126310833Y-82310571D01*
X126309239Y-82256813D01*
X126309367Y-82216155D01*
X126446721Y-82216155D01*
X126449903Y-82270194D01*
X126457141Y-82314735D01*
X126466940Y-82339888D01*
X126504011Y-82374260D01*
X126548026Y-82386582D01*
X126593416Y-82376618D01*
X126632203Y-82346895D01*
X126646892Y-82326905D01*
X126655481Y-82303050D01*
X126659504Y-82268230D01*
X126660495Y-82215930D01*
X126658722Y-82164139D01*
X126654037Y-82118634D01*
X126647397Y-82088181D01*
X126646290Y-82085452D01*
X126619509Y-82053000D01*
X126580421Y-82035183D01*
X126536685Y-82032306D01*
X126495962Y-82044674D01*
X126465913Y-82072593D01*
X126462796Y-82078148D01*
X126453039Y-82112022D01*
X126447723Y-82160728D01*
X126446721Y-82216155D01*
X126309367Y-82216155D01*
X126309432Y-82195540D01*
X126310336Y-82162563D01*
X126316486Y-82080981D01*
X126329267Y-82019730D01*
X126350529Y-81974449D01*
X126382122Y-81940779D01*
X126412793Y-81921014D01*
X126455646Y-81907120D01*
X126508944Y-81902354D01*
X126563520Y-81906236D01*
X126610208Y-81918282D01*
X126634876Y-81932693D01*
X126660495Y-81955878D01*
X126660495Y-81662773D01*
X126798812Y-81662773D01*
X126798812Y-82517822D01*
G36*
X126798812Y-82517822D02*
G01*
X126729654Y-82517822D01*
X126689512Y-82516645D01*
X126668606Y-82511772D01*
X126661078Y-82501186D01*
X126660495Y-82494029D01*
X126659226Y-82479676D01*
X126651221Y-82476923D01*
X126630185Y-82485771D01*
X126613827Y-82494029D01*
X126551023Y-82513597D01*
X126482752Y-82514729D01*
X126427248Y-82500135D01*
X126375562Y-82464877D01*
X126336162Y-82412835D01*
X126314587Y-82351450D01*
X126314038Y-82348018D01*
X126310833Y-82310571D01*
X126309239Y-82256813D01*
X126309367Y-82216155D01*
X126446721Y-82216155D01*
X126449903Y-82270194D01*
X126457141Y-82314735D01*
X126466940Y-82339888D01*
X126504011Y-82374260D01*
X126548026Y-82386582D01*
X126593416Y-82376618D01*
X126632203Y-82346895D01*
X126646892Y-82326905D01*
X126655481Y-82303050D01*
X126659504Y-82268230D01*
X126660495Y-82215930D01*
X126658722Y-82164139D01*
X126654037Y-82118634D01*
X126647397Y-82088181D01*
X126646290Y-82085452D01*
X126619509Y-82053000D01*
X126580421Y-82035183D01*
X126536685Y-82032306D01*
X126495962Y-82044674D01*
X126465913Y-82072593D01*
X126462796Y-82078148D01*
X126453039Y-82112022D01*
X126447723Y-82160728D01*
X126446721Y-82216155D01*
X126309367Y-82216155D01*
X126309432Y-82195540D01*
X126310336Y-82162563D01*
X126316486Y-82080981D01*
X126329267Y-82019730D01*
X126350529Y-81974449D01*
X126382122Y-81940779D01*
X126412793Y-81921014D01*
X126455646Y-81907120D01*
X126508944Y-81902354D01*
X126563520Y-81906236D01*
X126610208Y-81918282D01*
X126634876Y-81932693D01*
X126660495Y-81955878D01*
X126660495Y-81662773D01*
X126798812Y-81662773D01*
X126798812Y-82517822D01*
G37*
X129677898Y-80956457D02*
X129710096Y-80964279D01*
X129771825Y-80992921D01*
X129824610Y-81036667D01*
X129861141Y-81089117D01*
X129866160Y-81100893D01*
X129873045Y-81131740D01*
X129877864Y-81177371D01*
X129879505Y-81223492D01*
X129879505Y-81310693D01*
X129697178Y-81310693D01*
X129621979Y-81310978D01*
X129569003Y-81312704D01*
X129535325Y-81317181D01*
X129518020Y-81325720D01*
X129514163Y-81339630D01*
X129520829Y-81360222D01*
X129532770Y-81384315D01*
X129566080Y-81424525D01*
X129612368Y-81444558D01*
X129668944Y-81443905D01*
X129733031Y-81422101D01*
X129788417Y-81395193D01*
X129834375Y-81431532D01*
X129880333Y-81467872D01*
X129837096Y-81507819D01*
X129779374Y-81545563D01*
X129708386Y-81568320D01*
X129632029Y-81574688D01*
X129558199Y-81563268D01*
X129546287Y-81559393D01*
X129481399Y-81525506D01*
X129433130Y-81474986D01*
X129400465Y-81406325D01*
X129382385Y-81318014D01*
X129382175Y-81316121D01*
X129380556Y-81219878D01*
X129387100Y-81185542D01*
X129514852Y-81185542D01*
X129526584Y-81190822D01*
X129558438Y-81194867D01*
X129605397Y-81197176D01*
X129635154Y-81197525D01*
X129690648Y-81197306D01*
X129725346Y-81195916D01*
X129743601Y-81192251D01*
X129749766Y-81185210D01*
X129748195Y-81173690D01*
X129746878Y-81169233D01*
X129724382Y-81127355D01*
X129689003Y-81093604D01*
X129657780Y-81078773D01*
X129616301Y-81079668D01*
X129574269Y-81098164D01*
X129539012Y-81128786D01*
X129517854Y-81166062D01*
X129514852Y-81185542D01*
X129387100Y-81185542D01*
X129396690Y-81135229D01*
X129428698Y-81064191D01*
X129474701Y-81008779D01*
X129532821Y-80971009D01*
X129601180Y-80952896D01*
X129677898Y-80956457D01*
G36*
X129677898Y-80956457D02*
G01*
X129710096Y-80964279D01*
X129771825Y-80992921D01*
X129824610Y-81036667D01*
X129861141Y-81089117D01*
X129866160Y-81100893D01*
X129873045Y-81131740D01*
X129877864Y-81177371D01*
X129879505Y-81223492D01*
X129879505Y-81310693D01*
X129697178Y-81310693D01*
X129621979Y-81310978D01*
X129569003Y-81312704D01*
X129535325Y-81317181D01*
X129518020Y-81325720D01*
X129514163Y-81339630D01*
X129520829Y-81360222D01*
X129532770Y-81384315D01*
X129566080Y-81424525D01*
X129612368Y-81444558D01*
X129668944Y-81443905D01*
X129733031Y-81422101D01*
X129788417Y-81395193D01*
X129834375Y-81431532D01*
X129880333Y-81467872D01*
X129837096Y-81507819D01*
X129779374Y-81545563D01*
X129708386Y-81568320D01*
X129632029Y-81574688D01*
X129558199Y-81563268D01*
X129546287Y-81559393D01*
X129481399Y-81525506D01*
X129433130Y-81474986D01*
X129400465Y-81406325D01*
X129382385Y-81318014D01*
X129382175Y-81316121D01*
X129380556Y-81219878D01*
X129387100Y-81185542D01*
X129514852Y-81185542D01*
X129526584Y-81190822D01*
X129558438Y-81194867D01*
X129605397Y-81197176D01*
X129635154Y-81197525D01*
X129690648Y-81197306D01*
X129725346Y-81195916D01*
X129743601Y-81192251D01*
X129749766Y-81185210D01*
X129748195Y-81173690D01*
X129746878Y-81169233D01*
X129724382Y-81127355D01*
X129689003Y-81093604D01*
X129657780Y-81078773D01*
X129616301Y-81079668D01*
X129574269Y-81098164D01*
X129539012Y-81128786D01*
X129517854Y-81166062D01*
X129514852Y-81185542D01*
X129387100Y-81185542D01*
X129396690Y-81135229D01*
X129428698Y-81064191D01*
X129474701Y-81008779D01*
X129532821Y-80971009D01*
X129601180Y-80952896D01*
X129677898Y-80956457D01*
G37*
X127014017Y-80956452D02*
X127061634Y-80965482D01*
X127111034Y-80984370D01*
X127116312Y-80986777D01*
X127153774Y-81006476D01*
X127179717Y-81024781D01*
X127188103Y-81036508D01*
X127180117Y-81055632D01*
X127160720Y-81083850D01*
X127152110Y-81094384D01*
X127116628Y-81135847D01*
X127070885Y-81108858D01*
X127027350Y-81090878D01*
X126977050Y-81081267D01*
X126928812Y-81080660D01*
X126891467Y-81089691D01*
X126882505Y-81095327D01*
X126865437Y-81121171D01*
X126863363Y-81150941D01*
X126876134Y-81174197D01*
X126883688Y-81178708D01*
X126906325Y-81184309D01*
X126946115Y-81190892D01*
X126995166Y-81197183D01*
X127004215Y-81198170D01*
X127082996Y-81211798D01*
X127140136Y-81234946D01*
X127178030Y-81269752D01*
X127199079Y-81318354D01*
X127205635Y-81377718D01*
X127196577Y-81445198D01*
X127167164Y-81498188D01*
X127117278Y-81536783D01*
X127046800Y-81561081D01*
X126968565Y-81570667D01*
X126904766Y-81570552D01*
X126853016Y-81561845D01*
X126817673Y-81549825D01*
X126773017Y-81528880D01*
X126731747Y-81504574D01*
X126717079Y-81493876D01*
X126679357Y-81463084D01*
X126724852Y-81417049D01*
X126770347Y-81371013D01*
X126822072Y-81405243D01*
X126873952Y-81430952D01*
X126929351Y-81444399D01*
X126982605Y-81445818D01*
X127028049Y-81435443D01*
X127060016Y-81413507D01*
X127070338Y-81394998D01*
X127068789Y-81365314D01*
X127043140Y-81342615D01*
X126993460Y-81326940D01*
X126939031Y-81319695D01*
X126855264Y-81305873D01*
X126793033Y-81279796D01*
X126751507Y-81240699D01*
X126729853Y-81187820D01*
X126726853Y-81125126D01*
X126741671Y-81059642D01*
X126775454Y-81010144D01*
X126828505Y-80976408D01*
X126901126Y-80958207D01*
X126954928Y-80954639D01*
X127014017Y-80956452D01*
G36*
X127014017Y-80956452D02*
G01*
X127061634Y-80965482D01*
X127111034Y-80984370D01*
X127116312Y-80986777D01*
X127153774Y-81006476D01*
X127179717Y-81024781D01*
X127188103Y-81036508D01*
X127180117Y-81055632D01*
X127160720Y-81083850D01*
X127152110Y-81094384D01*
X127116628Y-81135847D01*
X127070885Y-81108858D01*
X127027350Y-81090878D01*
X126977050Y-81081267D01*
X126928812Y-81080660D01*
X126891467Y-81089691D01*
X126882505Y-81095327D01*
X126865437Y-81121171D01*
X126863363Y-81150941D01*
X126876134Y-81174197D01*
X126883688Y-81178708D01*
X126906325Y-81184309D01*
X126946115Y-81190892D01*
X126995166Y-81197183D01*
X127004215Y-81198170D01*
X127082996Y-81211798D01*
X127140136Y-81234946D01*
X127178030Y-81269752D01*
X127199079Y-81318354D01*
X127205635Y-81377718D01*
X127196577Y-81445198D01*
X127167164Y-81498188D01*
X127117278Y-81536783D01*
X127046800Y-81561081D01*
X126968565Y-81570667D01*
X126904766Y-81570552D01*
X126853016Y-81561845D01*
X126817673Y-81549825D01*
X126773017Y-81528880D01*
X126731747Y-81504574D01*
X126717079Y-81493876D01*
X126679357Y-81463084D01*
X126724852Y-81417049D01*
X126770347Y-81371013D01*
X126822072Y-81405243D01*
X126873952Y-81430952D01*
X126929351Y-81444399D01*
X126982605Y-81445818D01*
X127028049Y-81435443D01*
X127060016Y-81413507D01*
X127070338Y-81394998D01*
X127068789Y-81365314D01*
X127043140Y-81342615D01*
X126993460Y-81326940D01*
X126939031Y-81319695D01*
X126855264Y-81305873D01*
X126793033Y-81279796D01*
X126751507Y-81240699D01*
X126729853Y-81187820D01*
X126726853Y-81125126D01*
X126741671Y-81059642D01*
X126775454Y-81010144D01*
X126828505Y-80976408D01*
X126901126Y-80958207D01*
X126954928Y-80954639D01*
X127014017Y-80956452D01*
G37*
X129032581Y-81904970D02*
X129092685Y-81920597D01*
X129143021Y-81952848D01*
X129167393Y-81976940D01*
X129207345Y-82033895D01*
X129230242Y-82099965D01*
X129238108Y-82181182D01*
X129238148Y-82187748D01*
X129238218Y-82253763D01*
X128858264Y-82253763D01*
X128866363Y-82288342D01*
X128880987Y-82319659D01*
X128906581Y-82352291D01*
X128911935Y-82357500D01*
X128957943Y-82385694D01*
X129010410Y-82390475D01*
X129070803Y-82371926D01*
X129081040Y-82366931D01*
X129112439Y-82351745D01*
X129133470Y-82343094D01*
X129137139Y-82342293D01*
X129149948Y-82350063D01*
X129174378Y-82369072D01*
X129186779Y-82379460D01*
X129212476Y-82403321D01*
X129220915Y-82419077D01*
X129215058Y-82433571D01*
X129211928Y-82437534D01*
X129190725Y-82454879D01*
X129155738Y-82475959D01*
X129131337Y-82488265D01*
X129062072Y-82509946D01*
X128985388Y-82516971D01*
X128912765Y-82508647D01*
X128892426Y-82502686D01*
X128829476Y-82468952D01*
X128782815Y-82417045D01*
X128752173Y-82346459D01*
X128737282Y-82256692D01*
X128735647Y-82209753D01*
X128740421Y-82141413D01*
X128860990Y-82141413D01*
X128872652Y-82146465D01*
X128903998Y-82150429D01*
X128949571Y-82152768D01*
X128980446Y-82153169D01*
X129035981Y-82152783D01*
X129071033Y-82150975D01*
X129090262Y-82146773D01*
X129098330Y-82139203D01*
X129099901Y-82128218D01*
X129089121Y-82094381D01*
X129061980Y-82060940D01*
X129026277Y-82035272D01*
X128990560Y-82024772D01*
X128942048Y-82034086D01*
X128900053Y-82061013D01*
X128870936Y-82099827D01*
X128860990Y-82141413D01*
X128740421Y-82141413D01*
X128742599Y-82110236D01*
X128764055Y-82030949D01*
X128800470Y-81971263D01*
X128852297Y-81930549D01*
X128919990Y-81908179D01*
X128956662Y-81903871D01*
X129032581Y-81904970D01*
G36*
X129032581Y-81904970D02*
G01*
X129092685Y-81920597D01*
X129143021Y-81952848D01*
X129167393Y-81976940D01*
X129207345Y-82033895D01*
X129230242Y-82099965D01*
X129238108Y-82181182D01*
X129238148Y-82187748D01*
X129238218Y-82253763D01*
X128858264Y-82253763D01*
X128866363Y-82288342D01*
X128880987Y-82319659D01*
X128906581Y-82352291D01*
X128911935Y-82357500D01*
X128957943Y-82385694D01*
X129010410Y-82390475D01*
X129070803Y-82371926D01*
X129081040Y-82366931D01*
X129112439Y-82351745D01*
X129133470Y-82343094D01*
X129137139Y-82342293D01*
X129149948Y-82350063D01*
X129174378Y-82369072D01*
X129186779Y-82379460D01*
X129212476Y-82403321D01*
X129220915Y-82419077D01*
X129215058Y-82433571D01*
X129211928Y-82437534D01*
X129190725Y-82454879D01*
X129155738Y-82475959D01*
X129131337Y-82488265D01*
X129062072Y-82509946D01*
X128985388Y-82516971D01*
X128912765Y-82508647D01*
X128892426Y-82502686D01*
X128829476Y-82468952D01*
X128782815Y-82417045D01*
X128752173Y-82346459D01*
X128737282Y-82256692D01*
X128735647Y-82209753D01*
X128740421Y-82141413D01*
X128860990Y-82141413D01*
X128872652Y-82146465D01*
X128903998Y-82150429D01*
X128949571Y-82152768D01*
X128980446Y-82153169D01*
X129035981Y-82152783D01*
X129071033Y-82150975D01*
X129090262Y-82146773D01*
X129098330Y-82139203D01*
X129099901Y-82128218D01*
X129089121Y-82094381D01*
X129061980Y-82060940D01*
X129026277Y-82035272D01*
X128990560Y-82024772D01*
X128942048Y-82034086D01*
X128900053Y-82061013D01*
X128870936Y-82099827D01*
X128860990Y-82141413D01*
X128740421Y-82141413D01*
X128742599Y-82110236D01*
X128764055Y-82030949D01*
X128800470Y-81971263D01*
X128852297Y-81930549D01*
X128919990Y-81908179D01*
X128956662Y-81903871D01*
X129032581Y-81904970D01*
G37*
X125643301Y-80972614D02*
X125655832Y-80978514D01*
X125699201Y-81010283D01*
X125740210Y-81056646D01*
X125770832Y-81107696D01*
X125779541Y-81131166D01*
X125787488Y-81173091D01*
X125792226Y-81223757D01*
X125792801Y-81244679D01*
X125792871Y-81310693D01*
X125412917Y-81310693D01*
X125421017Y-81345273D01*
X125440896Y-81386170D01*
X125475653Y-81421514D01*
X125517002Y-81444282D01*
X125543351Y-81449010D01*
X125579084Y-81443273D01*
X125621718Y-81428882D01*
X125636201Y-81422262D01*
X125689760Y-81395513D01*
X125735467Y-81430376D01*
X125761842Y-81453955D01*
X125775876Y-81473417D01*
X125776586Y-81479129D01*
X125764049Y-81492973D01*
X125736572Y-81514012D01*
X125711634Y-81530425D01*
X125644336Y-81559930D01*
X125568890Y-81573284D01*
X125494112Y-81569812D01*
X125434505Y-81551663D01*
X125373059Y-81512784D01*
X125329392Y-81461595D01*
X125302074Y-81395367D01*
X125289678Y-81311371D01*
X125288579Y-81272936D01*
X125292978Y-81184861D01*
X125293518Y-81182299D01*
X125419418Y-81182299D01*
X125422885Y-81190558D01*
X125437137Y-81195113D01*
X125466530Y-81197065D01*
X125515425Y-81197517D01*
X125534252Y-81197525D01*
X125591533Y-81196843D01*
X125627859Y-81194364D01*
X125647396Y-81189443D01*
X125654310Y-81181434D01*
X125654555Y-81178862D01*
X125646664Y-81158423D01*
X125626915Y-81129789D01*
X125618425Y-81119763D01*
X125586906Y-81091408D01*
X125554051Y-81080259D01*
X125536349Y-81079327D01*
X125488461Y-81090981D01*
X125448301Y-81122285D01*
X125422827Y-81167752D01*
X125422375Y-81169233D01*
X125419418Y-81182299D01*
X125293518Y-81182299D01*
X125307608Y-81115510D01*
X125333962Y-81060025D01*
X125366193Y-81020639D01*
X125425783Y-80977931D01*
X125495832Y-80955109D01*
X125570339Y-80953046D01*
X125643301Y-80972614D01*
G36*
X125643301Y-80972614D02*
G01*
X125655832Y-80978514D01*
X125699201Y-81010283D01*
X125740210Y-81056646D01*
X125770832Y-81107696D01*
X125779541Y-81131166D01*
X125787488Y-81173091D01*
X125792226Y-81223757D01*
X125792801Y-81244679D01*
X125792871Y-81310693D01*
X125412917Y-81310693D01*
X125421017Y-81345273D01*
X125440896Y-81386170D01*
X125475653Y-81421514D01*
X125517002Y-81444282D01*
X125543351Y-81449010D01*
X125579084Y-81443273D01*
X125621718Y-81428882D01*
X125636201Y-81422262D01*
X125689760Y-81395513D01*
X125735467Y-81430376D01*
X125761842Y-81453955D01*
X125775876Y-81473417D01*
X125776586Y-81479129D01*
X125764049Y-81492973D01*
X125736572Y-81514012D01*
X125711634Y-81530425D01*
X125644336Y-81559930D01*
X125568890Y-81573284D01*
X125494112Y-81569812D01*
X125434505Y-81551663D01*
X125373059Y-81512784D01*
X125329392Y-81461595D01*
X125302074Y-81395367D01*
X125289678Y-81311371D01*
X125288579Y-81272936D01*
X125292978Y-81184861D01*
X125293518Y-81182299D01*
X125419418Y-81182299D01*
X125422885Y-81190558D01*
X125437137Y-81195113D01*
X125466530Y-81197065D01*
X125515425Y-81197517D01*
X125534252Y-81197525D01*
X125591533Y-81196843D01*
X125627859Y-81194364D01*
X125647396Y-81189443D01*
X125654310Y-81181434D01*
X125654555Y-81178862D01*
X125646664Y-81158423D01*
X125626915Y-81129789D01*
X125618425Y-81119763D01*
X125586906Y-81091408D01*
X125554051Y-81080259D01*
X125536349Y-81079327D01*
X125488461Y-81090981D01*
X125448301Y-81122285D01*
X125422827Y-81167752D01*
X125422375Y-81169233D01*
X125419418Y-81182299D01*
X125293518Y-81182299D01*
X125307608Y-81115510D01*
X125333962Y-81060025D01*
X125366193Y-81020639D01*
X125425783Y-80977931D01*
X125495832Y-80955109D01*
X125570339Y-80953046D01*
X125643301Y-80972614D01*
G37*
X128038411Y-81905417D02*
X128091411Y-81918290D01*
X128106731Y-81925110D01*
X128136428Y-81942974D01*
X128159220Y-81963093D01*
X128176083Y-81988962D01*
X128187998Y-82024073D01*
X128195942Y-82071920D01*
X128200894Y-82135996D01*
X128203831Y-82219794D01*
X128204947Y-82275768D01*
X128209052Y-82517822D01*
X128138932Y-82517822D01*
X128096393Y-82516038D01*
X128074476Y-82509942D01*
X128068812Y-82499706D01*
X128065821Y-82488637D01*
X128052451Y-82490754D01*
X128034233Y-82499629D01*
X127988624Y-82513233D01*
X127930007Y-82516899D01*
X127868354Y-82510903D01*
X127813638Y-82495521D01*
X127808730Y-82493386D01*
X127758723Y-82458255D01*
X127725756Y-82409419D01*
X127710587Y-82352333D01*
X127711746Y-82331824D01*
X127835508Y-82331824D01*
X127846413Y-82359425D01*
X127878745Y-82379204D01*
X127930910Y-82389819D01*
X127958787Y-82391228D01*
X128005247Y-82387620D01*
X128036129Y-82373597D01*
X128043664Y-82366931D01*
X128064076Y-82330666D01*
X128068812Y-82297773D01*
X128068812Y-82253763D01*
X128007513Y-82253763D01*
X127936256Y-82257395D01*
X127886276Y-82268818D01*
X127854696Y-82288824D01*
X127847626Y-82297743D01*
X127835508Y-82331824D01*
X127711746Y-82331824D01*
X127713971Y-82292456D01*
X127736663Y-82235244D01*
X127767624Y-82196580D01*
X127786376Y-82179864D01*
X127804733Y-82168878D01*
X127828619Y-82162180D01*
X127863957Y-82158326D01*
X127916669Y-82155873D01*
X127937577Y-82155168D01*
X128068812Y-82150879D01*
X128068620Y-82111158D01*
X128063537Y-82069405D01*
X128045162Y-82044158D01*
X128008039Y-82028030D01*
X128007043Y-82027742D01*
X127954410Y-82021400D01*
X127902906Y-82029684D01*
X127864630Y-82049827D01*
X127849272Y-82059773D01*
X127832730Y-82058397D01*
X127807275Y-82043987D01*
X127792328Y-82033817D01*
X127763091Y-82012088D01*
X127744980Y-81995800D01*
X127742074Y-81991137D01*
X127754040Y-81967005D01*
X127789396Y-81938185D01*
X127804753Y-81928461D01*
X127848901Y-81911714D01*
X127908398Y-81902227D01*
X127974487Y-81900095D01*
X128038411Y-81905417D01*
G36*
X128038411Y-81905417D02*
G01*
X128091411Y-81918290D01*
X128106731Y-81925110D01*
X128136428Y-81942974D01*
X128159220Y-81963093D01*
X128176083Y-81988962D01*
X128187998Y-82024073D01*
X128195942Y-82071920D01*
X128200894Y-82135996D01*
X128203831Y-82219794D01*
X128204947Y-82275768D01*
X128209052Y-82517822D01*
X128138932Y-82517822D01*
X128096393Y-82516038D01*
X128074476Y-82509942D01*
X128068812Y-82499706D01*
X128065821Y-82488637D01*
X128052451Y-82490754D01*
X128034233Y-82499629D01*
X127988624Y-82513233D01*
X127930007Y-82516899D01*
X127868354Y-82510903D01*
X127813638Y-82495521D01*
X127808730Y-82493386D01*
X127758723Y-82458255D01*
X127725756Y-82409419D01*
X127710587Y-82352333D01*
X127711746Y-82331824D01*
X127835508Y-82331824D01*
X127846413Y-82359425D01*
X127878745Y-82379204D01*
X127930910Y-82389819D01*
X127958787Y-82391228D01*
X128005247Y-82387620D01*
X128036129Y-82373597D01*
X128043664Y-82366931D01*
X128064076Y-82330666D01*
X128068812Y-82297773D01*
X128068812Y-82253763D01*
X128007513Y-82253763D01*
X127936256Y-82257395D01*
X127886276Y-82268818D01*
X127854696Y-82288824D01*
X127847626Y-82297743D01*
X127835508Y-82331824D01*
X127711746Y-82331824D01*
X127713971Y-82292456D01*
X127736663Y-82235244D01*
X127767624Y-82196580D01*
X127786376Y-82179864D01*
X127804733Y-82168878D01*
X127828619Y-82162180D01*
X127863957Y-82158326D01*
X127916669Y-82155873D01*
X127937577Y-82155168D01*
X128068812Y-82150879D01*
X128068620Y-82111158D01*
X128063537Y-82069405D01*
X128045162Y-82044158D01*
X128008039Y-82028030D01*
X128007043Y-82027742D01*
X127954410Y-82021400D01*
X127902906Y-82029684D01*
X127864630Y-82049827D01*
X127849272Y-82059773D01*
X127832730Y-82058397D01*
X127807275Y-82043987D01*
X127792328Y-82033817D01*
X127763091Y-82012088D01*
X127744980Y-81995800D01*
X127742074Y-81991137D01*
X127754040Y-81967005D01*
X127789396Y-81938185D01*
X127804753Y-81928461D01*
X127848901Y-81911714D01*
X127908398Y-81902227D01*
X127974487Y-81900095D01*
X128038411Y-81905417D01*
G37*
X125615790Y-81906555D02*
X125674945Y-81922339D01*
X125719977Y-81950948D01*
X125751754Y-81988419D01*
X125761634Y-82004411D01*
X125768927Y-82021163D01*
X125774026Y-82042592D01*
X125777321Y-82072616D01*
X125779203Y-82115154D01*
X125780063Y-82174122D01*
X125780293Y-82253440D01*
X125780297Y-82274484D01*
X125780297Y-82517822D01*
X125719941Y-82517822D01*
X125681443Y-82515126D01*
X125652977Y-82508295D01*
X125645845Y-82504083D01*
X125626348Y-82496813D01*
X125606434Y-82504083D01*
X125573647Y-82513160D01*
X125526022Y-82516813D01*
X125473236Y-82515228D01*
X125424964Y-82508589D01*
X125396782Y-82500072D01*
X125342247Y-82465063D01*
X125308165Y-82416479D01*
X125292843Y-82351882D01*
X125292701Y-82350223D01*
X125294045Y-82321566D01*
X125415644Y-82321566D01*
X125426274Y-82354161D01*
X125443590Y-82372505D01*
X125478348Y-82386379D01*
X125524227Y-82391917D01*
X125571012Y-82389191D01*
X125608486Y-82378274D01*
X125618985Y-82371269D01*
X125637332Y-82338904D01*
X125641980Y-82302111D01*
X125641980Y-82253763D01*
X125572418Y-82253763D01*
X125506333Y-82258850D01*
X125456236Y-82273263D01*
X125425071Y-82295729D01*
X125415644Y-82321566D01*
X125294045Y-82321566D01*
X125296013Y-82279647D01*
X125319290Y-82223845D01*
X125363052Y-82181647D01*
X125369101Y-82177808D01*
X125395093Y-82165309D01*
X125427265Y-82157740D01*
X125472240Y-82154061D01*
X125525669Y-82153216D01*
X125641980Y-82153169D01*
X125641980Y-82104411D01*
X125637047Y-82066581D01*
X125624457Y-82041236D01*
X125622983Y-82039887D01*
X125594966Y-82028800D01*
X125552674Y-82024503D01*
X125505936Y-82026615D01*
X125464582Y-82034756D01*
X125440043Y-82046965D01*
X125426747Y-82056746D01*
X125412706Y-82058613D01*
X125393329Y-82050600D01*
X125364024Y-82030739D01*
X125320197Y-81997063D01*
X125316175Y-81993909D01*
X125318236Y-81982236D01*
X125335432Y-81962822D01*
X125361567Y-81941248D01*
X125390448Y-81923096D01*
X125399522Y-81918809D01*
X125432620Y-81910256D01*
X125481120Y-81904155D01*
X125535305Y-81901708D01*
X125537839Y-81901703D01*
X125615790Y-81906555D01*
G36*
X125615790Y-81906555D02*
G01*
X125674945Y-81922339D01*
X125719977Y-81950948D01*
X125751754Y-81988419D01*
X125761634Y-82004411D01*
X125768927Y-82021163D01*
X125774026Y-82042592D01*
X125777321Y-82072616D01*
X125779203Y-82115154D01*
X125780063Y-82174122D01*
X125780293Y-82253440D01*
X125780297Y-82274484D01*
X125780297Y-82517822D01*
X125719941Y-82517822D01*
X125681443Y-82515126D01*
X125652977Y-82508295D01*
X125645845Y-82504083D01*
X125626348Y-82496813D01*
X125606434Y-82504083D01*
X125573647Y-82513160D01*
X125526022Y-82516813D01*
X125473236Y-82515228D01*
X125424964Y-82508589D01*
X125396782Y-82500072D01*
X125342247Y-82465063D01*
X125308165Y-82416479D01*
X125292843Y-82351882D01*
X125292701Y-82350223D01*
X125294045Y-82321566D01*
X125415644Y-82321566D01*
X125426274Y-82354161D01*
X125443590Y-82372505D01*
X125478348Y-82386379D01*
X125524227Y-82391917D01*
X125571012Y-82389191D01*
X125608486Y-82378274D01*
X125618985Y-82371269D01*
X125637332Y-82338904D01*
X125641980Y-82302111D01*
X125641980Y-82253763D01*
X125572418Y-82253763D01*
X125506333Y-82258850D01*
X125456236Y-82273263D01*
X125425071Y-82295729D01*
X125415644Y-82321566D01*
X125294045Y-82321566D01*
X125296013Y-82279647D01*
X125319290Y-82223845D01*
X125363052Y-82181647D01*
X125369101Y-82177808D01*
X125395093Y-82165309D01*
X125427265Y-82157740D01*
X125472240Y-82154061D01*
X125525669Y-82153216D01*
X125641980Y-82153169D01*
X125641980Y-82104411D01*
X125637047Y-82066581D01*
X125624457Y-82041236D01*
X125622983Y-82039887D01*
X125594966Y-82028800D01*
X125552674Y-82024503D01*
X125505936Y-82026615D01*
X125464582Y-82034756D01*
X125440043Y-82046965D01*
X125426747Y-82056746D01*
X125412706Y-82058613D01*
X125393329Y-82050600D01*
X125364024Y-82030739D01*
X125320197Y-81997063D01*
X125316175Y-81993909D01*
X125318236Y-81982236D01*
X125335432Y-81962822D01*
X125361567Y-81941248D01*
X125390448Y-81923096D01*
X125399522Y-81918809D01*
X125432620Y-81910256D01*
X125481120Y-81904155D01*
X125535305Y-81901708D01*
X125537839Y-81901703D01*
X125615790Y-81906555D01*
G37*
X125091241Y-80969184D02*
X125117753Y-80982282D01*
X125150447Y-81005106D01*
X125174275Y-81029996D01*
X125190594Y-81061249D01*
X125200760Y-81103166D01*
X125206128Y-81160044D01*
X125208056Y-81236184D01*
X125208169Y-81268917D01*
X125207839Y-81340656D01*
X125206473Y-81391927D01*
X125203500Y-81427404D01*
X125198351Y-81451763D01*
X125190457Y-81469680D01*
X125182243Y-81481902D01*
X125129813Y-81533905D01*
X125068070Y-81565184D01*
X125001464Y-81574592D01*
X124934442Y-81560980D01*
X124913208Y-81551354D01*
X124862376Y-81524859D01*
X124862376Y-81940052D01*
X124899475Y-81920868D01*
X124948357Y-81906025D01*
X125008439Y-81902222D01*
X125068436Y-81909243D01*
X125113744Y-81925013D01*
X125151325Y-81955047D01*
X125183436Y-81998024D01*
X125185850Y-82002436D01*
X125196033Y-82023221D01*
X125203470Y-82044170D01*
X125208589Y-82069548D01*
X125211819Y-82103618D01*
X125213587Y-82150641D01*
X125214323Y-82214882D01*
X125214456Y-82287176D01*
X125214456Y-82517822D01*
X125076139Y-82517822D01*
X125076139Y-82092533D01*
X125037451Y-82059979D01*
X124997262Y-82033940D01*
X124959203Y-82029205D01*
X124920934Y-82041389D01*
X124900538Y-82053320D01*
X124885358Y-82070313D01*
X124874562Y-82095995D01*
X124867317Y-82133991D01*
X124862792Y-82187926D01*
X124860156Y-82261425D01*
X124859228Y-82310347D01*
X124856089Y-82511535D01*
X124790074Y-82515336D01*
X124724060Y-82519136D01*
X124724060Y-81270650D01*
X124862376Y-81270650D01*
X124865903Y-81340254D01*
X124877785Y-81388569D01*
X124899980Y-81418631D01*
X124934441Y-81433471D01*
X124969258Y-81436436D01*
X125008671Y-81433028D01*
X125034829Y-81419617D01*
X125051186Y-81401896D01*
X125064063Y-81382835D01*
X125071728Y-81361601D01*
X125075139Y-81331849D01*
X125075251Y-81287236D01*
X125074103Y-81249880D01*
X125071468Y-81193604D01*
X125067544Y-81156658D01*
X125060937Y-81133223D01*
X125050251Y-81117480D01*
X125040167Y-81108380D01*
X124998030Y-81088537D01*
X124948160Y-81085332D01*
X124919524Y-81092168D01*
X124891172Y-81116464D01*
X124872391Y-81163728D01*
X124863288Y-81233624D01*
X124862376Y-81270650D01*
X124724060Y-81270650D01*
X124724060Y-80958614D01*
X124793218Y-80958614D01*
X124834740Y-80960256D01*
X124856162Y-80966087D01*
X124862374Y-80977461D01*
X124862376Y-80977798D01*
X124865258Y-80988938D01*
X124877970Y-80987673D01*
X124903243Y-80975433D01*
X124962131Y-80956707D01*
X125028385Y-80954739D01*
X125091241Y-80969184D01*
G36*
X125091241Y-80969184D02*
G01*
X125117753Y-80982282D01*
X125150447Y-81005106D01*
X125174275Y-81029996D01*
X125190594Y-81061249D01*
X125200760Y-81103166D01*
X125206128Y-81160044D01*
X125208056Y-81236184D01*
X125208169Y-81268917D01*
X125207839Y-81340656D01*
X125206473Y-81391927D01*
X125203500Y-81427404D01*
X125198351Y-81451763D01*
X125190457Y-81469680D01*
X125182243Y-81481902D01*
X125129813Y-81533905D01*
X125068070Y-81565184D01*
X125001464Y-81574592D01*
X124934442Y-81560980D01*
X124913208Y-81551354D01*
X124862376Y-81524859D01*
X124862376Y-81940052D01*
X124899475Y-81920868D01*
X124948357Y-81906025D01*
X125008439Y-81902222D01*
X125068436Y-81909243D01*
X125113744Y-81925013D01*
X125151325Y-81955047D01*
X125183436Y-81998024D01*
X125185850Y-82002436D01*
X125196033Y-82023221D01*
X125203470Y-82044170D01*
X125208589Y-82069548D01*
X125211819Y-82103618D01*
X125213587Y-82150641D01*
X125214323Y-82214882D01*
X125214456Y-82287176D01*
X125214456Y-82517822D01*
X125076139Y-82517822D01*
X125076139Y-82092533D01*
X125037451Y-82059979D01*
X124997262Y-82033940D01*
X124959203Y-82029205D01*
X124920934Y-82041389D01*
X124900538Y-82053320D01*
X124885358Y-82070313D01*
X124874562Y-82095995D01*
X124867317Y-82133991D01*
X124862792Y-82187926D01*
X124860156Y-82261425D01*
X124859228Y-82310347D01*
X124856089Y-82511535D01*
X124790074Y-82515336D01*
X124724060Y-82519136D01*
X124724060Y-81270650D01*
X124862376Y-81270650D01*
X124865903Y-81340254D01*
X124877785Y-81388569D01*
X124899980Y-81418631D01*
X124934441Y-81433471D01*
X124969258Y-81436436D01*
X125008671Y-81433028D01*
X125034829Y-81419617D01*
X125051186Y-81401896D01*
X125064063Y-81382835D01*
X125071728Y-81361601D01*
X125075139Y-81331849D01*
X125075251Y-81287236D01*
X125074103Y-81249880D01*
X125071468Y-81193604D01*
X125067544Y-81156658D01*
X125060937Y-81133223D01*
X125050251Y-81117480D01*
X125040167Y-81108380D01*
X124998030Y-81088537D01*
X124948160Y-81085332D01*
X124919524Y-81092168D01*
X124891172Y-81116464D01*
X124872391Y-81163728D01*
X124863288Y-81233624D01*
X124862376Y-81270650D01*
X124724060Y-81270650D01*
X124724060Y-80958614D01*
X124793218Y-80958614D01*
X124834740Y-80960256D01*
X124856162Y-80966087D01*
X124862374Y-80977461D01*
X124862376Y-80977798D01*
X124865258Y-80988938D01*
X124877970Y-80987673D01*
X124903243Y-80975433D01*
X124962131Y-80956707D01*
X125028385Y-80954739D01*
X125091241Y-80969184D01*
G37*
X127376964Y-76790018D02*
X127433812Y-77091570D01*
X127853338Y-77264512D01*
X128104984Y-77093395D01*
X128175458Y-77045750D01*
X128239163Y-77003210D01*
X128293126Y-76967715D01*
X128334373Y-76941210D01*
X128359934Y-76925636D01*
X128366895Y-76922278D01*
X128379435Y-76930914D01*
X128406231Y-76954792D01*
X128444280Y-76990859D01*
X128490579Y-77036067D01*
X128542123Y-77087364D01*
X128595909Y-77141701D01*
X128648935Y-77196028D01*
X128698195Y-77247295D01*
X128740687Y-77292451D01*
X128773407Y-77328446D01*
X128793351Y-77352230D01*
X128798119Y-77360190D01*
X128791257Y-77374865D01*
X128772020Y-77407014D01*
X128742430Y-77453492D01*
X128704510Y-77511156D01*
X128660282Y-77576860D01*
X128634654Y-77614336D01*
X128587941Y-77682768D01*
X128546432Y-77744520D01*
X128512140Y-77796519D01*
X128487080Y-77835692D01*
X128473264Y-77858965D01*
X128471188Y-77863855D01*
X128475895Y-77877755D01*
X128488723Y-77910150D01*
X128507738Y-77956485D01*
X128531003Y-78012206D01*
X128556584Y-78072758D01*
X128582545Y-78133586D01*
X128606950Y-78190136D01*
X128627863Y-78237852D01*
X128643349Y-78272181D01*
X128651472Y-78288568D01*
X128651952Y-78289212D01*
X128664707Y-78292341D01*
X128698677Y-78299321D01*
X128750340Y-78309467D01*
X128816176Y-78322092D01*
X128892664Y-78336509D01*
X128937290Y-78344823D01*
X129019021Y-78360384D01*
X129092843Y-78375192D01*
X129155021Y-78388436D01*
X129201822Y-78399305D01*
X129229509Y-78406989D01*
X129235074Y-78409427D01*
X129240526Y-78425930D01*
X129244924Y-78463200D01*
X129248272Y-78516880D01*
X129250574Y-78582612D01*
X129251832Y-78656037D01*
X129252048Y-78732796D01*
X129251227Y-78808532D01*
X129249371Y-78878886D01*
X129246482Y-78939500D01*
X129242565Y-78986016D01*
X129237622Y-79014075D01*
X129234657Y-79019916D01*
X129216934Y-79026917D01*
X129179381Y-79036927D01*
X129126964Y-79048769D01*
X129064652Y-79061267D01*
X129042900Y-79065310D01*
X128938024Y-79084520D01*
X128855180Y-79099991D01*
X128791630Y-79112337D01*
X128744637Y-79122173D01*
X128711463Y-79130114D01*
X128689371Y-79136776D01*
X128675624Y-79142773D01*
X128667484Y-79148719D01*
X128666345Y-79149894D01*
X128654977Y-79168826D01*
X128637635Y-79205669D01*
X128616050Y-79255913D01*
X128591954Y-79315046D01*
X128567079Y-79378556D01*
X128543157Y-79441932D01*
X128521919Y-79500662D01*
X128505097Y-79550235D01*
X128494422Y-79586139D01*
X128491627Y-79603862D01*
X128491860Y-79604483D01*
X128501331Y-79618970D01*
X128522818Y-79650844D01*
X128554063Y-79696789D01*
X128592807Y-79753485D01*
X128636793Y-79817617D01*
X128649319Y-79835842D01*
X128693984Y-79901914D01*
X128733288Y-79962200D01*
X128765088Y-80013235D01*
X128787245Y-80051560D01*
X128797617Y-80073711D01*
X128798119Y-80076432D01*
X128789405Y-80090736D01*
X128765325Y-80119072D01*
X128728976Y-80158396D01*
X128683453Y-80205661D01*
X128631852Y-80257823D01*
X128577267Y-80311835D01*
X128522794Y-80364653D01*
X128471529Y-80413231D01*
X128426567Y-80454523D01*
X128391004Y-80485485D01*
X128367935Y-80503070D01*
X128361554Y-80505941D01*
X128346699Y-80499178D01*
X128316286Y-80480939D01*
X128275268Y-80454297D01*
X128243709Y-80432852D01*
X128186525Y-80393503D01*
X128118806Y-80347171D01*
X128050880Y-80300913D01*
X128014361Y-80276155D01*
X127890752Y-80192547D01*
X127786991Y-80248650D01*
X127739720Y-80273228D01*
X127699523Y-80292331D01*
X127672326Y-80303227D01*
X127665402Y-80304743D01*
X127657077Y-80293549D01*
X127640654Y-80261917D01*
X127617357Y-80212765D01*
X127588414Y-80149010D01*
X127555050Y-80073571D01*
X127518491Y-79989364D01*
X127479964Y-79899308D01*
X127440694Y-79806321D01*
X127401908Y-79713320D01*
X127364830Y-79623223D01*
X127330689Y-79538948D01*
X127300708Y-79463413D01*
X127276116Y-79399534D01*
X127258136Y-79350231D01*
X127247997Y-79318421D01*
X127246366Y-79307496D01*
X127259291Y-79293561D01*
X127287589Y-79270940D01*
X127325346Y-79244333D01*
X127328515Y-79242228D01*
X127426100Y-79164114D01*
X127504786Y-79072982D01*
X127563891Y-78971745D01*
X127602732Y-78863318D01*
X127620628Y-78750614D01*
X127616897Y-78636548D01*
X127590857Y-78524034D01*
X127541825Y-78415985D01*
X127527400Y-78392345D01*
X127452369Y-78296887D01*
X127363730Y-78220232D01*
X127264549Y-78162780D01*
X127157895Y-78124929D01*
X127046836Y-78107078D01*
X126934439Y-78109625D01*
X126823773Y-78132970D01*
X126717906Y-78177510D01*
X126619905Y-78243645D01*
X126589590Y-78270487D01*
X126512438Y-78354512D01*
X126456218Y-78442966D01*
X126417653Y-78542115D01*
X126396174Y-78640303D01*
X126390872Y-78750697D01*
X126408552Y-78861640D01*
X126447419Y-78969381D01*
X126505677Y-79070169D01*
X126581531Y-79160256D01*
X126673183Y-79235892D01*
X126685228Y-79243864D01*
X126723389Y-79269974D01*
X126752399Y-79292595D01*
X126766268Y-79307039D01*
X126766469Y-79307496D01*
X126763492Y-79323121D01*
X126751689Y-79358582D01*
X126732286Y-79410962D01*
X126706512Y-79477345D01*
X126675591Y-79554814D01*
X126640751Y-79640450D01*
X126603217Y-79731337D01*
X126564217Y-79824559D01*
X126524977Y-79917197D01*
X126486724Y-80006335D01*
X126450683Y-80089055D01*
X126418083Y-80162441D01*
X126390148Y-80223575D01*
X126368105Y-80269541D01*
X126353182Y-80297421D01*
X126347172Y-80304743D01*
X126328809Y-80299041D01*
X126294448Y-80283749D01*
X126250016Y-80261599D01*
X126225583Y-80248650D01*
X126121822Y-80192547D01*
X125998213Y-80276155D01*
X125935114Y-80318987D01*
X125866030Y-80366122D01*
X125801293Y-80410503D01*
X125768866Y-80432852D01*
X125723259Y-80463477D01*
X125684640Y-80487747D01*
X125658048Y-80502587D01*
X125649410Y-80505724D01*
X125636839Y-80497261D01*
X125609016Y-80473636D01*
X125568639Y-80437302D01*
X125518405Y-80390711D01*
X125461012Y-80336317D01*
X125424714Y-80301392D01*
X125361210Y-80238996D01*
X125306327Y-80183188D01*
X125262286Y-80136354D01*
X125231305Y-80100882D01*
X125215602Y-80079161D01*
X125214095Y-80074752D01*
X125221086Y-80057985D01*
X125240406Y-80024082D01*
X125269909Y-79976476D01*
X125307455Y-79918599D01*
X125350900Y-79853884D01*
X125363255Y-79835842D01*
X125408273Y-79770267D01*
X125448660Y-79711228D01*
X125482160Y-79662042D01*
X125506514Y-79626028D01*
X125519464Y-79606502D01*
X125520715Y-79604483D01*
X125518844Y-79588922D01*
X125508913Y-79554709D01*
X125492653Y-79506355D01*
X125471795Y-79448371D01*
X125448073Y-79385270D01*
X125423216Y-79321563D01*
X125398958Y-79261761D01*
X125377029Y-79210376D01*
X125359162Y-79171919D01*
X125347087Y-79150902D01*
X125346229Y-79149894D01*
X125338846Y-79143888D01*
X125326375Y-79137948D01*
X125306080Y-79131460D01*
X125275222Y-79123809D01*
X125231066Y-79114380D01*
X125170874Y-79102559D01*
X125091907Y-79087729D01*
X124991430Y-79069277D01*
X124969675Y-79065310D01*
X124905198Y-79052853D01*
X124848989Y-79040666D01*
X124806013Y-79029926D01*
X124781240Y-79021809D01*
X124777918Y-79019916D01*
X124772444Y-79003138D01*
X124767994Y-78965645D01*
X124764572Y-78911794D01*
X124762181Y-78845944D01*
X124760823Y-78772453D01*
X124760501Y-78695680D01*
X124761219Y-78619983D01*
X124762979Y-78549720D01*
X124765784Y-78489250D01*
X124769638Y-78442930D01*
X124774543Y-78415119D01*
X124777500Y-78409427D01*
X124793963Y-78403686D01*
X124831449Y-78394345D01*
X124886225Y-78382215D01*
X124954555Y-78368107D01*
X125032706Y-78352830D01*
X125075284Y-78344823D01*
X125156071Y-78329721D01*
X125228113Y-78316040D01*
X125287889Y-78304467D01*
X125331879Y-78295687D01*
X125356561Y-78290387D01*
X125360623Y-78289212D01*
X125367489Y-78275965D01*
X125382002Y-78244057D01*
X125402229Y-78198047D01*
X125426234Y-78142492D01*
X125452082Y-78081953D01*
X125477840Y-78020986D01*
X125501573Y-77964151D01*
X125521346Y-77916006D01*
X125535224Y-77881110D01*
X125541274Y-77864021D01*
X125541386Y-77863274D01*
X125534528Y-77849793D01*
X125515302Y-77818770D01*
X125485728Y-77773289D01*
X125447827Y-77716432D01*
X125403620Y-77651283D01*
X125377921Y-77613862D01*
X125331093Y-77545247D01*
X125289501Y-77482952D01*
X125255175Y-77430129D01*
X125230143Y-77389927D01*
X125216435Y-77365500D01*
X125214456Y-77360024D01*
X125222966Y-77347278D01*
X125246493Y-77320063D01*
X125282032Y-77281428D01*
X125326577Y-77234423D01*
X125377123Y-77182095D01*
X125430664Y-77127495D01*
X125484195Y-77073670D01*
X125534711Y-77023670D01*
X125579206Y-76980543D01*
X125614675Y-76947339D01*
X125638113Y-76927106D01*
X125645954Y-76922278D01*
X125658720Y-76929067D01*
X125689256Y-76948142D01*
X125734590Y-76977561D01*
X125791756Y-77015381D01*
X125857784Y-77059661D01*
X125907590Y-77093395D01*
X126159236Y-77264512D01*
X126368999Y-77178041D01*
X126578763Y-77091570D01*
X126635611Y-76790018D01*
X126692460Y-76488466D01*
X127320115Y-76488466D01*
X127376964Y-76790018D01*
G36*
X127376964Y-76790018D02*
G01*
X127433812Y-77091570D01*
X127853338Y-77264512D01*
X128104984Y-77093395D01*
X128175458Y-77045750D01*
X128239163Y-77003210D01*
X128293126Y-76967715D01*
X128334373Y-76941210D01*
X128359934Y-76925636D01*
X128366895Y-76922278D01*
X128379435Y-76930914D01*
X128406231Y-76954792D01*
X128444280Y-76990859D01*
X128490579Y-77036067D01*
X128542123Y-77087364D01*
X128595909Y-77141701D01*
X128648935Y-77196028D01*
X128698195Y-77247295D01*
X128740687Y-77292451D01*
X128773407Y-77328446D01*
X128793351Y-77352230D01*
X128798119Y-77360190D01*
X128791257Y-77374865D01*
X128772020Y-77407014D01*
X128742430Y-77453492D01*
X128704510Y-77511156D01*
X128660282Y-77576860D01*
X128634654Y-77614336D01*
X128587941Y-77682768D01*
X128546432Y-77744520D01*
X128512140Y-77796519D01*
X128487080Y-77835692D01*
X128473264Y-77858965D01*
X128471188Y-77863855D01*
X128475895Y-77877755D01*
X128488723Y-77910150D01*
X128507738Y-77956485D01*
X128531003Y-78012206D01*
X128556584Y-78072758D01*
X128582545Y-78133586D01*
X128606950Y-78190136D01*
X128627863Y-78237852D01*
X128643349Y-78272181D01*
X128651472Y-78288568D01*
X128651952Y-78289212D01*
X128664707Y-78292341D01*
X128698677Y-78299321D01*
X128750340Y-78309467D01*
X128816176Y-78322092D01*
X128892664Y-78336509D01*
X128937290Y-78344823D01*
X129019021Y-78360384D01*
X129092843Y-78375192D01*
X129155021Y-78388436D01*
X129201822Y-78399305D01*
X129229509Y-78406989D01*
X129235074Y-78409427D01*
X129240526Y-78425930D01*
X129244924Y-78463200D01*
X129248272Y-78516880D01*
X129250574Y-78582612D01*
X129251832Y-78656037D01*
X129252048Y-78732796D01*
X129251227Y-78808532D01*
X129249371Y-78878886D01*
X129246482Y-78939500D01*
X129242565Y-78986016D01*
X129237622Y-79014075D01*
X129234657Y-79019916D01*
X129216934Y-79026917D01*
X129179381Y-79036927D01*
X129126964Y-79048769D01*
X129064652Y-79061267D01*
X129042900Y-79065310D01*
X128938024Y-79084520D01*
X128855180Y-79099991D01*
X128791630Y-79112337D01*
X128744637Y-79122173D01*
X128711463Y-79130114D01*
X128689371Y-79136776D01*
X128675624Y-79142773D01*
X128667484Y-79148719D01*
X128666345Y-79149894D01*
X128654977Y-79168826D01*
X128637635Y-79205669D01*
X128616050Y-79255913D01*
X128591954Y-79315046D01*
X128567079Y-79378556D01*
X128543157Y-79441932D01*
X128521919Y-79500662D01*
X128505097Y-79550235D01*
X128494422Y-79586139D01*
X128491627Y-79603862D01*
X128491860Y-79604483D01*
X128501331Y-79618970D01*
X128522818Y-79650844D01*
X128554063Y-79696789D01*
X128592807Y-79753485D01*
X128636793Y-79817617D01*
X128649319Y-79835842D01*
X128693984Y-79901914D01*
X128733288Y-79962200D01*
X128765088Y-80013235D01*
X128787245Y-80051560D01*
X128797617Y-80073711D01*
X128798119Y-80076432D01*
X128789405Y-80090736D01*
X128765325Y-80119072D01*
X128728976Y-80158396D01*
X128683453Y-80205661D01*
X128631852Y-80257823D01*
X128577267Y-80311835D01*
X128522794Y-80364653D01*
X128471529Y-80413231D01*
X128426567Y-80454523D01*
X128391004Y-80485485D01*
X128367935Y-80503070D01*
X128361554Y-80505941D01*
X128346699Y-80499178D01*
X128316286Y-80480939D01*
X128275268Y-80454297D01*
X128243709Y-80432852D01*
X128186525Y-80393503D01*
X128118806Y-80347171D01*
X128050880Y-80300913D01*
X128014361Y-80276155D01*
X127890752Y-80192547D01*
X127786991Y-80248650D01*
X127739720Y-80273228D01*
X127699523Y-80292331D01*
X127672326Y-80303227D01*
X127665402Y-80304743D01*
X127657077Y-80293549D01*
X127640654Y-80261917D01*
X127617357Y-80212765D01*
X127588414Y-80149010D01*
X127555050Y-80073571D01*
X127518491Y-79989364D01*
X127479964Y-79899308D01*
X127440694Y-79806321D01*
X127401908Y-79713320D01*
X127364830Y-79623223D01*
X127330689Y-79538948D01*
X127300708Y-79463413D01*
X127276116Y-79399534D01*
X127258136Y-79350231D01*
X127247997Y-79318421D01*
X127246366Y-79307496D01*
X127259291Y-79293561D01*
X127287589Y-79270940D01*
X127325346Y-79244333D01*
X127328515Y-79242228D01*
X127426100Y-79164114D01*
X127504786Y-79072982D01*
X127563891Y-78971745D01*
X127602732Y-78863318D01*
X127620628Y-78750614D01*
X127616897Y-78636548D01*
X127590857Y-78524034D01*
X127541825Y-78415985D01*
X127527400Y-78392345D01*
X127452369Y-78296887D01*
X127363730Y-78220232D01*
X127264549Y-78162780D01*
X127157895Y-78124929D01*
X127046836Y-78107078D01*
X126934439Y-78109625D01*
X126823773Y-78132970D01*
X126717906Y-78177510D01*
X126619905Y-78243645D01*
X126589590Y-78270487D01*
X126512438Y-78354512D01*
X126456218Y-78442966D01*
X126417653Y-78542115D01*
X126396174Y-78640303D01*
X126390872Y-78750697D01*
X126408552Y-78861640D01*
X126447419Y-78969381D01*
X126505677Y-79070169D01*
X126581531Y-79160256D01*
X126673183Y-79235892D01*
X126685228Y-79243864D01*
X126723389Y-79269974D01*
X126752399Y-79292595D01*
X126766268Y-79307039D01*
X126766469Y-79307496D01*
X126763492Y-79323121D01*
X126751689Y-79358582D01*
X126732286Y-79410962D01*
X126706512Y-79477345D01*
X126675591Y-79554814D01*
X126640751Y-79640450D01*
X126603217Y-79731337D01*
X126564217Y-79824559D01*
X126524977Y-79917197D01*
X126486724Y-80006335D01*
X126450683Y-80089055D01*
X126418083Y-80162441D01*
X126390148Y-80223575D01*
X126368105Y-80269541D01*
X126353182Y-80297421D01*
X126347172Y-80304743D01*
X126328809Y-80299041D01*
X126294448Y-80283749D01*
X126250016Y-80261599D01*
X126225583Y-80248650D01*
X126121822Y-80192547D01*
X125998213Y-80276155D01*
X125935114Y-80318987D01*
X125866030Y-80366122D01*
X125801293Y-80410503D01*
X125768866Y-80432852D01*
X125723259Y-80463477D01*
X125684640Y-80487747D01*
X125658048Y-80502587D01*
X125649410Y-80505724D01*
X125636839Y-80497261D01*
X125609016Y-80473636D01*
X125568639Y-80437302D01*
X125518405Y-80390711D01*
X125461012Y-80336317D01*
X125424714Y-80301392D01*
X125361210Y-80238996D01*
X125306327Y-80183188D01*
X125262286Y-80136354D01*
X125231305Y-80100882D01*
X125215602Y-80079161D01*
X125214095Y-80074752D01*
X125221086Y-80057985D01*
X125240406Y-80024082D01*
X125269909Y-79976476D01*
X125307455Y-79918599D01*
X125350900Y-79853884D01*
X125363255Y-79835842D01*
X125408273Y-79770267D01*
X125448660Y-79711228D01*
X125482160Y-79662042D01*
X125506514Y-79626028D01*
X125519464Y-79606502D01*
X125520715Y-79604483D01*
X125518844Y-79588922D01*
X125508913Y-79554709D01*
X125492653Y-79506355D01*
X125471795Y-79448371D01*
X125448073Y-79385270D01*
X125423216Y-79321563D01*
X125398958Y-79261761D01*
X125377029Y-79210376D01*
X125359162Y-79171919D01*
X125347087Y-79150902D01*
X125346229Y-79149894D01*
X125338846Y-79143888D01*
X125326375Y-79137948D01*
X125306080Y-79131460D01*
X125275222Y-79123809D01*
X125231066Y-79114380D01*
X125170874Y-79102559D01*
X125091907Y-79087729D01*
X124991430Y-79069277D01*
X124969675Y-79065310D01*
X124905198Y-79052853D01*
X124848989Y-79040666D01*
X124806013Y-79029926D01*
X124781240Y-79021809D01*
X124777918Y-79019916D01*
X124772444Y-79003138D01*
X124767994Y-78965645D01*
X124764572Y-78911794D01*
X124762181Y-78845944D01*
X124760823Y-78772453D01*
X124760501Y-78695680D01*
X124761219Y-78619983D01*
X124762979Y-78549720D01*
X124765784Y-78489250D01*
X124769638Y-78442930D01*
X124774543Y-78415119D01*
X124777500Y-78409427D01*
X124793963Y-78403686D01*
X124831449Y-78394345D01*
X124886225Y-78382215D01*
X124954555Y-78368107D01*
X125032706Y-78352830D01*
X125075284Y-78344823D01*
X125156071Y-78329721D01*
X125228113Y-78316040D01*
X125287889Y-78304467D01*
X125331879Y-78295687D01*
X125356561Y-78290387D01*
X125360623Y-78289212D01*
X125367489Y-78275965D01*
X125382002Y-78244057D01*
X125402229Y-78198047D01*
X125426234Y-78142492D01*
X125452082Y-78081953D01*
X125477840Y-78020986D01*
X125501573Y-77964151D01*
X125521346Y-77916006D01*
X125535224Y-77881110D01*
X125541274Y-77864021D01*
X125541386Y-77863274D01*
X125534528Y-77849793D01*
X125515302Y-77818770D01*
X125485728Y-77773289D01*
X125447827Y-77716432D01*
X125403620Y-77651283D01*
X125377921Y-77613862D01*
X125331093Y-77545247D01*
X125289501Y-77482952D01*
X125255175Y-77430129D01*
X125230143Y-77389927D01*
X125216435Y-77365500D01*
X125214456Y-77360024D01*
X125222966Y-77347278D01*
X125246493Y-77320063D01*
X125282032Y-77281428D01*
X125326577Y-77234423D01*
X125377123Y-77182095D01*
X125430664Y-77127495D01*
X125484195Y-77073670D01*
X125534711Y-77023670D01*
X125579206Y-76980543D01*
X125614675Y-76947339D01*
X125638113Y-76927106D01*
X125645954Y-76922278D01*
X125658720Y-76929067D01*
X125689256Y-76948142D01*
X125734590Y-76977561D01*
X125791756Y-77015381D01*
X125857784Y-77059661D01*
X125907590Y-77093395D01*
X126159236Y-77264512D01*
X126368999Y-77178041D01*
X126578763Y-77091570D01*
X126635611Y-76790018D01*
X126692460Y-76488466D01*
X127320115Y-76488466D01*
X127376964Y-76790018D01*
G37*
D12*
%TO.C,J3*%
X64474000Y-46487000D02*
X65799000Y-46487000D01*
X65799000Y-46422000D02*
X65799000Y-46487000D01*
X65799000Y-46422000D02*
X69329000Y-46422000D01*
X65799000Y-59177000D02*
X65799000Y-59242000D01*
X65799000Y-59242000D02*
X69329000Y-59242000D01*
X69329000Y-46422000D02*
X69329000Y-46487000D01*
X69329000Y-59177000D02*
X69329000Y-59242000D01*
%TO.C,TP2*%
X87568000Y-81280000D02*
G75*
G02*
X86168000Y-81280000I-700000J0D01*
G01*
X86168000Y-81280000D02*
G75*
G02*
X87568000Y-81280000I700000J0D01*
G01*
%TO.C,C4*%
X98296000Y-62851420D02*
X98296000Y-63132580D01*
X99316000Y-62851420D02*
X99316000Y-63132580D01*
%TO.C,R4*%
X123810500Y-73867742D02*
X123810500Y-74342258D01*
X124855500Y-73867742D02*
X124855500Y-74342258D01*
%TO.C,TP3*%
X89600000Y-81280000D02*
G75*
G02*
X88200000Y-81280000I-700000J0D01*
G01*
X88200000Y-81280000D02*
G75*
G02*
X89600000Y-81280000I700000J0D01*
G01*
%TO.C,TP1*%
X85536000Y-81280000D02*
G75*
G02*
X84136000Y-81280000I-700000J0D01*
G01*
X84136000Y-81280000D02*
G75*
G02*
X85536000Y-81280000I700000J0D01*
G01*
%TO.C,DC1*%
X108662000Y-42356000D02*
X108662000Y-43001000D01*
X108662000Y-61276000D02*
X108662000Y-60631000D01*
X112522000Y-42356000D02*
X108662000Y-42356000D01*
X112522000Y-42356000D02*
X116382000Y-42356000D01*
X112522000Y-61276000D02*
X108662000Y-61276000D01*
X112522000Y-61276000D02*
X116382000Y-61276000D01*
X116382000Y-42356000D02*
X116382000Y-43001000D01*
X116382000Y-61276000D02*
X116382000Y-60631000D01*
X107797000Y-43001000D02*
X107457000Y-42531000D01*
X108137000Y-42531000D01*
X107797000Y-43001000D01*
G36*
X107797000Y-43001000D02*
G01*
X107457000Y-42531000D01*
X108137000Y-42531000D01*
X107797000Y-43001000D01*
G37*
%TO.C,U2*%
X104732000Y-68530000D02*
X104977000Y-68530000D01*
X104732000Y-72390000D02*
X104732000Y-68530000D01*
X104732000Y-72390000D02*
X104732000Y-76250000D01*
X104732000Y-76250000D02*
X104977000Y-76250000D01*
X122852000Y-68530000D02*
X122607000Y-68530000D01*
X122852000Y-72390000D02*
X122852000Y-68530000D01*
X122852000Y-72390000D02*
X122852000Y-76250000D01*
X122852000Y-76250000D02*
X122607000Y-76250000D01*
X123077000Y-68017500D02*
X122607000Y-67677500D01*
X123077000Y-67337500D01*
X123077000Y-68017500D01*
G36*
X123077000Y-68017500D02*
G01*
X122607000Y-67677500D01*
X123077000Y-67337500D01*
X123077000Y-68017500D01*
G37*
%TO.C,JP2*%
X103648000Y-59687000D02*
X105648000Y-59687000D01*
X103648000Y-62487000D02*
X103648000Y-59687000D01*
X105648000Y-59687000D02*
X105648000Y-62487000D01*
X105648000Y-62487000D02*
X103648000Y-62487000D01*
%TO.C,C3*%
X123330580Y-42416000D02*
X123049420Y-42416000D01*
X123330580Y-43436000D02*
X123049420Y-43436000D01*
%TO.C,R3*%
X82025258Y-52563500D02*
X81550742Y-52563500D01*
X82025258Y-53608500D02*
X81550742Y-53608500D01*
%TO.C,U5*%
X120025000Y-47752000D02*
X120025000Y-45802000D01*
X120025000Y-47752000D02*
X120025000Y-49702000D01*
X128895000Y-47752000D02*
X128895000Y-45802000D01*
X128895000Y-47752000D02*
X128895000Y-49702000D01*
X129160000Y-45292000D02*
X128830000Y-45052000D01*
X129160000Y-44812000D01*
X129160000Y-45292000D01*
G36*
X129160000Y-45292000D02*
G01*
X128830000Y-45052000D01*
X129160000Y-44812000D01*
X129160000Y-45292000D01*
G37*
%TO.C,C7*%
X109735252Y-62003000D02*
X109212748Y-62003000D01*
X109735252Y-63473000D02*
X109212748Y-63473000D01*
%TO.C,J1*%
X64220000Y-69220000D02*
X65545000Y-69220000D01*
X65545000Y-69155000D02*
X65545000Y-69220000D01*
X65545000Y-69155000D02*
X69075000Y-69155000D01*
X65545000Y-75560000D02*
X65545000Y-75625000D01*
X65545000Y-75625000D02*
X69075000Y-75625000D01*
X69075000Y-69155000D02*
X69075000Y-69220000D01*
X69075000Y-75560000D02*
X69075000Y-75625000D01*
%TO.C,C2*%
X114694580Y-64514000D02*
X114413420Y-64514000D01*
X114694580Y-65534000D02*
X114413420Y-65534000D01*
%TD*%
D14*
X104902000Y-57658000D03*
X102362000Y-57658000D03*
X99822000Y-57658000D03*
X97282000Y-57658000D03*
X94742000Y-57658000D03*
X92202000Y-57658000D03*
X89662000Y-57658000D03*
X87122000Y-57658000D03*
X84582000Y-57658000D03*
X84582000Y-50038000D03*
X87122000Y-50038000D03*
X89662000Y-50038000D03*
X92202000Y-50038000D03*
X94742000Y-50038000D03*
X97282000Y-50038000D03*
X99822000Y-50038000D03*
X102362000Y-50038000D03*
X104902000Y-50038000D03*
M02*
