%TF.GenerationSoftware,KiCad,Pcbnew,9.0.0-9.0.0-2~ubuntu24.10.1*%
%TF.CreationDate,2025-03-15T08:42:32-04:00*%
%TF.ProjectId,fat8,66617438-2e6b-4696-9361-645f70636258,rev?*%
%TF.SameCoordinates,Original*%
%TF.FileFunction,Soldermask,Top*%
%TF.FilePolarity,Negative*%
%FSLAX46Y46*%
G04 Gerber Fmt 4.6, Leading zero omitted, Abs format (unit mm)*
G04 Created by KiCad (PCBNEW 9.0.0-9.0.0-2~ubuntu24.10.1) date 2025-03-15 08:42:32*
%MOMM*%
%LPD*%
G01*
G04 APERTURE LIST*
G04 APERTURE END LIST*
G36*
X85027342Y-80818060D02*
G01*
X85140381Y-80883323D01*
X85232677Y-80975619D01*
X85297940Y-81088658D01*
X85331722Y-81214737D01*
X85331722Y-81345263D01*
X85297940Y-81471342D01*
X85232677Y-81584381D01*
X85140381Y-81676677D01*
X85027342Y-81741940D01*
X84901263Y-81775722D01*
X84770737Y-81775722D01*
X84644658Y-81741940D01*
X84531619Y-81676677D01*
X84439323Y-81584381D01*
X84374060Y-81471342D01*
X84340278Y-81345263D01*
X84340278Y-81214737D01*
X84374060Y-81088658D01*
X84439323Y-80975619D01*
X84531619Y-80883323D01*
X84644658Y-80818060D01*
X84770737Y-80784278D01*
X84901263Y-80784278D01*
X85027342Y-80818060D01*
G37*
G36*
X87059342Y-80818060D02*
G01*
X87172381Y-80883323D01*
X87264677Y-80975619D01*
X87329940Y-81088658D01*
X87363722Y-81214737D01*
X87363722Y-81345263D01*
X87329940Y-81471342D01*
X87264677Y-81584381D01*
X87172381Y-81676677D01*
X87059342Y-81741940D01*
X86933263Y-81775722D01*
X86802737Y-81775722D01*
X86676658Y-81741940D01*
X86563619Y-81676677D01*
X86471323Y-81584381D01*
X86406060Y-81471342D01*
X86372278Y-81345263D01*
X86372278Y-81214737D01*
X86406060Y-81088658D01*
X86471323Y-80975619D01*
X86563619Y-80883323D01*
X86676658Y-80818060D01*
X86802737Y-80784278D01*
X86933263Y-80784278D01*
X87059342Y-80818060D01*
G37*
G36*
X89091342Y-80818060D02*
G01*
X89204381Y-80883323D01*
X89296677Y-80975619D01*
X89361940Y-81088658D01*
X89395722Y-81214737D01*
X89395722Y-81345263D01*
X89361940Y-81471342D01*
X89296677Y-81584381D01*
X89204381Y-81676677D01*
X89091342Y-81741940D01*
X88965263Y-81775722D01*
X88834737Y-81775722D01*
X88708658Y-81741940D01*
X88595619Y-81676677D01*
X88503323Y-81584381D01*
X88438060Y-81471342D01*
X88404278Y-81345263D01*
X88404278Y-81214737D01*
X88438060Y-81088658D01*
X88503323Y-80975619D01*
X88595619Y-80883323D01*
X88708658Y-80818060D01*
X88834737Y-80784278D01*
X88965263Y-80784278D01*
X89091342Y-80818060D01*
G37*
G36*
X81356850Y-80424964D02*
G01*
X81401317Y-80430123D01*
X81416510Y-80436831D01*
X81438104Y-80441127D01*
X81461222Y-80456574D01*
X81478567Y-80464233D01*
X81490412Y-80476078D01*
X81511099Y-80489901D01*
X81524921Y-80510587D01*
X81536766Y-80522432D01*
X81544423Y-80539774D01*
X81559873Y-80562896D01*
X81564168Y-80584491D01*
X81570876Y-80599682D01*
X81576033Y-80644139D01*
X81577000Y-80649000D01*
X81577000Y-81149000D01*
X81576032Y-81153862D01*
X81570876Y-81198317D01*
X81564168Y-81213506D01*
X81559873Y-81235104D01*
X81544422Y-81258227D01*
X81536766Y-81275567D01*
X81524923Y-81287409D01*
X81511099Y-81308099D01*
X81490409Y-81321923D01*
X81478567Y-81333766D01*
X81461227Y-81341422D01*
X81438104Y-81356873D01*
X81416506Y-81361168D01*
X81401317Y-81367876D01*
X81356861Y-81373032D01*
X81352000Y-81374000D01*
X80902000Y-81374000D01*
X80897138Y-81373033D01*
X80852682Y-81367876D01*
X80837491Y-81361168D01*
X80815896Y-81356873D01*
X80792774Y-81341423D01*
X80775432Y-81333766D01*
X80763587Y-81321921D01*
X80742901Y-81308099D01*
X80729078Y-81287412D01*
X80717233Y-81275567D01*
X80709574Y-81258222D01*
X80694127Y-81235104D01*
X80689831Y-81213510D01*
X80683123Y-81198317D01*
X80677964Y-81153849D01*
X80677000Y-81149000D01*
X80677000Y-80649000D01*
X80677964Y-80644150D01*
X80683123Y-80599682D01*
X80689832Y-80584487D01*
X80694127Y-80562896D01*
X80709573Y-80539779D01*
X80717233Y-80522432D01*
X80729080Y-80510584D01*
X80742901Y-80489901D01*
X80763584Y-80476080D01*
X80775432Y-80464233D01*
X80792779Y-80456573D01*
X80815896Y-80441127D01*
X80837487Y-80436832D01*
X80852682Y-80430123D01*
X80897151Y-80424964D01*
X80902000Y-80424000D01*
X81352000Y-80424000D01*
X81356850Y-80424964D01*
G37*
G36*
X82906850Y-80424964D02*
G01*
X82951317Y-80430123D01*
X82966510Y-80436831D01*
X82988104Y-80441127D01*
X83011222Y-80456574D01*
X83028567Y-80464233D01*
X83040412Y-80476078D01*
X83061099Y-80489901D01*
X83074921Y-80510587D01*
X83086766Y-80522432D01*
X83094423Y-80539774D01*
X83109873Y-80562896D01*
X83114168Y-80584491D01*
X83120876Y-80599682D01*
X83126033Y-80644139D01*
X83127000Y-80649000D01*
X83127000Y-81149000D01*
X83126032Y-81153862D01*
X83120876Y-81198317D01*
X83114168Y-81213506D01*
X83109873Y-81235104D01*
X83094422Y-81258227D01*
X83086766Y-81275567D01*
X83074923Y-81287409D01*
X83061099Y-81308099D01*
X83040409Y-81321923D01*
X83028567Y-81333766D01*
X83011227Y-81341422D01*
X82988104Y-81356873D01*
X82966506Y-81361168D01*
X82951317Y-81367876D01*
X82906861Y-81373032D01*
X82902000Y-81374000D01*
X82452000Y-81374000D01*
X82447138Y-81373033D01*
X82402682Y-81367876D01*
X82387491Y-81361168D01*
X82365896Y-81356873D01*
X82342774Y-81341423D01*
X82325432Y-81333766D01*
X82313587Y-81321921D01*
X82292901Y-81308099D01*
X82279078Y-81287412D01*
X82267233Y-81275567D01*
X82259574Y-81258222D01*
X82244127Y-81235104D01*
X82239831Y-81213510D01*
X82233123Y-81198317D01*
X82227964Y-81153849D01*
X82227000Y-81149000D01*
X82227000Y-80649000D01*
X82227964Y-80644150D01*
X82233123Y-80599682D01*
X82239832Y-80584487D01*
X82244127Y-80562896D01*
X82259573Y-80539779D01*
X82267233Y-80522432D01*
X82279080Y-80510584D01*
X82292901Y-80489901D01*
X82313584Y-80476080D01*
X82325432Y-80464233D01*
X82342779Y-80456573D01*
X82365896Y-80441127D01*
X82387487Y-80436832D01*
X82402682Y-80430123D01*
X82447151Y-80424964D01*
X82452000Y-80424000D01*
X82902000Y-80424000D01*
X82906850Y-80424964D01*
G37*
G36*
X81733701Y-78050709D02*
G01*
X81758033Y-78066967D01*
X81774291Y-78091299D01*
X81780000Y-78120000D01*
X81780000Y-79445000D01*
X81774291Y-79473701D01*
X81758033Y-79498033D01*
X81733701Y-79514291D01*
X81705000Y-79520000D01*
X81555000Y-79520000D01*
X81526299Y-79514291D01*
X81501967Y-79498033D01*
X81485709Y-79473701D01*
X81480000Y-79445000D01*
X81480000Y-78120000D01*
X81485709Y-78091299D01*
X81501967Y-78066967D01*
X81526299Y-78050709D01*
X81555000Y-78045000D01*
X81705000Y-78045000D01*
X81733701Y-78050709D01*
G37*
G36*
X82233701Y-78050709D02*
G01*
X82258033Y-78066967D01*
X82274291Y-78091299D01*
X82280000Y-78120000D01*
X82280000Y-79445000D01*
X82274291Y-79473701D01*
X82258033Y-79498033D01*
X82233701Y-79514291D01*
X82205000Y-79520000D01*
X82055000Y-79520000D01*
X82026299Y-79514291D01*
X82001967Y-79498033D01*
X81985709Y-79473701D01*
X81980000Y-79445000D01*
X81980000Y-78120000D01*
X81985709Y-78091299D01*
X82001967Y-78066967D01*
X82026299Y-78050709D01*
X82055000Y-78045000D01*
X82205000Y-78045000D01*
X82233701Y-78050709D01*
G37*
G36*
X82733701Y-78050709D02*
G01*
X82758033Y-78066967D01*
X82774291Y-78091299D01*
X82780000Y-78120000D01*
X82780000Y-79445000D01*
X82774291Y-79473701D01*
X82758033Y-79498033D01*
X82733701Y-79514291D01*
X82705000Y-79520000D01*
X82555000Y-79520000D01*
X82526299Y-79514291D01*
X82501967Y-79498033D01*
X82485709Y-79473701D01*
X82480000Y-79445000D01*
X82480000Y-78120000D01*
X82485709Y-78091299D01*
X82501967Y-78066967D01*
X82526299Y-78050709D01*
X82555000Y-78045000D01*
X82705000Y-78045000D01*
X82733701Y-78050709D01*
G37*
G36*
X83233701Y-78050709D02*
G01*
X83258033Y-78066967D01*
X83274291Y-78091299D01*
X83280000Y-78120000D01*
X83280000Y-79445000D01*
X83274291Y-79473701D01*
X83258033Y-79498033D01*
X83233701Y-79514291D01*
X83205000Y-79520000D01*
X83055000Y-79520000D01*
X83026299Y-79514291D01*
X83001967Y-79498033D01*
X82985709Y-79473701D01*
X82980000Y-79445000D01*
X82980000Y-78120000D01*
X82985709Y-78091299D01*
X83001967Y-78066967D01*
X83026299Y-78050709D01*
X83055000Y-78045000D01*
X83205000Y-78045000D01*
X83233701Y-78050709D01*
G37*
G36*
X83733701Y-78050709D02*
G01*
X83758033Y-78066967D01*
X83774291Y-78091299D01*
X83780000Y-78120000D01*
X83780000Y-79445000D01*
X83774291Y-79473701D01*
X83758033Y-79498033D01*
X83733701Y-79514291D01*
X83705000Y-79520000D01*
X83555000Y-79520000D01*
X83526299Y-79514291D01*
X83501967Y-79498033D01*
X83485709Y-79473701D01*
X83480000Y-79445000D01*
X83480000Y-78120000D01*
X83485709Y-78091299D01*
X83501967Y-78066967D01*
X83526299Y-78050709D01*
X83555000Y-78045000D01*
X83705000Y-78045000D01*
X83733701Y-78050709D01*
G37*
G36*
X84233701Y-78050709D02*
G01*
X84258033Y-78066967D01*
X84274291Y-78091299D01*
X84280000Y-78120000D01*
X84280000Y-79445000D01*
X84274291Y-79473701D01*
X84258033Y-79498033D01*
X84233701Y-79514291D01*
X84205000Y-79520000D01*
X84055000Y-79520000D01*
X84026299Y-79514291D01*
X84001967Y-79498033D01*
X83985709Y-79473701D01*
X83980000Y-79445000D01*
X83980000Y-78120000D01*
X83985709Y-78091299D01*
X84001967Y-78066967D01*
X84026299Y-78050709D01*
X84055000Y-78045000D01*
X84205000Y-78045000D01*
X84233701Y-78050709D01*
G37*
G36*
X84733701Y-78050709D02*
G01*
X84758033Y-78066967D01*
X84774291Y-78091299D01*
X84780000Y-78120000D01*
X84780000Y-79445000D01*
X84774291Y-79473701D01*
X84758033Y-79498033D01*
X84733701Y-79514291D01*
X84705000Y-79520000D01*
X84555000Y-79520000D01*
X84526299Y-79514291D01*
X84501967Y-79498033D01*
X84485709Y-79473701D01*
X84480000Y-79445000D01*
X84480000Y-78120000D01*
X84485709Y-78091299D01*
X84501967Y-78066967D01*
X84526299Y-78050709D01*
X84555000Y-78045000D01*
X84705000Y-78045000D01*
X84733701Y-78050709D01*
G37*
G36*
X85233701Y-78050709D02*
G01*
X85258033Y-78066967D01*
X85274291Y-78091299D01*
X85280000Y-78120000D01*
X85280000Y-79445000D01*
X85274291Y-79473701D01*
X85258033Y-79498033D01*
X85233701Y-79514291D01*
X85205000Y-79520000D01*
X85055000Y-79520000D01*
X85026299Y-79514291D01*
X85001967Y-79498033D01*
X84985709Y-79473701D01*
X84980000Y-79445000D01*
X84980000Y-78120000D01*
X84985709Y-78091299D01*
X85001967Y-78066967D01*
X85026299Y-78050709D01*
X85055000Y-78045000D01*
X85205000Y-78045000D01*
X85233701Y-78050709D01*
G37*
G36*
X85733701Y-78050709D02*
G01*
X85758033Y-78066967D01*
X85774291Y-78091299D01*
X85780000Y-78120000D01*
X85780000Y-79445000D01*
X85774291Y-79473701D01*
X85758033Y-79498033D01*
X85733701Y-79514291D01*
X85705000Y-79520000D01*
X85555000Y-79520000D01*
X85526299Y-79514291D01*
X85501967Y-79498033D01*
X85485709Y-79473701D01*
X85480000Y-79445000D01*
X85480000Y-78120000D01*
X85485709Y-78091299D01*
X85501967Y-78066967D01*
X85526299Y-78050709D01*
X85555000Y-78045000D01*
X85705000Y-78045000D01*
X85733701Y-78050709D01*
G37*
G36*
X86233701Y-78050709D02*
G01*
X86258033Y-78066967D01*
X86274291Y-78091299D01*
X86280000Y-78120000D01*
X86280000Y-79445000D01*
X86274291Y-79473701D01*
X86258033Y-79498033D01*
X86233701Y-79514291D01*
X86205000Y-79520000D01*
X86055000Y-79520000D01*
X86026299Y-79514291D01*
X86001967Y-79498033D01*
X85985709Y-79473701D01*
X85980000Y-79445000D01*
X85980000Y-78120000D01*
X85985709Y-78091299D01*
X86001967Y-78066967D01*
X86026299Y-78050709D01*
X86055000Y-78045000D01*
X86205000Y-78045000D01*
X86233701Y-78050709D01*
G37*
G36*
X86733701Y-78050709D02*
G01*
X86758033Y-78066967D01*
X86774291Y-78091299D01*
X86780000Y-78120000D01*
X86780000Y-79445000D01*
X86774291Y-79473701D01*
X86758033Y-79498033D01*
X86733701Y-79514291D01*
X86705000Y-79520000D01*
X86555000Y-79520000D01*
X86526299Y-79514291D01*
X86501967Y-79498033D01*
X86485709Y-79473701D01*
X86480000Y-79445000D01*
X86480000Y-78120000D01*
X86485709Y-78091299D01*
X86501967Y-78066967D01*
X86526299Y-78050709D01*
X86555000Y-78045000D01*
X86705000Y-78045000D01*
X86733701Y-78050709D01*
G37*
G36*
X87233701Y-78050709D02*
G01*
X87258033Y-78066967D01*
X87274291Y-78091299D01*
X87280000Y-78120000D01*
X87280000Y-79445000D01*
X87274291Y-79473701D01*
X87258033Y-79498033D01*
X87233701Y-79514291D01*
X87205000Y-79520000D01*
X87055000Y-79520000D01*
X87026299Y-79514291D01*
X87001967Y-79498033D01*
X86985709Y-79473701D01*
X86980000Y-79445000D01*
X86980000Y-78120000D01*
X86985709Y-78091299D01*
X87001967Y-78066967D01*
X87026299Y-78050709D01*
X87055000Y-78045000D01*
X87205000Y-78045000D01*
X87233701Y-78050709D01*
G37*
G36*
X87733701Y-78050709D02*
G01*
X87758033Y-78066967D01*
X87774291Y-78091299D01*
X87780000Y-78120000D01*
X87780000Y-79445000D01*
X87774291Y-79473701D01*
X87758033Y-79498033D01*
X87733701Y-79514291D01*
X87705000Y-79520000D01*
X87555000Y-79520000D01*
X87526299Y-79514291D01*
X87501967Y-79498033D01*
X87485709Y-79473701D01*
X87480000Y-79445000D01*
X87480000Y-78120000D01*
X87485709Y-78091299D01*
X87501967Y-78066967D01*
X87526299Y-78050709D01*
X87555000Y-78045000D01*
X87705000Y-78045000D01*
X87733701Y-78050709D01*
G37*
G36*
X88233701Y-78050709D02*
G01*
X88258033Y-78066967D01*
X88274291Y-78091299D01*
X88280000Y-78120000D01*
X88280000Y-79445000D01*
X88274291Y-79473701D01*
X88258033Y-79498033D01*
X88233701Y-79514291D01*
X88205000Y-79520000D01*
X88055000Y-79520000D01*
X88026299Y-79514291D01*
X88001967Y-79498033D01*
X87985709Y-79473701D01*
X87980000Y-79445000D01*
X87980000Y-78120000D01*
X87985709Y-78091299D01*
X88001967Y-78066967D01*
X88026299Y-78050709D01*
X88055000Y-78045000D01*
X88205000Y-78045000D01*
X88233701Y-78050709D01*
G37*
G36*
X88733701Y-78050709D02*
G01*
X88758033Y-78066967D01*
X88774291Y-78091299D01*
X88780000Y-78120000D01*
X88780000Y-79445000D01*
X88774291Y-79473701D01*
X88758033Y-79498033D01*
X88733701Y-79514291D01*
X88705000Y-79520000D01*
X88555000Y-79520000D01*
X88526299Y-79514291D01*
X88501967Y-79498033D01*
X88485709Y-79473701D01*
X88480000Y-79445000D01*
X88480000Y-78120000D01*
X88485709Y-78091299D01*
X88501967Y-78066967D01*
X88526299Y-78050709D01*
X88555000Y-78045000D01*
X88705000Y-78045000D01*
X88733701Y-78050709D01*
G37*
G36*
X89233701Y-78050709D02*
G01*
X89258033Y-78066967D01*
X89274291Y-78091299D01*
X89280000Y-78120000D01*
X89280000Y-79445000D01*
X89274291Y-79473701D01*
X89258033Y-79498033D01*
X89233701Y-79514291D01*
X89205000Y-79520000D01*
X89055000Y-79520000D01*
X89026299Y-79514291D01*
X89001967Y-79498033D01*
X88985709Y-79473701D01*
X88980000Y-79445000D01*
X88980000Y-78120000D01*
X88985709Y-78091299D01*
X89001967Y-78066967D01*
X89026299Y-78050709D01*
X89055000Y-78045000D01*
X89205000Y-78045000D01*
X89233701Y-78050709D01*
G37*
G36*
X89733701Y-78050709D02*
G01*
X89758033Y-78066967D01*
X89774291Y-78091299D01*
X89780000Y-78120000D01*
X89780000Y-79445000D01*
X89774291Y-79473701D01*
X89758033Y-79498033D01*
X89733701Y-79514291D01*
X89705000Y-79520000D01*
X89555000Y-79520000D01*
X89526299Y-79514291D01*
X89501967Y-79498033D01*
X89485709Y-79473701D01*
X89480000Y-79445000D01*
X89480000Y-78120000D01*
X89485709Y-78091299D01*
X89501967Y-78066967D01*
X89526299Y-78050709D01*
X89555000Y-78045000D01*
X89705000Y-78045000D01*
X89733701Y-78050709D01*
G37*
G36*
X90233701Y-78050709D02*
G01*
X90258033Y-78066967D01*
X90274291Y-78091299D01*
X90280000Y-78120000D01*
X90280000Y-79445000D01*
X90274291Y-79473701D01*
X90258033Y-79498033D01*
X90233701Y-79514291D01*
X90205000Y-79520000D01*
X90055000Y-79520000D01*
X90026299Y-79514291D01*
X90001967Y-79498033D01*
X89985709Y-79473701D01*
X89980000Y-79445000D01*
X89980000Y-78120000D01*
X89985709Y-78091299D01*
X90001967Y-78066967D01*
X90026299Y-78050709D01*
X90055000Y-78045000D01*
X90205000Y-78045000D01*
X90233701Y-78050709D01*
G37*
G36*
X90733701Y-78050709D02*
G01*
X90758033Y-78066967D01*
X90774291Y-78091299D01*
X90780000Y-78120000D01*
X90780000Y-79445000D01*
X90774291Y-79473701D01*
X90758033Y-79498033D01*
X90733701Y-79514291D01*
X90705000Y-79520000D01*
X90555000Y-79520000D01*
X90526299Y-79514291D01*
X90501967Y-79498033D01*
X90485709Y-79473701D01*
X90480000Y-79445000D01*
X90480000Y-78120000D01*
X90485709Y-78091299D01*
X90501967Y-78066967D01*
X90526299Y-78050709D01*
X90555000Y-78045000D01*
X90705000Y-78045000D01*
X90733701Y-78050709D01*
G37*
G36*
X91233701Y-78050709D02*
G01*
X91258033Y-78066967D01*
X91274291Y-78091299D01*
X91280000Y-78120000D01*
X91280000Y-79445000D01*
X91274291Y-79473701D01*
X91258033Y-79498033D01*
X91233701Y-79514291D01*
X91205000Y-79520000D01*
X91055000Y-79520000D01*
X91026299Y-79514291D01*
X91001967Y-79498033D01*
X90985709Y-79473701D01*
X90980000Y-79445000D01*
X90980000Y-78120000D01*
X90985709Y-78091299D01*
X91001967Y-78066967D01*
X91026299Y-78050709D01*
X91055000Y-78045000D01*
X91205000Y-78045000D01*
X91233701Y-78050709D01*
G37*
G36*
X91733701Y-78050709D02*
G01*
X91758033Y-78066967D01*
X91774291Y-78091299D01*
X91780000Y-78120000D01*
X91780000Y-79445000D01*
X91774291Y-79473701D01*
X91758033Y-79498033D01*
X91733701Y-79514291D01*
X91705000Y-79520000D01*
X91555000Y-79520000D01*
X91526299Y-79514291D01*
X91501967Y-79498033D01*
X91485709Y-79473701D01*
X91480000Y-79445000D01*
X91480000Y-78120000D01*
X91485709Y-78091299D01*
X91501967Y-78066967D01*
X91526299Y-78050709D01*
X91555000Y-78045000D01*
X91705000Y-78045000D01*
X91733701Y-78050709D01*
G37*
G36*
X92233701Y-78050709D02*
G01*
X92258033Y-78066967D01*
X92274291Y-78091299D01*
X92280000Y-78120000D01*
X92280000Y-79445000D01*
X92274291Y-79473701D01*
X92258033Y-79498033D01*
X92233701Y-79514291D01*
X92205000Y-79520000D01*
X92055000Y-79520000D01*
X92026299Y-79514291D01*
X92001967Y-79498033D01*
X91985709Y-79473701D01*
X91980000Y-79445000D01*
X91980000Y-78120000D01*
X91985709Y-78091299D01*
X92001967Y-78066967D01*
X92026299Y-78050709D01*
X92055000Y-78045000D01*
X92205000Y-78045000D01*
X92233701Y-78050709D01*
G37*
G36*
X92733701Y-78050709D02*
G01*
X92758033Y-78066967D01*
X92774291Y-78091299D01*
X92780000Y-78120000D01*
X92780000Y-79445000D01*
X92774291Y-79473701D01*
X92758033Y-79498033D01*
X92733701Y-79514291D01*
X92705000Y-79520000D01*
X92555000Y-79520000D01*
X92526299Y-79514291D01*
X92501967Y-79498033D01*
X92485709Y-79473701D01*
X92480000Y-79445000D01*
X92480000Y-78120000D01*
X92485709Y-78091299D01*
X92501967Y-78066967D01*
X92526299Y-78050709D01*
X92555000Y-78045000D01*
X92705000Y-78045000D01*
X92733701Y-78050709D01*
G37*
G36*
X93233701Y-78050709D02*
G01*
X93258033Y-78066967D01*
X93274291Y-78091299D01*
X93280000Y-78120000D01*
X93280000Y-79445000D01*
X93274291Y-79473701D01*
X93258033Y-79498033D01*
X93233701Y-79514291D01*
X93205000Y-79520000D01*
X93055000Y-79520000D01*
X93026299Y-79514291D01*
X93001967Y-79498033D01*
X92985709Y-79473701D01*
X92980000Y-79445000D01*
X92980000Y-78120000D01*
X92985709Y-78091299D01*
X93001967Y-78066967D01*
X93026299Y-78050709D01*
X93055000Y-78045000D01*
X93205000Y-78045000D01*
X93233701Y-78050709D01*
G37*
G36*
X93733701Y-78050709D02*
G01*
X93758033Y-78066967D01*
X93774291Y-78091299D01*
X93780000Y-78120000D01*
X93780000Y-79445000D01*
X93774291Y-79473701D01*
X93758033Y-79498033D01*
X93733701Y-79514291D01*
X93705000Y-79520000D01*
X93555000Y-79520000D01*
X93526299Y-79514291D01*
X93501967Y-79498033D01*
X93485709Y-79473701D01*
X93480000Y-79445000D01*
X93480000Y-78120000D01*
X93485709Y-78091299D01*
X93501967Y-78066967D01*
X93526299Y-78050709D01*
X93555000Y-78045000D01*
X93705000Y-78045000D01*
X93733701Y-78050709D01*
G37*
G36*
X105744403Y-76026418D02*
G01*
X105793066Y-76058934D01*
X105825582Y-76107597D01*
X105837000Y-76165000D01*
X105837000Y-77915000D01*
X105825582Y-77972403D01*
X105793066Y-78021066D01*
X105744403Y-78053582D01*
X105687000Y-78065000D01*
X105387000Y-78065000D01*
X105329597Y-78053582D01*
X105280934Y-78021066D01*
X105248418Y-77972403D01*
X105237000Y-77915000D01*
X105237000Y-76165000D01*
X105248418Y-76107597D01*
X105280934Y-76058934D01*
X105329597Y-76026418D01*
X105387000Y-76015000D01*
X105687000Y-76015000D01*
X105744403Y-76026418D01*
G37*
G36*
X107014403Y-76026418D02*
G01*
X107063066Y-76058934D01*
X107095582Y-76107597D01*
X107107000Y-76165000D01*
X107107000Y-77915000D01*
X107095582Y-77972403D01*
X107063066Y-78021066D01*
X107014403Y-78053582D01*
X106957000Y-78065000D01*
X106657000Y-78065000D01*
X106599597Y-78053582D01*
X106550934Y-78021066D01*
X106518418Y-77972403D01*
X106507000Y-77915000D01*
X106507000Y-76165000D01*
X106518418Y-76107597D01*
X106550934Y-76058934D01*
X106599597Y-76026418D01*
X106657000Y-76015000D01*
X106957000Y-76015000D01*
X107014403Y-76026418D01*
G37*
G36*
X108284403Y-76026418D02*
G01*
X108333066Y-76058934D01*
X108365582Y-76107597D01*
X108377000Y-76165000D01*
X108377000Y-77915000D01*
X108365582Y-77972403D01*
X108333066Y-78021066D01*
X108284403Y-78053582D01*
X108227000Y-78065000D01*
X107927000Y-78065000D01*
X107869597Y-78053582D01*
X107820934Y-78021066D01*
X107788418Y-77972403D01*
X107777000Y-77915000D01*
X107777000Y-76165000D01*
X107788418Y-76107597D01*
X107820934Y-76058934D01*
X107869597Y-76026418D01*
X107927000Y-76015000D01*
X108227000Y-76015000D01*
X108284403Y-76026418D01*
G37*
G36*
X109554403Y-76026418D02*
G01*
X109603066Y-76058934D01*
X109635582Y-76107597D01*
X109647000Y-76165000D01*
X109647000Y-77915000D01*
X109635582Y-77972403D01*
X109603066Y-78021066D01*
X109554403Y-78053582D01*
X109497000Y-78065000D01*
X109197000Y-78065000D01*
X109139597Y-78053582D01*
X109090934Y-78021066D01*
X109058418Y-77972403D01*
X109047000Y-77915000D01*
X109047000Y-76165000D01*
X109058418Y-76107597D01*
X109090934Y-76058934D01*
X109139597Y-76026418D01*
X109197000Y-76015000D01*
X109497000Y-76015000D01*
X109554403Y-76026418D01*
G37*
G36*
X110824403Y-76026418D02*
G01*
X110873066Y-76058934D01*
X110905582Y-76107597D01*
X110917000Y-76165000D01*
X110917000Y-77915000D01*
X110905582Y-77972403D01*
X110873066Y-78021066D01*
X110824403Y-78053582D01*
X110767000Y-78065000D01*
X110467000Y-78065000D01*
X110409597Y-78053582D01*
X110360934Y-78021066D01*
X110328418Y-77972403D01*
X110317000Y-77915000D01*
X110317000Y-76165000D01*
X110328418Y-76107597D01*
X110360934Y-76058934D01*
X110409597Y-76026418D01*
X110467000Y-76015000D01*
X110767000Y-76015000D01*
X110824403Y-76026418D01*
G37*
G36*
X112094403Y-76026418D02*
G01*
X112143066Y-76058934D01*
X112175582Y-76107597D01*
X112187000Y-76165000D01*
X112187000Y-77915000D01*
X112175582Y-77972403D01*
X112143066Y-78021066D01*
X112094403Y-78053582D01*
X112037000Y-78065000D01*
X111737000Y-78065000D01*
X111679597Y-78053582D01*
X111630934Y-78021066D01*
X111598418Y-77972403D01*
X111587000Y-77915000D01*
X111587000Y-76165000D01*
X111598418Y-76107597D01*
X111630934Y-76058934D01*
X111679597Y-76026418D01*
X111737000Y-76015000D01*
X112037000Y-76015000D01*
X112094403Y-76026418D01*
G37*
G36*
X113364403Y-76026418D02*
G01*
X113413066Y-76058934D01*
X113445582Y-76107597D01*
X113457000Y-76165000D01*
X113457000Y-77915000D01*
X113445582Y-77972403D01*
X113413066Y-78021066D01*
X113364403Y-78053582D01*
X113307000Y-78065000D01*
X113007000Y-78065000D01*
X112949597Y-78053582D01*
X112900934Y-78021066D01*
X112868418Y-77972403D01*
X112857000Y-77915000D01*
X112857000Y-76165000D01*
X112868418Y-76107597D01*
X112900934Y-76058934D01*
X112949597Y-76026418D01*
X113007000Y-76015000D01*
X113307000Y-76015000D01*
X113364403Y-76026418D01*
G37*
G36*
X114634403Y-76026418D02*
G01*
X114683066Y-76058934D01*
X114715582Y-76107597D01*
X114727000Y-76165000D01*
X114727000Y-77915000D01*
X114715582Y-77972403D01*
X114683066Y-78021066D01*
X114634403Y-78053582D01*
X114577000Y-78065000D01*
X114277000Y-78065000D01*
X114219597Y-78053582D01*
X114170934Y-78021066D01*
X114138418Y-77972403D01*
X114127000Y-77915000D01*
X114127000Y-76165000D01*
X114138418Y-76107597D01*
X114170934Y-76058934D01*
X114219597Y-76026418D01*
X114277000Y-76015000D01*
X114577000Y-76015000D01*
X114634403Y-76026418D01*
G37*
G36*
X115904403Y-76026418D02*
G01*
X115953066Y-76058934D01*
X115985582Y-76107597D01*
X115997000Y-76165000D01*
X115997000Y-77915000D01*
X115985582Y-77972403D01*
X115953066Y-78021066D01*
X115904403Y-78053582D01*
X115847000Y-78065000D01*
X115547000Y-78065000D01*
X115489597Y-78053582D01*
X115440934Y-78021066D01*
X115408418Y-77972403D01*
X115397000Y-77915000D01*
X115397000Y-76165000D01*
X115408418Y-76107597D01*
X115440934Y-76058934D01*
X115489597Y-76026418D01*
X115547000Y-76015000D01*
X115847000Y-76015000D01*
X115904403Y-76026418D01*
G37*
G36*
X117174403Y-76026418D02*
G01*
X117223066Y-76058934D01*
X117255582Y-76107597D01*
X117267000Y-76165000D01*
X117267000Y-77915000D01*
X117255582Y-77972403D01*
X117223066Y-78021066D01*
X117174403Y-78053582D01*
X117117000Y-78065000D01*
X116817000Y-78065000D01*
X116759597Y-78053582D01*
X116710934Y-78021066D01*
X116678418Y-77972403D01*
X116667000Y-77915000D01*
X116667000Y-76165000D01*
X116678418Y-76107597D01*
X116710934Y-76058934D01*
X116759597Y-76026418D01*
X116817000Y-76015000D01*
X117117000Y-76015000D01*
X117174403Y-76026418D01*
G37*
G36*
X118444403Y-76026418D02*
G01*
X118493066Y-76058934D01*
X118525582Y-76107597D01*
X118537000Y-76165000D01*
X118537000Y-77915000D01*
X118525582Y-77972403D01*
X118493066Y-78021066D01*
X118444403Y-78053582D01*
X118387000Y-78065000D01*
X118087000Y-78065000D01*
X118029597Y-78053582D01*
X117980934Y-78021066D01*
X117948418Y-77972403D01*
X117937000Y-77915000D01*
X117937000Y-76165000D01*
X117948418Y-76107597D01*
X117980934Y-76058934D01*
X118029597Y-76026418D01*
X118087000Y-76015000D01*
X118387000Y-76015000D01*
X118444403Y-76026418D01*
G37*
G36*
X119714403Y-76026418D02*
G01*
X119763066Y-76058934D01*
X119795582Y-76107597D01*
X119807000Y-76165000D01*
X119807000Y-77915000D01*
X119795582Y-77972403D01*
X119763066Y-78021066D01*
X119714403Y-78053582D01*
X119657000Y-78065000D01*
X119357000Y-78065000D01*
X119299597Y-78053582D01*
X119250934Y-78021066D01*
X119218418Y-77972403D01*
X119207000Y-77915000D01*
X119207000Y-76165000D01*
X119218418Y-76107597D01*
X119250934Y-76058934D01*
X119299597Y-76026418D01*
X119357000Y-76015000D01*
X119657000Y-76015000D01*
X119714403Y-76026418D01*
G37*
G36*
X120984403Y-76026418D02*
G01*
X121033066Y-76058934D01*
X121065582Y-76107597D01*
X121077000Y-76165000D01*
X121077000Y-77915000D01*
X121065582Y-77972403D01*
X121033066Y-78021066D01*
X120984403Y-78053582D01*
X120927000Y-78065000D01*
X120627000Y-78065000D01*
X120569597Y-78053582D01*
X120520934Y-78021066D01*
X120488418Y-77972403D01*
X120477000Y-77915000D01*
X120477000Y-76165000D01*
X120488418Y-76107597D01*
X120520934Y-76058934D01*
X120569597Y-76026418D01*
X120627000Y-76015000D01*
X120927000Y-76015000D01*
X120984403Y-76026418D01*
G37*
G36*
X122254403Y-76026418D02*
G01*
X122303066Y-76058934D01*
X122335582Y-76107597D01*
X122347000Y-76165000D01*
X122347000Y-77915000D01*
X122335582Y-77972403D01*
X122303066Y-78021066D01*
X122254403Y-78053582D01*
X122197000Y-78065000D01*
X121897000Y-78065000D01*
X121839597Y-78053582D01*
X121790934Y-78021066D01*
X121758418Y-77972403D01*
X121747000Y-77915000D01*
X121747000Y-76165000D01*
X121758418Y-76107597D01*
X121790934Y-76058934D01*
X121839597Y-76026418D01*
X121897000Y-76015000D01*
X122197000Y-76015000D01*
X122254403Y-76026418D01*
G37*
G36*
X80658701Y-76975709D02*
G01*
X80683033Y-76991967D01*
X80699291Y-77016299D01*
X80705000Y-77045000D01*
X80705000Y-77195000D01*
X80699291Y-77223701D01*
X80683033Y-77248033D01*
X80658701Y-77264291D01*
X80630000Y-77270000D01*
X79305000Y-77270000D01*
X79276299Y-77264291D01*
X79251967Y-77248033D01*
X79235709Y-77223701D01*
X79230000Y-77195000D01*
X79230000Y-77045000D01*
X79235709Y-77016299D01*
X79251967Y-76991967D01*
X79276299Y-76975709D01*
X79305000Y-76970000D01*
X80630000Y-76970000D01*
X80658701Y-76975709D01*
G37*
G36*
X95983701Y-76975709D02*
G01*
X96008033Y-76991967D01*
X96024291Y-77016299D01*
X96030000Y-77045000D01*
X96030000Y-77195000D01*
X96024291Y-77223701D01*
X96008033Y-77248033D01*
X95983701Y-77264291D01*
X95955000Y-77270000D01*
X94630000Y-77270000D01*
X94601299Y-77264291D01*
X94576967Y-77248033D01*
X94560709Y-77223701D01*
X94555000Y-77195000D01*
X94555000Y-77045000D01*
X94560709Y-77016299D01*
X94576967Y-76991967D01*
X94601299Y-76975709D01*
X94630000Y-76970000D01*
X95955000Y-76970000D01*
X95983701Y-76975709D01*
G37*
G36*
X80658701Y-76475709D02*
G01*
X80683033Y-76491967D01*
X80699291Y-76516299D01*
X80705000Y-76545000D01*
X80705000Y-76695000D01*
X80699291Y-76723701D01*
X80683033Y-76748033D01*
X80658701Y-76764291D01*
X80630000Y-76770000D01*
X79305000Y-76770000D01*
X79276299Y-76764291D01*
X79251967Y-76748033D01*
X79235709Y-76723701D01*
X79230000Y-76695000D01*
X79230000Y-76545000D01*
X79235709Y-76516299D01*
X79251967Y-76491967D01*
X79276299Y-76475709D01*
X79305000Y-76470000D01*
X80630000Y-76470000D01*
X80658701Y-76475709D01*
G37*
G36*
X95983701Y-76475709D02*
G01*
X96008033Y-76491967D01*
X96024291Y-76516299D01*
X96030000Y-76545000D01*
X96030000Y-76695000D01*
X96024291Y-76723701D01*
X96008033Y-76748033D01*
X95983701Y-76764291D01*
X95955000Y-76770000D01*
X94630000Y-76770000D01*
X94601299Y-76764291D01*
X94576967Y-76748033D01*
X94560709Y-76723701D01*
X94555000Y-76695000D01*
X94555000Y-76545000D01*
X94560709Y-76516299D01*
X94576967Y-76491967D01*
X94601299Y-76475709D01*
X94630000Y-76470000D01*
X95955000Y-76470000D01*
X95983701Y-76475709D01*
G37*
G36*
X80658701Y-75975709D02*
G01*
X80683033Y-75991967D01*
X80699291Y-76016299D01*
X80705000Y-76045000D01*
X80705000Y-76195000D01*
X80699291Y-76223701D01*
X80683033Y-76248033D01*
X80658701Y-76264291D01*
X80630000Y-76270000D01*
X79305000Y-76270000D01*
X79276299Y-76264291D01*
X79251967Y-76248033D01*
X79235709Y-76223701D01*
X79230000Y-76195000D01*
X79230000Y-76045000D01*
X79235709Y-76016299D01*
X79251967Y-75991967D01*
X79276299Y-75975709D01*
X79305000Y-75970000D01*
X80630000Y-75970000D01*
X80658701Y-75975709D01*
G37*
G36*
X95983701Y-75975709D02*
G01*
X96008033Y-75991967D01*
X96024291Y-76016299D01*
X96030000Y-76045000D01*
X96030000Y-76195000D01*
X96024291Y-76223701D01*
X96008033Y-76248033D01*
X95983701Y-76264291D01*
X95955000Y-76270000D01*
X94630000Y-76270000D01*
X94601299Y-76264291D01*
X94576967Y-76248033D01*
X94560709Y-76223701D01*
X94555000Y-76195000D01*
X94555000Y-76045000D01*
X94560709Y-76016299D01*
X94576967Y-75991967D01*
X94601299Y-75975709D01*
X94630000Y-75970000D01*
X95955000Y-75970000D01*
X95983701Y-75975709D01*
G37*
G36*
X80658701Y-75475709D02*
G01*
X80683033Y-75491967D01*
X80699291Y-75516299D01*
X80705000Y-75545000D01*
X80705000Y-75695000D01*
X80699291Y-75723701D01*
X80683033Y-75748033D01*
X80658701Y-75764291D01*
X80630000Y-75770000D01*
X79305000Y-75770000D01*
X79276299Y-75764291D01*
X79251967Y-75748033D01*
X79235709Y-75723701D01*
X79230000Y-75695000D01*
X79230000Y-75545000D01*
X79235709Y-75516299D01*
X79251967Y-75491967D01*
X79276299Y-75475709D01*
X79305000Y-75470000D01*
X80630000Y-75470000D01*
X80658701Y-75475709D01*
G37*
G36*
X95983701Y-75475709D02*
G01*
X96008033Y-75491967D01*
X96024291Y-75516299D01*
X96030000Y-75545000D01*
X96030000Y-75695000D01*
X96024291Y-75723701D01*
X96008033Y-75748033D01*
X95983701Y-75764291D01*
X95955000Y-75770000D01*
X94630000Y-75770000D01*
X94601299Y-75764291D01*
X94576967Y-75748033D01*
X94560709Y-75723701D01*
X94555000Y-75695000D01*
X94555000Y-75545000D01*
X94560709Y-75516299D01*
X94576967Y-75491967D01*
X94601299Y-75475709D01*
X94630000Y-75470000D01*
X95955000Y-75470000D01*
X95983701Y-75475709D01*
G37*
G36*
X124684537Y-74545224D02*
G01*
X124749421Y-74588579D01*
X124792776Y-74653463D01*
X124808000Y-74730000D01*
X124808000Y-75130000D01*
X124792776Y-75206537D01*
X124749421Y-75271421D01*
X124684537Y-75314776D01*
X124608000Y-75330000D01*
X124058000Y-75330000D01*
X123981463Y-75314776D01*
X123916579Y-75271421D01*
X123873224Y-75206537D01*
X123858000Y-75130000D01*
X123858000Y-74730000D01*
X123873224Y-74653463D01*
X123916579Y-74588579D01*
X123981463Y-74545224D01*
X124058000Y-74530000D01*
X124608000Y-74530000D01*
X124684537Y-74545224D01*
G37*
G36*
X66560000Y-75300000D02*
G01*
X64160000Y-75300000D01*
X64160000Y-74560000D01*
X66560000Y-74560000D01*
X66560000Y-75300000D01*
G37*
G36*
X70460000Y-75300000D02*
G01*
X68060000Y-75300000D01*
X68060000Y-74560000D01*
X70460000Y-74560000D01*
X70460000Y-75300000D01*
G37*
G36*
X80658701Y-74975709D02*
G01*
X80683033Y-74991967D01*
X80699291Y-75016299D01*
X80705000Y-75045000D01*
X80705000Y-75195000D01*
X80699291Y-75223701D01*
X80683033Y-75248033D01*
X80658701Y-75264291D01*
X80630000Y-75270000D01*
X79305000Y-75270000D01*
X79276299Y-75264291D01*
X79251967Y-75248033D01*
X79235709Y-75223701D01*
X79230000Y-75195000D01*
X79230000Y-75045000D01*
X79235709Y-75016299D01*
X79251967Y-74991967D01*
X79276299Y-74975709D01*
X79305000Y-74970000D01*
X80630000Y-74970000D01*
X80658701Y-74975709D01*
G37*
G36*
X95983701Y-74975709D02*
G01*
X96008033Y-74991967D01*
X96024291Y-75016299D01*
X96030000Y-75045000D01*
X96030000Y-75195000D01*
X96024291Y-75223701D01*
X96008033Y-75248033D01*
X95983701Y-75264291D01*
X95955000Y-75270000D01*
X94630000Y-75270000D01*
X94601299Y-75264291D01*
X94576967Y-75248033D01*
X94560709Y-75223701D01*
X94555000Y-75195000D01*
X94555000Y-75045000D01*
X94560709Y-75016299D01*
X94576967Y-74991967D01*
X94601299Y-74975709D01*
X94630000Y-74970000D01*
X95955000Y-74970000D01*
X95983701Y-74975709D01*
G37*
G36*
X80658701Y-74475709D02*
G01*
X80683033Y-74491967D01*
X80699291Y-74516299D01*
X80705000Y-74545000D01*
X80705000Y-74695000D01*
X80699291Y-74723701D01*
X80683033Y-74748033D01*
X80658701Y-74764291D01*
X80630000Y-74770000D01*
X79305000Y-74770000D01*
X79276299Y-74764291D01*
X79251967Y-74748033D01*
X79235709Y-74723701D01*
X79230000Y-74695000D01*
X79230000Y-74545000D01*
X79235709Y-74516299D01*
X79251967Y-74491967D01*
X79276299Y-74475709D01*
X79305000Y-74470000D01*
X80630000Y-74470000D01*
X80658701Y-74475709D01*
G37*
G36*
X95983701Y-74475709D02*
G01*
X96008033Y-74491967D01*
X96024291Y-74516299D01*
X96030000Y-74545000D01*
X96030000Y-74695000D01*
X96024291Y-74723701D01*
X96008033Y-74748033D01*
X95983701Y-74764291D01*
X95955000Y-74770000D01*
X94630000Y-74770000D01*
X94601299Y-74764291D01*
X94576967Y-74748033D01*
X94560709Y-74723701D01*
X94555000Y-74695000D01*
X94555000Y-74545000D01*
X94560709Y-74516299D01*
X94576967Y-74491967D01*
X94601299Y-74475709D01*
X94630000Y-74470000D01*
X95955000Y-74470000D01*
X95983701Y-74475709D01*
G37*
G36*
X80658701Y-73975709D02*
G01*
X80683033Y-73991967D01*
X80699291Y-74016299D01*
X80705000Y-74045000D01*
X80705000Y-74195000D01*
X80699291Y-74223701D01*
X80683033Y-74248033D01*
X80658701Y-74264291D01*
X80630000Y-74270000D01*
X79305000Y-74270000D01*
X79276299Y-74264291D01*
X79251967Y-74248033D01*
X79235709Y-74223701D01*
X79230000Y-74195000D01*
X79230000Y-74045000D01*
X79235709Y-74016299D01*
X79251967Y-73991967D01*
X79276299Y-73975709D01*
X79305000Y-73970000D01*
X80630000Y-73970000D01*
X80658701Y-73975709D01*
G37*
G36*
X95983701Y-73975709D02*
G01*
X96008033Y-73991967D01*
X96024291Y-74016299D01*
X96030000Y-74045000D01*
X96030000Y-74195000D01*
X96024291Y-74223701D01*
X96008033Y-74248033D01*
X95983701Y-74264291D01*
X95955000Y-74270000D01*
X94630000Y-74270000D01*
X94601299Y-74264291D01*
X94576967Y-74248033D01*
X94560709Y-74223701D01*
X94555000Y-74195000D01*
X94555000Y-74045000D01*
X94560709Y-74016299D01*
X94576967Y-73991967D01*
X94601299Y-73975709D01*
X94630000Y-73970000D01*
X95955000Y-73970000D01*
X95983701Y-73975709D01*
G37*
G36*
X66560000Y-74030000D02*
G01*
X64160000Y-74030000D01*
X64160000Y-73290000D01*
X66560000Y-73290000D01*
X66560000Y-74030000D01*
G37*
G36*
X70460000Y-74030000D02*
G01*
X68060000Y-74030000D01*
X68060000Y-73290000D01*
X70460000Y-73290000D01*
X70460000Y-74030000D01*
G37*
G36*
X80658701Y-73475709D02*
G01*
X80683033Y-73491967D01*
X80699291Y-73516299D01*
X80705000Y-73545000D01*
X80705000Y-73695000D01*
X80699291Y-73723701D01*
X80683033Y-73748033D01*
X80658701Y-73764291D01*
X80630000Y-73770000D01*
X79305000Y-73770000D01*
X79276299Y-73764291D01*
X79251967Y-73748033D01*
X79235709Y-73723701D01*
X79230000Y-73695000D01*
X79230000Y-73545000D01*
X79235709Y-73516299D01*
X79251967Y-73491967D01*
X79276299Y-73475709D01*
X79305000Y-73470000D01*
X80630000Y-73470000D01*
X80658701Y-73475709D01*
G37*
G36*
X95983701Y-73475709D02*
G01*
X96008033Y-73491967D01*
X96024291Y-73516299D01*
X96030000Y-73545000D01*
X96030000Y-73695000D01*
X96024291Y-73723701D01*
X96008033Y-73748033D01*
X95983701Y-73764291D01*
X95955000Y-73770000D01*
X94630000Y-73770000D01*
X94601299Y-73764291D01*
X94576967Y-73748033D01*
X94560709Y-73723701D01*
X94555000Y-73695000D01*
X94555000Y-73545000D01*
X94560709Y-73516299D01*
X94576967Y-73491967D01*
X94601299Y-73475709D01*
X94630000Y-73470000D01*
X95955000Y-73470000D01*
X95983701Y-73475709D01*
G37*
G36*
X124684537Y-72895224D02*
G01*
X124749421Y-72938579D01*
X124792776Y-73003463D01*
X124808000Y-73080000D01*
X124808000Y-73480000D01*
X124792776Y-73556537D01*
X124749421Y-73621421D01*
X124684537Y-73664776D01*
X124608000Y-73680000D01*
X124058000Y-73680000D01*
X123981463Y-73664776D01*
X123916579Y-73621421D01*
X123873224Y-73556537D01*
X123858000Y-73480000D01*
X123858000Y-73080000D01*
X123873224Y-73003463D01*
X123916579Y-72938579D01*
X123981463Y-72895224D01*
X124058000Y-72880000D01*
X124608000Y-72880000D01*
X124684537Y-72895224D01*
G37*
G36*
X76708850Y-72715964D02*
G01*
X76753317Y-72721123D01*
X76768510Y-72727831D01*
X76790104Y-72732127D01*
X76813222Y-72747574D01*
X76830567Y-72755233D01*
X76842412Y-72767078D01*
X76863099Y-72780901D01*
X76876921Y-72801587D01*
X76888766Y-72813432D01*
X76896423Y-72830774D01*
X76911873Y-72853896D01*
X76916168Y-72875491D01*
X76922876Y-72890682D01*
X76928033Y-72935139D01*
X76929000Y-72940000D01*
X76929000Y-73390000D01*
X76928032Y-73394862D01*
X76922876Y-73439317D01*
X76916168Y-73454506D01*
X76911873Y-73476104D01*
X76896422Y-73499227D01*
X76888766Y-73516567D01*
X76876923Y-73528409D01*
X76863099Y-73549099D01*
X76842409Y-73562923D01*
X76830567Y-73574766D01*
X76813227Y-73582422D01*
X76790104Y-73597873D01*
X76768506Y-73602168D01*
X76753317Y-73608876D01*
X76708861Y-73614032D01*
X76704000Y-73615000D01*
X76204000Y-73615000D01*
X76199138Y-73614033D01*
X76154682Y-73608876D01*
X76139491Y-73602168D01*
X76117896Y-73597873D01*
X76094774Y-73582423D01*
X76077432Y-73574766D01*
X76065587Y-73562921D01*
X76044901Y-73549099D01*
X76031078Y-73528412D01*
X76019233Y-73516567D01*
X76011574Y-73499222D01*
X75996127Y-73476104D01*
X75991831Y-73454510D01*
X75985123Y-73439317D01*
X75979964Y-73394849D01*
X75979000Y-73390000D01*
X75979000Y-72940000D01*
X75979964Y-72935150D01*
X75985123Y-72890682D01*
X75991832Y-72875487D01*
X75996127Y-72853896D01*
X76011573Y-72830779D01*
X76019233Y-72813432D01*
X76031080Y-72801584D01*
X76044901Y-72780901D01*
X76065584Y-72767080D01*
X76077432Y-72755233D01*
X76094779Y-72747573D01*
X76117896Y-72732127D01*
X76139487Y-72727832D01*
X76154682Y-72721123D01*
X76199151Y-72715964D01*
X76204000Y-72715000D01*
X76704000Y-72715000D01*
X76708850Y-72715964D01*
G37*
G36*
X80658701Y-72975709D02*
G01*
X80683033Y-72991967D01*
X80699291Y-73016299D01*
X80705000Y-73045000D01*
X80705000Y-73195000D01*
X80699291Y-73223701D01*
X80683033Y-73248033D01*
X80658701Y-73264291D01*
X80630000Y-73270000D01*
X79305000Y-73270000D01*
X79276299Y-73264291D01*
X79251967Y-73248033D01*
X79235709Y-73223701D01*
X79230000Y-73195000D01*
X79230000Y-73045000D01*
X79235709Y-73016299D01*
X79251967Y-72991967D01*
X79276299Y-72975709D01*
X79305000Y-72970000D01*
X80630000Y-72970000D01*
X80658701Y-72975709D01*
G37*
G36*
X95983701Y-72975709D02*
G01*
X96008033Y-72991967D01*
X96024291Y-73016299D01*
X96030000Y-73045000D01*
X96030000Y-73195000D01*
X96024291Y-73223701D01*
X96008033Y-73248033D01*
X95983701Y-73264291D01*
X95955000Y-73270000D01*
X94630000Y-73270000D01*
X94601299Y-73264291D01*
X94576967Y-73248033D01*
X94560709Y-73223701D01*
X94555000Y-73195000D01*
X94555000Y-73045000D01*
X94560709Y-73016299D01*
X94576967Y-72991967D01*
X94601299Y-72975709D01*
X94630000Y-72970000D01*
X95955000Y-72970000D01*
X95983701Y-72975709D01*
G37*
G36*
X80658701Y-72475709D02*
G01*
X80683033Y-72491967D01*
X80699291Y-72516299D01*
X80705000Y-72545000D01*
X80705000Y-72695000D01*
X80699291Y-72723701D01*
X80683033Y-72748033D01*
X80658701Y-72764291D01*
X80630000Y-72770000D01*
X79305000Y-72770000D01*
X79276299Y-72764291D01*
X79251967Y-72748033D01*
X79235709Y-72723701D01*
X79230000Y-72695000D01*
X79230000Y-72545000D01*
X79235709Y-72516299D01*
X79251967Y-72491967D01*
X79276299Y-72475709D01*
X79305000Y-72470000D01*
X80630000Y-72470000D01*
X80658701Y-72475709D01*
G37*
G36*
X95983701Y-72475709D02*
G01*
X96008033Y-72491967D01*
X96024291Y-72516299D01*
X96030000Y-72545000D01*
X96030000Y-72695000D01*
X96024291Y-72723701D01*
X96008033Y-72748033D01*
X95983701Y-72764291D01*
X95955000Y-72770000D01*
X94630000Y-72770000D01*
X94601299Y-72764291D01*
X94576967Y-72748033D01*
X94560709Y-72723701D01*
X94555000Y-72695000D01*
X94555000Y-72545000D01*
X94560709Y-72516299D01*
X94576967Y-72491967D01*
X94601299Y-72475709D01*
X94630000Y-72470000D01*
X95955000Y-72470000D01*
X95983701Y-72475709D01*
G37*
G36*
X66560000Y-72760000D02*
G01*
X64160000Y-72760000D01*
X64160000Y-72020000D01*
X66560000Y-72020000D01*
X66560000Y-72760000D01*
G37*
G36*
X70460000Y-72760000D02*
G01*
X68060000Y-72760000D01*
X68060000Y-72020000D01*
X70460000Y-72020000D01*
X70460000Y-72760000D01*
G37*
G36*
X80658701Y-71975709D02*
G01*
X80683033Y-71991967D01*
X80699291Y-72016299D01*
X80705000Y-72045000D01*
X80705000Y-72195000D01*
X80699291Y-72223701D01*
X80683033Y-72248033D01*
X80658701Y-72264291D01*
X80630000Y-72270000D01*
X79305000Y-72270000D01*
X79276299Y-72264291D01*
X79251967Y-72248033D01*
X79235709Y-72223701D01*
X79230000Y-72195000D01*
X79230000Y-72045000D01*
X79235709Y-72016299D01*
X79251967Y-71991967D01*
X79276299Y-71975709D01*
X79305000Y-71970000D01*
X80630000Y-71970000D01*
X80658701Y-71975709D01*
G37*
G36*
X95983701Y-71975709D02*
G01*
X96008033Y-71991967D01*
X96024291Y-72016299D01*
X96030000Y-72045000D01*
X96030000Y-72195000D01*
X96024291Y-72223701D01*
X96008033Y-72248033D01*
X95983701Y-72264291D01*
X95955000Y-72270000D01*
X94630000Y-72270000D01*
X94601299Y-72264291D01*
X94576967Y-72248033D01*
X94560709Y-72223701D01*
X94555000Y-72195000D01*
X94555000Y-72045000D01*
X94560709Y-72016299D01*
X94576967Y-71991967D01*
X94601299Y-71975709D01*
X94630000Y-71970000D01*
X95955000Y-71970000D01*
X95983701Y-71975709D01*
G37*
G36*
X76708850Y-71165964D02*
G01*
X76753317Y-71171123D01*
X76768510Y-71177831D01*
X76790104Y-71182127D01*
X76813222Y-71197574D01*
X76830567Y-71205233D01*
X76842412Y-71217078D01*
X76863099Y-71230901D01*
X76876921Y-71251587D01*
X76888766Y-71263432D01*
X76896423Y-71280774D01*
X76911873Y-71303896D01*
X76916168Y-71325491D01*
X76922876Y-71340682D01*
X76928033Y-71385139D01*
X76929000Y-71390000D01*
X76929000Y-71840000D01*
X76928032Y-71844862D01*
X76922876Y-71889317D01*
X76916168Y-71904506D01*
X76911873Y-71926104D01*
X76896422Y-71949227D01*
X76888766Y-71966567D01*
X76876923Y-71978409D01*
X76863099Y-71999099D01*
X76842409Y-72012923D01*
X76830567Y-72024766D01*
X76813227Y-72032422D01*
X76790104Y-72047873D01*
X76768506Y-72052168D01*
X76753317Y-72058876D01*
X76708861Y-72064032D01*
X76704000Y-72065000D01*
X76204000Y-72065000D01*
X76199138Y-72064033D01*
X76154682Y-72058876D01*
X76139491Y-72052168D01*
X76117896Y-72047873D01*
X76094774Y-72032423D01*
X76077432Y-72024766D01*
X76065587Y-72012921D01*
X76044901Y-71999099D01*
X76031078Y-71978412D01*
X76019233Y-71966567D01*
X76011574Y-71949222D01*
X75996127Y-71926104D01*
X75991831Y-71904510D01*
X75985123Y-71889317D01*
X75979964Y-71844849D01*
X75979000Y-71840000D01*
X75979000Y-71390000D01*
X75979964Y-71385150D01*
X75985123Y-71340682D01*
X75991832Y-71325487D01*
X75996127Y-71303896D01*
X76011573Y-71280779D01*
X76019233Y-71263432D01*
X76031080Y-71251584D01*
X76044901Y-71230901D01*
X76065584Y-71217080D01*
X76077432Y-71205233D01*
X76094779Y-71197573D01*
X76117896Y-71182127D01*
X76139487Y-71177832D01*
X76154682Y-71171123D01*
X76199151Y-71165964D01*
X76204000Y-71165000D01*
X76704000Y-71165000D01*
X76708850Y-71165964D01*
G37*
G36*
X80658701Y-71475709D02*
G01*
X80683033Y-71491967D01*
X80699291Y-71516299D01*
X80705000Y-71545000D01*
X80705000Y-71695000D01*
X80699291Y-71723701D01*
X80683033Y-71748033D01*
X80658701Y-71764291D01*
X80630000Y-71770000D01*
X79305000Y-71770000D01*
X79276299Y-71764291D01*
X79251967Y-71748033D01*
X79235709Y-71723701D01*
X79230000Y-71695000D01*
X79230000Y-71545000D01*
X79235709Y-71516299D01*
X79251967Y-71491967D01*
X79276299Y-71475709D01*
X79305000Y-71470000D01*
X80630000Y-71470000D01*
X80658701Y-71475709D01*
G37*
G36*
X95983701Y-71475709D02*
G01*
X96008033Y-71491967D01*
X96024291Y-71516299D01*
X96030000Y-71545000D01*
X96030000Y-71695000D01*
X96024291Y-71723701D01*
X96008033Y-71748033D01*
X95983701Y-71764291D01*
X95955000Y-71770000D01*
X94630000Y-71770000D01*
X94601299Y-71764291D01*
X94576967Y-71748033D01*
X94560709Y-71723701D01*
X94555000Y-71695000D01*
X94555000Y-71545000D01*
X94560709Y-71516299D01*
X94576967Y-71491967D01*
X94601299Y-71475709D01*
X94630000Y-71470000D01*
X95955000Y-71470000D01*
X95983701Y-71475709D01*
G37*
G36*
X66560000Y-71490000D02*
G01*
X64160000Y-71490000D01*
X64160000Y-70750000D01*
X66560000Y-70750000D01*
X66560000Y-71490000D01*
G37*
G36*
X70460000Y-71490000D02*
G01*
X68060000Y-71490000D01*
X68060000Y-70750000D01*
X70460000Y-70750000D01*
X70460000Y-71490000D01*
G37*
G36*
X80658701Y-70975709D02*
G01*
X80683033Y-70991967D01*
X80699291Y-71016299D01*
X80705000Y-71045000D01*
X80705000Y-71195000D01*
X80699291Y-71223701D01*
X80683033Y-71248033D01*
X80658701Y-71264291D01*
X80630000Y-71270000D01*
X79305000Y-71270000D01*
X79276299Y-71264291D01*
X79251967Y-71248033D01*
X79235709Y-71223701D01*
X79230000Y-71195000D01*
X79230000Y-71045000D01*
X79235709Y-71016299D01*
X79251967Y-70991967D01*
X79276299Y-70975709D01*
X79305000Y-70970000D01*
X80630000Y-70970000D01*
X80658701Y-70975709D01*
G37*
G36*
X95983701Y-70975709D02*
G01*
X96008033Y-70991967D01*
X96024291Y-71016299D01*
X96030000Y-71045000D01*
X96030000Y-71195000D01*
X96024291Y-71223701D01*
X96008033Y-71248033D01*
X95983701Y-71264291D01*
X95955000Y-71270000D01*
X94630000Y-71270000D01*
X94601299Y-71264291D01*
X94576967Y-71248033D01*
X94560709Y-71223701D01*
X94555000Y-71195000D01*
X94555000Y-71045000D01*
X94560709Y-71016299D01*
X94576967Y-70991967D01*
X94601299Y-70975709D01*
X94630000Y-70970000D01*
X95955000Y-70970000D01*
X95983701Y-70975709D01*
G37*
G36*
X80658701Y-70475709D02*
G01*
X80683033Y-70491967D01*
X80699291Y-70516299D01*
X80705000Y-70545000D01*
X80705000Y-70695000D01*
X80699291Y-70723701D01*
X80683033Y-70748033D01*
X80658701Y-70764291D01*
X80630000Y-70770000D01*
X79305000Y-70770000D01*
X79276299Y-70764291D01*
X79251967Y-70748033D01*
X79235709Y-70723701D01*
X79230000Y-70695000D01*
X79230000Y-70545000D01*
X79235709Y-70516299D01*
X79251967Y-70491967D01*
X79276299Y-70475709D01*
X79305000Y-70470000D01*
X80630000Y-70470000D01*
X80658701Y-70475709D01*
G37*
G36*
X95983701Y-70475709D02*
G01*
X96008033Y-70491967D01*
X96024291Y-70516299D01*
X96030000Y-70545000D01*
X96030000Y-70695000D01*
X96024291Y-70723701D01*
X96008033Y-70748033D01*
X95983701Y-70764291D01*
X95955000Y-70770000D01*
X94630000Y-70770000D01*
X94601299Y-70764291D01*
X94576967Y-70748033D01*
X94560709Y-70723701D01*
X94555000Y-70695000D01*
X94555000Y-70545000D01*
X94560709Y-70516299D01*
X94576967Y-70491967D01*
X94601299Y-70475709D01*
X94630000Y-70470000D01*
X95955000Y-70470000D01*
X95983701Y-70475709D01*
G37*
G36*
X80658701Y-69975709D02*
G01*
X80683033Y-69991967D01*
X80699291Y-70016299D01*
X80705000Y-70045000D01*
X80705000Y-70195000D01*
X80699291Y-70223701D01*
X80683033Y-70248033D01*
X80658701Y-70264291D01*
X80630000Y-70270000D01*
X79305000Y-70270000D01*
X79276299Y-70264291D01*
X79251967Y-70248033D01*
X79235709Y-70223701D01*
X79230000Y-70195000D01*
X79230000Y-70045000D01*
X79235709Y-70016299D01*
X79251967Y-69991967D01*
X79276299Y-69975709D01*
X79305000Y-69970000D01*
X80630000Y-69970000D01*
X80658701Y-69975709D01*
G37*
G36*
X95983701Y-69975709D02*
G01*
X96008033Y-69991967D01*
X96024291Y-70016299D01*
X96030000Y-70045000D01*
X96030000Y-70195000D01*
X96024291Y-70223701D01*
X96008033Y-70248033D01*
X95983701Y-70264291D01*
X95955000Y-70270000D01*
X94630000Y-70270000D01*
X94601299Y-70264291D01*
X94576967Y-70248033D01*
X94560709Y-70223701D01*
X94555000Y-70195000D01*
X94555000Y-70045000D01*
X94560709Y-70016299D01*
X94576967Y-69991967D01*
X94601299Y-69975709D01*
X94630000Y-69970000D01*
X95955000Y-69970000D01*
X95983701Y-69975709D01*
G37*
G36*
X66560000Y-70220000D02*
G01*
X64160000Y-70220000D01*
X64160000Y-69480000D01*
X66560000Y-69480000D01*
X66560000Y-70220000D01*
G37*
G36*
X70460000Y-70220000D02*
G01*
X68060000Y-70220000D01*
X68060000Y-69480000D01*
X70460000Y-69480000D01*
X70460000Y-70220000D01*
G37*
G36*
X80658701Y-69475709D02*
G01*
X80683033Y-69491967D01*
X80699291Y-69516299D01*
X80705000Y-69545000D01*
X80705000Y-69695000D01*
X80699291Y-69723701D01*
X80683033Y-69748033D01*
X80658701Y-69764291D01*
X80630000Y-69770000D01*
X79305000Y-69770000D01*
X79276299Y-69764291D01*
X79251967Y-69748033D01*
X79235709Y-69723701D01*
X79230000Y-69695000D01*
X79230000Y-69545000D01*
X79235709Y-69516299D01*
X79251967Y-69491967D01*
X79276299Y-69475709D01*
X79305000Y-69470000D01*
X80630000Y-69470000D01*
X80658701Y-69475709D01*
G37*
G36*
X95983701Y-69475709D02*
G01*
X96008033Y-69491967D01*
X96024291Y-69516299D01*
X96030000Y-69545000D01*
X96030000Y-69695000D01*
X96024291Y-69723701D01*
X96008033Y-69748033D01*
X95983701Y-69764291D01*
X95955000Y-69770000D01*
X94630000Y-69770000D01*
X94601299Y-69764291D01*
X94576967Y-69748033D01*
X94560709Y-69723701D01*
X94555000Y-69695000D01*
X94555000Y-69545000D01*
X94560709Y-69516299D01*
X94576967Y-69491967D01*
X94601299Y-69475709D01*
X94630000Y-69470000D01*
X95955000Y-69470000D01*
X95983701Y-69475709D01*
G37*
G36*
X80658701Y-68975709D02*
G01*
X80683033Y-68991967D01*
X80699291Y-69016299D01*
X80705000Y-69045000D01*
X80705000Y-69195000D01*
X80699291Y-69223701D01*
X80683033Y-69248033D01*
X80658701Y-69264291D01*
X80630000Y-69270000D01*
X79305000Y-69270000D01*
X79276299Y-69264291D01*
X79251967Y-69248033D01*
X79235709Y-69223701D01*
X79230000Y-69195000D01*
X79230000Y-69045000D01*
X79235709Y-69016299D01*
X79251967Y-68991967D01*
X79276299Y-68975709D01*
X79305000Y-68970000D01*
X80630000Y-68970000D01*
X80658701Y-68975709D01*
G37*
G36*
X95983701Y-68975709D02*
G01*
X96008033Y-68991967D01*
X96024291Y-69016299D01*
X96030000Y-69045000D01*
X96030000Y-69195000D01*
X96024291Y-69223701D01*
X96008033Y-69248033D01*
X95983701Y-69264291D01*
X95955000Y-69270000D01*
X94630000Y-69270000D01*
X94601299Y-69264291D01*
X94576967Y-69248033D01*
X94560709Y-69223701D01*
X94555000Y-69195000D01*
X94555000Y-69045000D01*
X94560709Y-69016299D01*
X94576967Y-68991967D01*
X94601299Y-68975709D01*
X94630000Y-68970000D01*
X95955000Y-68970000D01*
X95983701Y-68975709D01*
G37*
G36*
X80658701Y-68475709D02*
G01*
X80683033Y-68491967D01*
X80699291Y-68516299D01*
X80705000Y-68545000D01*
X80705000Y-68695000D01*
X80699291Y-68723701D01*
X80683033Y-68748033D01*
X80658701Y-68764291D01*
X80630000Y-68770000D01*
X79305000Y-68770000D01*
X79276299Y-68764291D01*
X79251967Y-68748033D01*
X79235709Y-68723701D01*
X79230000Y-68695000D01*
X79230000Y-68545000D01*
X79235709Y-68516299D01*
X79251967Y-68491967D01*
X79276299Y-68475709D01*
X79305000Y-68470000D01*
X80630000Y-68470000D01*
X80658701Y-68475709D01*
G37*
G36*
X95983701Y-68475709D02*
G01*
X96008033Y-68491967D01*
X96024291Y-68516299D01*
X96030000Y-68545000D01*
X96030000Y-68695000D01*
X96024291Y-68723701D01*
X96008033Y-68748033D01*
X95983701Y-68764291D01*
X95955000Y-68770000D01*
X94630000Y-68770000D01*
X94601299Y-68764291D01*
X94576967Y-68748033D01*
X94560709Y-68723701D01*
X94555000Y-68695000D01*
X94555000Y-68545000D01*
X94560709Y-68516299D01*
X94576967Y-68491967D01*
X94601299Y-68475709D01*
X94630000Y-68470000D01*
X95955000Y-68470000D01*
X95983701Y-68475709D01*
G37*
G36*
X105744403Y-66726418D02*
G01*
X105793066Y-66758934D01*
X105825582Y-66807597D01*
X105837000Y-66865000D01*
X105837000Y-68615000D01*
X105825582Y-68672403D01*
X105793066Y-68721066D01*
X105744403Y-68753582D01*
X105687000Y-68765000D01*
X105387000Y-68765000D01*
X105329597Y-68753582D01*
X105280934Y-68721066D01*
X105248418Y-68672403D01*
X105237000Y-68615000D01*
X105237000Y-66865000D01*
X105248418Y-66807597D01*
X105280934Y-66758934D01*
X105329597Y-66726418D01*
X105387000Y-66715000D01*
X105687000Y-66715000D01*
X105744403Y-66726418D01*
G37*
G36*
X107014403Y-66726418D02*
G01*
X107063066Y-66758934D01*
X107095582Y-66807597D01*
X107107000Y-66865000D01*
X107107000Y-68615000D01*
X107095582Y-68672403D01*
X107063066Y-68721066D01*
X107014403Y-68753582D01*
X106957000Y-68765000D01*
X106657000Y-68765000D01*
X106599597Y-68753582D01*
X106550934Y-68721066D01*
X106518418Y-68672403D01*
X106507000Y-68615000D01*
X106507000Y-66865000D01*
X106518418Y-66807597D01*
X106550934Y-66758934D01*
X106599597Y-66726418D01*
X106657000Y-66715000D01*
X106957000Y-66715000D01*
X107014403Y-66726418D01*
G37*
G36*
X108284403Y-66726418D02*
G01*
X108333066Y-66758934D01*
X108365582Y-66807597D01*
X108377000Y-66865000D01*
X108377000Y-68615000D01*
X108365582Y-68672403D01*
X108333066Y-68721066D01*
X108284403Y-68753582D01*
X108227000Y-68765000D01*
X107927000Y-68765000D01*
X107869597Y-68753582D01*
X107820934Y-68721066D01*
X107788418Y-68672403D01*
X107777000Y-68615000D01*
X107777000Y-66865000D01*
X107788418Y-66807597D01*
X107820934Y-66758934D01*
X107869597Y-66726418D01*
X107927000Y-66715000D01*
X108227000Y-66715000D01*
X108284403Y-66726418D01*
G37*
G36*
X109554403Y-66726418D02*
G01*
X109603066Y-66758934D01*
X109635582Y-66807597D01*
X109647000Y-66865000D01*
X109647000Y-68615000D01*
X109635582Y-68672403D01*
X109603066Y-68721066D01*
X109554403Y-68753582D01*
X109497000Y-68765000D01*
X109197000Y-68765000D01*
X109139597Y-68753582D01*
X109090934Y-68721066D01*
X109058418Y-68672403D01*
X109047000Y-68615000D01*
X109047000Y-66865000D01*
X109058418Y-66807597D01*
X109090934Y-66758934D01*
X109139597Y-66726418D01*
X109197000Y-66715000D01*
X109497000Y-66715000D01*
X109554403Y-66726418D01*
G37*
G36*
X110824403Y-66726418D02*
G01*
X110873066Y-66758934D01*
X110905582Y-66807597D01*
X110917000Y-66865000D01*
X110917000Y-68615000D01*
X110905582Y-68672403D01*
X110873066Y-68721066D01*
X110824403Y-68753582D01*
X110767000Y-68765000D01*
X110467000Y-68765000D01*
X110409597Y-68753582D01*
X110360934Y-68721066D01*
X110328418Y-68672403D01*
X110317000Y-68615000D01*
X110317000Y-66865000D01*
X110328418Y-66807597D01*
X110360934Y-66758934D01*
X110409597Y-66726418D01*
X110467000Y-66715000D01*
X110767000Y-66715000D01*
X110824403Y-66726418D01*
G37*
G36*
X112094403Y-66726418D02*
G01*
X112143066Y-66758934D01*
X112175582Y-66807597D01*
X112187000Y-66865000D01*
X112187000Y-68615000D01*
X112175582Y-68672403D01*
X112143066Y-68721066D01*
X112094403Y-68753582D01*
X112037000Y-68765000D01*
X111737000Y-68765000D01*
X111679597Y-68753582D01*
X111630934Y-68721066D01*
X111598418Y-68672403D01*
X111587000Y-68615000D01*
X111587000Y-66865000D01*
X111598418Y-66807597D01*
X111630934Y-66758934D01*
X111679597Y-66726418D01*
X111737000Y-66715000D01*
X112037000Y-66715000D01*
X112094403Y-66726418D01*
G37*
G36*
X113364403Y-66726418D02*
G01*
X113413066Y-66758934D01*
X113445582Y-66807597D01*
X113457000Y-66865000D01*
X113457000Y-68615000D01*
X113445582Y-68672403D01*
X113413066Y-68721066D01*
X113364403Y-68753582D01*
X113307000Y-68765000D01*
X113007000Y-68765000D01*
X112949597Y-68753582D01*
X112900934Y-68721066D01*
X112868418Y-68672403D01*
X112857000Y-68615000D01*
X112857000Y-66865000D01*
X112868418Y-66807597D01*
X112900934Y-66758934D01*
X112949597Y-66726418D01*
X113007000Y-66715000D01*
X113307000Y-66715000D01*
X113364403Y-66726418D01*
G37*
G36*
X114634403Y-66726418D02*
G01*
X114683066Y-66758934D01*
X114715582Y-66807597D01*
X114727000Y-66865000D01*
X114727000Y-68615000D01*
X114715582Y-68672403D01*
X114683066Y-68721066D01*
X114634403Y-68753582D01*
X114577000Y-68765000D01*
X114277000Y-68765000D01*
X114219597Y-68753582D01*
X114170934Y-68721066D01*
X114138418Y-68672403D01*
X114127000Y-68615000D01*
X114127000Y-66865000D01*
X114138418Y-66807597D01*
X114170934Y-66758934D01*
X114219597Y-66726418D01*
X114277000Y-66715000D01*
X114577000Y-66715000D01*
X114634403Y-66726418D01*
G37*
G36*
X115904403Y-66726418D02*
G01*
X115953066Y-66758934D01*
X115985582Y-66807597D01*
X115997000Y-66865000D01*
X115997000Y-68615000D01*
X115985582Y-68672403D01*
X115953066Y-68721066D01*
X115904403Y-68753582D01*
X115847000Y-68765000D01*
X115547000Y-68765000D01*
X115489597Y-68753582D01*
X115440934Y-68721066D01*
X115408418Y-68672403D01*
X115397000Y-68615000D01*
X115397000Y-66865000D01*
X115408418Y-66807597D01*
X115440934Y-66758934D01*
X115489597Y-66726418D01*
X115547000Y-66715000D01*
X115847000Y-66715000D01*
X115904403Y-66726418D01*
G37*
G36*
X117174403Y-66726418D02*
G01*
X117223066Y-66758934D01*
X117255582Y-66807597D01*
X117267000Y-66865000D01*
X117267000Y-68615000D01*
X117255582Y-68672403D01*
X117223066Y-68721066D01*
X117174403Y-68753582D01*
X117117000Y-68765000D01*
X116817000Y-68765000D01*
X116759597Y-68753582D01*
X116710934Y-68721066D01*
X116678418Y-68672403D01*
X116667000Y-68615000D01*
X116667000Y-66865000D01*
X116678418Y-66807597D01*
X116710934Y-66758934D01*
X116759597Y-66726418D01*
X116817000Y-66715000D01*
X117117000Y-66715000D01*
X117174403Y-66726418D01*
G37*
G36*
X118444403Y-66726418D02*
G01*
X118493066Y-66758934D01*
X118525582Y-66807597D01*
X118537000Y-66865000D01*
X118537000Y-68615000D01*
X118525582Y-68672403D01*
X118493066Y-68721066D01*
X118444403Y-68753582D01*
X118387000Y-68765000D01*
X118087000Y-68765000D01*
X118029597Y-68753582D01*
X117980934Y-68721066D01*
X117948418Y-68672403D01*
X117937000Y-68615000D01*
X117937000Y-66865000D01*
X117948418Y-66807597D01*
X117980934Y-66758934D01*
X118029597Y-66726418D01*
X118087000Y-66715000D01*
X118387000Y-66715000D01*
X118444403Y-66726418D01*
G37*
G36*
X119714403Y-66726418D02*
G01*
X119763066Y-66758934D01*
X119795582Y-66807597D01*
X119807000Y-66865000D01*
X119807000Y-68615000D01*
X119795582Y-68672403D01*
X119763066Y-68721066D01*
X119714403Y-68753582D01*
X119657000Y-68765000D01*
X119357000Y-68765000D01*
X119299597Y-68753582D01*
X119250934Y-68721066D01*
X119218418Y-68672403D01*
X119207000Y-68615000D01*
X119207000Y-66865000D01*
X119218418Y-66807597D01*
X119250934Y-66758934D01*
X119299597Y-66726418D01*
X119357000Y-66715000D01*
X119657000Y-66715000D01*
X119714403Y-66726418D01*
G37*
G36*
X120984403Y-66726418D02*
G01*
X121033066Y-66758934D01*
X121065582Y-66807597D01*
X121077000Y-66865000D01*
X121077000Y-68615000D01*
X121065582Y-68672403D01*
X121033066Y-68721066D01*
X120984403Y-68753582D01*
X120927000Y-68765000D01*
X120627000Y-68765000D01*
X120569597Y-68753582D01*
X120520934Y-68721066D01*
X120488418Y-68672403D01*
X120477000Y-68615000D01*
X120477000Y-66865000D01*
X120488418Y-66807597D01*
X120520934Y-66758934D01*
X120569597Y-66726418D01*
X120627000Y-66715000D01*
X120927000Y-66715000D01*
X120984403Y-66726418D01*
G37*
G36*
X122254403Y-66726418D02*
G01*
X122303066Y-66758934D01*
X122335582Y-66807597D01*
X122347000Y-66865000D01*
X122347000Y-68615000D01*
X122335582Y-68672403D01*
X122303066Y-68721066D01*
X122254403Y-68753582D01*
X122197000Y-68765000D01*
X121897000Y-68765000D01*
X121839597Y-68753582D01*
X121790934Y-68721066D01*
X121758418Y-68672403D01*
X121747000Y-68615000D01*
X121747000Y-66865000D01*
X121758418Y-66807597D01*
X121790934Y-66758934D01*
X121839597Y-66726418D01*
X121897000Y-66715000D01*
X122197000Y-66715000D01*
X122254403Y-66726418D01*
G37*
G36*
X80658701Y-67975709D02*
G01*
X80683033Y-67991967D01*
X80699291Y-68016299D01*
X80705000Y-68045000D01*
X80705000Y-68195000D01*
X80699291Y-68223701D01*
X80683033Y-68248033D01*
X80658701Y-68264291D01*
X80630000Y-68270000D01*
X79305000Y-68270000D01*
X79276299Y-68264291D01*
X79251967Y-68248033D01*
X79235709Y-68223701D01*
X79230000Y-68195000D01*
X79230000Y-68045000D01*
X79235709Y-68016299D01*
X79251967Y-67991967D01*
X79276299Y-67975709D01*
X79305000Y-67970000D01*
X80630000Y-67970000D01*
X80658701Y-67975709D01*
G37*
G36*
X95983701Y-67975709D02*
G01*
X96008033Y-67991967D01*
X96024291Y-68016299D01*
X96030000Y-68045000D01*
X96030000Y-68195000D01*
X96024291Y-68223701D01*
X96008033Y-68248033D01*
X95983701Y-68264291D01*
X95955000Y-68270000D01*
X94630000Y-68270000D01*
X94601299Y-68264291D01*
X94576967Y-68248033D01*
X94560709Y-68223701D01*
X94555000Y-68195000D01*
X94555000Y-68045000D01*
X94560709Y-68016299D01*
X94576967Y-67991967D01*
X94601299Y-67975709D01*
X94630000Y-67970000D01*
X95955000Y-67970000D01*
X95983701Y-67975709D01*
G37*
G36*
X80658701Y-67475709D02*
G01*
X80683033Y-67491967D01*
X80699291Y-67516299D01*
X80705000Y-67545000D01*
X80705000Y-67695000D01*
X80699291Y-67723701D01*
X80683033Y-67748033D01*
X80658701Y-67764291D01*
X80630000Y-67770000D01*
X79305000Y-67770000D01*
X79276299Y-67764291D01*
X79251967Y-67748033D01*
X79235709Y-67723701D01*
X79230000Y-67695000D01*
X79230000Y-67545000D01*
X79235709Y-67516299D01*
X79251967Y-67491967D01*
X79276299Y-67475709D01*
X79305000Y-67470000D01*
X80630000Y-67470000D01*
X80658701Y-67475709D01*
G37*
G36*
X95983701Y-67475709D02*
G01*
X96008033Y-67491967D01*
X96024291Y-67516299D01*
X96030000Y-67545000D01*
X96030000Y-67695000D01*
X96024291Y-67723701D01*
X96008033Y-67748033D01*
X95983701Y-67764291D01*
X95955000Y-67770000D01*
X94630000Y-67770000D01*
X94601299Y-67764291D01*
X94576967Y-67748033D01*
X94560709Y-67723701D01*
X94555000Y-67695000D01*
X94555000Y-67545000D01*
X94560709Y-67516299D01*
X94576967Y-67491967D01*
X94601299Y-67475709D01*
X94630000Y-67470000D01*
X95955000Y-67470000D01*
X95983701Y-67475709D01*
G37*
G36*
X80658701Y-66975709D02*
G01*
X80683033Y-66991967D01*
X80699291Y-67016299D01*
X80705000Y-67045000D01*
X80705000Y-67195000D01*
X80699291Y-67223701D01*
X80683033Y-67248033D01*
X80658701Y-67264291D01*
X80630000Y-67270000D01*
X79305000Y-67270000D01*
X79276299Y-67264291D01*
X79251967Y-67248033D01*
X79235709Y-67223701D01*
X79230000Y-67195000D01*
X79230000Y-67045000D01*
X79235709Y-67016299D01*
X79251967Y-66991967D01*
X79276299Y-66975709D01*
X79305000Y-66970000D01*
X80630000Y-66970000D01*
X80658701Y-66975709D01*
G37*
G36*
X95983701Y-66975709D02*
G01*
X96008033Y-66991967D01*
X96024291Y-67016299D01*
X96030000Y-67045000D01*
X96030000Y-67195000D01*
X96024291Y-67223701D01*
X96008033Y-67248033D01*
X95983701Y-67264291D01*
X95955000Y-67270000D01*
X94630000Y-67270000D01*
X94601299Y-67264291D01*
X94576967Y-67248033D01*
X94560709Y-67223701D01*
X94555000Y-67195000D01*
X94555000Y-67045000D01*
X94560709Y-67016299D01*
X94576967Y-66991967D01*
X94601299Y-66975709D01*
X94630000Y-66970000D01*
X95955000Y-66970000D01*
X95983701Y-66975709D01*
G37*
G36*
X80658701Y-66475709D02*
G01*
X80683033Y-66491967D01*
X80699291Y-66516299D01*
X80705000Y-66545000D01*
X80705000Y-66695000D01*
X80699291Y-66723701D01*
X80683033Y-66748033D01*
X80658701Y-66764291D01*
X80630000Y-66770000D01*
X79305000Y-66770000D01*
X79276299Y-66764291D01*
X79251967Y-66748033D01*
X79235709Y-66723701D01*
X79230000Y-66695000D01*
X79230000Y-66545000D01*
X79235709Y-66516299D01*
X79251967Y-66491967D01*
X79276299Y-66475709D01*
X79305000Y-66470000D01*
X80630000Y-66470000D01*
X80658701Y-66475709D01*
G37*
G36*
X95983701Y-66475709D02*
G01*
X96008033Y-66491967D01*
X96024291Y-66516299D01*
X96030000Y-66545000D01*
X96030000Y-66695000D01*
X96024291Y-66723701D01*
X96008033Y-66748033D01*
X95983701Y-66764291D01*
X95955000Y-66770000D01*
X94630000Y-66770000D01*
X94601299Y-66764291D01*
X94576967Y-66748033D01*
X94560709Y-66723701D01*
X94555000Y-66695000D01*
X94555000Y-66545000D01*
X94560709Y-66516299D01*
X94576967Y-66491967D01*
X94601299Y-66475709D01*
X94630000Y-66470000D01*
X95955000Y-66470000D01*
X95983701Y-66475709D01*
G37*
G36*
X80658701Y-65975709D02*
G01*
X80683033Y-65991967D01*
X80699291Y-66016299D01*
X80705000Y-66045000D01*
X80705000Y-66195000D01*
X80699291Y-66223701D01*
X80683033Y-66248033D01*
X80658701Y-66264291D01*
X80630000Y-66270000D01*
X79305000Y-66270000D01*
X79276299Y-66264291D01*
X79251967Y-66248033D01*
X79235709Y-66223701D01*
X79230000Y-66195000D01*
X79230000Y-66045000D01*
X79235709Y-66016299D01*
X79251967Y-65991967D01*
X79276299Y-65975709D01*
X79305000Y-65970000D01*
X80630000Y-65970000D01*
X80658701Y-65975709D01*
G37*
G36*
X95983701Y-65975709D02*
G01*
X96008033Y-65991967D01*
X96024291Y-66016299D01*
X96030000Y-66045000D01*
X96030000Y-66195000D01*
X96024291Y-66223701D01*
X96008033Y-66248033D01*
X95983701Y-66264291D01*
X95955000Y-66270000D01*
X94630000Y-66270000D01*
X94601299Y-66264291D01*
X94576967Y-66248033D01*
X94560709Y-66223701D01*
X94555000Y-66195000D01*
X94555000Y-66045000D01*
X94560709Y-66016299D01*
X94576967Y-65991967D01*
X94601299Y-65975709D01*
X94630000Y-65970000D01*
X95955000Y-65970000D01*
X95983701Y-65975709D01*
G37*
G36*
X80658701Y-65475709D02*
G01*
X80683033Y-65491967D01*
X80699291Y-65516299D01*
X80705000Y-65545000D01*
X80705000Y-65695000D01*
X80699291Y-65723701D01*
X80683033Y-65748033D01*
X80658701Y-65764291D01*
X80630000Y-65770000D01*
X79305000Y-65770000D01*
X79276299Y-65764291D01*
X79251967Y-65748033D01*
X79235709Y-65723701D01*
X79230000Y-65695000D01*
X79230000Y-65545000D01*
X79235709Y-65516299D01*
X79251967Y-65491967D01*
X79276299Y-65475709D01*
X79305000Y-65470000D01*
X80630000Y-65470000D01*
X80658701Y-65475709D01*
G37*
G36*
X95983701Y-65475709D02*
G01*
X96008033Y-65491967D01*
X96024291Y-65516299D01*
X96030000Y-65545000D01*
X96030000Y-65695000D01*
X96024291Y-65723701D01*
X96008033Y-65748033D01*
X95983701Y-65764291D01*
X95955000Y-65770000D01*
X94630000Y-65770000D01*
X94601299Y-65764291D01*
X94576967Y-65748033D01*
X94560709Y-65723701D01*
X94555000Y-65695000D01*
X94555000Y-65545000D01*
X94560709Y-65516299D01*
X94576967Y-65491967D01*
X94601299Y-65475709D01*
X94630000Y-65470000D01*
X95955000Y-65470000D01*
X95983701Y-65475709D01*
G37*
G36*
X114008850Y-64549964D02*
G01*
X114053317Y-64555123D01*
X114068510Y-64561831D01*
X114090104Y-64566127D01*
X114113222Y-64581574D01*
X114130567Y-64589233D01*
X114142412Y-64601078D01*
X114163099Y-64614901D01*
X114176921Y-64635587D01*
X114188766Y-64647432D01*
X114196423Y-64664774D01*
X114211873Y-64687896D01*
X114216168Y-64709491D01*
X114222876Y-64724682D01*
X114228033Y-64769139D01*
X114229000Y-64774000D01*
X114229000Y-65274000D01*
X114228032Y-65278862D01*
X114222876Y-65323317D01*
X114216168Y-65338506D01*
X114211873Y-65360104D01*
X114196422Y-65383227D01*
X114188766Y-65400567D01*
X114176923Y-65412409D01*
X114163099Y-65433099D01*
X114142409Y-65446923D01*
X114130567Y-65458766D01*
X114113227Y-65466422D01*
X114090104Y-65481873D01*
X114068506Y-65486168D01*
X114053317Y-65492876D01*
X114008861Y-65498032D01*
X114004000Y-65499000D01*
X113554000Y-65499000D01*
X113549138Y-65498033D01*
X113504682Y-65492876D01*
X113489491Y-65486168D01*
X113467896Y-65481873D01*
X113444774Y-65466423D01*
X113427432Y-65458766D01*
X113415587Y-65446921D01*
X113394901Y-65433099D01*
X113381078Y-65412412D01*
X113369233Y-65400567D01*
X113361574Y-65383222D01*
X113346127Y-65360104D01*
X113341831Y-65338510D01*
X113335123Y-65323317D01*
X113329964Y-65278849D01*
X113329000Y-65274000D01*
X113329000Y-64774000D01*
X113329964Y-64769150D01*
X113335123Y-64724682D01*
X113341832Y-64709487D01*
X113346127Y-64687896D01*
X113361573Y-64664779D01*
X113369233Y-64647432D01*
X113381080Y-64635584D01*
X113394901Y-64614901D01*
X113415584Y-64601080D01*
X113427432Y-64589233D01*
X113444779Y-64581573D01*
X113467896Y-64566127D01*
X113489487Y-64561832D01*
X113504682Y-64555123D01*
X113549151Y-64549964D01*
X113554000Y-64549000D01*
X114004000Y-64549000D01*
X114008850Y-64549964D01*
G37*
G36*
X115558850Y-64549964D02*
G01*
X115603317Y-64555123D01*
X115618510Y-64561831D01*
X115640104Y-64566127D01*
X115663222Y-64581574D01*
X115680567Y-64589233D01*
X115692412Y-64601078D01*
X115713099Y-64614901D01*
X115726921Y-64635587D01*
X115738766Y-64647432D01*
X115746423Y-64664774D01*
X115761873Y-64687896D01*
X115766168Y-64709491D01*
X115772876Y-64724682D01*
X115778033Y-64769139D01*
X115779000Y-64774000D01*
X115779000Y-65274000D01*
X115778032Y-65278862D01*
X115772876Y-65323317D01*
X115766168Y-65338506D01*
X115761873Y-65360104D01*
X115746422Y-65383227D01*
X115738766Y-65400567D01*
X115726923Y-65412409D01*
X115713099Y-65433099D01*
X115692409Y-65446923D01*
X115680567Y-65458766D01*
X115663227Y-65466422D01*
X115640104Y-65481873D01*
X115618506Y-65486168D01*
X115603317Y-65492876D01*
X115558861Y-65498032D01*
X115554000Y-65499000D01*
X115104000Y-65499000D01*
X115099138Y-65498033D01*
X115054682Y-65492876D01*
X115039491Y-65486168D01*
X115017896Y-65481873D01*
X114994774Y-65466423D01*
X114977432Y-65458766D01*
X114965587Y-65446921D01*
X114944901Y-65433099D01*
X114931078Y-65412412D01*
X114919233Y-65400567D01*
X114911574Y-65383222D01*
X114896127Y-65360104D01*
X114891831Y-65338510D01*
X114885123Y-65323317D01*
X114879964Y-65278849D01*
X114879000Y-65274000D01*
X114879000Y-64774000D01*
X114879964Y-64769150D01*
X114885123Y-64724682D01*
X114891832Y-64709487D01*
X114896127Y-64687896D01*
X114911573Y-64664779D01*
X114919233Y-64647432D01*
X114931080Y-64635584D01*
X114944901Y-64614901D01*
X114965584Y-64601080D01*
X114977432Y-64589233D01*
X114994779Y-64581573D01*
X115017896Y-64566127D01*
X115039487Y-64561832D01*
X115054682Y-64555123D01*
X115099151Y-64549964D01*
X115104000Y-64549000D01*
X115554000Y-64549000D01*
X115558850Y-64549964D01*
G37*
G36*
X80658701Y-64975709D02*
G01*
X80683033Y-64991967D01*
X80699291Y-65016299D01*
X80705000Y-65045000D01*
X80705000Y-65195000D01*
X80699291Y-65223701D01*
X80683033Y-65248033D01*
X80658701Y-65264291D01*
X80630000Y-65270000D01*
X79305000Y-65270000D01*
X79276299Y-65264291D01*
X79251967Y-65248033D01*
X79235709Y-65223701D01*
X79230000Y-65195000D01*
X79230000Y-65045000D01*
X79235709Y-65016299D01*
X79251967Y-64991967D01*
X79276299Y-64975709D01*
X79305000Y-64970000D01*
X80630000Y-64970000D01*
X80658701Y-64975709D01*
G37*
G36*
X95983701Y-64975709D02*
G01*
X96008033Y-64991967D01*
X96024291Y-65016299D01*
X96030000Y-65045000D01*
X96030000Y-65195000D01*
X96024291Y-65223701D01*
X96008033Y-65248033D01*
X95983701Y-65264291D01*
X95955000Y-65270000D01*
X94630000Y-65270000D01*
X94601299Y-65264291D01*
X94576967Y-65248033D01*
X94560709Y-65223701D01*
X94555000Y-65195000D01*
X94555000Y-65045000D01*
X94560709Y-65016299D01*
X94576967Y-64991967D01*
X94601299Y-64975709D01*
X94630000Y-64970000D01*
X95955000Y-64970000D01*
X95983701Y-64975709D01*
G37*
G36*
X99060850Y-63317964D02*
G01*
X99105317Y-63323123D01*
X99120510Y-63329831D01*
X99142104Y-63334127D01*
X99165222Y-63349574D01*
X99182567Y-63357233D01*
X99194412Y-63369078D01*
X99215099Y-63382901D01*
X99228921Y-63403587D01*
X99240766Y-63415432D01*
X99248423Y-63432774D01*
X99263873Y-63455896D01*
X99268168Y-63477491D01*
X99274876Y-63492682D01*
X99280033Y-63537139D01*
X99281000Y-63542000D01*
X99281000Y-63992000D01*
X99280032Y-63996862D01*
X99274876Y-64041317D01*
X99268168Y-64056506D01*
X99263873Y-64078104D01*
X99248422Y-64101227D01*
X99240766Y-64118567D01*
X99228923Y-64130409D01*
X99215099Y-64151099D01*
X99194409Y-64164923D01*
X99182567Y-64176766D01*
X99165227Y-64184422D01*
X99142104Y-64199873D01*
X99120506Y-64204168D01*
X99105317Y-64210876D01*
X99060861Y-64216032D01*
X99056000Y-64217000D01*
X98556000Y-64217000D01*
X98551138Y-64216033D01*
X98506682Y-64210876D01*
X98491491Y-64204168D01*
X98469896Y-64199873D01*
X98446774Y-64184423D01*
X98429432Y-64176766D01*
X98417587Y-64164921D01*
X98396901Y-64151099D01*
X98383078Y-64130412D01*
X98371233Y-64118567D01*
X98363574Y-64101222D01*
X98348127Y-64078104D01*
X98343831Y-64056510D01*
X98337123Y-64041317D01*
X98331964Y-63996849D01*
X98331000Y-63992000D01*
X98331000Y-63542000D01*
X98331964Y-63537150D01*
X98337123Y-63492682D01*
X98343832Y-63477487D01*
X98348127Y-63455896D01*
X98363573Y-63432779D01*
X98371233Y-63415432D01*
X98383080Y-63403584D01*
X98396901Y-63382901D01*
X98417584Y-63369080D01*
X98429432Y-63357233D01*
X98446779Y-63349573D01*
X98469896Y-63334127D01*
X98491487Y-63329832D01*
X98506682Y-63323123D01*
X98551151Y-63317964D01*
X98556000Y-63317000D01*
X99056000Y-63317000D01*
X99060850Y-63317964D01*
G37*
G36*
X81733701Y-62725709D02*
G01*
X81758033Y-62741967D01*
X81774291Y-62766299D01*
X81780000Y-62795000D01*
X81780000Y-64120000D01*
X81774291Y-64148701D01*
X81758033Y-64173033D01*
X81733701Y-64189291D01*
X81705000Y-64195000D01*
X81555000Y-64195000D01*
X81526299Y-64189291D01*
X81501967Y-64173033D01*
X81485709Y-64148701D01*
X81480000Y-64120000D01*
X81480000Y-62795000D01*
X81485709Y-62766299D01*
X81501967Y-62741967D01*
X81526299Y-62725709D01*
X81555000Y-62720000D01*
X81705000Y-62720000D01*
X81733701Y-62725709D01*
G37*
G36*
X82233701Y-62725709D02*
G01*
X82258033Y-62741967D01*
X82274291Y-62766299D01*
X82280000Y-62795000D01*
X82280000Y-64120000D01*
X82274291Y-64148701D01*
X82258033Y-64173033D01*
X82233701Y-64189291D01*
X82205000Y-64195000D01*
X82055000Y-64195000D01*
X82026299Y-64189291D01*
X82001967Y-64173033D01*
X81985709Y-64148701D01*
X81980000Y-64120000D01*
X81980000Y-62795000D01*
X81985709Y-62766299D01*
X82001967Y-62741967D01*
X82026299Y-62725709D01*
X82055000Y-62720000D01*
X82205000Y-62720000D01*
X82233701Y-62725709D01*
G37*
G36*
X82733701Y-62725709D02*
G01*
X82758033Y-62741967D01*
X82774291Y-62766299D01*
X82780000Y-62795000D01*
X82780000Y-64120000D01*
X82774291Y-64148701D01*
X82758033Y-64173033D01*
X82733701Y-64189291D01*
X82705000Y-64195000D01*
X82555000Y-64195000D01*
X82526299Y-64189291D01*
X82501967Y-64173033D01*
X82485709Y-64148701D01*
X82480000Y-64120000D01*
X82480000Y-62795000D01*
X82485709Y-62766299D01*
X82501967Y-62741967D01*
X82526299Y-62725709D01*
X82555000Y-62720000D01*
X82705000Y-62720000D01*
X82733701Y-62725709D01*
G37*
G36*
X83233701Y-62725709D02*
G01*
X83258033Y-62741967D01*
X83274291Y-62766299D01*
X83280000Y-62795000D01*
X83280000Y-64120000D01*
X83274291Y-64148701D01*
X83258033Y-64173033D01*
X83233701Y-64189291D01*
X83205000Y-64195000D01*
X83055000Y-64195000D01*
X83026299Y-64189291D01*
X83001967Y-64173033D01*
X82985709Y-64148701D01*
X82980000Y-64120000D01*
X82980000Y-62795000D01*
X82985709Y-62766299D01*
X83001967Y-62741967D01*
X83026299Y-62725709D01*
X83055000Y-62720000D01*
X83205000Y-62720000D01*
X83233701Y-62725709D01*
G37*
G36*
X83733701Y-62725709D02*
G01*
X83758033Y-62741967D01*
X83774291Y-62766299D01*
X83780000Y-62795000D01*
X83780000Y-64120000D01*
X83774291Y-64148701D01*
X83758033Y-64173033D01*
X83733701Y-64189291D01*
X83705000Y-64195000D01*
X83555000Y-64195000D01*
X83526299Y-64189291D01*
X83501967Y-64173033D01*
X83485709Y-64148701D01*
X83480000Y-64120000D01*
X83480000Y-62795000D01*
X83485709Y-62766299D01*
X83501967Y-62741967D01*
X83526299Y-62725709D01*
X83555000Y-62720000D01*
X83705000Y-62720000D01*
X83733701Y-62725709D01*
G37*
G36*
X84233701Y-62725709D02*
G01*
X84258033Y-62741967D01*
X84274291Y-62766299D01*
X84280000Y-62795000D01*
X84280000Y-64120000D01*
X84274291Y-64148701D01*
X84258033Y-64173033D01*
X84233701Y-64189291D01*
X84205000Y-64195000D01*
X84055000Y-64195000D01*
X84026299Y-64189291D01*
X84001967Y-64173033D01*
X83985709Y-64148701D01*
X83980000Y-64120000D01*
X83980000Y-62795000D01*
X83985709Y-62766299D01*
X84001967Y-62741967D01*
X84026299Y-62725709D01*
X84055000Y-62720000D01*
X84205000Y-62720000D01*
X84233701Y-62725709D01*
G37*
G36*
X84733701Y-62725709D02*
G01*
X84758033Y-62741967D01*
X84774291Y-62766299D01*
X84780000Y-62795000D01*
X84780000Y-64120000D01*
X84774291Y-64148701D01*
X84758033Y-64173033D01*
X84733701Y-64189291D01*
X84705000Y-64195000D01*
X84555000Y-64195000D01*
X84526299Y-64189291D01*
X84501967Y-64173033D01*
X84485709Y-64148701D01*
X84480000Y-64120000D01*
X84480000Y-62795000D01*
X84485709Y-62766299D01*
X84501967Y-62741967D01*
X84526299Y-62725709D01*
X84555000Y-62720000D01*
X84705000Y-62720000D01*
X84733701Y-62725709D01*
G37*
G36*
X85233701Y-62725709D02*
G01*
X85258033Y-62741967D01*
X85274291Y-62766299D01*
X85280000Y-62795000D01*
X85280000Y-64120000D01*
X85274291Y-64148701D01*
X85258033Y-64173033D01*
X85233701Y-64189291D01*
X85205000Y-64195000D01*
X85055000Y-64195000D01*
X85026299Y-64189291D01*
X85001967Y-64173033D01*
X84985709Y-64148701D01*
X84980000Y-64120000D01*
X84980000Y-62795000D01*
X84985709Y-62766299D01*
X85001967Y-62741967D01*
X85026299Y-62725709D01*
X85055000Y-62720000D01*
X85205000Y-62720000D01*
X85233701Y-62725709D01*
G37*
G36*
X85733701Y-62725709D02*
G01*
X85758033Y-62741967D01*
X85774291Y-62766299D01*
X85780000Y-62795000D01*
X85780000Y-64120000D01*
X85774291Y-64148701D01*
X85758033Y-64173033D01*
X85733701Y-64189291D01*
X85705000Y-64195000D01*
X85555000Y-64195000D01*
X85526299Y-64189291D01*
X85501967Y-64173033D01*
X85485709Y-64148701D01*
X85480000Y-64120000D01*
X85480000Y-62795000D01*
X85485709Y-62766299D01*
X85501967Y-62741967D01*
X85526299Y-62725709D01*
X85555000Y-62720000D01*
X85705000Y-62720000D01*
X85733701Y-62725709D01*
G37*
G36*
X86233701Y-62725709D02*
G01*
X86258033Y-62741967D01*
X86274291Y-62766299D01*
X86280000Y-62795000D01*
X86280000Y-64120000D01*
X86274291Y-64148701D01*
X86258033Y-64173033D01*
X86233701Y-64189291D01*
X86205000Y-64195000D01*
X86055000Y-64195000D01*
X86026299Y-64189291D01*
X86001967Y-64173033D01*
X85985709Y-64148701D01*
X85980000Y-64120000D01*
X85980000Y-62795000D01*
X85985709Y-62766299D01*
X86001967Y-62741967D01*
X86026299Y-62725709D01*
X86055000Y-62720000D01*
X86205000Y-62720000D01*
X86233701Y-62725709D01*
G37*
G36*
X86733701Y-62725709D02*
G01*
X86758033Y-62741967D01*
X86774291Y-62766299D01*
X86780000Y-62795000D01*
X86780000Y-64120000D01*
X86774291Y-64148701D01*
X86758033Y-64173033D01*
X86733701Y-64189291D01*
X86705000Y-64195000D01*
X86555000Y-64195000D01*
X86526299Y-64189291D01*
X86501967Y-64173033D01*
X86485709Y-64148701D01*
X86480000Y-64120000D01*
X86480000Y-62795000D01*
X86485709Y-62766299D01*
X86501967Y-62741967D01*
X86526299Y-62725709D01*
X86555000Y-62720000D01*
X86705000Y-62720000D01*
X86733701Y-62725709D01*
G37*
G36*
X87233701Y-62725709D02*
G01*
X87258033Y-62741967D01*
X87274291Y-62766299D01*
X87280000Y-62795000D01*
X87280000Y-64120000D01*
X87274291Y-64148701D01*
X87258033Y-64173033D01*
X87233701Y-64189291D01*
X87205000Y-64195000D01*
X87055000Y-64195000D01*
X87026299Y-64189291D01*
X87001967Y-64173033D01*
X86985709Y-64148701D01*
X86980000Y-64120000D01*
X86980000Y-62795000D01*
X86985709Y-62766299D01*
X87001967Y-62741967D01*
X87026299Y-62725709D01*
X87055000Y-62720000D01*
X87205000Y-62720000D01*
X87233701Y-62725709D01*
G37*
G36*
X87733701Y-62725709D02*
G01*
X87758033Y-62741967D01*
X87774291Y-62766299D01*
X87780000Y-62795000D01*
X87780000Y-64120000D01*
X87774291Y-64148701D01*
X87758033Y-64173033D01*
X87733701Y-64189291D01*
X87705000Y-64195000D01*
X87555000Y-64195000D01*
X87526299Y-64189291D01*
X87501967Y-64173033D01*
X87485709Y-64148701D01*
X87480000Y-64120000D01*
X87480000Y-62795000D01*
X87485709Y-62766299D01*
X87501967Y-62741967D01*
X87526299Y-62725709D01*
X87555000Y-62720000D01*
X87705000Y-62720000D01*
X87733701Y-62725709D01*
G37*
G36*
X88233701Y-62725709D02*
G01*
X88258033Y-62741967D01*
X88274291Y-62766299D01*
X88280000Y-62795000D01*
X88280000Y-64120000D01*
X88274291Y-64148701D01*
X88258033Y-64173033D01*
X88233701Y-64189291D01*
X88205000Y-64195000D01*
X88055000Y-64195000D01*
X88026299Y-64189291D01*
X88001967Y-64173033D01*
X87985709Y-64148701D01*
X87980000Y-64120000D01*
X87980000Y-62795000D01*
X87985709Y-62766299D01*
X88001967Y-62741967D01*
X88026299Y-62725709D01*
X88055000Y-62720000D01*
X88205000Y-62720000D01*
X88233701Y-62725709D01*
G37*
G36*
X88733701Y-62725709D02*
G01*
X88758033Y-62741967D01*
X88774291Y-62766299D01*
X88780000Y-62795000D01*
X88780000Y-64120000D01*
X88774291Y-64148701D01*
X88758033Y-64173033D01*
X88733701Y-64189291D01*
X88705000Y-64195000D01*
X88555000Y-64195000D01*
X88526299Y-64189291D01*
X88501967Y-64173033D01*
X88485709Y-64148701D01*
X88480000Y-64120000D01*
X88480000Y-62795000D01*
X88485709Y-62766299D01*
X88501967Y-62741967D01*
X88526299Y-62725709D01*
X88555000Y-62720000D01*
X88705000Y-62720000D01*
X88733701Y-62725709D01*
G37*
G36*
X89233701Y-62725709D02*
G01*
X89258033Y-62741967D01*
X89274291Y-62766299D01*
X89280000Y-62795000D01*
X89280000Y-64120000D01*
X89274291Y-64148701D01*
X89258033Y-64173033D01*
X89233701Y-64189291D01*
X89205000Y-64195000D01*
X89055000Y-64195000D01*
X89026299Y-64189291D01*
X89001967Y-64173033D01*
X88985709Y-64148701D01*
X88980000Y-64120000D01*
X88980000Y-62795000D01*
X88985709Y-62766299D01*
X89001967Y-62741967D01*
X89026299Y-62725709D01*
X89055000Y-62720000D01*
X89205000Y-62720000D01*
X89233701Y-62725709D01*
G37*
G36*
X89733701Y-62725709D02*
G01*
X89758033Y-62741967D01*
X89774291Y-62766299D01*
X89780000Y-62795000D01*
X89780000Y-64120000D01*
X89774291Y-64148701D01*
X89758033Y-64173033D01*
X89733701Y-64189291D01*
X89705000Y-64195000D01*
X89555000Y-64195000D01*
X89526299Y-64189291D01*
X89501967Y-64173033D01*
X89485709Y-64148701D01*
X89480000Y-64120000D01*
X89480000Y-62795000D01*
X89485709Y-62766299D01*
X89501967Y-62741967D01*
X89526299Y-62725709D01*
X89555000Y-62720000D01*
X89705000Y-62720000D01*
X89733701Y-62725709D01*
G37*
G36*
X90233701Y-62725709D02*
G01*
X90258033Y-62741967D01*
X90274291Y-62766299D01*
X90280000Y-62795000D01*
X90280000Y-64120000D01*
X90274291Y-64148701D01*
X90258033Y-64173033D01*
X90233701Y-64189291D01*
X90205000Y-64195000D01*
X90055000Y-64195000D01*
X90026299Y-64189291D01*
X90001967Y-64173033D01*
X89985709Y-64148701D01*
X89980000Y-64120000D01*
X89980000Y-62795000D01*
X89985709Y-62766299D01*
X90001967Y-62741967D01*
X90026299Y-62725709D01*
X90055000Y-62720000D01*
X90205000Y-62720000D01*
X90233701Y-62725709D01*
G37*
G36*
X90733701Y-62725709D02*
G01*
X90758033Y-62741967D01*
X90774291Y-62766299D01*
X90780000Y-62795000D01*
X90780000Y-64120000D01*
X90774291Y-64148701D01*
X90758033Y-64173033D01*
X90733701Y-64189291D01*
X90705000Y-64195000D01*
X90555000Y-64195000D01*
X90526299Y-64189291D01*
X90501967Y-64173033D01*
X90485709Y-64148701D01*
X90480000Y-64120000D01*
X90480000Y-62795000D01*
X90485709Y-62766299D01*
X90501967Y-62741967D01*
X90526299Y-62725709D01*
X90555000Y-62720000D01*
X90705000Y-62720000D01*
X90733701Y-62725709D01*
G37*
G36*
X91233701Y-62725709D02*
G01*
X91258033Y-62741967D01*
X91274291Y-62766299D01*
X91280000Y-62795000D01*
X91280000Y-64120000D01*
X91274291Y-64148701D01*
X91258033Y-64173033D01*
X91233701Y-64189291D01*
X91205000Y-64195000D01*
X91055000Y-64195000D01*
X91026299Y-64189291D01*
X91001967Y-64173033D01*
X90985709Y-64148701D01*
X90980000Y-64120000D01*
X90980000Y-62795000D01*
X90985709Y-62766299D01*
X91001967Y-62741967D01*
X91026299Y-62725709D01*
X91055000Y-62720000D01*
X91205000Y-62720000D01*
X91233701Y-62725709D01*
G37*
G36*
X91733701Y-62725709D02*
G01*
X91758033Y-62741967D01*
X91774291Y-62766299D01*
X91780000Y-62795000D01*
X91780000Y-64120000D01*
X91774291Y-64148701D01*
X91758033Y-64173033D01*
X91733701Y-64189291D01*
X91705000Y-64195000D01*
X91555000Y-64195000D01*
X91526299Y-64189291D01*
X91501967Y-64173033D01*
X91485709Y-64148701D01*
X91480000Y-64120000D01*
X91480000Y-62795000D01*
X91485709Y-62766299D01*
X91501967Y-62741967D01*
X91526299Y-62725709D01*
X91555000Y-62720000D01*
X91705000Y-62720000D01*
X91733701Y-62725709D01*
G37*
G36*
X92233701Y-62725709D02*
G01*
X92258033Y-62741967D01*
X92274291Y-62766299D01*
X92280000Y-62795000D01*
X92280000Y-64120000D01*
X92274291Y-64148701D01*
X92258033Y-64173033D01*
X92233701Y-64189291D01*
X92205000Y-64195000D01*
X92055000Y-64195000D01*
X92026299Y-64189291D01*
X92001967Y-64173033D01*
X91985709Y-64148701D01*
X91980000Y-64120000D01*
X91980000Y-62795000D01*
X91985709Y-62766299D01*
X92001967Y-62741967D01*
X92026299Y-62725709D01*
X92055000Y-62720000D01*
X92205000Y-62720000D01*
X92233701Y-62725709D01*
G37*
G36*
X92733701Y-62725709D02*
G01*
X92758033Y-62741967D01*
X92774291Y-62766299D01*
X92780000Y-62795000D01*
X92780000Y-64120000D01*
X92774291Y-64148701D01*
X92758033Y-64173033D01*
X92733701Y-64189291D01*
X92705000Y-64195000D01*
X92555000Y-64195000D01*
X92526299Y-64189291D01*
X92501967Y-64173033D01*
X92485709Y-64148701D01*
X92480000Y-64120000D01*
X92480000Y-62795000D01*
X92485709Y-62766299D01*
X92501967Y-62741967D01*
X92526299Y-62725709D01*
X92555000Y-62720000D01*
X92705000Y-62720000D01*
X92733701Y-62725709D01*
G37*
G36*
X93233701Y-62725709D02*
G01*
X93258033Y-62741967D01*
X93274291Y-62766299D01*
X93280000Y-62795000D01*
X93280000Y-64120000D01*
X93274291Y-64148701D01*
X93258033Y-64173033D01*
X93233701Y-64189291D01*
X93205000Y-64195000D01*
X93055000Y-64195000D01*
X93026299Y-64189291D01*
X93001967Y-64173033D01*
X92985709Y-64148701D01*
X92980000Y-64120000D01*
X92980000Y-62795000D01*
X92985709Y-62766299D01*
X93001967Y-62741967D01*
X93026299Y-62725709D01*
X93055000Y-62720000D01*
X93205000Y-62720000D01*
X93233701Y-62725709D01*
G37*
G36*
X93733701Y-62725709D02*
G01*
X93758033Y-62741967D01*
X93774291Y-62766299D01*
X93780000Y-62795000D01*
X93780000Y-64120000D01*
X93774291Y-64148701D01*
X93758033Y-64173033D01*
X93733701Y-64189291D01*
X93705000Y-64195000D01*
X93555000Y-64195000D01*
X93526299Y-64189291D01*
X93501967Y-64173033D01*
X93485709Y-64148701D01*
X93480000Y-64120000D01*
X93480000Y-62795000D01*
X93485709Y-62766299D01*
X93501967Y-62741967D01*
X93526299Y-62725709D01*
X93555000Y-62720000D01*
X93705000Y-62720000D01*
X93733701Y-62725709D01*
G37*
G36*
X108778850Y-62013964D02*
G01*
X108829040Y-62019787D01*
X108846189Y-62027359D01*
X108869671Y-62032030D01*
X108894810Y-62048827D01*
X108914696Y-62057608D01*
X108928277Y-62071189D01*
X108950777Y-62086223D01*
X108965810Y-62108722D01*
X108979391Y-62122303D01*
X108988170Y-62142186D01*
X109004970Y-62167329D01*
X109009641Y-62190812D01*
X109017212Y-62207959D01*
X109023033Y-62258139D01*
X109024000Y-62263000D01*
X109024000Y-63213000D01*
X109023032Y-63217863D01*
X109017212Y-63268040D01*
X109009641Y-63285185D01*
X109004970Y-63308671D01*
X108988169Y-63333815D01*
X108979391Y-63353696D01*
X108965812Y-63367274D01*
X108950777Y-63389777D01*
X108928274Y-63404812D01*
X108914696Y-63418391D01*
X108894815Y-63427169D01*
X108869671Y-63443970D01*
X108846185Y-63448641D01*
X108829040Y-63456212D01*
X108778861Y-63462032D01*
X108774000Y-63463000D01*
X108099000Y-63463000D01*
X108094138Y-63462032D01*
X108043959Y-63456212D01*
X108026812Y-63448641D01*
X108003329Y-63443970D01*
X107978186Y-63427170D01*
X107958303Y-63418391D01*
X107944722Y-63404810D01*
X107922223Y-63389777D01*
X107907189Y-63367277D01*
X107893608Y-63353696D01*
X107884827Y-63333810D01*
X107868030Y-63308671D01*
X107863359Y-63285189D01*
X107855787Y-63268040D01*
X107849964Y-63217849D01*
X107849000Y-63213000D01*
X107849000Y-62263000D01*
X107849964Y-62258150D01*
X107855787Y-62207959D01*
X107863359Y-62190808D01*
X107868030Y-62167329D01*
X107884826Y-62142191D01*
X107893608Y-62122303D01*
X107907191Y-62108719D01*
X107922223Y-62086223D01*
X107944719Y-62071191D01*
X107958303Y-62057608D01*
X107978191Y-62048826D01*
X108003329Y-62032030D01*
X108026808Y-62027359D01*
X108043959Y-62019787D01*
X108094151Y-62013964D01*
X108099000Y-62013000D01*
X108774000Y-62013000D01*
X108778850Y-62013964D01*
G37*
G36*
X110853850Y-62013964D02*
G01*
X110904040Y-62019787D01*
X110921189Y-62027359D01*
X110944671Y-62032030D01*
X110969810Y-62048827D01*
X110989696Y-62057608D01*
X111003277Y-62071189D01*
X111025777Y-62086223D01*
X111040810Y-62108722D01*
X111054391Y-62122303D01*
X111063170Y-62142186D01*
X111079970Y-62167329D01*
X111084641Y-62190812D01*
X111092212Y-62207959D01*
X111098033Y-62258139D01*
X111099000Y-62263000D01*
X111099000Y-63213000D01*
X111098032Y-63217863D01*
X111092212Y-63268040D01*
X111084641Y-63285185D01*
X111079970Y-63308671D01*
X111063169Y-63333815D01*
X111054391Y-63353696D01*
X111040812Y-63367274D01*
X111025777Y-63389777D01*
X111003274Y-63404812D01*
X110989696Y-63418391D01*
X110969815Y-63427169D01*
X110944671Y-63443970D01*
X110921185Y-63448641D01*
X110904040Y-63456212D01*
X110853861Y-63462032D01*
X110849000Y-63463000D01*
X110174000Y-63463000D01*
X110169138Y-63462032D01*
X110118959Y-63456212D01*
X110101812Y-63448641D01*
X110078329Y-63443970D01*
X110053186Y-63427170D01*
X110033303Y-63418391D01*
X110019722Y-63404810D01*
X109997223Y-63389777D01*
X109982189Y-63367277D01*
X109968608Y-63353696D01*
X109959827Y-63333810D01*
X109943030Y-63308671D01*
X109938359Y-63285189D01*
X109930787Y-63268040D01*
X109924964Y-63217849D01*
X109924000Y-63213000D01*
X109924000Y-62263000D01*
X109924964Y-62258150D01*
X109930787Y-62207959D01*
X109938359Y-62190808D01*
X109943030Y-62167329D01*
X109959826Y-62142191D01*
X109968608Y-62122303D01*
X109982191Y-62108719D01*
X109997223Y-62086223D01*
X110019719Y-62071191D01*
X110033303Y-62057608D01*
X110053191Y-62048826D01*
X110078329Y-62032030D01*
X110101808Y-62027359D01*
X110118959Y-62019787D01*
X110169151Y-62013964D01*
X110174000Y-62013000D01*
X110849000Y-62013000D01*
X110853850Y-62013964D01*
G37*
G36*
X64300850Y-60549964D02*
G01*
X64351040Y-60555787D01*
X64368189Y-60563359D01*
X64391671Y-60568030D01*
X64416810Y-60584827D01*
X64436696Y-60593608D01*
X64450277Y-60607189D01*
X64472777Y-60622223D01*
X64487810Y-60644722D01*
X64501391Y-60658303D01*
X64510170Y-60678186D01*
X64526970Y-60703329D01*
X64531641Y-60726812D01*
X64539212Y-60743959D01*
X64545033Y-60794139D01*
X64546000Y-60799000D01*
X64546000Y-62899000D01*
X64545032Y-62903863D01*
X64539212Y-62954040D01*
X64531641Y-62971185D01*
X64526970Y-62994671D01*
X64510169Y-63019815D01*
X64501391Y-63039696D01*
X64487812Y-63053274D01*
X64472777Y-63075777D01*
X64450274Y-63090812D01*
X64436696Y-63104391D01*
X64416815Y-63113169D01*
X64391671Y-63129970D01*
X64368185Y-63134641D01*
X64351040Y-63142212D01*
X64300861Y-63148032D01*
X64296000Y-63149000D01*
X62196000Y-63149000D01*
X62191138Y-63148032D01*
X62140959Y-63142212D01*
X62123812Y-63134641D01*
X62100329Y-63129970D01*
X62075186Y-63113170D01*
X62055303Y-63104391D01*
X62041722Y-63090810D01*
X62019223Y-63075777D01*
X62004189Y-63053277D01*
X61990608Y-63039696D01*
X61981827Y-63019810D01*
X61965030Y-62994671D01*
X61960359Y-62971189D01*
X61952787Y-62954040D01*
X61946964Y-62903849D01*
X61946000Y-62899000D01*
X61946000Y-60799000D01*
X61946964Y-60794150D01*
X61952787Y-60743959D01*
X61960359Y-60726808D01*
X61965030Y-60703329D01*
X61981826Y-60678191D01*
X61990608Y-60658303D01*
X62004191Y-60644719D01*
X62019223Y-60622223D01*
X62041719Y-60607191D01*
X62055303Y-60593608D01*
X62075191Y-60584826D01*
X62100329Y-60568030D01*
X62123808Y-60563359D01*
X62140959Y-60555787D01*
X62191151Y-60549964D01*
X62196000Y-60549000D01*
X64296000Y-60549000D01*
X64300850Y-60549964D01*
G37*
G36*
X99060850Y-61767964D02*
G01*
X99105317Y-61773123D01*
X99120510Y-61779831D01*
X99142104Y-61784127D01*
X99165222Y-61799574D01*
X99182567Y-61807233D01*
X99194412Y-61819078D01*
X99215099Y-61832901D01*
X99228921Y-61853587D01*
X99240766Y-61865432D01*
X99248423Y-61882774D01*
X99263873Y-61905896D01*
X99268168Y-61927491D01*
X99274876Y-61942682D01*
X99280033Y-61987139D01*
X99281000Y-61992000D01*
X99281000Y-62442000D01*
X99280032Y-62446862D01*
X99274876Y-62491317D01*
X99268168Y-62506506D01*
X99263873Y-62528104D01*
X99248422Y-62551227D01*
X99240766Y-62568567D01*
X99228923Y-62580409D01*
X99215099Y-62601099D01*
X99194409Y-62614923D01*
X99182567Y-62626766D01*
X99165227Y-62634422D01*
X99142104Y-62649873D01*
X99120506Y-62654168D01*
X99105317Y-62660876D01*
X99060861Y-62666032D01*
X99056000Y-62667000D01*
X98556000Y-62667000D01*
X98551138Y-62666033D01*
X98506682Y-62660876D01*
X98491491Y-62654168D01*
X98469896Y-62649873D01*
X98446774Y-62634423D01*
X98429432Y-62626766D01*
X98417587Y-62614921D01*
X98396901Y-62601099D01*
X98383078Y-62580412D01*
X98371233Y-62568567D01*
X98363574Y-62551222D01*
X98348127Y-62528104D01*
X98343831Y-62506510D01*
X98337123Y-62491317D01*
X98331964Y-62446849D01*
X98331000Y-62442000D01*
X98331000Y-61992000D01*
X98331964Y-61987150D01*
X98337123Y-61942682D01*
X98343832Y-61927487D01*
X98348127Y-61905896D01*
X98363573Y-61882779D01*
X98371233Y-61865432D01*
X98383080Y-61853584D01*
X98396901Y-61832901D01*
X98417584Y-61819080D01*
X98429432Y-61807233D01*
X98446779Y-61799573D01*
X98469896Y-61784127D01*
X98491487Y-61779832D01*
X98506682Y-61773123D01*
X98551151Y-61767964D01*
X98556000Y-61767000D01*
X99056000Y-61767000D01*
X99060850Y-61767964D01*
G37*
G36*
X105398000Y-60549000D02*
G01*
X105398000Y-60936999D01*
X105398000Y-60937000D01*
X105398000Y-61237000D01*
X105398000Y-62237000D01*
X103898000Y-62237000D01*
X103898000Y-61237000D01*
X103898000Y-60937000D01*
X103898000Y-59937000D01*
X105398000Y-59937000D01*
X105398000Y-60549000D01*
G37*
G36*
X132016500Y-62176000D02*
G01*
X130111500Y-62176000D01*
X130111500Y-59890000D01*
X132016500Y-59890000D01*
X132016500Y-62176000D01*
G37*
G36*
X129264000Y-60858000D02*
G01*
X127714000Y-60858000D01*
X127714000Y-59433000D01*
X129264000Y-59433000D01*
X129264000Y-60858000D01*
G37*
G36*
X108529403Y-59782418D02*
G01*
X108578066Y-59814934D01*
X108610582Y-59863597D01*
X108622000Y-59921000D01*
X108622000Y-60221000D01*
X108610582Y-60278403D01*
X108578066Y-60327066D01*
X108529403Y-60359582D01*
X108472000Y-60371000D01*
X106972000Y-60371000D01*
X106914597Y-60359582D01*
X106865934Y-60327066D01*
X106833418Y-60278403D01*
X106822000Y-60221000D01*
X106822000Y-59921000D01*
X106833418Y-59863597D01*
X106865934Y-59814934D01*
X106914597Y-59782418D01*
X106972000Y-59771000D01*
X108472000Y-59771000D01*
X108529403Y-59782418D01*
G37*
G36*
X118129403Y-59782418D02*
G01*
X118178066Y-59814934D01*
X118210582Y-59863597D01*
X118222000Y-59921000D01*
X118222000Y-60221000D01*
X118210582Y-60278403D01*
X118178066Y-60327066D01*
X118129403Y-60359582D01*
X118072000Y-60371000D01*
X116572000Y-60371000D01*
X116514597Y-60359582D01*
X116465934Y-60327066D01*
X116433418Y-60278403D01*
X116422000Y-60221000D01*
X116422000Y-59921000D01*
X116433418Y-59863597D01*
X116465934Y-59814934D01*
X116514597Y-59782418D01*
X116572000Y-59771000D01*
X118072000Y-59771000D01*
X118129403Y-59782418D01*
G37*
G36*
X132014000Y-59708000D02*
G01*
X130114000Y-59708000D01*
X130114000Y-57908000D01*
X132014000Y-57908000D01*
X132014000Y-59708000D01*
G37*
G36*
X122525537Y-58606224D02*
G01*
X122590421Y-58649579D01*
X122633776Y-58714463D01*
X122649000Y-58791000D01*
X122649000Y-59191000D01*
X122633776Y-59267537D01*
X122590421Y-59332421D01*
X122525537Y-59375776D01*
X122449000Y-59391000D01*
X121899000Y-59391000D01*
X121822463Y-59375776D01*
X121757579Y-59332421D01*
X121714224Y-59267537D01*
X121699000Y-59191000D01*
X121699000Y-58791000D01*
X121714224Y-58714463D01*
X121757579Y-58649579D01*
X121822463Y-58606224D01*
X121899000Y-58591000D01*
X122449000Y-58591000D01*
X122525537Y-58606224D01*
G37*
G36*
X129094000Y-59183000D02*
G01*
X127714000Y-59183000D01*
X127714000Y-58733000D01*
X129094000Y-58733000D01*
X129094000Y-59183000D01*
G37*
G36*
X108529403Y-58512418D02*
G01*
X108578066Y-58544934D01*
X108610582Y-58593597D01*
X108622000Y-58651000D01*
X108622000Y-58951000D01*
X108610582Y-59008403D01*
X108578066Y-59057066D01*
X108529403Y-59089582D01*
X108472000Y-59101000D01*
X106972000Y-59101000D01*
X106914597Y-59089582D01*
X106865934Y-59057066D01*
X106833418Y-59008403D01*
X106822000Y-58951000D01*
X106822000Y-58651000D01*
X106833418Y-58593597D01*
X106865934Y-58544934D01*
X106914597Y-58512418D01*
X106972000Y-58501000D01*
X108472000Y-58501000D01*
X108529403Y-58512418D01*
G37*
G36*
X118129403Y-58512418D02*
G01*
X118178066Y-58544934D01*
X118210582Y-58593597D01*
X118222000Y-58651000D01*
X118222000Y-58951000D01*
X118210582Y-59008403D01*
X118178066Y-59057066D01*
X118129403Y-59089582D01*
X118072000Y-59101000D01*
X116572000Y-59101000D01*
X116514597Y-59089582D01*
X116465934Y-59057066D01*
X116433418Y-59008403D01*
X116422000Y-58951000D01*
X116422000Y-58651000D01*
X116433418Y-58593597D01*
X116465934Y-58544934D01*
X116514597Y-58512418D01*
X116572000Y-58501000D01*
X118072000Y-58501000D01*
X118129403Y-58512418D01*
G37*
G36*
X66814000Y-58917000D02*
G01*
X64414000Y-58917000D01*
X64414000Y-58177000D01*
X66814000Y-58177000D01*
X66814000Y-58917000D01*
G37*
G36*
X70714000Y-58917000D02*
G01*
X68314000Y-58917000D01*
X68314000Y-58177000D01*
X70714000Y-58177000D01*
X70714000Y-58917000D01*
G37*
G36*
X79098000Y-58916000D02*
G01*
X78098000Y-58916000D01*
X78098000Y-57416000D01*
X79098000Y-57416000D01*
X79098000Y-58916000D01*
G37*
G36*
X80398000Y-58916000D02*
G01*
X79398000Y-58916000D01*
X79398000Y-57416000D01*
X80398000Y-57416000D01*
X80398000Y-58916000D01*
G37*
G36*
X129094000Y-58533000D02*
G01*
X127714000Y-58533000D01*
X127714000Y-58083000D01*
X129094000Y-58083000D01*
X129094000Y-58533000D01*
G37*
G36*
X105702000Y-58458000D02*
G01*
X104102000Y-58458000D01*
X104102000Y-56858000D01*
X105702000Y-56858000D01*
X105702000Y-58458000D01*
G37*
G36*
X84814228Y-56892448D02*
G01*
X84959117Y-56952463D01*
X85089515Y-57039592D01*
X85200408Y-57150485D01*
X85287537Y-57280883D01*
X85347552Y-57425772D01*
X85378148Y-57579586D01*
X85378148Y-57736414D01*
X85347552Y-57890228D01*
X85287537Y-58035117D01*
X85200408Y-58165515D01*
X85089515Y-58276408D01*
X84959117Y-58363537D01*
X84814228Y-58423552D01*
X84660414Y-58454148D01*
X84503586Y-58454148D01*
X84349772Y-58423552D01*
X84204883Y-58363537D01*
X84074485Y-58276408D01*
X83963592Y-58165515D01*
X83876463Y-58035117D01*
X83816448Y-57890228D01*
X83785852Y-57736414D01*
X83785852Y-57579586D01*
X83816448Y-57425772D01*
X83876463Y-57280883D01*
X83963592Y-57150485D01*
X84074485Y-57039592D01*
X84204883Y-56952463D01*
X84349772Y-56892448D01*
X84503586Y-56861852D01*
X84660414Y-56861852D01*
X84814228Y-56892448D01*
G37*
G36*
X87354228Y-56892448D02*
G01*
X87499117Y-56952463D01*
X87629515Y-57039592D01*
X87740408Y-57150485D01*
X87827537Y-57280883D01*
X87887552Y-57425772D01*
X87918148Y-57579586D01*
X87918148Y-57736414D01*
X87887552Y-57890228D01*
X87827537Y-58035117D01*
X87740408Y-58165515D01*
X87629515Y-58276408D01*
X87499117Y-58363537D01*
X87354228Y-58423552D01*
X87200414Y-58454148D01*
X87043586Y-58454148D01*
X86889772Y-58423552D01*
X86744883Y-58363537D01*
X86614485Y-58276408D01*
X86503592Y-58165515D01*
X86416463Y-58035117D01*
X86356448Y-57890228D01*
X86325852Y-57736414D01*
X86325852Y-57579586D01*
X86356448Y-57425772D01*
X86416463Y-57280883D01*
X86503592Y-57150485D01*
X86614485Y-57039592D01*
X86744883Y-56952463D01*
X86889772Y-56892448D01*
X87043586Y-56861852D01*
X87200414Y-56861852D01*
X87354228Y-56892448D01*
G37*
G36*
X89894228Y-56892448D02*
G01*
X90039117Y-56952463D01*
X90169515Y-57039592D01*
X90280408Y-57150485D01*
X90367537Y-57280883D01*
X90427552Y-57425772D01*
X90458148Y-57579586D01*
X90458148Y-57736414D01*
X90427552Y-57890228D01*
X90367537Y-58035117D01*
X90280408Y-58165515D01*
X90169515Y-58276408D01*
X90039117Y-58363537D01*
X89894228Y-58423552D01*
X89740414Y-58454148D01*
X89583586Y-58454148D01*
X89429772Y-58423552D01*
X89284883Y-58363537D01*
X89154485Y-58276408D01*
X89043592Y-58165515D01*
X88956463Y-58035117D01*
X88896448Y-57890228D01*
X88865852Y-57736414D01*
X88865852Y-57579586D01*
X88896448Y-57425772D01*
X88956463Y-57280883D01*
X89043592Y-57150485D01*
X89154485Y-57039592D01*
X89284883Y-56952463D01*
X89429772Y-56892448D01*
X89583586Y-56861852D01*
X89740414Y-56861852D01*
X89894228Y-56892448D01*
G37*
G36*
X92434228Y-56892448D02*
G01*
X92579117Y-56952463D01*
X92709515Y-57039592D01*
X92820408Y-57150485D01*
X92907537Y-57280883D01*
X92967552Y-57425772D01*
X92998148Y-57579586D01*
X92998148Y-57736414D01*
X92967552Y-57890228D01*
X92907537Y-58035117D01*
X92820408Y-58165515D01*
X92709515Y-58276408D01*
X92579117Y-58363537D01*
X92434228Y-58423552D01*
X92280414Y-58454148D01*
X92123586Y-58454148D01*
X91969772Y-58423552D01*
X91824883Y-58363537D01*
X91694485Y-58276408D01*
X91583592Y-58165515D01*
X91496463Y-58035117D01*
X91436448Y-57890228D01*
X91405852Y-57736414D01*
X91405852Y-57579586D01*
X91436448Y-57425772D01*
X91496463Y-57280883D01*
X91583592Y-57150485D01*
X91694485Y-57039592D01*
X91824883Y-56952463D01*
X91969772Y-56892448D01*
X92123586Y-56861852D01*
X92280414Y-56861852D01*
X92434228Y-56892448D01*
G37*
G36*
X94974228Y-56892448D02*
G01*
X95119117Y-56952463D01*
X95249515Y-57039592D01*
X95360408Y-57150485D01*
X95447537Y-57280883D01*
X95507552Y-57425772D01*
X95538148Y-57579586D01*
X95538148Y-57736414D01*
X95507552Y-57890228D01*
X95447537Y-58035117D01*
X95360408Y-58165515D01*
X95249515Y-58276408D01*
X95119117Y-58363537D01*
X94974228Y-58423552D01*
X94820414Y-58454148D01*
X94663586Y-58454148D01*
X94509772Y-58423552D01*
X94364883Y-58363537D01*
X94234485Y-58276408D01*
X94123592Y-58165515D01*
X94036463Y-58035117D01*
X93976448Y-57890228D01*
X93945852Y-57736414D01*
X93945852Y-57579586D01*
X93976448Y-57425772D01*
X94036463Y-57280883D01*
X94123592Y-57150485D01*
X94234485Y-57039592D01*
X94364883Y-56952463D01*
X94509772Y-56892448D01*
X94663586Y-56861852D01*
X94820414Y-56861852D01*
X94974228Y-56892448D01*
G37*
G36*
X97514228Y-56892448D02*
G01*
X97659117Y-56952463D01*
X97789515Y-57039592D01*
X97900408Y-57150485D01*
X97987537Y-57280883D01*
X98047552Y-57425772D01*
X98078148Y-57579586D01*
X98078148Y-57736414D01*
X98047552Y-57890228D01*
X97987537Y-58035117D01*
X97900408Y-58165515D01*
X97789515Y-58276408D01*
X97659117Y-58363537D01*
X97514228Y-58423552D01*
X97360414Y-58454148D01*
X97203586Y-58454148D01*
X97049772Y-58423552D01*
X96904883Y-58363537D01*
X96774485Y-58276408D01*
X96663592Y-58165515D01*
X96576463Y-58035117D01*
X96516448Y-57890228D01*
X96485852Y-57736414D01*
X96485852Y-57579586D01*
X96516448Y-57425772D01*
X96576463Y-57280883D01*
X96663592Y-57150485D01*
X96774485Y-57039592D01*
X96904883Y-56952463D01*
X97049772Y-56892448D01*
X97203586Y-56861852D01*
X97360414Y-56861852D01*
X97514228Y-56892448D01*
G37*
G36*
X100054228Y-56892448D02*
G01*
X100199117Y-56952463D01*
X100329515Y-57039592D01*
X100440408Y-57150485D01*
X100527537Y-57280883D01*
X100587552Y-57425772D01*
X100618148Y-57579586D01*
X100618148Y-57736414D01*
X100587552Y-57890228D01*
X100527537Y-58035117D01*
X100440408Y-58165515D01*
X100329515Y-58276408D01*
X100199117Y-58363537D01*
X100054228Y-58423552D01*
X99900414Y-58454148D01*
X99743586Y-58454148D01*
X99589772Y-58423552D01*
X99444883Y-58363537D01*
X99314485Y-58276408D01*
X99203592Y-58165515D01*
X99116463Y-58035117D01*
X99056448Y-57890228D01*
X99025852Y-57736414D01*
X99025852Y-57579586D01*
X99056448Y-57425772D01*
X99116463Y-57280883D01*
X99203592Y-57150485D01*
X99314485Y-57039592D01*
X99444883Y-56952463D01*
X99589772Y-56892448D01*
X99743586Y-56861852D01*
X99900414Y-56861852D01*
X100054228Y-56892448D01*
G37*
G36*
X102594228Y-56892448D02*
G01*
X102739117Y-56952463D01*
X102869515Y-57039592D01*
X102980408Y-57150485D01*
X103067537Y-57280883D01*
X103127552Y-57425772D01*
X103158148Y-57579586D01*
X103158148Y-57736414D01*
X103127552Y-57890228D01*
X103067537Y-58035117D01*
X102980408Y-58165515D01*
X102869515Y-58276408D01*
X102739117Y-58363537D01*
X102594228Y-58423552D01*
X102440414Y-58454148D01*
X102283586Y-58454148D01*
X102129772Y-58423552D01*
X101984883Y-58363537D01*
X101854485Y-58276408D01*
X101743592Y-58165515D01*
X101656463Y-58035117D01*
X101596448Y-57890228D01*
X101565852Y-57736414D01*
X101565852Y-57579586D01*
X101596448Y-57425772D01*
X101656463Y-57280883D01*
X101743592Y-57150485D01*
X101854485Y-57039592D01*
X101984883Y-56952463D01*
X102129772Y-56892448D01*
X102283586Y-56861852D01*
X102440414Y-56861852D01*
X102594228Y-56892448D01*
G37*
G36*
X129094000Y-57883000D02*
G01*
X127714000Y-57883000D01*
X127714000Y-57433000D01*
X129094000Y-57433000D01*
X129094000Y-57883000D01*
G37*
G36*
X108529403Y-57242418D02*
G01*
X108578066Y-57274934D01*
X108610582Y-57323597D01*
X108622000Y-57381000D01*
X108622000Y-57681000D01*
X108610582Y-57738403D01*
X108578066Y-57787066D01*
X108529403Y-57819582D01*
X108472000Y-57831000D01*
X106972000Y-57831000D01*
X106914597Y-57819582D01*
X106865934Y-57787066D01*
X106833418Y-57738403D01*
X106822000Y-57681000D01*
X106822000Y-57381000D01*
X106833418Y-57323597D01*
X106865934Y-57274934D01*
X106914597Y-57242418D01*
X106972000Y-57231000D01*
X108472000Y-57231000D01*
X108529403Y-57242418D01*
G37*
G36*
X118129403Y-57242418D02*
G01*
X118178066Y-57274934D01*
X118210582Y-57323597D01*
X118222000Y-57381000D01*
X118222000Y-57681000D01*
X118210582Y-57738403D01*
X118178066Y-57787066D01*
X118129403Y-57819582D01*
X118072000Y-57831000D01*
X116572000Y-57831000D01*
X116514597Y-57819582D01*
X116465934Y-57787066D01*
X116433418Y-57738403D01*
X116422000Y-57681000D01*
X116422000Y-57381000D01*
X116433418Y-57323597D01*
X116465934Y-57274934D01*
X116514597Y-57242418D01*
X116572000Y-57231000D01*
X118072000Y-57231000D01*
X118129403Y-57242418D01*
G37*
G36*
X122525537Y-56956224D02*
G01*
X122590421Y-56999579D01*
X122633776Y-57064463D01*
X122649000Y-57141000D01*
X122649000Y-57541000D01*
X122633776Y-57617537D01*
X122590421Y-57682421D01*
X122525537Y-57725776D01*
X122449000Y-57741000D01*
X121899000Y-57741000D01*
X121822463Y-57725776D01*
X121757579Y-57682421D01*
X121714224Y-57617537D01*
X121699000Y-57541000D01*
X121699000Y-57141000D01*
X121714224Y-57064463D01*
X121757579Y-56999579D01*
X121822463Y-56956224D01*
X121899000Y-56941000D01*
X122449000Y-56941000D01*
X122525537Y-56956224D01*
G37*
G36*
X66814000Y-57647000D02*
G01*
X64414000Y-57647000D01*
X64414000Y-56907000D01*
X66814000Y-56907000D01*
X66814000Y-57647000D01*
G37*
G36*
X70714000Y-57647000D02*
G01*
X68314000Y-57647000D01*
X68314000Y-56907000D01*
X70714000Y-56907000D01*
X70714000Y-57647000D01*
G37*
G36*
X129094000Y-57233000D02*
G01*
X127714000Y-57233000D01*
X127714000Y-56783000D01*
X129094000Y-56783000D01*
X129094000Y-57233000D01*
G37*
G36*
X132014000Y-56608000D02*
G01*
X130114000Y-56608000D01*
X130114000Y-55608000D01*
X132014000Y-55608000D01*
X132014000Y-56608000D01*
G37*
G36*
X129094000Y-56583000D02*
G01*
X127714000Y-56583000D01*
X127714000Y-56133000D01*
X129094000Y-56133000D01*
X129094000Y-56583000D01*
G37*
G36*
X66814000Y-56377000D02*
G01*
X64414000Y-56377000D01*
X64414000Y-55637000D01*
X66814000Y-55637000D01*
X66814000Y-56377000D01*
G37*
G36*
X70714000Y-56377000D02*
G01*
X68314000Y-56377000D01*
X68314000Y-55637000D01*
X70714000Y-55637000D01*
X70714000Y-56377000D01*
G37*
G36*
X129264000Y-55883000D02*
G01*
X127714000Y-55883000D01*
X127714000Y-54458000D01*
X129264000Y-54458000D01*
X129264000Y-55883000D01*
G37*
G36*
X122428850Y-54681964D02*
G01*
X122473317Y-54687123D01*
X122488510Y-54693831D01*
X122510104Y-54698127D01*
X122533222Y-54713574D01*
X122550567Y-54721233D01*
X122562412Y-54733078D01*
X122583099Y-54746901D01*
X122596921Y-54767587D01*
X122608766Y-54779432D01*
X122616423Y-54796774D01*
X122631873Y-54819896D01*
X122636168Y-54841491D01*
X122642876Y-54856682D01*
X122648033Y-54901139D01*
X122649000Y-54906000D01*
X122649000Y-55356000D01*
X122648032Y-55360862D01*
X122642876Y-55405317D01*
X122636168Y-55420506D01*
X122631873Y-55442104D01*
X122616422Y-55465227D01*
X122608766Y-55482567D01*
X122596923Y-55494409D01*
X122583099Y-55515099D01*
X122562409Y-55528923D01*
X122550567Y-55540766D01*
X122533227Y-55548422D01*
X122510104Y-55563873D01*
X122488506Y-55568168D01*
X122473317Y-55574876D01*
X122428861Y-55580032D01*
X122424000Y-55581000D01*
X121924000Y-55581000D01*
X121919138Y-55580033D01*
X121874682Y-55574876D01*
X121859491Y-55568168D01*
X121837896Y-55563873D01*
X121814774Y-55548423D01*
X121797432Y-55540766D01*
X121785587Y-55528921D01*
X121764901Y-55515099D01*
X121751078Y-55494412D01*
X121739233Y-55482567D01*
X121731574Y-55465222D01*
X121716127Y-55442104D01*
X121711831Y-55420510D01*
X121705123Y-55405317D01*
X121699964Y-55360849D01*
X121699000Y-55356000D01*
X121699000Y-54906000D01*
X121699964Y-54901150D01*
X121705123Y-54856682D01*
X121711832Y-54841487D01*
X121716127Y-54819896D01*
X121731573Y-54796779D01*
X121739233Y-54779432D01*
X121751080Y-54767584D01*
X121764901Y-54746901D01*
X121785584Y-54733080D01*
X121797432Y-54721233D01*
X121814779Y-54713573D01*
X121837896Y-54698127D01*
X121859487Y-54693832D01*
X121874682Y-54687123D01*
X121919151Y-54681964D01*
X121924000Y-54681000D01*
X122424000Y-54681000D01*
X122428850Y-54681964D01*
G37*
G36*
X132016500Y-55426000D02*
G01*
X130111500Y-55426000D01*
X130111500Y-53140000D01*
X132016500Y-53140000D01*
X132016500Y-55426000D01*
G37*
G36*
X66814000Y-55107000D02*
G01*
X64414000Y-55107000D01*
X64414000Y-54367000D01*
X66814000Y-54367000D01*
X66814000Y-55107000D01*
G37*
G36*
X70714000Y-55107000D02*
G01*
X68314000Y-55107000D01*
X68314000Y-54367000D01*
X70714000Y-54367000D01*
X70714000Y-55107000D01*
G37*
G36*
X122428850Y-53131964D02*
G01*
X122473317Y-53137123D01*
X122488510Y-53143831D01*
X122510104Y-53148127D01*
X122533222Y-53163574D01*
X122550567Y-53171233D01*
X122562412Y-53183078D01*
X122583099Y-53196901D01*
X122596921Y-53217587D01*
X122608766Y-53229432D01*
X122616423Y-53246774D01*
X122631873Y-53269896D01*
X122636168Y-53291491D01*
X122642876Y-53306682D01*
X122648033Y-53351139D01*
X122649000Y-53356000D01*
X122649000Y-53806000D01*
X122648032Y-53810862D01*
X122642876Y-53855317D01*
X122636168Y-53870506D01*
X122631873Y-53892104D01*
X122616422Y-53915227D01*
X122608766Y-53932567D01*
X122596923Y-53944409D01*
X122583099Y-53965099D01*
X122562409Y-53978923D01*
X122550567Y-53990766D01*
X122533227Y-53998422D01*
X122510104Y-54013873D01*
X122488506Y-54018168D01*
X122473317Y-54024876D01*
X122428861Y-54030032D01*
X122424000Y-54031000D01*
X121924000Y-54031000D01*
X121919138Y-54030033D01*
X121874682Y-54024876D01*
X121859491Y-54018168D01*
X121837896Y-54013873D01*
X121814774Y-53998423D01*
X121797432Y-53990766D01*
X121785587Y-53978921D01*
X121764901Y-53965099D01*
X121751078Y-53944412D01*
X121739233Y-53932567D01*
X121731574Y-53915222D01*
X121716127Y-53892104D01*
X121711831Y-53870510D01*
X121705123Y-53855317D01*
X121699964Y-53810849D01*
X121699000Y-53806000D01*
X121699000Y-53356000D01*
X121699964Y-53351150D01*
X121705123Y-53306682D01*
X121711832Y-53291487D01*
X121716127Y-53269896D01*
X121731573Y-53246779D01*
X121739233Y-53229432D01*
X121751080Y-53217584D01*
X121764901Y-53196901D01*
X121785584Y-53183080D01*
X121797432Y-53171233D01*
X121814779Y-53163573D01*
X121837896Y-53148127D01*
X121859487Y-53143832D01*
X121874682Y-53137123D01*
X121919151Y-53131964D01*
X121924000Y-53131000D01*
X122424000Y-53131000D01*
X122428850Y-53131964D01*
G37*
G36*
X66814000Y-53837000D02*
G01*
X64414000Y-53837000D01*
X64414000Y-53097000D01*
X66814000Y-53097000D01*
X66814000Y-53837000D01*
G37*
G36*
X70714000Y-53837000D02*
G01*
X68314000Y-53837000D01*
X68314000Y-53097000D01*
X70714000Y-53097000D01*
X70714000Y-53837000D01*
G37*
G36*
X81239537Y-52626224D02*
G01*
X81304421Y-52669579D01*
X81347776Y-52734463D01*
X81363000Y-52811000D01*
X81363000Y-53361000D01*
X81347776Y-53437537D01*
X81304421Y-53502421D01*
X81239537Y-53545776D01*
X81163000Y-53561000D01*
X80763000Y-53561000D01*
X80686463Y-53545776D01*
X80621579Y-53502421D01*
X80578224Y-53437537D01*
X80563000Y-53361000D01*
X80563000Y-52811000D01*
X80578224Y-52734463D01*
X80621579Y-52669579D01*
X80686463Y-52626224D01*
X80763000Y-52611000D01*
X81163000Y-52611000D01*
X81239537Y-52626224D01*
G37*
G36*
X82889537Y-52626224D02*
G01*
X82954421Y-52669579D01*
X82997776Y-52734463D01*
X83013000Y-52811000D01*
X83013000Y-53361000D01*
X82997776Y-53437537D01*
X82954421Y-53502421D01*
X82889537Y-53545776D01*
X82813000Y-53561000D01*
X82413000Y-53561000D01*
X82336463Y-53545776D01*
X82271579Y-53502421D01*
X82228224Y-53437537D01*
X82213000Y-53361000D01*
X82213000Y-52811000D01*
X82228224Y-52734463D01*
X82271579Y-52669579D01*
X82336463Y-52626224D01*
X82413000Y-52611000D01*
X82813000Y-52611000D01*
X82889537Y-52626224D01*
G37*
G36*
X66814000Y-52567000D02*
G01*
X64414000Y-52567000D01*
X64414000Y-51827000D01*
X66814000Y-51827000D01*
X66814000Y-52567000D01*
G37*
G36*
X70714000Y-52567000D02*
G01*
X68314000Y-52567000D01*
X68314000Y-51827000D01*
X70714000Y-51827000D01*
X70714000Y-52567000D01*
G37*
G36*
X66814000Y-51297000D02*
G01*
X64414000Y-51297000D01*
X64414000Y-50557000D01*
X66814000Y-50557000D01*
X66814000Y-51297000D01*
G37*
G36*
X70714000Y-51297000D02*
G01*
X68314000Y-51297000D01*
X68314000Y-50557000D01*
X70714000Y-50557000D01*
X70714000Y-51297000D01*
G37*
G36*
X120857403Y-49263418D02*
G01*
X120906066Y-49295934D01*
X120938582Y-49344597D01*
X120950000Y-49402000D01*
X120950000Y-51052000D01*
X120938582Y-51109403D01*
X120906066Y-51158066D01*
X120857403Y-51190582D01*
X120800000Y-51202000D01*
X120500000Y-51202000D01*
X120442597Y-51190582D01*
X120393934Y-51158066D01*
X120361418Y-51109403D01*
X120350000Y-51052000D01*
X120350000Y-49402000D01*
X120361418Y-49344597D01*
X120393934Y-49295934D01*
X120442597Y-49263418D01*
X120500000Y-49252000D01*
X120800000Y-49252000D01*
X120857403Y-49263418D01*
G37*
G36*
X122127403Y-49263418D02*
G01*
X122176066Y-49295934D01*
X122208582Y-49344597D01*
X122220000Y-49402000D01*
X122220000Y-51052000D01*
X122208582Y-51109403D01*
X122176066Y-51158066D01*
X122127403Y-51190582D01*
X122070000Y-51202000D01*
X121770000Y-51202000D01*
X121712597Y-51190582D01*
X121663934Y-51158066D01*
X121631418Y-51109403D01*
X121620000Y-51052000D01*
X121620000Y-49402000D01*
X121631418Y-49344597D01*
X121663934Y-49295934D01*
X121712597Y-49263418D01*
X121770000Y-49252000D01*
X122070000Y-49252000D01*
X122127403Y-49263418D01*
G37*
G36*
X123397403Y-49263418D02*
G01*
X123446066Y-49295934D01*
X123478582Y-49344597D01*
X123490000Y-49402000D01*
X123490000Y-51052000D01*
X123478582Y-51109403D01*
X123446066Y-51158066D01*
X123397403Y-51190582D01*
X123340000Y-51202000D01*
X123040000Y-51202000D01*
X122982597Y-51190582D01*
X122933934Y-51158066D01*
X122901418Y-51109403D01*
X122890000Y-51052000D01*
X122890000Y-49402000D01*
X122901418Y-49344597D01*
X122933934Y-49295934D01*
X122982597Y-49263418D01*
X123040000Y-49252000D01*
X123340000Y-49252000D01*
X123397403Y-49263418D01*
G37*
G36*
X124667403Y-49263418D02*
G01*
X124716066Y-49295934D01*
X124748582Y-49344597D01*
X124760000Y-49402000D01*
X124760000Y-51052000D01*
X124748582Y-51109403D01*
X124716066Y-51158066D01*
X124667403Y-51190582D01*
X124610000Y-51202000D01*
X124310000Y-51202000D01*
X124252597Y-51190582D01*
X124203934Y-51158066D01*
X124171418Y-51109403D01*
X124160000Y-51052000D01*
X124160000Y-49402000D01*
X124171418Y-49344597D01*
X124203934Y-49295934D01*
X124252597Y-49263418D01*
X124310000Y-49252000D01*
X124610000Y-49252000D01*
X124667403Y-49263418D01*
G37*
G36*
X125937403Y-49263418D02*
G01*
X125986066Y-49295934D01*
X126018582Y-49344597D01*
X126030000Y-49402000D01*
X126030000Y-51052000D01*
X126018582Y-51109403D01*
X125986066Y-51158066D01*
X125937403Y-51190582D01*
X125880000Y-51202000D01*
X125580000Y-51202000D01*
X125522597Y-51190582D01*
X125473934Y-51158066D01*
X125441418Y-51109403D01*
X125430000Y-51052000D01*
X125430000Y-49402000D01*
X125441418Y-49344597D01*
X125473934Y-49295934D01*
X125522597Y-49263418D01*
X125580000Y-49252000D01*
X125880000Y-49252000D01*
X125937403Y-49263418D01*
G37*
G36*
X127207403Y-49263418D02*
G01*
X127256066Y-49295934D01*
X127288582Y-49344597D01*
X127300000Y-49402000D01*
X127300000Y-51052000D01*
X127288582Y-51109403D01*
X127256066Y-51158066D01*
X127207403Y-51190582D01*
X127150000Y-51202000D01*
X126850000Y-51202000D01*
X126792597Y-51190582D01*
X126743934Y-51158066D01*
X126711418Y-51109403D01*
X126700000Y-51052000D01*
X126700000Y-49402000D01*
X126711418Y-49344597D01*
X126743934Y-49295934D01*
X126792597Y-49263418D01*
X126850000Y-49252000D01*
X127150000Y-49252000D01*
X127207403Y-49263418D01*
G37*
G36*
X128477403Y-49263418D02*
G01*
X128526066Y-49295934D01*
X128558582Y-49344597D01*
X128570000Y-49402000D01*
X128570000Y-51052000D01*
X128558582Y-51109403D01*
X128526066Y-51158066D01*
X128477403Y-51190582D01*
X128420000Y-51202000D01*
X128120000Y-51202000D01*
X128062597Y-51190582D01*
X128013934Y-51158066D01*
X127981418Y-51109403D01*
X127970000Y-51052000D01*
X127970000Y-49402000D01*
X127981418Y-49344597D01*
X128013934Y-49295934D01*
X128062597Y-49263418D01*
X128120000Y-49252000D01*
X128420000Y-49252000D01*
X128477403Y-49263418D01*
G37*
G36*
X84814228Y-49272448D02*
G01*
X84959117Y-49332463D01*
X85089515Y-49419592D01*
X85200408Y-49530485D01*
X85287537Y-49660883D01*
X85347552Y-49805772D01*
X85378148Y-49959586D01*
X85378148Y-50116414D01*
X85347552Y-50270228D01*
X85287537Y-50415117D01*
X85200408Y-50545515D01*
X85089515Y-50656408D01*
X84959117Y-50743537D01*
X84814228Y-50803552D01*
X84660414Y-50834148D01*
X84503586Y-50834148D01*
X84349772Y-50803552D01*
X84204883Y-50743537D01*
X84074485Y-50656408D01*
X83963592Y-50545515D01*
X83876463Y-50415117D01*
X83816448Y-50270228D01*
X83785852Y-50116414D01*
X83785852Y-49959586D01*
X83816448Y-49805772D01*
X83876463Y-49660883D01*
X83963592Y-49530485D01*
X84074485Y-49419592D01*
X84204883Y-49332463D01*
X84349772Y-49272448D01*
X84503586Y-49241852D01*
X84660414Y-49241852D01*
X84814228Y-49272448D01*
G37*
G36*
X87354228Y-49272448D02*
G01*
X87499117Y-49332463D01*
X87629515Y-49419592D01*
X87740408Y-49530485D01*
X87827537Y-49660883D01*
X87887552Y-49805772D01*
X87918148Y-49959586D01*
X87918148Y-50116414D01*
X87887552Y-50270228D01*
X87827537Y-50415117D01*
X87740408Y-50545515D01*
X87629515Y-50656408D01*
X87499117Y-50743537D01*
X87354228Y-50803552D01*
X87200414Y-50834148D01*
X87043586Y-50834148D01*
X86889772Y-50803552D01*
X86744883Y-50743537D01*
X86614485Y-50656408D01*
X86503592Y-50545515D01*
X86416463Y-50415117D01*
X86356448Y-50270228D01*
X86325852Y-50116414D01*
X86325852Y-49959586D01*
X86356448Y-49805772D01*
X86416463Y-49660883D01*
X86503592Y-49530485D01*
X86614485Y-49419592D01*
X86744883Y-49332463D01*
X86889772Y-49272448D01*
X87043586Y-49241852D01*
X87200414Y-49241852D01*
X87354228Y-49272448D01*
G37*
G36*
X89894228Y-49272448D02*
G01*
X90039117Y-49332463D01*
X90169515Y-49419592D01*
X90280408Y-49530485D01*
X90367537Y-49660883D01*
X90427552Y-49805772D01*
X90458148Y-49959586D01*
X90458148Y-50116414D01*
X90427552Y-50270228D01*
X90367537Y-50415117D01*
X90280408Y-50545515D01*
X90169515Y-50656408D01*
X90039117Y-50743537D01*
X89894228Y-50803552D01*
X89740414Y-50834148D01*
X89583586Y-50834148D01*
X89429772Y-50803552D01*
X89284883Y-50743537D01*
X89154485Y-50656408D01*
X89043592Y-50545515D01*
X88956463Y-50415117D01*
X88896448Y-50270228D01*
X88865852Y-50116414D01*
X88865852Y-49959586D01*
X88896448Y-49805772D01*
X88956463Y-49660883D01*
X89043592Y-49530485D01*
X89154485Y-49419592D01*
X89284883Y-49332463D01*
X89429772Y-49272448D01*
X89583586Y-49241852D01*
X89740414Y-49241852D01*
X89894228Y-49272448D01*
G37*
G36*
X92434228Y-49272448D02*
G01*
X92579117Y-49332463D01*
X92709515Y-49419592D01*
X92820408Y-49530485D01*
X92907537Y-49660883D01*
X92967552Y-49805772D01*
X92998148Y-49959586D01*
X92998148Y-50116414D01*
X92967552Y-50270228D01*
X92907537Y-50415117D01*
X92820408Y-50545515D01*
X92709515Y-50656408D01*
X92579117Y-50743537D01*
X92434228Y-50803552D01*
X92280414Y-50834148D01*
X92123586Y-50834148D01*
X91969772Y-50803552D01*
X91824883Y-50743537D01*
X91694485Y-50656408D01*
X91583592Y-50545515D01*
X91496463Y-50415117D01*
X91436448Y-50270228D01*
X91405852Y-50116414D01*
X91405852Y-49959586D01*
X91436448Y-49805772D01*
X91496463Y-49660883D01*
X91583592Y-49530485D01*
X91694485Y-49419592D01*
X91824883Y-49332463D01*
X91969772Y-49272448D01*
X92123586Y-49241852D01*
X92280414Y-49241852D01*
X92434228Y-49272448D01*
G37*
G36*
X94974228Y-49272448D02*
G01*
X95119117Y-49332463D01*
X95249515Y-49419592D01*
X95360408Y-49530485D01*
X95447537Y-49660883D01*
X95507552Y-49805772D01*
X95538148Y-49959586D01*
X95538148Y-50116414D01*
X95507552Y-50270228D01*
X95447537Y-50415117D01*
X95360408Y-50545515D01*
X95249515Y-50656408D01*
X95119117Y-50743537D01*
X94974228Y-50803552D01*
X94820414Y-50834148D01*
X94663586Y-50834148D01*
X94509772Y-50803552D01*
X94364883Y-50743537D01*
X94234485Y-50656408D01*
X94123592Y-50545515D01*
X94036463Y-50415117D01*
X93976448Y-50270228D01*
X93945852Y-50116414D01*
X93945852Y-49959586D01*
X93976448Y-49805772D01*
X94036463Y-49660883D01*
X94123592Y-49530485D01*
X94234485Y-49419592D01*
X94364883Y-49332463D01*
X94509772Y-49272448D01*
X94663586Y-49241852D01*
X94820414Y-49241852D01*
X94974228Y-49272448D01*
G37*
G36*
X97514228Y-49272448D02*
G01*
X97659117Y-49332463D01*
X97789515Y-49419592D01*
X97900408Y-49530485D01*
X97987537Y-49660883D01*
X98047552Y-49805772D01*
X98078148Y-49959586D01*
X98078148Y-50116414D01*
X98047552Y-50270228D01*
X97987537Y-50415117D01*
X97900408Y-50545515D01*
X97789515Y-50656408D01*
X97659117Y-50743537D01*
X97514228Y-50803552D01*
X97360414Y-50834148D01*
X97203586Y-50834148D01*
X97049772Y-50803552D01*
X96904883Y-50743537D01*
X96774485Y-50656408D01*
X96663592Y-50545515D01*
X96576463Y-50415117D01*
X96516448Y-50270228D01*
X96485852Y-50116414D01*
X96485852Y-49959586D01*
X96516448Y-49805772D01*
X96576463Y-49660883D01*
X96663592Y-49530485D01*
X96774485Y-49419592D01*
X96904883Y-49332463D01*
X97049772Y-49272448D01*
X97203586Y-49241852D01*
X97360414Y-49241852D01*
X97514228Y-49272448D01*
G37*
G36*
X100054228Y-49272448D02*
G01*
X100199117Y-49332463D01*
X100329515Y-49419592D01*
X100440408Y-49530485D01*
X100527537Y-49660883D01*
X100587552Y-49805772D01*
X100618148Y-49959586D01*
X100618148Y-50116414D01*
X100587552Y-50270228D01*
X100527537Y-50415117D01*
X100440408Y-50545515D01*
X100329515Y-50656408D01*
X100199117Y-50743537D01*
X100054228Y-50803552D01*
X99900414Y-50834148D01*
X99743586Y-50834148D01*
X99589772Y-50803552D01*
X99444883Y-50743537D01*
X99314485Y-50656408D01*
X99203592Y-50545515D01*
X99116463Y-50415117D01*
X99056448Y-50270228D01*
X99025852Y-50116414D01*
X99025852Y-49959586D01*
X99056448Y-49805772D01*
X99116463Y-49660883D01*
X99203592Y-49530485D01*
X99314485Y-49419592D01*
X99444883Y-49332463D01*
X99589772Y-49272448D01*
X99743586Y-49241852D01*
X99900414Y-49241852D01*
X100054228Y-49272448D01*
G37*
G36*
X102594228Y-49272448D02*
G01*
X102739117Y-49332463D01*
X102869515Y-49419592D01*
X102980408Y-49530485D01*
X103067537Y-49660883D01*
X103127552Y-49805772D01*
X103158148Y-49959586D01*
X103158148Y-50116414D01*
X103127552Y-50270228D01*
X103067537Y-50415117D01*
X102980408Y-50545515D01*
X102869515Y-50656408D01*
X102739117Y-50743537D01*
X102594228Y-50803552D01*
X102440414Y-50834148D01*
X102283586Y-50834148D01*
X102129772Y-50803552D01*
X101984883Y-50743537D01*
X101854485Y-50656408D01*
X101743592Y-50545515D01*
X101656463Y-50415117D01*
X101596448Y-50270228D01*
X101565852Y-50116414D01*
X101565852Y-49959586D01*
X101596448Y-49805772D01*
X101656463Y-49660883D01*
X101743592Y-49530485D01*
X101854485Y-49419592D01*
X101984883Y-49332463D01*
X102129772Y-49272448D01*
X102283586Y-49241852D01*
X102440414Y-49241852D01*
X102594228Y-49272448D01*
G37*
G36*
X105134228Y-49272448D02*
G01*
X105279117Y-49332463D01*
X105409515Y-49419592D01*
X105520408Y-49530485D01*
X105607537Y-49660883D01*
X105667552Y-49805772D01*
X105698148Y-49959586D01*
X105698148Y-50116414D01*
X105667552Y-50270228D01*
X105607537Y-50415117D01*
X105520408Y-50545515D01*
X105409515Y-50656408D01*
X105279117Y-50743537D01*
X105134228Y-50803552D01*
X104980414Y-50834148D01*
X104823586Y-50834148D01*
X104669772Y-50803552D01*
X104524883Y-50743537D01*
X104394485Y-50656408D01*
X104283592Y-50545515D01*
X104196463Y-50415117D01*
X104136448Y-50270228D01*
X104105852Y-50116414D01*
X104105852Y-49959586D01*
X104136448Y-49805772D01*
X104196463Y-49660883D01*
X104283592Y-49530485D01*
X104394485Y-49419592D01*
X104524883Y-49332463D01*
X104669772Y-49272448D01*
X104823586Y-49241852D01*
X104980414Y-49241852D01*
X105134228Y-49272448D01*
G37*
G36*
X131161537Y-49462224D02*
G01*
X131226421Y-49505579D01*
X131269776Y-49570463D01*
X131285000Y-49647000D01*
X131285000Y-50047000D01*
X131269776Y-50123537D01*
X131226421Y-50188421D01*
X131161537Y-50231776D01*
X131085000Y-50247000D01*
X130535000Y-50247000D01*
X130458463Y-50231776D01*
X130393579Y-50188421D01*
X130350224Y-50123537D01*
X130335000Y-50047000D01*
X130335000Y-49647000D01*
X130350224Y-49570463D01*
X130393579Y-49505579D01*
X130458463Y-49462224D01*
X130535000Y-49447000D01*
X131085000Y-49447000D01*
X131161537Y-49462224D01*
G37*
G36*
X66814000Y-50027000D02*
G01*
X64414000Y-50027000D01*
X64414000Y-49287000D01*
X66814000Y-49287000D01*
X66814000Y-50027000D01*
G37*
G36*
X70714000Y-50027000D02*
G01*
X68314000Y-50027000D01*
X68314000Y-49287000D01*
X70714000Y-49287000D01*
X70714000Y-50027000D01*
G37*
G36*
X66814000Y-48757000D02*
G01*
X64414000Y-48757000D01*
X64414000Y-48017000D01*
X66814000Y-48017000D01*
X66814000Y-48757000D01*
G37*
G36*
X70714000Y-48757000D02*
G01*
X68314000Y-48757000D01*
X68314000Y-48017000D01*
X70714000Y-48017000D01*
X70714000Y-48757000D01*
G37*
G36*
X131161537Y-47812224D02*
G01*
X131226421Y-47855579D01*
X131269776Y-47920463D01*
X131285000Y-47997000D01*
X131285000Y-48397000D01*
X131269776Y-48473537D01*
X131226421Y-48538421D01*
X131161537Y-48581776D01*
X131085000Y-48597000D01*
X130535000Y-48597000D01*
X130458463Y-48581776D01*
X130393579Y-48538421D01*
X130350224Y-48473537D01*
X130335000Y-48397000D01*
X130335000Y-47997000D01*
X130350224Y-47920463D01*
X130393579Y-47855579D01*
X130458463Y-47812224D01*
X130535000Y-47797000D01*
X131085000Y-47797000D01*
X131161537Y-47812224D01*
G37*
G36*
X66814000Y-47487000D02*
G01*
X64414000Y-47487000D01*
X64414000Y-46747000D01*
X66814000Y-46747000D01*
X66814000Y-47487000D01*
G37*
G36*
X70714000Y-47487000D02*
G01*
X68314000Y-47487000D01*
X68314000Y-46747000D01*
X70714000Y-46747000D01*
X70714000Y-47487000D01*
G37*
G36*
X131064850Y-45791964D02*
G01*
X131109317Y-45797123D01*
X131124510Y-45803831D01*
X131146104Y-45808127D01*
X131169222Y-45823574D01*
X131186567Y-45831233D01*
X131198412Y-45843078D01*
X131219099Y-45856901D01*
X131232921Y-45877587D01*
X131244766Y-45889432D01*
X131252423Y-45906774D01*
X131267873Y-45929896D01*
X131272168Y-45951491D01*
X131278876Y-45966682D01*
X131284033Y-46011139D01*
X131285000Y-46016000D01*
X131285000Y-46466000D01*
X131284032Y-46470862D01*
X131278876Y-46515317D01*
X131272168Y-46530506D01*
X131267873Y-46552104D01*
X131252422Y-46575227D01*
X131244766Y-46592567D01*
X131232923Y-46604409D01*
X131219099Y-46625099D01*
X131198409Y-46638923D01*
X131186567Y-46650766D01*
X131169227Y-46658422D01*
X131146104Y-46673873D01*
X131124506Y-46678168D01*
X131109317Y-46684876D01*
X131064861Y-46690032D01*
X131060000Y-46691000D01*
X130560000Y-46691000D01*
X130555138Y-46690033D01*
X130510682Y-46684876D01*
X130495491Y-46678168D01*
X130473896Y-46673873D01*
X130450774Y-46658423D01*
X130433432Y-46650766D01*
X130421587Y-46638921D01*
X130400901Y-46625099D01*
X130387078Y-46604412D01*
X130375233Y-46592567D01*
X130367574Y-46575222D01*
X130352127Y-46552104D01*
X130347831Y-46530510D01*
X130341123Y-46515317D01*
X130335964Y-46470849D01*
X130335000Y-46466000D01*
X130335000Y-46016000D01*
X130335964Y-46011150D01*
X130341123Y-45966682D01*
X130347832Y-45951487D01*
X130352127Y-45929896D01*
X130367573Y-45906779D01*
X130375233Y-45889432D01*
X130387080Y-45877584D01*
X130400901Y-45856901D01*
X130421584Y-45843080D01*
X130433432Y-45831233D01*
X130450779Y-45823573D01*
X130473896Y-45808127D01*
X130495487Y-45803832D01*
X130510682Y-45797123D01*
X130555151Y-45791964D01*
X130560000Y-45791000D01*
X131060000Y-45791000D01*
X131064850Y-45791964D01*
G37*
G36*
X108529403Y-45812418D02*
G01*
X108578066Y-45844934D01*
X108610582Y-45893597D01*
X108622000Y-45951000D01*
X108622000Y-46251000D01*
X108610582Y-46308403D01*
X108578066Y-46357066D01*
X108529403Y-46389582D01*
X108472000Y-46401000D01*
X106972000Y-46401000D01*
X106914597Y-46389582D01*
X106865934Y-46357066D01*
X106833418Y-46308403D01*
X106822000Y-46251000D01*
X106822000Y-45951000D01*
X106833418Y-45893597D01*
X106865934Y-45844934D01*
X106914597Y-45812418D01*
X106972000Y-45801000D01*
X108472000Y-45801000D01*
X108529403Y-45812418D01*
G37*
G36*
X118129403Y-45812418D02*
G01*
X118178066Y-45844934D01*
X118210582Y-45893597D01*
X118222000Y-45951000D01*
X118222000Y-46251000D01*
X118210582Y-46308403D01*
X118178066Y-46357066D01*
X118129403Y-46389582D01*
X118072000Y-46401000D01*
X116572000Y-46401000D01*
X116514597Y-46389582D01*
X116465934Y-46357066D01*
X116433418Y-46308403D01*
X116422000Y-46251000D01*
X116422000Y-45951000D01*
X116433418Y-45893597D01*
X116465934Y-45844934D01*
X116514597Y-45812418D01*
X116572000Y-45801000D01*
X118072000Y-45801000D01*
X118129403Y-45812418D01*
G37*
G36*
X105381850Y-45154964D02*
G01*
X105432040Y-45160787D01*
X105449189Y-45168359D01*
X105472671Y-45173030D01*
X105497810Y-45189827D01*
X105517696Y-45198608D01*
X105531277Y-45212189D01*
X105553777Y-45227223D01*
X105568810Y-45249722D01*
X105582391Y-45263303D01*
X105591170Y-45283186D01*
X105607970Y-45308329D01*
X105612641Y-45331812D01*
X105620212Y-45348959D01*
X105626033Y-45399139D01*
X105627000Y-45404000D01*
X105627000Y-46079000D01*
X105626032Y-46083863D01*
X105620212Y-46134040D01*
X105612641Y-46151185D01*
X105607970Y-46174671D01*
X105591169Y-46199815D01*
X105582391Y-46219696D01*
X105568812Y-46233274D01*
X105553777Y-46255777D01*
X105531274Y-46270812D01*
X105517696Y-46284391D01*
X105497815Y-46293169D01*
X105472671Y-46309970D01*
X105449185Y-46314641D01*
X105432040Y-46322212D01*
X105381861Y-46328032D01*
X105377000Y-46329000D01*
X104427000Y-46329000D01*
X104422138Y-46328032D01*
X104371959Y-46322212D01*
X104354812Y-46314641D01*
X104331329Y-46309970D01*
X104306186Y-46293170D01*
X104286303Y-46284391D01*
X104272722Y-46270810D01*
X104250223Y-46255777D01*
X104235189Y-46233277D01*
X104221608Y-46219696D01*
X104212827Y-46199810D01*
X104196030Y-46174671D01*
X104191359Y-46151189D01*
X104183787Y-46134040D01*
X104177964Y-46083849D01*
X104177000Y-46079000D01*
X104177000Y-45404000D01*
X104177964Y-45399150D01*
X104183787Y-45348959D01*
X104191359Y-45331808D01*
X104196030Y-45308329D01*
X104212826Y-45283191D01*
X104221608Y-45263303D01*
X104235191Y-45249719D01*
X104250223Y-45227223D01*
X104272719Y-45212191D01*
X104286303Y-45198608D01*
X104306191Y-45189826D01*
X104331329Y-45173030D01*
X104354808Y-45168359D01*
X104371959Y-45160787D01*
X104422151Y-45154964D01*
X104427000Y-45154000D01*
X105377000Y-45154000D01*
X105381850Y-45154964D01*
G37*
G36*
X120857403Y-44313418D02*
G01*
X120906066Y-44345934D01*
X120938582Y-44394597D01*
X120950000Y-44452000D01*
X120950000Y-46102000D01*
X120938582Y-46159403D01*
X120906066Y-46208066D01*
X120857403Y-46240582D01*
X120800000Y-46252000D01*
X120500000Y-46252000D01*
X120442597Y-46240582D01*
X120393934Y-46208066D01*
X120361418Y-46159403D01*
X120350000Y-46102000D01*
X120350000Y-44452000D01*
X120361418Y-44394597D01*
X120393934Y-44345934D01*
X120442597Y-44313418D01*
X120500000Y-44302000D01*
X120800000Y-44302000D01*
X120857403Y-44313418D01*
G37*
G36*
X122127403Y-44313418D02*
G01*
X122176066Y-44345934D01*
X122208582Y-44394597D01*
X122220000Y-44452000D01*
X122220000Y-46102000D01*
X122208582Y-46159403D01*
X122176066Y-46208066D01*
X122127403Y-46240582D01*
X122070000Y-46252000D01*
X121770000Y-46252000D01*
X121712597Y-46240582D01*
X121663934Y-46208066D01*
X121631418Y-46159403D01*
X121620000Y-46102000D01*
X121620000Y-44452000D01*
X121631418Y-44394597D01*
X121663934Y-44345934D01*
X121712597Y-44313418D01*
X121770000Y-44302000D01*
X122070000Y-44302000D01*
X122127403Y-44313418D01*
G37*
G36*
X123397403Y-44313418D02*
G01*
X123446066Y-44345934D01*
X123478582Y-44394597D01*
X123490000Y-44452000D01*
X123490000Y-46102000D01*
X123478582Y-46159403D01*
X123446066Y-46208066D01*
X123397403Y-46240582D01*
X123340000Y-46252000D01*
X123040000Y-46252000D01*
X122982597Y-46240582D01*
X122933934Y-46208066D01*
X122901418Y-46159403D01*
X122890000Y-46102000D01*
X122890000Y-44452000D01*
X122901418Y-44394597D01*
X122933934Y-44345934D01*
X122982597Y-44313418D01*
X123040000Y-44302000D01*
X123340000Y-44302000D01*
X123397403Y-44313418D01*
G37*
G36*
X124667403Y-44313418D02*
G01*
X124716066Y-44345934D01*
X124748582Y-44394597D01*
X124760000Y-44452000D01*
X124760000Y-46102000D01*
X124748582Y-46159403D01*
X124716066Y-46208066D01*
X124667403Y-46240582D01*
X124610000Y-46252000D01*
X124310000Y-46252000D01*
X124252597Y-46240582D01*
X124203934Y-46208066D01*
X124171418Y-46159403D01*
X124160000Y-46102000D01*
X124160000Y-44452000D01*
X124171418Y-44394597D01*
X124203934Y-44345934D01*
X124252597Y-44313418D01*
X124310000Y-44302000D01*
X124610000Y-44302000D01*
X124667403Y-44313418D01*
G37*
G36*
X125937403Y-44313418D02*
G01*
X125986066Y-44345934D01*
X126018582Y-44394597D01*
X126030000Y-44452000D01*
X126030000Y-46102000D01*
X126018582Y-46159403D01*
X125986066Y-46208066D01*
X125937403Y-46240582D01*
X125880000Y-46252000D01*
X125580000Y-46252000D01*
X125522597Y-46240582D01*
X125473934Y-46208066D01*
X125441418Y-46159403D01*
X125430000Y-46102000D01*
X125430000Y-44452000D01*
X125441418Y-44394597D01*
X125473934Y-44345934D01*
X125522597Y-44313418D01*
X125580000Y-44302000D01*
X125880000Y-44302000D01*
X125937403Y-44313418D01*
G37*
G36*
X127207403Y-44313418D02*
G01*
X127256066Y-44345934D01*
X127288582Y-44394597D01*
X127300000Y-44452000D01*
X127300000Y-46102000D01*
X127288582Y-46159403D01*
X127256066Y-46208066D01*
X127207403Y-46240582D01*
X127150000Y-46252000D01*
X126850000Y-46252000D01*
X126792597Y-46240582D01*
X126743934Y-46208066D01*
X126711418Y-46159403D01*
X126700000Y-46102000D01*
X126700000Y-44452000D01*
X126711418Y-44394597D01*
X126743934Y-44345934D01*
X126792597Y-44313418D01*
X126850000Y-44302000D01*
X127150000Y-44302000D01*
X127207403Y-44313418D01*
G37*
G36*
X128477403Y-44313418D02*
G01*
X128526066Y-44345934D01*
X128558582Y-44394597D01*
X128570000Y-44452000D01*
X128570000Y-46102000D01*
X128558582Y-46159403D01*
X128526066Y-46208066D01*
X128477403Y-46240582D01*
X128420000Y-46252000D01*
X128120000Y-46252000D01*
X128062597Y-46240582D01*
X128013934Y-46208066D01*
X127981418Y-46159403D01*
X127970000Y-46102000D01*
X127970000Y-44452000D01*
X127981418Y-44394597D01*
X128013934Y-44345934D01*
X128062597Y-44313418D01*
X128120000Y-44302000D01*
X128420000Y-44302000D01*
X128477403Y-44313418D01*
G37*
G36*
X131064850Y-44241964D02*
G01*
X131109317Y-44247123D01*
X131124510Y-44253831D01*
X131146104Y-44258127D01*
X131169222Y-44273574D01*
X131186567Y-44281233D01*
X131198412Y-44293078D01*
X131219099Y-44306901D01*
X131232921Y-44327587D01*
X131244766Y-44339432D01*
X131252423Y-44356774D01*
X131267873Y-44379896D01*
X131272168Y-44401491D01*
X131278876Y-44416682D01*
X131284033Y-44461139D01*
X131285000Y-44466000D01*
X131285000Y-44916000D01*
X131284032Y-44920862D01*
X131278876Y-44965317D01*
X131272168Y-44980506D01*
X131267873Y-45002104D01*
X131252422Y-45025227D01*
X131244766Y-45042567D01*
X131232923Y-45054409D01*
X131219099Y-45075099D01*
X131198409Y-45088923D01*
X131186567Y-45100766D01*
X131169227Y-45108422D01*
X131146104Y-45123873D01*
X131124506Y-45128168D01*
X131109317Y-45134876D01*
X131064861Y-45140032D01*
X131060000Y-45141000D01*
X130560000Y-45141000D01*
X130555138Y-45140033D01*
X130510682Y-45134876D01*
X130495491Y-45128168D01*
X130473896Y-45123873D01*
X130450774Y-45108423D01*
X130433432Y-45100766D01*
X130421587Y-45088921D01*
X130400901Y-45075099D01*
X130387078Y-45054412D01*
X130375233Y-45042567D01*
X130367574Y-45025222D01*
X130352127Y-45002104D01*
X130347831Y-44980510D01*
X130341123Y-44965317D01*
X130335964Y-44920849D01*
X130335000Y-44916000D01*
X130335000Y-44466000D01*
X130335964Y-44461150D01*
X130341123Y-44416682D01*
X130347832Y-44401487D01*
X130352127Y-44379896D01*
X130367573Y-44356779D01*
X130375233Y-44339432D01*
X130387080Y-44327584D01*
X130400901Y-44306901D01*
X130421584Y-44293080D01*
X130433432Y-44281233D01*
X130450779Y-44273573D01*
X130473896Y-44258127D01*
X130495487Y-44253832D01*
X130510682Y-44247123D01*
X130555151Y-44241964D01*
X130560000Y-44241000D01*
X131060000Y-44241000D01*
X131064850Y-44241964D01*
G37*
G36*
X108529403Y-44542418D02*
G01*
X108578066Y-44574934D01*
X108610582Y-44623597D01*
X108622000Y-44681000D01*
X108622000Y-44981000D01*
X108610582Y-45038403D01*
X108578066Y-45087066D01*
X108529403Y-45119582D01*
X108472000Y-45131000D01*
X106972000Y-45131000D01*
X106914597Y-45119582D01*
X106865934Y-45087066D01*
X106833418Y-45038403D01*
X106822000Y-44981000D01*
X106822000Y-44681000D01*
X106833418Y-44623597D01*
X106865934Y-44574934D01*
X106914597Y-44542418D01*
X106972000Y-44531000D01*
X108472000Y-44531000D01*
X108529403Y-44542418D01*
G37*
G36*
X118129403Y-44542418D02*
G01*
X118178066Y-44574934D01*
X118210582Y-44623597D01*
X118222000Y-44681000D01*
X118222000Y-44981000D01*
X118210582Y-45038403D01*
X118178066Y-45087066D01*
X118129403Y-45119582D01*
X118072000Y-45131000D01*
X116572000Y-45131000D01*
X116514597Y-45119582D01*
X116465934Y-45087066D01*
X116433418Y-45038403D01*
X116422000Y-44981000D01*
X116422000Y-44681000D01*
X116433418Y-44623597D01*
X116465934Y-44574934D01*
X116514597Y-44542418D01*
X116572000Y-44531000D01*
X118072000Y-44531000D01*
X118129403Y-44542418D01*
G37*
G36*
X64300850Y-42515964D02*
G01*
X64351040Y-42521787D01*
X64368189Y-42529359D01*
X64391671Y-42534030D01*
X64416810Y-42550827D01*
X64436696Y-42559608D01*
X64450277Y-42573189D01*
X64472777Y-42588223D01*
X64487810Y-42610722D01*
X64501391Y-42624303D01*
X64510170Y-42644186D01*
X64526970Y-42669329D01*
X64531641Y-42692812D01*
X64539212Y-42709959D01*
X64545033Y-42760139D01*
X64546000Y-42765000D01*
X64546000Y-44865000D01*
X64545032Y-44869863D01*
X64539212Y-44920040D01*
X64531641Y-44937185D01*
X64526970Y-44960671D01*
X64510169Y-44985815D01*
X64501391Y-45005696D01*
X64487812Y-45019274D01*
X64472777Y-45041777D01*
X64450274Y-45056812D01*
X64436696Y-45070391D01*
X64416815Y-45079169D01*
X64391671Y-45095970D01*
X64368185Y-45100641D01*
X64351040Y-45108212D01*
X64300861Y-45114032D01*
X64296000Y-45115000D01*
X62196000Y-45115000D01*
X62191138Y-45114032D01*
X62140959Y-45108212D01*
X62123812Y-45100641D01*
X62100329Y-45095970D01*
X62075186Y-45079170D01*
X62055303Y-45070391D01*
X62041722Y-45056810D01*
X62019223Y-45041777D01*
X62004189Y-45019277D01*
X61990608Y-45005696D01*
X61981827Y-44985810D01*
X61965030Y-44960671D01*
X61960359Y-44937189D01*
X61952787Y-44920040D01*
X61946964Y-44869849D01*
X61946000Y-44865000D01*
X61946000Y-42765000D01*
X61946964Y-42760150D01*
X61952787Y-42709959D01*
X61960359Y-42692808D01*
X61965030Y-42669329D01*
X61981826Y-42644191D01*
X61990608Y-42624303D01*
X62004191Y-42610719D01*
X62019223Y-42588223D01*
X62041719Y-42573191D01*
X62055303Y-42559608D01*
X62075191Y-42550826D01*
X62100329Y-42534030D01*
X62123808Y-42529359D01*
X62140959Y-42521787D01*
X62191151Y-42515964D01*
X62196000Y-42515000D01*
X64296000Y-42515000D01*
X64300850Y-42515964D01*
G37*
G36*
X105381850Y-43079964D02*
G01*
X105432040Y-43085787D01*
X105449189Y-43093359D01*
X105472671Y-43098030D01*
X105497810Y-43114827D01*
X105517696Y-43123608D01*
X105531277Y-43137189D01*
X105553777Y-43152223D01*
X105568810Y-43174722D01*
X105582391Y-43188303D01*
X105591170Y-43208186D01*
X105607970Y-43233329D01*
X105612641Y-43256812D01*
X105620212Y-43273959D01*
X105626033Y-43324139D01*
X105627000Y-43329000D01*
X105627000Y-44004000D01*
X105626032Y-44008863D01*
X105620212Y-44059040D01*
X105612641Y-44076185D01*
X105607970Y-44099671D01*
X105591169Y-44124815D01*
X105582391Y-44144696D01*
X105568812Y-44158274D01*
X105553777Y-44180777D01*
X105531274Y-44195812D01*
X105517696Y-44209391D01*
X105497815Y-44218169D01*
X105472671Y-44234970D01*
X105449185Y-44239641D01*
X105432040Y-44247212D01*
X105381861Y-44253032D01*
X105377000Y-44254000D01*
X104427000Y-44254000D01*
X104422138Y-44253032D01*
X104371959Y-44247212D01*
X104354812Y-44239641D01*
X104331329Y-44234970D01*
X104306186Y-44218170D01*
X104286303Y-44209391D01*
X104272722Y-44195810D01*
X104250223Y-44180777D01*
X104235189Y-44158277D01*
X104221608Y-44144696D01*
X104212827Y-44124810D01*
X104196030Y-44099671D01*
X104191359Y-44076189D01*
X104183787Y-44059040D01*
X104177964Y-44008849D01*
X104177000Y-44004000D01*
X104177000Y-43329000D01*
X104177964Y-43324150D01*
X104183787Y-43273959D01*
X104191359Y-43256808D01*
X104196030Y-43233329D01*
X104212826Y-43208191D01*
X104221608Y-43188303D01*
X104235191Y-43174719D01*
X104250223Y-43152223D01*
X104272719Y-43137191D01*
X104286303Y-43123608D01*
X104306191Y-43114826D01*
X104331329Y-43098030D01*
X104354808Y-43093359D01*
X104371959Y-43085787D01*
X104422151Y-43079964D01*
X104427000Y-43079000D01*
X105377000Y-43079000D01*
X105381850Y-43079964D01*
G37*
G36*
X108529403Y-43272418D02*
G01*
X108578066Y-43304934D01*
X108610582Y-43353597D01*
X108622000Y-43411000D01*
X108622000Y-43711000D01*
X108610582Y-43768403D01*
X108578066Y-43817066D01*
X108529403Y-43849582D01*
X108472000Y-43861000D01*
X106972000Y-43861000D01*
X106914597Y-43849582D01*
X106865934Y-43817066D01*
X106833418Y-43768403D01*
X106822000Y-43711000D01*
X106822000Y-43411000D01*
X106833418Y-43353597D01*
X106865934Y-43304934D01*
X106914597Y-43272418D01*
X106972000Y-43261000D01*
X108472000Y-43261000D01*
X108529403Y-43272418D01*
G37*
G36*
X118129403Y-43272418D02*
G01*
X118178066Y-43304934D01*
X118210582Y-43353597D01*
X118222000Y-43411000D01*
X118222000Y-43711000D01*
X118210582Y-43768403D01*
X118178066Y-43817066D01*
X118129403Y-43849582D01*
X118072000Y-43861000D01*
X116572000Y-43861000D01*
X116514597Y-43849582D01*
X116465934Y-43817066D01*
X116433418Y-43768403D01*
X116422000Y-43711000D01*
X116422000Y-43411000D01*
X116433418Y-43353597D01*
X116465934Y-43304934D01*
X116514597Y-43272418D01*
X116572000Y-43261000D01*
X118072000Y-43261000D01*
X118129403Y-43272418D01*
G37*
G36*
X122644850Y-42451964D02*
G01*
X122689317Y-42457123D01*
X122704510Y-42463831D01*
X122726104Y-42468127D01*
X122749222Y-42483574D01*
X122766567Y-42491233D01*
X122778412Y-42503078D01*
X122799099Y-42516901D01*
X122812921Y-42537587D01*
X122824766Y-42549432D01*
X122832423Y-42566774D01*
X122847873Y-42589896D01*
X122852168Y-42611491D01*
X122858876Y-42626682D01*
X122864033Y-42671139D01*
X122865000Y-42676000D01*
X122865000Y-43176000D01*
X122864032Y-43180862D01*
X122858876Y-43225317D01*
X122852168Y-43240506D01*
X122847873Y-43262104D01*
X122832422Y-43285227D01*
X122824766Y-43302567D01*
X122812923Y-43314409D01*
X122799099Y-43335099D01*
X122778409Y-43348923D01*
X122766567Y-43360766D01*
X122749227Y-43368422D01*
X122726104Y-43383873D01*
X122704506Y-43388168D01*
X122689317Y-43394876D01*
X122644861Y-43400032D01*
X122640000Y-43401000D01*
X122190000Y-43401000D01*
X122185138Y-43400033D01*
X122140682Y-43394876D01*
X122125491Y-43388168D01*
X122103896Y-43383873D01*
X122080774Y-43368423D01*
X122063432Y-43360766D01*
X122051587Y-43348921D01*
X122030901Y-43335099D01*
X122017078Y-43314412D01*
X122005233Y-43302567D01*
X121997574Y-43285222D01*
X121982127Y-43262104D01*
X121977831Y-43240510D01*
X121971123Y-43225317D01*
X121965964Y-43180849D01*
X121965000Y-43176000D01*
X121965000Y-42676000D01*
X121965964Y-42671150D01*
X121971123Y-42626682D01*
X121977832Y-42611487D01*
X121982127Y-42589896D01*
X121997573Y-42566779D01*
X122005233Y-42549432D01*
X122017080Y-42537584D01*
X122030901Y-42516901D01*
X122051584Y-42503080D01*
X122063432Y-42491233D01*
X122080779Y-42483573D01*
X122103896Y-42468127D01*
X122125487Y-42463832D01*
X122140682Y-42457123D01*
X122185151Y-42451964D01*
X122190000Y-42451000D01*
X122640000Y-42451000D01*
X122644850Y-42451964D01*
G37*
G36*
X124194850Y-42451964D02*
G01*
X124239317Y-42457123D01*
X124254510Y-42463831D01*
X124276104Y-42468127D01*
X124299222Y-42483574D01*
X124316567Y-42491233D01*
X124328412Y-42503078D01*
X124349099Y-42516901D01*
X124362921Y-42537587D01*
X124374766Y-42549432D01*
X124382423Y-42566774D01*
X124397873Y-42589896D01*
X124402168Y-42611491D01*
X124408876Y-42626682D01*
X124414033Y-42671139D01*
X124415000Y-42676000D01*
X124415000Y-43176000D01*
X124414032Y-43180862D01*
X124408876Y-43225317D01*
X124402168Y-43240506D01*
X124397873Y-43262104D01*
X124382422Y-43285227D01*
X124374766Y-43302567D01*
X124362923Y-43314409D01*
X124349099Y-43335099D01*
X124328409Y-43348923D01*
X124316567Y-43360766D01*
X124299227Y-43368422D01*
X124276104Y-43383873D01*
X124254506Y-43388168D01*
X124239317Y-43394876D01*
X124194861Y-43400032D01*
X124190000Y-43401000D01*
X123740000Y-43401000D01*
X123735138Y-43400033D01*
X123690682Y-43394876D01*
X123675491Y-43388168D01*
X123653896Y-43383873D01*
X123630774Y-43368423D01*
X123613432Y-43360766D01*
X123601587Y-43348921D01*
X123580901Y-43335099D01*
X123567078Y-43314412D01*
X123555233Y-43302567D01*
X123547574Y-43285222D01*
X123532127Y-43262104D01*
X123527831Y-43240510D01*
X123521123Y-43225317D01*
X123515964Y-43180849D01*
X123515000Y-43176000D01*
X123515000Y-42676000D01*
X123515964Y-42671150D01*
X123521123Y-42626682D01*
X123527832Y-42611487D01*
X123532127Y-42589896D01*
X123547573Y-42566779D01*
X123555233Y-42549432D01*
X123567080Y-42537584D01*
X123580901Y-42516901D01*
X123601584Y-42503080D01*
X123613432Y-42491233D01*
X123630779Y-42483573D01*
X123653896Y-42468127D01*
X123675487Y-42463832D01*
X123690682Y-42457123D01*
X123735151Y-42451964D01*
X123740000Y-42451000D01*
X124190000Y-42451000D01*
X124194850Y-42451964D01*
G37*
M02*
