%TF.GenerationSoftware,KiCad,Pcbnew,9.0.0-9.0.0-2~ubuntu24.10.1*%
%TF.CreationDate,2025-03-15T08:42:32-04:00*%
%TF.ProjectId,fat8,66617438-2e6b-4696-9361-645f70636258,rev?*%
%TF.SameCoordinates,Original*%
%TF.FileFunction,Paste,Top*%
%TF.FilePolarity,Positive*%
%FSLAX46Y46*%
G04 Gerber Fmt 4.6, Leading zero omitted, Abs format (unit mm)*
G04 Created by KiCad (PCBNEW 9.0.0-9.0.0-2~ubuntu24.10.1) date 2025-03-15 08:42:32*
%MOMM*%
%LPD*%
G01*
G04 APERTURE LIST*
G04 Aperture macros list*
%AMRoundRect*
0 Rectangle with rounded corners*
0 $1 Rounding radius*
0 $2 $3 $4 $5 $6 $7 $8 $9 X,Y pos of 4 corners*
0 Add a 4 corners polygon primitive as box body*
4,1,4,$2,$3,$4,$5,$6,$7,$8,$9,$2,$3,0*
0 Add four circle primitives for the rounded corners*
1,1,$1+$1,$2,$3*
1,1,$1+$1,$4,$5*
1,1,$1+$1,$6,$7*
1,1,$1+$1,$8,$9*
0 Add four rect primitives between the rounded corners*
20,1,$1+$1,$2,$3,$4,$5,0*
20,1,$1+$1,$4,$5,$6,$7,0*
20,1,$1+$1,$6,$7,$8,$9,0*
20,1,$1+$1,$8,$9,$2,$3,0*%
G04 Aperture macros list end*
%ADD10RoundRect,0.225000X-0.250000X0.225000X-0.250000X-0.225000X0.250000X-0.225000X0.250000X0.225000X0*%
%ADD11RoundRect,0.225000X0.250000X-0.225000X0.250000X0.225000X-0.250000X0.225000X-0.250000X-0.225000X0*%
%ADD12RoundRect,0.200000X-0.275000X0.200000X-0.275000X-0.200000X0.275000X-0.200000X0.275000X0.200000X0*%
%ADD13RoundRect,0.250000X-0.475000X0.337500X-0.475000X-0.337500X0.475000X-0.337500X0.475000X0.337500X0*%
%ADD14RoundRect,0.225000X0.225000X0.250000X-0.225000X0.250000X-0.225000X-0.250000X0.225000X-0.250000X0*%
%ADD15RoundRect,0.075000X-0.662500X-0.075000X0.662500X-0.075000X0.662500X0.075000X-0.662500X0.075000X0*%
%ADD16RoundRect,0.075000X-0.075000X-0.662500X0.075000X-0.662500X0.075000X0.662500X-0.075000X0.662500X0*%
%ADD17RoundRect,0.200000X0.275000X-0.200000X0.275000X0.200000X-0.275000X0.200000X-0.275000X-0.200000X0*%
%ADD18R,1.380000X0.450000*%
%ADD19R,1.905000X2.286000*%
%ADD20R,1.550000X1.425000*%
%ADD21R,1.900000X1.800000*%
%ADD22R,1.900000X1.000000*%
%ADD23R,2.400000X0.740000*%
%ADD24RoundRect,0.150000X-0.750000X-0.150000X0.750000X-0.150000X0.750000X0.150000X-0.750000X0.150000X0*%
%ADD25RoundRect,0.150000X-0.150000X0.875000X-0.150000X-0.875000X0.150000X-0.875000X0.150000X0.875000X0*%
%ADD26RoundRect,0.200000X0.200000X0.275000X-0.200000X0.275000X-0.200000X-0.275000X0.200000X-0.275000X0*%
%ADD27RoundRect,0.150000X-0.150000X0.825000X-0.150000X-0.825000X0.150000X-0.825000X0.150000X0.825000X0*%
%ADD28RoundRect,0.250000X0.337500X0.475000X-0.337500X0.475000X-0.337500X-0.475000X0.337500X-0.475000X0*%
G04 APERTURE END LIST*
D10*
%TO.C,C1*%
X122174000Y-53581000D03*
X122174000Y-55131000D03*
%TD*%
D11*
%TO.C,C6*%
X76454000Y-73165000D03*
X76454000Y-71615000D03*
%TD*%
D12*
%TO.C,R2*%
X122174000Y-57341000D03*
X122174000Y-58991000D03*
%TD*%
D13*
%TO.C,C8*%
X104902000Y-43666500D03*
X104902000Y-45741500D03*
%TD*%
D14*
%TO.C,C5*%
X82677000Y-80899000D03*
X81127000Y-80899000D03*
%TD*%
D15*
%TO.C,U4*%
X79967500Y-65120000D03*
X79967500Y-65620000D03*
X79967500Y-66120000D03*
X79967500Y-66620000D03*
X79967500Y-67120000D03*
X79967500Y-67620000D03*
X79967500Y-68120000D03*
X79967500Y-68620000D03*
X79967500Y-69120000D03*
X79967500Y-69620000D03*
X79967500Y-70120000D03*
X79967500Y-70620000D03*
X79967500Y-71120000D03*
X79967500Y-71620000D03*
X79967500Y-72120000D03*
X79967500Y-72620000D03*
X79967500Y-73120000D03*
X79967500Y-73620000D03*
X79967500Y-74120000D03*
X79967500Y-74620000D03*
X79967500Y-75120000D03*
X79967500Y-75620000D03*
X79967500Y-76120000D03*
X79967500Y-76620000D03*
X79967500Y-77120000D03*
D16*
X81630000Y-78782500D03*
X82130000Y-78782500D03*
X82630000Y-78782500D03*
X83130000Y-78782500D03*
X83630000Y-78782500D03*
X84130000Y-78782500D03*
X84630000Y-78782500D03*
X85130000Y-78782500D03*
X85630000Y-78782500D03*
X86130000Y-78782500D03*
X86630000Y-78782500D03*
X87130000Y-78782500D03*
X87630000Y-78782500D03*
X88130000Y-78782500D03*
X88630000Y-78782500D03*
X89130000Y-78782500D03*
X89630000Y-78782500D03*
X90130000Y-78782500D03*
X90630000Y-78782500D03*
X91130000Y-78782500D03*
X91630000Y-78782500D03*
X92130000Y-78782500D03*
X92630000Y-78782500D03*
X93130000Y-78782500D03*
X93630000Y-78782500D03*
D15*
X95292500Y-77120000D03*
X95292500Y-76620000D03*
X95292500Y-76120000D03*
X95292500Y-75620000D03*
X95292500Y-75120000D03*
X95292500Y-74620000D03*
X95292500Y-74120000D03*
X95292500Y-73620000D03*
X95292500Y-73120000D03*
X95292500Y-72620000D03*
X95292500Y-72120000D03*
X95292500Y-71620000D03*
X95292500Y-71120000D03*
X95292500Y-70620000D03*
X95292500Y-70120000D03*
X95292500Y-69620000D03*
X95292500Y-69120000D03*
X95292500Y-68620000D03*
X95292500Y-68120000D03*
X95292500Y-67620000D03*
X95292500Y-67120000D03*
X95292500Y-66620000D03*
X95292500Y-66120000D03*
X95292500Y-65620000D03*
X95292500Y-65120000D03*
D16*
X93630000Y-63457500D03*
X93130000Y-63457500D03*
X92630000Y-63457500D03*
X92130000Y-63457500D03*
X91630000Y-63457500D03*
X91130000Y-63457500D03*
X90630000Y-63457500D03*
X90130000Y-63457500D03*
X89630000Y-63457500D03*
X89130000Y-63457500D03*
X88630000Y-63457500D03*
X88130000Y-63457500D03*
X87630000Y-63457500D03*
X87130000Y-63457500D03*
X86630000Y-63457500D03*
X86130000Y-63457500D03*
X85630000Y-63457500D03*
X85130000Y-63457500D03*
X84630000Y-63457500D03*
X84130000Y-63457500D03*
X83630000Y-63457500D03*
X83130000Y-63457500D03*
X82630000Y-63457500D03*
X82130000Y-63457500D03*
X81630000Y-63457500D03*
%TD*%
D17*
%TO.C,R1*%
X130810000Y-49847000D03*
X130810000Y-48197000D03*
%TD*%
D18*
%TO.C,J2*%
X128404000Y-58958000D03*
X128404000Y-58308000D03*
X128404000Y-57658000D03*
X128404000Y-57008000D03*
X128404000Y-56358000D03*
D19*
X131064000Y-61033000D03*
D20*
X128489000Y-60145500D03*
D21*
X131064000Y-58808000D03*
D22*
X131064000Y-56108000D03*
D20*
X128489000Y-55170500D03*
D19*
X131064000Y-54283000D03*
%TD*%
D10*
%TO.C,D1*%
X130810000Y-44691000D03*
X130810000Y-46241000D03*
%TD*%
D23*
%TO.C,J3*%
X65614000Y-47117000D03*
X65614000Y-48387000D03*
X65614000Y-49657000D03*
X65614000Y-50927000D03*
X65614000Y-52197000D03*
X65614000Y-53467000D03*
X65614000Y-54737000D03*
X65614000Y-56007000D03*
X65614000Y-57277000D03*
X65614000Y-58547000D03*
X69514000Y-47117000D03*
X69514000Y-48387000D03*
X69514000Y-49657000D03*
X69514000Y-50927000D03*
X69514000Y-52197000D03*
X69514000Y-53467000D03*
X69514000Y-54737000D03*
X69514000Y-56007000D03*
X69514000Y-57277000D03*
X69514000Y-58547000D03*
%TD*%
D10*
%TO.C,C4*%
X98806000Y-62217000D03*
X98806000Y-63767000D03*
%TD*%
D12*
%TO.C,R4*%
X124333000Y-73280000D03*
X124333000Y-74930000D03*
%TD*%
D24*
%TO.C,DC1*%
X107722000Y-43561000D03*
X107722000Y-44831000D03*
X107722000Y-46101000D03*
X107722000Y-57531000D03*
X107722000Y-58801000D03*
X107722000Y-60071000D03*
X117322000Y-60071000D03*
X117322000Y-58801000D03*
X117322000Y-57531000D03*
X117322000Y-46101000D03*
X117322000Y-44831000D03*
X117322000Y-43561000D03*
%TD*%
D25*
%TO.C,U2*%
X122047000Y-67740000D03*
X120777000Y-67740000D03*
X119507000Y-67740000D03*
X118237000Y-67740000D03*
X116967000Y-67740000D03*
X115697000Y-67740000D03*
X114427000Y-67740000D03*
X113157000Y-67740000D03*
X111887000Y-67740000D03*
X110617000Y-67740000D03*
X109347000Y-67740000D03*
X108077000Y-67740000D03*
X106807000Y-67740000D03*
X105537000Y-67740000D03*
X105537000Y-77040000D03*
X106807000Y-77040000D03*
X108077000Y-77040000D03*
X109347000Y-77040000D03*
X110617000Y-77040000D03*
X111887000Y-77040000D03*
X113157000Y-77040000D03*
X114427000Y-77040000D03*
X115697000Y-77040000D03*
X116967000Y-77040000D03*
X118237000Y-77040000D03*
X119507000Y-77040000D03*
X120777000Y-77040000D03*
X122047000Y-77040000D03*
%TD*%
D14*
%TO.C,C3*%
X123965000Y-42926000D03*
X122415000Y-42926000D03*
%TD*%
D26*
%TO.C,R3*%
X82613000Y-53086000D03*
X80963000Y-53086000D03*
%TD*%
D27*
%TO.C,U5*%
X128270000Y-45277000D03*
X127000000Y-45277000D03*
X125730000Y-45277000D03*
X124460000Y-45277000D03*
X123190000Y-45277000D03*
X121920000Y-45277000D03*
X120650000Y-45277000D03*
X120650000Y-50227000D03*
X121920000Y-50227000D03*
X123190000Y-50227000D03*
X124460000Y-50227000D03*
X125730000Y-50227000D03*
X127000000Y-50227000D03*
X128270000Y-50227000D03*
%TD*%
D28*
%TO.C,C7*%
X110511500Y-62738000D03*
X108436500Y-62738000D03*
%TD*%
D23*
%TO.C,J1*%
X65360000Y-69850000D03*
X69260000Y-69850000D03*
X65360000Y-71120000D03*
X69260000Y-71120000D03*
X65360000Y-72390000D03*
X69260000Y-72390000D03*
X65360000Y-73660000D03*
X69260000Y-73660000D03*
X65360000Y-74930000D03*
X69260000Y-74930000D03*
%TD*%
D14*
%TO.C,C2*%
X115329000Y-65024000D03*
X113779000Y-65024000D03*
%TD*%
M02*
