M48
; DRILL file {KiCad 9.0.0-9.0.0-2~ubuntu24.10.1} date 2025-03-15T08:42:32-0400
; FORMAT={-:-/ absolute / metric / decimal}
; #@! TF.CreationDate,2025-03-15T08:42:32-04:00
; #@! TF.GenerationSoftware,Kicad,Pcbnew,9.0.0-9.0.0-2~ubuntu24.10.1
; #@! TF.FileFunction,Plated,1,2,PTH
FMAT,2
METRIC
; #@! TA.AperFunction,Plated,PTH,ViaDrill
T1C0.300
; #@! TA.AperFunction,Plated,PTH,ComponentDrill
T2C0.800
%
G90
G05
T1
X60.96Y-51.943
X60.96Y-68.707
X60.96Y-80.264
X65.783Y-68.853
X67.234Y-69.847
X67.276Y-48.196
X67.277Y-57.044
X67.298Y-53.213
X67.3Y-55.836
X67.363Y-49.38
X67.564Y-47.117
X67.566Y-58.547
X67.572Y-71.641
X67.839Y-55.294
X67.865Y-54.034
X67.883Y-50.265
X68.351Y-68.377
X68.356Y-66.695
X70.231Y-63.627
X70.921Y-73.429
X71.169Y-52.696
X71.174Y-51.022
X71.18Y-54.856
X71.191Y-50.268
X71.247Y-43.688
X71.543Y-72.091
X71.881Y-73.291
X72.469Y-61.255
X72.669Y-74.715
X75.239Y-71.425
X75.584Y-62.621
X77.027Y-62.877
X77.089Y-48.006
X78.354Y-70.638
X78.432Y-68.373
X78.495Y-71.425
X78.644Y-53.517
X78.753Y-69.12
X78.76Y-67.615
X78.768Y-66.62
X78.774Y-72.761
X79.241Y-52.612
X79.756Y-48.006
X81.01Y-63.186
X81.167Y-73.12
X81.169Y-67.772
X81.681Y-69.253
X82.155Y-60.813
X82.192Y-72.644
X82.63Y-64.654
X83.312Y-43.815
X83.63Y-64.654
X84.673Y-62.2
X85.13Y-64.654
X85.436Y-66.503
X85.63Y-62.256
X85.852Y-74.168
X85.975Y-55.425
X87.511Y-60.444
X87.757Y-65.659
X88.418Y-61.972
X89.13Y-61.437
X89.417Y-59.357
X89.613Y-51.864
X89.916Y-67.183
X89.916Y-70.993
X90.326Y-60.981
X90.432Y-54.467
X90.663Y-69.62
X90.663Y-76.912
X91.388Y-62.238
X92.075Y-74.168
X93.418Y-52.396
X93.705Y-66.483
X94.051Y-70.374
X94.247Y-63.025
X94.869Y-43.688
X96.139Y-83.185
X96.489Y-66.579
X96.492Y-71.62
X96.918Y-64.888
X98.933Y-65.659
X100.907Y-69.504
X101.94Y-66.579
X102.064Y-61.401
X103.004Y-61.973
X103.307Y-68.949
X104.672Y-78.105
X104.767Y-76.27
X106.186Y-66.471
X106.354Y-59.96
X106.393Y-75.551
X107.442Y-66.476
X107.686Y-75.538
X109.347Y-75.56
X109.558Y-59.073
X110.391Y-57.571
X110.998Y-47.752
X111.597Y-62.908
X112.776Y-49.403
X115.066Y-63.286
X117.98Y-61.835
X119.883Y-46.044
X119.885Y-50.992
X120.777Y-72.39
X122.894Y-47.024
X123.257Y-75.83
X126.365Y-64.643
X126.521Y-47.178
X129.413Y-69.088
X129.413Y-74.422
T2
X84.582Y-50.038
X84.582Y-57.658
X87.122Y-50.038
X87.122Y-57.658
X89.662Y-50.038
X89.662Y-57.658
X92.202Y-50.038
X92.202Y-57.658
X94.742Y-50.038
X94.742Y-57.658
X97.282Y-50.038
X97.282Y-57.658
X99.822Y-50.038
X99.822Y-57.658
X102.362Y-50.038
X102.362Y-57.658
X104.902Y-50.038
X104.902Y-57.658
M30
